<?xml version="1.0" encoding="utf-8"?>
<!-- Generator: Adobe Illustrator 16.0.0, SVG Export Plug-In . SVG Version: 6.00 Build 0)  -->
<!DOCTYPE svg PUBLIC "-//W3C//DTD SVG 1.1//EN" "http://www.w3.org/Graphics/SVG/1.1/DTD/svg11.dtd">
<svg version="1.1" id="Layer_1" xmlns="http://www.w3.org/2000/svg" xmlns:xlink="http://www.w3.org/1999/xlink" x="0px" y="0px"
	 width="72px" height="72px" viewBox="0 0 72 72" enable-background="new 0 0 72 72" xml:space="preserve">
<path fill="#56FFBE" d="M64.343,34.871c-6.509-9.353-17.174-14.937-28.531-14.937S13.788,25.518,7.28,34.871l-0.65,0.935l0.65,0.934
	c6.508,9.355,17.174,14.939,28.531,14.939s22.022-5.584,28.531-14.939l0.652-0.934L64.343,34.871z M35.812,48.407
	c-9.903,0-19.227-4.689-25.169-12.602c2.687-3.578,6.071-6.489,9.884-8.613c-0.001,0.059-0.014,0.114-0.014,0.173
	c0,8.449,6.85,15.297,15.299,15.297c8.446,0,15.298-6.848,15.298-15.297c0-0.058-0.007-0.114-0.007-0.17
	c3.81,2.124,7.191,5.033,9.879,8.61C55.037,43.718,45.712,48.407,35.812,48.407z"/>
</svg>
