<?xml version="1.0" encoding="utf-8"?>
<!-- Generator: Adobe Illustrator 18.1.1, SVG Export Plug-In . SVG Version: 6.00 Build 0)  -->
<svg version="1.1" id="Layer_1" xmlns="http://www.w3.org/2000/svg" xmlns:xlink="http://www.w3.org/1999/xlink" x="0px" y="0px"
	 viewBox="-97.1 51.6 799.9 694.9" enable-background="new -97.1 51.6 799.9 694.9" xml:space="preserve">
<g id="Layer_1_1_" display="none">
	<g display="inline">
		<path fill="#80F5F2" d="M-78.6,767.2L-78.6,767.2c1.7-2.5,2.6-5.1,2.6-7.6c0-4.2-2.6-8.5-5.9-11l-39.9-38.2
			c-5.1-5.1-13.6-5.1-18.7,0c-5.1,5.1-5.1,13.6,0,18.7l31.4,30.6l-32.3,33.1c-5.1,5.1-5.1,13.6,0,18.7c2.6,2.5,5.9,3.4,9.4,3.4
			c3.4,0,6.8-1.7,9.4-4.2l40.8-42.5C-79.4,768.9-78.6,768-78.6,767.2L-78.6,767.2z"/>
		<path fill="#80F5F2" d="M-18.3,791h-47.6c-7.6,0-13.6,6-13.6,13.6s5.9,13.6,13.6,13.6h47.6c7.6,0,13.6-6,13.6-13.6
			S-11.4,791-18.3,791z"/>
		<path fill="#80F5F2" d="M230.8,655.9c11.1-41.6,21.2-83.3,32.3-124.1c4.2-17-5.1-33.1-21.2-37.4c-17-4.2-34-9.4-51-13.6
			c-7.6-1.7-15.3-0.9-22.9,3.4s-11.9,11-14.4,19.5c-12.8,51-26.4,101.1-39.1,152.1h-268.6c-28.9,0-51.9,23-51.9,51.9v271.1
			c0,28.9,23,51.9,51.9,51.9h379.9c28.9,0,51.9-23,51.9-51.9V707.7C277.6,680.5,257.1,658.4,230.8,655.9z M170.4,542
			c2.6-11,5.9-21.2,8.5-32.3c0.9-4.2,2.6-5.1,6.8-4.2c16.1,4.2,32.3,8.5,48.4,12.8c3.4,0.9,5.1,2.5,4.2,6.8
			c-3.4,11.9-5.9,24.6-9.4,36.5c0,0.9,0,0.9-0.9,1.7c-19.6-5.1-39.1-10.2-59.5-15.3C169.6,546.2,169.6,544.5,170.4,542z
			 M164.5,565.8c19.6,5.1,39.1,10.2,58.6,15.3c-0.9,2.5-1.7,6-2.6,9.4c-19.6-5.1-39.1-10.2-58.6-15.3
			C162.8,571.7,163.6,569.1,164.5,565.8z M157.7,593c19.6,5.1,39.1,10.2,58.6,15.3c-0.9,2.5-1.7,6-2.6,9.4
			c-19.6-5.1-39.1-10.2-58.6-15.3C156,598.9,156.9,595.5,157.7,593z M208.7,634.6c-1.7,6.8-3.4,13.6-5.1,21.2l0,0
			c-2.6,8.5-4.2,17.9-6.8,27.2l0,0c-17,65.5-34,131.8-51,197.2c-19.6-5.1-39.1-10.2-57.8-15.3c15.3-60.4,31.4-121.5,47.6-182.8l0,0
			c0.9-4.2,2.6-9.4,3.4-13.6c4.2-16.1,8.5-33.1,12.8-49.3C170.4,624.4,190,629.5,208.7,634.6z M140.7,897.2
			c-2.6,6.8-6.8,12.8-11.1,17.9c-5.1,5.1-10.2,10.2-15.3,15.3c-0.9,0.9-1.7,0.9-3.4,0.9c-6.8-1.7-12.8-3.4-19.6-5.1
			c-0.9,0-1.7-0.9-1.7-1.7c-1.7-6.8-4.2-13.6-5.9-20.4c-1.7-6.8-1.7-14.5-1.7-21.2L140.7,897.2z M250.4,978.9
			c0,13.6-11.1,25.5-25.5,25.5h-379.9c-13.6,0-25.5-11-25.5-25.5V707.7c0-13.6,11-25.5,25.5-25.5h261.8c-1.7,6-3.4,12.8-5.1,18.7
			C87.2,757,72.7,812.3,58.3,868.4c-3.4,14.5-3.4,28.9,0.9,43.4c3.4,11,6.8,23,10.2,34c1.7,6,3.4,11.9,5.1,17
			c3.4,9.4,11.9,14.5,20.4,14.5c6.8,0,11.9-3.4,17-7.6c11.9-11.9,23.8-23,34.9-34.9c10.2-10.2,17.9-23,21.2-37.4
			c10.2-38.2,19.6-76.5,29.8-114.8c8.5-33.1,17-67.1,26.4-100.3h0.9c13.6,0,25.5,11,25.5,25.5L250.4,978.9L250.4,978.9z"/>
	</g>
</g>
<path fill="#FFFFFF" d="M702.9,380.6c0-2.2-13.4-53.7-64.9-90.6c-92.9-66-98.5-90.6-101.8-105.2c-4.5-19-17.9-40.3-22.4-48.1
	c-1.1-6.7-3.4-23.5-4.5-49.2V83l-2.2-3.4c-21.3-29.1-50.3-35.8-77.2-19c-43.6,26.9-66,107.4-31.3,175.7
	c21.3,42.5,25.7,64.9,25.7,76.1c-72.7,0-456.5,1.1-459.8,1.1c-34.7,0-61.5,28-61.5,61.5c0,34.7,28,61.5,61.5,61.5h17.9
	c39.2,0,137.6,0,209.2,0c-4.5,9-6.7,20.1-5.6,30.2c2.2,21.3,16.8,39.2,38,49.2c-14.5,14.5-22.4,33.6-19,53.7
	c4.5,25.7,26.9,45.9,54.8,50.3c-14.5,15.7-21.3,35.8-15.7,55.9c6.7,28,33.6,47,63.8,47c5.6,0,12.3-1.1,17.9-2.2l7.8-2.2
	c10.1,4.5,66,28,142.1,28c60.4,0,133.1-15.7,203.6-68.2c5.6-4.5,7.8-13.4,2.2-19c-4.5-5.6-13.4-7.8-19-2.2
	c-107.4,80.6-221.5,64.9-279.7,49.2l60.4-14.5c36.9-9,60.4-43.6,52.6-77.2c-5.6-22.4-23.5-38-45.9-43.6c9-13.4,13.4-29.1,10.1-44.8
	c-2.2-13.4-10.1-25.7-20.1-34.7c2.2-2.2,4.5-3.4,6.7-5.6c13.4-13.4,20.1-30.2,17.9-48.1c-3.4-34.7-39.2-59.3-80.6-55.9l-132,13.4
	c-13.4,1.1-26.9,5.6-36.9,13.4c-72.7,0-189.1,0-233.8,0l-17.9,0c-19,0-34.7-15.7-34.7-34.7c0-19,15.7-34.7,34.7-34.7
	c3.4,0,472.1-1.1,472.1-1.1h7.8l4.5-6.7c4.5-6.7,13.4-32.4-24.6-109.6c-29.1-58.2-6.7-121.9,21.3-139.8c13.4-7.8,25.7-5.6,38,9
	c2.2,32.4,4.5,50.3,4.5,51.5v3.4l2.2,2.2c0,0,15.7,22.4,20.1,40.3c5.6,25.7,19,53.7,113,120.8c42.5,30.2,53.7,73.8,54.8,75
	c2.2,7.8,9,12.3,16.8,10.1C699.5,395.2,704,388.5,702.9,380.6z M467.9,620.1c4.5,19-10.1,39.2-32.4,44.8L318,693.9
	c-22.4,5.6-44.8-5.6-49.2-24.6c-4.5-19,10.1-39.2,32.4-44.8l117.5-29.1c3.4-1.1,7.8-1.1,11.2-1.1
	C448.9,594.3,464.6,604.4,467.9,620.1z M432.1,529.4c1.1,9-1.1,17.9-7.8,25.7c-6.7,7.8-16.8,13.4-28,15.7L276.6,591
	c-22.4,3.4-43.6-9-47-28c-3.4-19,12.3-38,34.7-42.5l10.1-2.2l120.8-12.3c5.6,0,10.1-1.1,15.7-3.4C422.1,509.3,431,518.3,432.1,529.4
	z M386.3,407.5c2.2,0,4.5,0,6.7,0c23.5,0,42.5,13.4,44.8,32.4c1.1,9-2.2,19-10.1,26.9c-7.8,9-20.1,13.4-33.6,15.7l-132,13.4
	c-26.9,2.2-49.2-12.3-51.5-31.3c-2.2-20.1,17.9-39.2,43.6-41.4L386.3,407.5z"/>
</svg>
