<?xml version="1.0" encoding="utf-8"?>
<!-- Generator: Adobe Illustrator 18.1.1, SVG Export Plug-In . SVG Version: 6.00 Build 0)  -->
<svg version="1.1" id="Layer_1" xmlns="http://www.w3.org/2000/svg" xmlns:xlink="http://www.w3.org/1999/xlink" x="0px" y="0px"
	 viewBox="0 0 612 792" enable-background="new 0 0 612 792" xml:space="preserve">
<g id="Layer_1_1_" display="none">
	<g display="inline">
		<path fill="#80F5F2" d="M-78.6,767.2L-78.6,767.2c1.7-2.5,2.6-5.1,2.6-7.6c0-4.2-2.6-8.5-5.9-11l-39.9-38.2
			c-5.1-5.1-13.6-5.1-18.7,0c-5.1,5.1-5.1,13.6,0,18.7l31.4,30.6l-32.3,33.1c-5.1,5.1-5.1,13.6,0,18.7c2.6,2.5,5.9,3.4,9.4,3.4
			c3.4,0,6.8-1.7,9.4-4.2l40.8-42.5C-79.4,768.9-78.6,768-78.6,767.2L-78.6,767.2z"/>
		<path fill="#80F5F2" d="M-18.2,791h-47.6c-7.6,0-13.6,6-13.6,13.6s5.9,13.6,13.6,13.6h47.6c7.6,0,13.6-6,13.6-13.6
			S-11.4,791-18.2,791z"/>
		<path fill="#80F5F2" d="M230.8,655.9c11.1-41.6,21.2-83.3,32.3-124.1c4.2-17-5.1-33.1-21.2-37.4c-17-4.2-34-9.4-51-13.6
			c-7.6-1.7-15.3-0.9-22.9,3.4c-7.6,4.2-11.9,11-14.4,19.5c-12.8,51-26.4,101.1-39.1,152.1h-268.6c-28.9,0-51.9,23-51.9,51.9v271.1
			c0,28.9,23,51.9,51.9,51.9h379.9c28.9,0,51.9-23,51.9-51.9V707.7C277.6,680.5,257.1,658.4,230.8,655.9z M170.4,542
			c2.6-11,5.9-21.2,8.5-32.3c0.9-4.2,2.6-5.1,6.8-4.2c16.1,4.2,32.3,8.5,48.4,12.8c3.4,0.9,5.1,2.5,4.2,6.8
			c-3.4,11.9-5.9,24.6-9.4,36.5c0,0.9,0,0.9-0.9,1.7c-19.6-5.1-39.1-10.2-59.5-15.3C169.6,546.2,169.6,544.5,170.4,542z
			 M164.5,565.8c19.6,5.1,39.1,10.2,58.6,15.3c-0.9,2.5-1.7,6-2.6,9.4c-19.6-5.1-39.1-10.2-58.6-15.3
			C162.8,571.7,163.6,569.1,164.5,565.8z M157.7,593c19.6,5.1,39.1,10.2,58.6,15.3c-0.9,2.5-1.7,6-2.6,9.4
			c-19.6-5.1-39.1-10.2-58.6-15.3C156,598.9,156.9,595.5,157.7,593z M208.7,634.6c-1.7,6.8-3.4,13.6-5.1,21.2l0,0
			c-2.6,8.5-4.2,17.9-6.8,27.2l0,0c-17,65.5-34,131.8-51,197.2c-19.6-5.1-39.1-10.2-57.8-15.3c15.3-60.4,31.4-121.5,47.6-182.8l0,0
			c0.9-4.2,2.6-9.4,3.4-13.6c4.2-16.1,8.5-33.1,12.8-49.3C170.4,624.4,190,629.5,208.7,634.6z M140.7,897.2
			c-2.6,6.8-6.8,12.8-11.1,17.9c-5.1,5.1-10.2,10.2-15.3,15.3c-0.9,0.9-1.7,0.9-3.4,0.9c-6.8-1.7-12.8-3.4-19.6-5.1
			c-0.9,0-1.7-0.9-1.7-1.7c-1.7-6.8-4.2-13.6-5.9-20.4c-1.7-6.8-1.7-14.5-1.7-21.2L140.7,897.2z M250.4,978.9
			c0,13.6-11.1,25.5-25.5,25.5H-155c-13.6,0-25.5-11-25.5-25.5V707.7c0-13.6,11-25.5,25.5-25.5h261.8c-1.7,6-3.4,12.8-5.1,18.7
			c-14.5,56.1-29,111.4-43.4,167.5c-3.4,14.5-3.4,28.9,0.9,43.4c3.4,11,6.8,23,10.2,34c1.7,6,3.4,11.9,5.1,17
			c3.4,9.4,11.9,14.5,20.4,14.5c6.8,0,11.9-3.4,17-7.6c11.9-11.9,23.8-23,34.9-34.9c10.2-10.2,17.9-23,21.2-37.4
			c10.2-38.2,19.6-76.5,29.8-114.8c8.5-33.1,17-67.1,26.4-100.3h0.9c13.6,0,25.5,11,25.5,25.5L250.4,978.9L250.4,978.9z"/>
	</g>
</g>
<path fill="#4CAF50" d="M524.3,421.8c-12.2-13.3-31-26.6-53.1-37.6l1.1-316.7c0-17.7-6.6-34.3-18.8-47.6C441.3,7.8,424.7,0,406.9,0
	l0,0c-36.5,0-66.4,29.9-66.4,66.4l-1.1,244.7L260.8,69.8c-5.5-16.6-17.7-31-33.2-38.8s-34.3-10-50.9-4.4
	c-34.3,11.1-54.3,48.7-42.1,84.1l64.2,197.1c-5.5-1.1-10-2.2-15.5-2.2c-6.6,0-13.3,1.1-18.8,3.3c-15.5,5.5-28.8,16.6-36.5,32.1
	c-5.5,11.1-7.8,22.1-6.6,34.3c-6.6-2.2-13.3-3.3-19.9-3.3s-13.3,1.1-19.9,3.3c-15.5,5.5-28.8,15.5-36.5,29.9
	c-7.8,14.4-10,31-4.4,45.4L85,585.7l0,0l0,0c2.2,5.5,48.7,132.9,160.5,201.5c2.2,1.1,4.4,2.2,7.8,2.2c4.4,0,8.9-2.2,12.2-6.6
	c4.4-6.6,2.2-15.5-4.4-18.8c-62-37.6-103-96.3-126.2-137.3c2.2,0,5.5,1.1,7.8,1.1c6.6,0,13.3-1.1,19.9-3.3
	c15.5-5.5,28.8-15.5,36.5-29.9c3.3-6.6,5.5-13.3,6.6-19.9c8.9,4.4,17.7,6.6,27.7,6.6c6.6,0,13.3-1.1,18.8-3.3
	c15.5-5.5,28.8-16.6,36.5-32.1c4.4-7.8,5.5-16.6,6.6-25.5c19.9,4.4,42.1,7.8,65.3,8.9c-28.8,68.6-4.4,116.3-3.3,118.5
	c3.3,6.6,12.2,10,19.9,6.6c6.6-3.3,10-12.2,6.6-19.9c-1.1-2.2-23.3-47.6,13.3-112.9l12.2-22.1h-25.5
	c-89.7,1.1-153.9-25.5-162.8-68.6c-1.1-7.8-3.3-21,4.4-26.6c6.6-5.5,22.1-3.3,33.2,3.3c28.8,16.6,53.1,8.9,94.1-3.3
	c6.6-2.2,13.3-4.4,19.9-5.5c47.6-14.4,107.4,16.6,131.8,44.3c22.1,24.4,55.4,111.8,37.6,212.6c-1.1,7.8,3.3,15.5,12.2,16.6
	c1.1,0,2.2,0,2.2,0c6.6,0,13.3-4.4,14.4-12.2C588.5,551.4,554.2,456.2,524.3,421.8z M172.2,580.2c-4.4,7.8-11.1,13.3-19.9,16.6
	c-17.7,5.5-36.5-3.3-42.1-18.8l0,0L65.9,442.9c-2.2-7.8-2.2-16.6,2.2-23.3c4.4-7.8,11.1-13.3,19.9-16.6c3.3-1.1,7.8-2.2,11.1-2.2
	c14.4,0,26.6,8.9,31,21l44.3,135.1C177.8,563.6,176.7,572.4,172.2,580.2z M189.9,437.3c6.6,32.1,33.2,57.6,73.1,73.1
	c1.1,7.8,0,14.4-3.3,22.1c-4.4,7.8-11.1,14.4-19.9,16.6c-17.7,5.5-36.5-4.4-43.2-22.1L149,382c-3.3-8.9-2.2-17.7,2.2-26.6
	c4.4-7.8,11.1-14.4,19.9-16.6c3.3-1.1,6.6-1.1,10-1.1c13.3,0,25.5,7.8,31,19.9l5.5,17.7c-4.4,1.1-8.9,3.3-13.3,5.5
	C197.7,386.4,183.3,403,189.9,437.3z M270.8,382c-5.5-3.3-13.3-6.6-21-7.8l-7.8-22.1c0-1.1-1.1-2.2-1.1-3.3l-79.7-244.7
	c-6.6-19.9,4.4-41,24.4-46.5c10-3.3,19.9-2.2,28.8,2.2c8.9,4.4,15.5,12.2,18.8,22.1l97.4,300C298.4,388.6,286.3,390.8,270.8,382z
	 M367.1,368.7l1.1-301.2c0-19.9,16.6-36.5,37.6-36.5l0,0c10,0,18.8,4.4,26.6,11.1c7.8,6.6,11.1,16.6,11.1,26.6l-1.1,305.6
	C418,365.4,392.6,363.2,367.1,368.7z"/>
</svg>
