<?xml version="1.0" encoding="utf-8"?>
<!-- Generator: Adobe Illustrator 16.0.0, SVG Export Plug-In . SVG Version: 6.00 Build 0)  -->
<!DOCTYPE svg PUBLIC "-//W3C//DTD SVG 1.1//EN" "http://www.w3.org/Graphics/SVG/1.1/DTD/svg11.dtd">
<svg version="1.1" id="Layer_1" xmlns="http://www.w3.org/2000/svg" xmlns:xlink="http://www.w3.org/1999/xlink" x="0px" y="0px"
	 width="72px" height="72px" viewBox="0 0 72 72" enable-background="new 0 0 72 72" xml:space="preserve">
<g id="Layer_1_1_" display="none">
	<g display="inline">
		<path fill="#80F5F2" d="M22.449,37.229L22.449,37.229c0.197-0.261,0.316-0.58,0.316-0.931c0-0.545-0.281-1.023-0.706-1.301
			l-4.667-4.477c-0.628-0.603-1.626-0.583-2.229,0.046c-0.604,0.628-0.583,1.626,0.046,2.229l3.709,3.558l-3.754,3.906
			c-0.604,0.628-0.583,1.626,0.044,2.229c0.306,0.293,0.699,0.438,1.092,0.438c0.414,0,0.827-0.16,1.137-0.482l4.766-4.959
			c0.088-0.072,0.168-0.154,0.238-0.248L22.449,37.229z"/>
		<path fill="#80F5F2" d="M29.478,39.969h-5.566c-0.87,0-1.576,0.706-1.576,1.576c0,0.871,0.706,1.576,1.576,1.576h5.566
			c0.869,0,1.576-0.705,1.576-1.576C31.053,40.675,30.347,39.969,29.478,39.969z"/>
		<path fill="#80F5F2" d="M58.835,24.08c1.263-4.877,2.522-9.754,3.784-14.631c0.515-1.982-0.576-3.913-2.523-4.437
			c-2.008-0.539-4.021-1.053-6.037-1.563c-0.936-0.236-1.822-0.082-2.672,0.398c-0.863,0.526-1.419,1.288-1.676,2.284
			C48.17,12.1,46.624,18.07,45.079,24.04H13.472c-3.373,0-6.117,2.743-6.117,6.117v31.907c0,3.373,2.743,6.117,6.117,6.117h44.686
			c3.373,0,6.115-2.744,6.115-6.117V30.157C64.273,27.014,61.891,24.419,58.835,24.08z M51.693,10.745
			c0.328-1.266,0.656-2.534,0.983-3.801c0.119-0.461,0.341-0.59,0.804-0.471c1.895,0.49,3.789,0.979,5.684,1.469
			c0.449,0.116,0.582,0.342,0.468,0.787c-0.373,1.44-0.745,2.879-1.118,4.318c-0.02,0.069-0.039,0.135-0.053,0.177
			c-2.318-0.599-4.625-1.195-6.965-1.801C51.559,11.21,51.633,10.978,51.693,10.745z M51.02,13.518
			c2.275,0.59,4.578,1.187,6.881,1.784c-0.09,0.342-0.188,0.718-0.277,1.077c-2.291-0.592-4.596-1.189-6.885-1.781
			C50.83,14.244,50.927,13.869,51.02,13.518z M50.203,16.676c2.271,0.589,4.576,1.184,6.855,1.774
			c-0.088,0.337-0.188,0.718-0.281,1.081c-2.264-0.586-4.57-1.182-6.857-1.774C50.014,17.402,50.111,17.026,50.203,16.676z
			 M56.246,21.589c-0.211,0.816-0.423,1.635-0.635,2.451l0,0c-0.271,1.05-0.543,2.102-0.815,3.153l0,0
			c-2.003,7.741-4.009,15.487-6.011,23.229c-2.264-0.587-4.564-1.184-6.836-1.771c1.849-7.146,3.701-14.301,5.553-21.458l0,0
			c0.137-0.527,0.271-1.054,0.408-1.581c0.5-1.932,1-3.864,1.5-5.794C51.67,20.405,53.973,21,56.246,21.589z M48.25,52.477
			c-0.338,0.771-0.752,1.496-1.342,2.106c-0.584,0.604-1.188,1.187-1.777,1.785c-0.107,0.11-0.201,0.142-0.354,0.103
			c-0.756-0.205-1.514-0.4-2.272-0.589c-0.137-0.034-0.2-0.094-0.237-0.229c-0.226-0.801-0.463-1.6-0.683-2.399
			c-0.231-0.841-0.241-1.696-0.166-2.545L48.25,52.477z M61.121,62.064c0,1.634-1.33,2.965-2.965,2.965H13.472
			c-1.634,0-2.964-1.331-2.964-2.965V30.157c0-1.634,1.33-2.964,2.964-2.964h30.792c-0.189,0.741-0.383,1.48-0.574,2.221
			c-1.697,6.569-3.4,13.137-5.094,19.707c-0.438,1.697-0.402,3.4,0.066,5.088c0.374,1.343,0.762,2.684,1.15,4.021
			c0.194,0.677,0.369,1.362,0.619,2.02c0.402,1.059,1.365,1.695,2.428,1.667c0.789-0.022,1.434-0.372,1.981-0.921
			c1.375-1.371,2.757-2.738,4.12-4.12c1.229-1.24,2.08-2.709,2.521-4.396c1.174-4.485,2.326-8.977,3.488-13.461
			c1.021-3.943,2.038-7.886,3.059-11.829h0.127c1.635,0,2.965,1.329,2.965,2.964V62.064z"/>
	</g>
</g>
<g id="Layer_2">
	<path fill="#112213" d="M44.798,34.762c-0.562-2.917-2.347-4.103-4.013-4.057c-0.01-0.104-0.027-0.205-0.045-0.306l-0.013-15.595
		c-0.004-1.323,1.066-2.403,2.391-2.409c0.638-0.002,1.243,0.246,1.698,0.695c0.455,0.453,0.707,1.054,0.709,1.691l0.019,21.104
		C45.14,35.547,44.883,35.2,44.798,34.762 M36.602,38.238c0.286,1.932,1.129,3.562,2.047,4.835c-0.413,0.689-1.204,1.16-2.114,1.164
		l-0.009,0.939v-0.939c-1.333,0-2.42-1.003-2.425-2.234l-0.024-10.901c-0.005-1.238,1.079-2.25,2.427-2.255
		c1.074,0,1.99,0.654,2.306,1.554v0.979c-0.605,0.42-1.134,1.013-1.527,1.754C36.551,34.519,36.315,36.283,36.602,38.238
		 M29.717,45.572l-0.009,0.966v-0.966c-1.317,0-2.394-1.072-2.399-2.389l-0.027-10.247c-0.005-1.324,1.067-2.403,2.398-2.409
		c1.318,0,2.396,1.072,2.4,2.39l0.026,10.248C32.112,44.488,31.04,45.567,29.717,45.572 M22.817,47.523l-0.01,0.966v-0.966
		c-1.219,0-2.231-0.92-2.378-2.103c-0.002-0.169-0.005-0.332-0.007-0.481c0-0.087-0.006-0.164-0.014-0.238l-0.026-8.866
		c-0.003-0.641,0.244-1.243,0.696-1.699c0.452-0.454,1.052-0.707,1.703-0.709c1.316,0,2.394,1.071,2.398,2.39l0.028,9.299
		C25.211,46.438,24.14,47.519,22.817,47.523 M51.85,44.723c0-4.583-2.395-6.362-4.372-7.575l-0.021-22.369
		c-0.005-1.157-0.46-2.243-1.28-3.059c-0.817-0.81-1.899-1.256-3.051-1.256h-0.017c-2.389,0.009-4.323,1.96-4.314,4.345
		l0.012,12.807c-0.67-0.41-1.465-0.65-2.323-0.65c-1.829,0.007-3.389,1.117-4.004,2.666c-0.758-0.644-1.739-1.036-2.815-1.036
		c-2.197,0.009-4.007,1.661-4.275,3.784c-0.73-0.555-1.638-0.886-2.625-0.886c-1.157,0.004-2.243,0.458-3.058,1.279
		c-0.815,0.822-1.262,1.912-1.257,3.068l0.028,9.3c0,0.14,0.008,0.279,0.023,0.417c0.095,3.861,0.989,11.971,6.499,16.53
		c0.18,0.149,0.399,0.222,0.615,0.222c0.278,0,0.554-0.119,0.746-0.353c0.339-0.41,0.282-1.02-0.129-1.359
		c-3.651-3.021-5.029-7.917-5.533-11.696c0.626,0.351,1.344,0.554,2.11,0.554h0.018c1.909-0.009,3.526-1.258,4.095-2.977
		c0.754,0.638,1.728,1.025,2.789,1.025h0.017c1.72-0.006,3.202-1.023,3.894-2.48c0.767,0.676,1.786,1.094,2.906,1.094h0.017
		c1.354-0.008,2.555-0.616,3.34-1.558c0.214,0.224,0.419,0.428,0.611,0.607c-0.009,0.006-0.018,0.014-0.025,0.019
		c-1.899,1.52-4.504,3.602-3.906,10.017c0.05,0.533,0.52,0.926,1.054,0.873c0.529-0.049,0.92-0.52,0.871-1.051
		c-0.503-5.379,1.374-6.88,3.187-8.329c0.322-0.257,0.657-0.524,0.963-0.804c0.212-0.192,0.326-0.467,0.316-0.751
		c-0.011-0.287-0.147-0.551-0.373-0.727c-0.823-0.642-3.555-3.005-4.063-6.457c-0.294-2.004,0.169-4.974,2.121-5.307
		c1.05-0.176,1.938,0.794,2.265,2.478c0.334,1.727,1.746,2.57,3.109,3.389c1.919,1.152,3.908,2.344,3.908,6.228
		c0.001,0.097,0.186,9.669-3.508,16.264c-0.261,0.467-0.094,1.055,0.37,1.315c0.149,0.084,0.312,0.123,0.472,0.123
		c0.339,0,0.667-0.178,0.845-0.494C52.046,54.903,51.858,45.112,51.85,44.723"/>
</g>
</svg>
