<?xml version="1.0" encoding="utf-8"?>
<!-- Generator: Adobe Illustrator 18.1.1, SVG Export Plug-In . SVG Version: 6.00 Build 0)  -->
<svg version="1.1" id="Layer_1" xmlns="http://www.w3.org/2000/svg" xmlns:xlink="http://www.w3.org/1999/xlink" x="0px" y="0px"
	 viewBox="0 0 612 792" enable-background="new 0 0 612 792" xml:space="preserve">
<g id="Layer_1_1_" display="none">
	<g display="inline">
		<path fill="#80F5F2" d="M-78.6,767.2L-78.6,767.2c1.7-2.5,2.6-5.1,2.6-7.6c0-4.2-2.6-8.5-5.9-11l-39.9-38.2
			c-5.1-5.1-13.6-5.1-18.7,0c-5.1,5.1-5.1,13.6,0,18.7l31.4,30.6l-32.3,33.1c-5.1,5.1-5.1,13.6,0,18.7c2.6,2.5,5.9,3.4,9.4,3.4
			c3.4,0,6.8-1.7,9.4-4.2l40.8-42.5C-79.4,768.9-78.6,768-78.6,767.2L-78.6,767.2z"/>
		<path fill="#80F5F2" d="M-18.2,791h-47.6c-7.6,0-13.6,6-13.6,13.6s5.9,13.6,13.6,13.6h47.6c7.6,0,13.6-6,13.6-13.6
			S-11.4,791-18.2,791z"/>
		<path fill="#80F5F2" d="M230.8,655.9c11.1-41.6,21.2-83.3,32.3-124.1c4.2-17-5.1-33.1-21.2-37.4c-17-4.2-34-9.4-51-13.6
			c-7.6-1.7-15.3-0.9-22.9,3.4c-7.6,4.2-11.9,11-14.4,19.5c-12.8,51-26.4,101.1-39.1,152.1h-268.6c-28.9,0-51.9,23-51.9,51.9v271.1
			c0,28.9,23,51.9,51.9,51.9h379.9c28.9,0,51.9-23,51.9-51.9V707.7C277.6,680.5,257.1,658.4,230.8,655.9z M170.4,542
			c2.6-11,5.9-21.2,8.5-32.3c0.9-4.2,2.6-5.1,6.8-4.2c16.1,4.2,32.3,8.5,48.4,12.8c3.4,0.9,5.1,2.5,4.2,6.8
			c-3.4,11.9-5.9,24.6-9.4,36.5c0,0.9,0,0.9-0.9,1.7c-19.6-5.1-39.1-10.2-59.5-15.3C169.6,546.2,169.6,544.5,170.4,542z
			 M164.5,565.8c19.6,5.1,39.1,10.2,58.6,15.3c-0.9,2.5-1.7,6-2.6,9.4c-19.6-5.1-39.1-10.2-58.6-15.3
			C162.8,571.7,163.6,569.1,164.5,565.8z M157.7,593c19.6,5.1,39.1,10.2,58.6,15.3c-0.9,2.5-1.7,6-2.6,9.4
			c-19.6-5.1-39.1-10.2-58.6-15.3C156,598.9,156.9,595.5,157.7,593z M208.7,634.6c-1.7,6.8-3.4,13.6-5.1,21.2l0,0
			c-2.6,8.5-4.2,17.9-6.8,27.2l0,0c-17,65.5-34,131.8-51,197.2c-19.6-5.1-39.1-10.2-57.8-15.3c15.3-60.4,31.4-121.5,47.6-182.8l0,0
			c0.9-4.2,2.6-9.4,3.4-13.6c4.2-16.1,8.5-33.1,12.8-49.3C170.4,624.4,190,629.5,208.7,634.6z M140.7,897.2
			c-2.6,6.8-6.8,12.8-11.1,17.9c-5.1,5.1-10.2,10.2-15.3,15.3c-0.9,0.9-1.7,0.9-3.4,0.9c-6.8-1.7-12.8-3.4-19.6-5.1
			c-0.9,0-1.7-0.9-1.7-1.7c-1.7-6.8-4.2-13.6-5.9-20.4c-1.7-6.8-1.7-14.5-1.7-21.2L140.7,897.2z M250.4,978.9
			c0,13.6-11.1,25.5-25.5,25.5H-155c-13.6,0-25.5-11-25.5-25.5V707.7c0-13.6,11-25.5,25.5-25.5h261.8c-1.7,6-3.4,12.8-5.1,18.7
			c-14.5,56.1-29,111.4-43.4,167.5c-3.4,14.5-3.4,28.9,0.9,43.4c3.4,11,6.8,23,10.2,34c1.7,6,3.4,11.9,5.1,17
			c3.4,9.4,11.9,14.5,20.4,14.5c6.8,0,11.9-3.4,17-7.6c11.9-11.9,23.8-23,34.9-34.9c10.2-10.2,17.9-23,21.2-37.4
			c10.2-38.2,19.6-76.5,29.8-114.8c8.5-33.1,17-67.1,26.4-100.3h0.9c13.6,0,25.5,11,25.5,25.5L250.4,978.9L250.4,978.9z"/>
	</g>
</g>
<g id="Layer_2">
	<path fill="#4CAF50" d="M452.1,368.5c-8.8-44-35.2-62.7-60.5-61.6c0-1.1,0-3.3-1.1-4.4V66c0-19.8,16.5-36.3,36.3-36.3
		c9.9,0,18.7,3.3,25.3,11c6.6,6.6,11,16.5,11,25.3v320.1C457.6,380.6,453.2,375.1,452.1,368.5 M327.8,421.3
		c4.4,29.7,17.6,53.9,30.8,73.7c-6.6,9.9-18.7,17.6-31.9,17.6v14.3v-14.3c-19.8,0-36.3-15.4-36.3-34.1v-165
		c0-18.7,16.5-34.1,37.4-34.1c16.5,0,29.7,9.9,35.2,23.1v15.4c-8.8,6.6-17.6,15.4-23.1,26.4C326.7,365.2,323.4,391.6,327.8,421.3
		 M223.3,533.5v14.3V533.5c-19.8,0-36.3-16.5-36.3-36.3V342.1c0-19.8,16.5-36.3,36.3-36.3s36.3,16.5,36.3,36.3v155.1
		C259.6,517,243.1,532.4,223.3,533.5 M118.8,562.1v14.3V562.1c-18.7,0-34.1-14.3-36.3-31.9c0-2.2,0-5.5,0-7.7c0-1.1,0-2.2,0-3.3V385
		c0-9.9,3.3-18.7,11-25.3c6.6-6.6,16.5-11,26.4-11c19.8,0,36.3,16.5,36.3,36.3v140.8C155.1,545.6,138.6,562.1,118.8,562.1
		 M558.8,520.3c0-69.3-36.3-96.8-66-115.5V64.9c0-17.6-6.6-34.1-19.8-46.2C460.9,6.6,444.4,0,426.8,0l0,0c-36.3,0-66,29.7-66,66
		v194.7c-9.9-6.6-22-9.9-35.2-9.9c-27.5,0-51.7,16.5-60.5,40.7c-11-9.9-26.4-15.4-42.9-15.4c-33,0-60.5,25.3-64.9,57.2
		c-11-8.8-25.3-13.2-39.6-13.2c-17.6,0-34.1,6.6-46.2,19.8c-12.1,12.1-18.7,28.6-18.7,46.2v140.8c0,2.2,0,4.4,0,6.6
		c1.1,58.3,15.4,181.5,99,250.8c2.2,2.2,6.6,3.3,8.8,3.3c4.4,0,8.8-2.2,11-5.5c5.5-6.6,4.4-15.4-2.2-20.9
		c-55-46.2-75.9-119.9-83.6-177.1c9.9,5.5,20.9,8.8,31.9,8.8l0,0c28.6,0,53.9-18.7,62.7-45.1c11,9.9,26.4,15.4,41.8,15.4l0,0
		c26.4,0,48.4-15.4,59.4-37.4c12.1,9.9,27.5,16.5,44,16.5l0,0c20.9,0,38.5-9.9,50.6-24.2c3.3,3.3,6.6,6.6,8.8,8.8l0,0
		c-28.6,23.1-68.2,55-59.4,151.8c1.1,7.7,7.7,14.3,16.5,13.2c7.7-1.1,14.3-7.7,13.2-16.5c-7.7-81.4,20.9-104.5,48.4-126.5
		c4.4-4.4,9.9-7.7,14.3-12.1c3.3-3.3,4.4-6.6,4.4-11s-2.2-8.8-5.5-11c-12.1-9.9-53.9-45.1-61.6-97.9c-4.4-30.8,2.2-75.9,31.9-80.3
		c15.4-2.2,29.7,12.1,34.1,37.4c5.5,26.4,26.4,38.5,47.3,51.7c28.6,17.6,59.4,35.2,59.4,94.6c0,1.1,3.3,146.3-52.8,247.5
		c-4.4,6.6-1.1,16.5,5.5,19.8c2.2,1.1,4.4,2.2,7.7,2.2c5.5,0,9.9-2.2,13.2-7.7C562.1,674.3,558.8,525.8,558.8,520.3"/>
</g>
</svg>
