<?xml version="1.0" encoding="utf-8"?>
<!-- Generator: Adobe Illustrator 18.1.1, SVG Export Plug-In . SVG Version: 6.00 Build 0)  -->
<svg version="1.1" id="Layer_1" xmlns="http://www.w3.org/2000/svg" xmlns:xlink="http://www.w3.org/1999/xlink" x="0px" y="0px"
	 viewBox="-269 361 72 72" enable-background="new -269 361 72 72" xml:space="preserve">
<g id="Layer_1_1_" display="none">
	<g display="inline">
		<path fill="#80F5F2" d="M-246.6,398.2L-246.6,398.2c0.2-0.3,0.3-0.6,0.3-0.9c0-0.5-0.3-1-0.7-1.3l-4.7-4.5c-0.6-0.6-1.6-0.6-2.2,0
			c-0.6,0.6-0.6,1.6,0,2.2l3.7,3.6l-3.8,3.9c-0.6,0.6-0.6,1.6,0,2.2c0.3,0.3,0.7,0.4,1.1,0.4c0.4,0,0.8-0.2,1.1-0.5l4.8-5
			C-246.7,398.4-246.6,398.3-246.6,398.2L-246.6,398.2z"/>
		<path fill="#80F5F2" d="M-239.5,401h-5.6c-0.9,0-1.6,0.7-1.6,1.6c0,0.9,0.7,1.6,1.6,1.6h5.6c0.9,0,1.6-0.7,1.6-1.6
			C-237.9,401.7-238.7,401-239.5,401z"/>
		<path fill="#80F5F2" d="M-210.2,385.1c1.3-4.9,2.5-9.8,3.8-14.6c0.5-2-0.6-3.9-2.5-4.4c-2-0.5-4-1.1-6-1.6
			c-0.9-0.2-1.8-0.1-2.7,0.4c-0.9,0.5-1.4,1.3-1.7,2.3c-1.5,6-3.1,11.9-4.6,17.9h-31.6c-3.4,0-6.1,2.7-6.1,6.1v31.9
			c0,3.4,2.7,6.1,6.1,6.1h44.7c3.4,0,6.1-2.7,6.1-6.1v-31.9C-204.7,388-207.1,385.4-210.2,385.1z M-217.3,371.7
			c0.3-1.3,0.7-2.5,1-3.8c0.1-0.5,0.3-0.6,0.8-0.5c1.9,0.5,3.8,1,5.7,1.5c0.4,0.1,0.6,0.3,0.5,0.8c-0.4,1.4-0.7,2.9-1.1,4.3
			c0,0.1,0,0.1-0.1,0.2c-2.3-0.6-4.6-1.2-7-1.8C-217.4,372.2-217.4,372-217.3,371.7z M-218,374.5c2.3,0.6,4.6,1.2,6.9,1.8
			c-0.1,0.3-0.2,0.7-0.3,1.1c-2.3-0.6-4.6-1.2-6.9-1.8C-218.2,375.2-218.1,374.9-218,374.5z M-218.8,377.7c2.3,0.6,4.6,1.2,6.9,1.8
			c-0.1,0.3-0.2,0.7-0.3,1.1c-2.3-0.6-4.6-1.2-6.9-1.8C-219,378.4-218.9,378-218.8,377.7z M-212.8,382.6c-0.2,0.8-0.4,1.6-0.6,2.5
			l0,0c-0.3,1-0.5,2.1-0.8,3.2l0,0c-2,7.7-4,15.5-6,23.2c-2.3-0.6-4.6-1.2-6.8-1.8c1.8-7.1,3.7-14.3,5.6-21.5l0,0
			c0.1-0.5,0.3-1.1,0.4-1.6c0.5-1.9,1-3.9,1.5-5.8C-217.3,381.4-215,382-212.8,382.6z M-220.8,413.5c-0.3,0.8-0.8,1.5-1.3,2.1
			c-0.6,0.6-1.2,1.2-1.8,1.8c-0.1,0.1-0.2,0.1-0.4,0.1c-0.8-0.2-1.5-0.4-2.3-0.6c-0.1,0-0.2-0.1-0.2-0.2c-0.2-0.8-0.5-1.6-0.7-2.4
			c-0.2-0.8-0.2-1.7-0.2-2.5L-220.8,413.5z M-207.9,423.1c0,1.6-1.3,3-3,3h-44.7c-1.6,0-3-1.3-3-3v-31.9c0-1.6,1.3-3,3-3h30.8
			c-0.2,0.7-0.4,1.5-0.6,2.2c-1.7,6.6-3.4,13.1-5.1,19.7c-0.4,1.7-0.4,3.4,0.1,5.1c0.4,1.3,0.8,2.7,1.2,4c0.2,0.7,0.4,1.4,0.6,2
			c0.4,1.1,1.4,1.7,2.4,1.7c0.8,0,1.4-0.4,2-0.9c1.4-1.4,2.8-2.7,4.1-4.1c1.2-1.2,2.1-2.7,2.5-4.4c1.2-4.5,2.3-9,3.5-13.5
			c1-3.9,2-7.9,3.1-11.8h0.1c1.6,0,3,1.3,3,3L-207.9,423.1L-207.9,423.1z"/>
	</g>
</g>
<g id="Layer_2">
	<path fill="#FFFFFF" d="M-219.9,394.6c-0.8-4-3.2-5.7-5.5-5.6c0-0.1,0-0.3-0.1-0.4l0-21.5c0-1.8,1.5-3.3,3.3-3.3
		c0.9,0,1.7,0.3,2.3,1c0.6,0.6,1,1.5,1,2.3l0,29.1C-219.4,395.7-219.8,395.2-219.9,394.6 M-231.2,399.4c0.4,2.7,1.6,4.9,2.8,6.7
		c-0.6,0.9-1.7,1.6-2.9,1.6l0,1.3v-1.3c-1.8,0-3.3-1.4-3.3-3.1l0-15c0-1.7,1.5-3.1,3.4-3.1c1.5,0,2.7,0.9,3.2,2.1v1.4
		c-0.8,0.6-1.6,1.4-2.1,2.4C-231.3,394.3-231.6,396.7-231.2,399.4 M-240.7,409.6l0,1.3L-240.7,409.6c-1.8,0-3.3-1.5-3.3-3.3l0-14.1
		c0-1.8,1.5-3.3,3.3-3.3c1.8,0,3.3,1.5,3.3,3.3l0,14.1C-237.4,408.1-238.9,409.5-240.7,409.6 M-250.2,412.2l0,1.3L-250.2,412.2
		c-1.7,0-3.1-1.3-3.3-2.9c0-0.2,0-0.5,0-0.7c0-0.1,0-0.2,0-0.3l0-12.2c0-0.9,0.3-1.7,1-2.3c0.6-0.6,1.5-1,2.4-1
		c1.8,0,3.3,1.5,3.3,3.3l0,12.8C-246.9,410.7-248.4,412.2-250.2,412.2 M-210.2,408.4c0-6.3-3.3-8.8-6-10.5l0-30.9
		c0-1.6-0.6-3.1-1.8-4.2c-1.1-1.1-2.6-1.7-4.2-1.7h0c-3.3,0-6,2.7-6,6l0,17.7c-0.9-0.6-2-0.9-3.2-0.9c-2.5,0-4.7,1.5-5.5,3.7
		c-1-0.9-2.4-1.4-3.9-1.4c-3,0-5.5,2.3-5.9,5.2c-1-0.8-2.3-1.2-3.6-1.2c-1.6,0-3.1,0.6-4.2,1.8c-1.1,1.1-1.7,2.6-1.7,4.2l0,12.8
		c0,0.2,0,0.4,0,0.6c0.1,5.3,1.4,16.5,9,22.8c0.2,0.2,0.6,0.3,0.8,0.3c0.4,0,0.8-0.2,1-0.5c0.5-0.6,0.4-1.4-0.2-1.9
		c-5-4.2-6.9-10.9-7.6-16.1c0.9,0.5,1.9,0.8,2.9,0.8h0c2.6,0,4.9-1.7,5.7-4.1c1,0.9,2.4,1.4,3.8,1.4h0c2.4,0,4.4-1.4,5.4-3.4
		c1.1,0.9,2.5,1.5,4,1.5h0c1.9,0,3.5-0.9,4.6-2.2c0.3,0.3,0.6,0.6,0.8,0.8c0,0,0,0,0,0c-2.6,2.1-6.2,5-5.4,13.8
		c0.1,0.7,0.7,1.3,1.5,1.2c0.7-0.1,1.3-0.7,1.2-1.5c-0.7-7.4,1.9-9.5,4.4-11.5c0.4-0.4,0.9-0.7,1.3-1.1c0.3-0.3,0.4-0.6,0.4-1
		c0-0.4-0.2-0.8-0.5-1c-1.1-0.9-4.9-4.1-5.6-8.9c-0.4-2.8,0.2-6.9,2.9-7.3c1.4-0.2,2.7,1.1,3.1,3.4c0.5,2.4,2.4,3.5,4.3,4.7
		c2.6,1.6,5.4,3.2,5.4,8.6c0,0.1,0.3,13.3-4.8,22.5c-0.4,0.6-0.1,1.5,0.5,1.8c0.2,0.1,0.4,0.2,0.7,0.2c0.5,0,0.9-0.2,1.2-0.7
		C-209.9,422.4-210.2,408.9-210.2,408.4"/>
</g>
</svg>
