<?xml version="1.0" encoding="utf-8"?>
<!-- Generator: Adobe Illustrator 18.1.1, SVG Export Plug-In . SVG Version: 6.00 Build 0)  -->
<svg version="1.1" id="Layer_1" xmlns="http://www.w3.org/2000/svg" xmlns:xlink="http://www.w3.org/1999/xlink" x="0px" y="0px"
	 viewBox="0 0 612 792" enable-background="new 0 0 612 792" xml:space="preserve">
<g id="Layer_1_1_" display="none">
	<g display="inline">
		<path fill="#80F5F2" d="M-78.6,767.2L-78.6,767.2c1.7-2.5,2.6-5.1,2.6-7.6c0-4.2-2.6-8.5-5.9-11l-39.9-38.2
			c-5.1-5.1-13.6-5.1-18.7,0c-5.1,5.1-5.1,13.6,0,18.7l31.4,30.6l-32.3,33.1c-5.1,5.1-5.1,13.6,0,18.7c2.6,2.5,5.9,3.4,9.4,3.4
			c3.4,0,6.8-1.7,9.4-4.2l40.8-42.5C-79.4,768.9-78.6,768-78.6,767.2L-78.6,767.2z"/>
		<path fill="#80F5F2" d="M-18.2,791h-47.6c-7.6,0-13.6,6-13.6,13.6s5.9,13.6,13.6,13.6h47.6c7.6,0,13.6-6,13.6-13.6
			S-11.4,791-18.2,791z"/>
		<path fill="#80F5F2" d="M230.8,655.9c11.1-41.6,21.2-83.3,32.3-124.1c4.2-17-5.1-33.1-21.2-37.4c-17-4.2-34-9.4-51-13.6
			c-7.6-1.7-15.3-0.9-22.9,3.4c-7.6,4.2-11.9,11-14.4,19.5c-12.8,51-26.4,101.1-39.1,152.1h-268.6c-28.9,0-51.9,23-51.9,51.9v271.1
			c0,28.9,23,51.9,51.9,51.9h379.9c28.9,0,51.9-23,51.9-51.9V707.7C277.6,680.5,257.1,658.4,230.8,655.9z M170.4,542
			c2.6-11,5.9-21.2,8.5-32.3c0.9-4.2,2.6-5.1,6.8-4.2c16.1,4.2,32.3,8.5,48.4,12.8c3.4,0.9,5.1,2.5,4.2,6.8
			c-3.4,11.9-5.9,24.6-9.4,36.5c0,0.9,0,0.9-0.9,1.7c-19.6-5.1-39.1-10.2-59.5-15.3C169.6,546.2,169.6,544.5,170.4,542z
			 M164.5,565.8c19.6,5.1,39.1,10.2,58.6,15.3c-0.9,2.5-1.7,6-2.6,9.4c-19.6-5.1-39.1-10.2-58.6-15.3
			C162.8,571.7,163.6,569.1,164.5,565.8z M157.7,593c19.6,5.1,39.1,10.2,58.6,15.3c-0.9,2.5-1.7,6-2.6,9.4
			c-19.6-5.1-39.1-10.2-58.6-15.3C156,598.9,156.9,595.5,157.7,593z M208.7,634.6c-1.7,6.8-3.4,13.6-5.1,21.2l0,0
			c-2.6,8.5-4.2,17.9-6.8,27.2l0,0c-17,65.5-34,131.8-51,197.2c-19.6-5.1-39.1-10.2-57.8-15.3c15.3-60.4,31.4-121.5,47.6-182.8l0,0
			c0.9-4.2,2.6-9.4,3.4-13.6c4.2-16.1,8.5-33.1,12.8-49.3C170.4,624.4,190,629.5,208.7,634.6z M140.7,897.2
			c-2.6,6.8-6.8,12.8-11.1,17.9c-5.1,5.1-10.2,10.2-15.3,15.3c-0.9,0.9-1.7,0.9-3.4,0.9c-6.8-1.7-12.8-3.4-19.6-5.1
			c-0.9,0-1.7-0.9-1.7-1.7c-1.7-6.8-4.2-13.6-5.9-20.4c-1.7-6.8-1.7-14.5-1.7-21.2L140.7,897.2z M250.4,978.9
			c0,13.6-11.1,25.5-25.5,25.5h-379.9c-13.6,0-25.5-11-25.5-25.5V707.7c0-13.6,11-25.5,25.5-25.5h261.8c-1.7,6-3.4,12.8-5.1,18.7
			C87.2,757,72.7,812.3,58.3,868.4c-3.4,14.5-3.4,28.9,0.9,43.4c3.4,11,6.8,23,10.2,34c1.7,6,3.4,11.9,5.1,17
			c3.4,9.4,11.9,14.5,20.4,14.5c6.8,0,11.9-3.4,17-7.6c11.9-11.9,23.8-23,34.9-34.9c10.2-10.2,17.9-23,21.2-37.4
			c10.2-38.2,19.6-76.5,29.8-114.8c8.5-33.1,17-67.1,26.4-100.3h0.9c13.6,0,25.5,11,25.5,25.5L250.4,978.9L250.4,978.9z"/>
	</g>
</g>
<path fill="#388E3C" d="M342.1,731.5c0-1.7-10.2-40.8-49.3-68.9c-70.6-50.1-74.8-68.9-77.4-79.9c-3.4-14.5-13.6-30.6-17-36.5
	c-0.9-5.1-2.6-17.9-3.4-37.4v-3.4l-1.7-2.5c-16.1-22.1-38.2-27.2-58.6-14.5c-33.1,20.4-50.1,81.6-23.8,133.5
	c16.1,32.3,19.6,49.3,19.6,57.8c-55.2,0-346.8,0.9-349.4,0.9c-26.4,0-46.7,21.2-46.7,46.8c0,26.4,21.2,46.8,46.7,46.8h13.6
	c29.8,0,104.6,0,158.9,0c-3.4,6.8-5.1,15.3-4.2,23c1.7,16.1,12.8,29.8,28.9,37.4c-11.1,11-17,25.5-14.4,40.8
	c3.4,19.5,20.4,34.9,41.6,38.2c-11.1,11.9-16.1,27.2-11.9,42.5c5.1,21.2,25.5,35.7,48.4,35.7c4.2,0,9.4-0.9,13.6-1.7l5.9-1.7
	c7.6,3.4,50.1,21.2,107.9,21.2c45.9,0,101.1-11.9,154.7-51.9c4.2-3.4,5.9-10.2,1.7-14.5c-3.4-4.2-10.2-6-14.4-1.7
	c-81.6,61.2-168.3,49.3-212.5,37.4l45.9-11c28.1-6.8,45.9-33.1,39.9-58.6c-4.2-17-17.9-28.9-34.9-33.1c6.8-10.2,10.2-22.1,7.6-34
	c-1.7-10.2-7.6-19.5-15.3-26.4c1.7-1.7,3.4-2.5,5.1-4.2c10.2-10.2,15.3-23,13.6-36.5c-2.6-26.4-29.8-45-61.2-42.5L-0.4,742.6
	c-10.2,0.9-20.4,4.2-28.1,10.2c-55.2,0-143.7,0-177.7,0h-13.6c-14.5,0-26.4-11.9-26.4-26.4s11.9-26.4,26.4-26.4
	c2.5,0,358.7-0.9,358.7-0.9h5.9l3.4-5.1c3.4-5.1,10.2-24.6-18.7-83.3c-22.1-44.2-5.1-92.6,16.1-106.2c10.2-6,19.6-4.2,28.9,6.8
	c1.7,24.6,3.4,38.2,3.4,39.1v2.5l1.7,1.7c0,0,11.9,17,15.3,30.6c4.2,19.5,14.4,40.8,85.9,91.8c32.3,23,40.8,56.1,41.6,57
	c1.7,6,6.8,9.4,12.8,7.6C339.6,742.5,343,737.5,342.1,731.5z M163.6,913.4c3.4,14.5-7.6,29.8-24.6,34l-89.2,22.1
	c-17,4.2-34-4.2-37.4-18.7C9,936.3,20,921,37,916.8l89.2-22.1c2.6-0.9,5.9-0.9,8.5-0.9C149.2,893.9,161.1,901.5,163.6,913.4z
	 M136.4,844.5c0.9,6.8-0.9,13.6-5.9,19.5c-5.1,6-12.8,10.2-21.2,11.9l-90.9,15.3c-17,2.5-33.1-6.8-35.7-21.2
	C-19.9,855.6-8,841.1,9,837.7l7.6-1.7l91.8-9.4c4.2,0,7.6-0.9,11.9-2.5C128.8,829.2,135.6,836,136.4,844.5z M101.6,751.9
	c1.7,0,3.4,0,5.1,0c17.9,0,32.3,10.2,34,24.6c0.9,6.8-1.7,14.5-7.6,20.4c-5.9,6.8-15.3,10.2-25.5,11.9L7.3,819
	c-20.4,1.7-37.4-9.4-39.1-23.8c-1.7-15.3,13.6-29.8,33.1-31.5L101.6,751.9z"/>
</svg>
