<?xml version="1.0" encoding="utf-8"?>
<!-- Generator: Adobe Illustrator 16.0.0, SVG Export Plug-In . SVG Version: 6.00 Build 0)  -->
<!DOCTYPE svg PUBLIC "-//W3C//DTD SVG 1.1//EN" "http://www.w3.org/Graphics/SVG/1.1/DTD/svg11.dtd">
<svg version="1.1" id="Layer_1" xmlns="http://www.w3.org/2000/svg" xmlns:xlink="http://www.w3.org/1999/xlink" x="0px" y="0px"
	 width="72px" height="72px" viewBox="0 0 72 72" enable-background="new 0 0 72 72" xml:space="preserve">
<g id="Layer_1_1_" display="none">
	<g display="inline">
		<path fill="#80F5F2" d="M22.449,37.229L22.449,37.229c0.197-0.261,0.316-0.58,0.316-0.931c0-0.545-0.281-1.023-0.706-1.301
			l-4.667-4.477c-0.628-0.603-1.626-0.583-2.229,0.046c-0.604,0.628-0.583,1.626,0.046,2.229l3.709,3.558l-3.754,3.906
			c-0.604,0.628-0.583,1.626,0.044,2.229c0.306,0.293,0.699,0.438,1.092,0.438c0.414,0,0.827-0.16,1.137-0.482l4.766-4.959
			c0.088-0.07,0.168-0.152,0.238-0.248L22.449,37.229z"/>
		<path fill="#80F5F2" d="M29.478,39.969h-5.566c-0.87,0-1.576,0.706-1.576,1.576c0,0.871,0.706,1.576,1.576,1.576h5.566
			c0.869,0,1.576-0.705,1.576-1.576C31.053,40.675,30.347,39.969,29.478,39.969z"/>
		<path fill="#80F5F2" d="M58.835,24.08c1.263-4.877,2.522-9.754,3.784-14.631c0.515-1.982-0.576-3.913-2.523-4.438
			c-2.008-0.539-4.021-1.053-6.037-1.562c-0.936-0.236-1.822-0.082-2.672,0.398c-0.863,0.526-1.419,1.288-1.676,2.284
			C48.17,12.1,46.624,18.07,45.079,24.04H13.472c-3.373,0-6.117,2.743-6.117,6.117v31.907c0,3.373,2.743,6.117,6.117,6.117h44.686
			c3.373,0,6.115-2.744,6.115-6.117V30.157C64.273,27.014,61.891,24.419,58.835,24.08z M51.693,10.745
			c0.328-1.266,0.656-2.534,0.981-3.801c0.119-0.461,0.343-0.59,0.806-0.471c1.895,0.49,3.789,0.979,5.684,1.469
			c0.449,0.116,0.582,0.342,0.468,0.787c-0.373,1.44-0.745,2.879-1.118,4.318c-0.02,0.069-0.039,0.135-0.053,0.177
			c-2.318-0.599-4.625-1.195-6.965-1.801C51.559,11.21,51.633,10.978,51.693,10.745z M51.02,13.518
			c2.275,0.59,4.578,1.187,6.881,1.784c-0.09,0.342-0.188,0.718-0.275,1.077c-2.291-0.592-4.598-1.189-6.885-1.781
			C50.83,14.244,50.927,13.869,51.02,13.518z M50.203,16.676c2.271,0.589,4.576,1.184,6.855,1.774
			c-0.09,0.337-0.188,0.718-0.281,1.081c-2.264-0.586-4.57-1.182-6.857-1.774C50.014,17.402,50.111,17.026,50.203,16.676z
			 M56.246,21.589c-0.211,0.816-0.423,1.635-0.635,2.451l0,0c-0.271,1.05-0.543,2.102-0.815,3.153l0,0
			c-2.003,7.741-4.009,15.487-6.011,23.229c-2.264-0.587-4.564-1.184-6.836-1.771c1.849-7.146,3.701-14.299,5.553-21.458l0,0
			c0.137-0.527,0.271-1.054,0.408-1.581c0.5-1.932,1-3.864,1.5-5.794C51.67,20.405,53.973,21,56.246,21.589z M48.25,52.477
			c-0.338,0.771-0.752,1.496-1.342,2.106c-0.584,0.604-1.188,1.187-1.777,1.785c-0.107,0.11-0.201,0.142-0.354,0.103
			c-0.756-0.205-1.514-0.398-2.272-0.589c-0.137-0.034-0.2-0.094-0.237-0.229c-0.226-0.801-0.463-1.6-0.683-2.397
			c-0.231-0.841-0.241-1.694-0.166-2.545L48.25,52.477z M61.121,62.064c0,1.634-1.33,2.965-2.965,2.965H13.472
			c-1.634,0-2.964-1.331-2.964-2.965V30.157c0-1.634,1.33-2.964,2.964-2.964h30.792c-0.188,0.741-0.383,1.48-0.574,2.221
			c-1.695,6.569-3.398,13.137-5.094,19.707c-0.438,1.697-0.402,3.4,0.066,5.088c0.374,1.343,0.762,2.684,1.15,4.021
			c0.192,0.677,0.369,1.36,0.619,2.02c0.4,1.059,1.363,1.695,2.428,1.667c0.789-0.022,1.434-0.372,1.979-0.921
			c1.375-1.371,2.759-2.738,4.12-4.12c1.229-1.24,2.08-2.709,2.521-4.396c1.175-4.485,2.326-8.979,3.487-13.461
			c1.021-3.943,2.038-7.888,3.06-11.831h0.128c1.635,0,2.965,1.329,2.965,2.964L61.121,62.064L61.121,62.064z"/>
	</g>
</g>
<g id="Layer_2">
	<path d="M49.096,33.628c-0.774-4.026-3.238-5.663-5.538-5.6c-0.014-0.144-0.038-0.283-0.062-0.422L43.477,6.08
		c-0.006-1.826,1.471-3.317,3.301-3.325c0.881-0.002,1.716,0.34,2.345,0.959c0.628,0.625,0.976,1.455,0.979,2.334l0.025,29.13
		C49.569,34.712,49.214,34.234,49.096,33.628 M37.782,38.428c0.396,2.666,1.559,4.916,2.825,6.674
		c-0.568,0.948-1.66,1.6-2.915,1.606l-0.015,1.294v-1.294c-1.84,0-3.34-1.385-3.347-3.084l-0.033-15.047
		c-0.007-1.708,1.491-3.105,3.352-3.112c1.482,0,2.747,0.902,3.185,2.145v1.352c-0.835,0.58-1.567,1.398-2.108,2.421
		C37.712,33.293,37.387,35.729,37.782,38.428 M28.277,48.551l-0.012,1.333v-1.333c-1.818,0-3.305-1.48-3.312-3.297l-0.037-14.147
		c-0.007-1.828,1.473-3.316,3.31-3.325c1.819,0,3.308,1.48,3.312,3.299l0.036,14.146C31.583,47.055,30.103,48.543,28.277,48.551
		 M18.752,51.244l-0.014,1.333v-1.333c-1.683,0-3.08-1.27-3.282-2.905c-0.003-0.232-0.007-0.458-0.01-0.661
		c0-0.122-0.008-0.227-0.019-0.329L15.391,35.11c-0.004-0.885,0.337-1.716,0.961-2.345c0.624-0.626,1.452-0.976,2.351-0.979
		c1.816,0,3.304,1.479,3.31,3.299l0.039,12.836C22.057,49.745,20.579,51.238,18.752,51.244 M58.83,47.378
		c0-6.324-3.306-8.779-6.033-10.455L52.769,6.047c-0.007-1.597-0.636-3.096-1.768-4.225c-1.127-1.117-2.62-1.733-4.211-1.733h-0.024
		c-3.297,0.013-5.967,2.706-5.954,5.998l0.018,17.678c-0.925-0.566-2.023-0.898-3.208-0.898c-2.524,0.01-4.68,1.542-5.528,3.68
		c-1.046-0.888-2.401-1.43-3.886-1.43c-3.033,0.013-5.531,2.293-5.901,5.224c-1.008-0.766-2.261-1.223-3.624-1.223
		c-1.597,0.005-3.096,0.632-4.221,1.765c-1.125,1.134-1.742,2.639-1.735,4.235l0.039,12.837c0,0.195,0.011,0.386,0.032,0.577
		c0.131,5.328,1.365,16.524,8.971,22.815c0.249,0.205,0.551,0.308,0.849,0.308c0.384,0,0.765-0.164,1.029-0.487
		c0.468-0.566,0.39-1.408-0.178-1.877c-5.04-4.169-6.942-10.927-7.637-16.144c0.864,0.485,1.855,0.766,2.912,0.766h0.025
		c2.634-0.012,4.867-1.736,5.652-4.111c1.041,0.883,2.385,1.415,3.85,1.415h0.023c2.375-0.008,4.42-1.412,5.376-3.424
		c1.059,0.936,2.467,1.513,4.01,1.513h0.026c1.869-0.014,3.527-0.851,4.609-2.151c0.298,0.31,0.581,0.592,0.844,0.837
		c-0.015,0.008-0.025,0.021-0.033,0.025c-2.62,2.101-6.219,4.975-5.392,13.829c0.069,0.736,0.718,1.278,1.455,1.205
		c0.73-0.068,1.271-0.718,1.203-1.451c-0.696-7.425,1.896-9.498,4.399-11.496c0.443-0.355,0.906-0.724,1.329-1.11
		c0.291-0.265,0.449-0.646,0.436-1.038c-0.015-0.396-0.204-0.761-0.515-1.003c-1.137-0.887-4.908-4.147-5.609-8.913
		c-0.404-2.766,0.234-6.866,2.928-7.326c1.45-0.243,2.676,1.096,3.129,3.42c0.461,2.385,2.41,3.548,4.291,4.679
		c2.647,1.59,5.393,3.237,5.393,8.598c0.002,0.134,0.258,13.347-4.842,22.45c-0.359,0.646-0.131,1.458,0.511,1.815
		c0.205,0.116,0.432,0.17,0.651,0.17c0.468,0,0.921-0.247,1.166-0.683C59.101,61.43,58.841,47.916,58.83,47.378"/>
</g>
</svg>
