<?xml version="1.0" encoding="utf-8"?>
<!-- Generator: Adobe Illustrator 18.1.1, SVG Export Plug-In . SVG Version: 6.00 Build 0)  -->
<svg version="1.1" id="Layer_1" xmlns="http://www.w3.org/2000/svg" xmlns:xlink="http://www.w3.org/1999/xlink" x="0px" y="0px"
	 viewBox="-269 361 72 72" enable-background="new -269 361 72 72" xml:space="preserve">
<g id="Layer_1_1_" display="none">
	<g display="inline">
		<path fill="#80F5F2" d="M-246.6,398.2L-246.6,398.2c0.2-0.3,0.3-0.6,0.3-0.9c0-0.5-0.3-1-0.7-1.3l-4.7-4.5c-0.6-0.6-1.6-0.6-2.2,0
			c-0.6,0.6-0.6,1.6,0,2.2l3.7,3.6l-3.8,3.9c-0.6,0.6-0.6,1.6,0,2.2c0.3,0.3,0.7,0.4,1.1,0.4c0.4,0,0.8-0.2,1.1-0.5l4.8-5
			C-246.7,398.4-246.6,398.3-246.6,398.2L-246.6,398.2z"/>
		<path fill="#80F5F2" d="M-239.5,401h-5.6c-0.9,0-1.6,0.7-1.6,1.6c0,0.9,0.7,1.6,1.6,1.6h5.6c0.9,0,1.6-0.7,1.6-1.6
			C-237.9,401.7-238.7,401-239.5,401z"/>
		<path fill="#80F5F2" d="M-210.2,385.1c1.3-4.9,2.5-9.8,3.8-14.6c0.5-2-0.6-3.9-2.5-4.4c-2-0.5-4-1.1-6-1.6
			c-0.9-0.2-1.8-0.1-2.7,0.4c-0.9,0.5-1.4,1.3-1.7,2.3c-1.5,6-3.1,11.9-4.6,17.9h-31.6c-3.4,0-6.1,2.7-6.1,6.1v31.9
			c0,3.4,2.7,6.1,6.1,6.1h44.7c3.4,0,6.1-2.7,6.1-6.1v-31.9C-204.7,388-207.1,385.4-210.2,385.1z M-217.3,371.7
			c0.3-1.3,0.7-2.5,1-3.8c0.1-0.5,0.3-0.6,0.8-0.5c1.9,0.5,3.8,1,5.7,1.5c0.4,0.1,0.6,0.3,0.5,0.8c-0.4,1.4-0.7,2.9-1.1,4.3
			c0,0.1,0,0.1-0.1,0.2c-2.3-0.6-4.6-1.2-7-1.8C-217.4,372.2-217.4,372-217.3,371.7z M-218,374.5c2.3,0.6,4.6,1.2,6.9,1.8
			c-0.1,0.3-0.2,0.7-0.3,1.1c-2.3-0.6-4.6-1.2-6.9-1.8C-218.2,375.2-218.1,374.9-218,374.5z M-218.8,377.7c2.3,0.6,4.6,1.2,6.9,1.8
			c-0.1,0.3-0.2,0.7-0.3,1.1c-2.3-0.6-4.6-1.2-6.9-1.8C-219,378.4-218.9,378-218.8,377.7z M-212.8,382.6c-0.2,0.8-0.4,1.6-0.6,2.5
			l0,0c-0.3,1-0.5,2.1-0.8,3.2l0,0c-2,7.7-4,15.5-6,23.2c-2.3-0.6-4.6-1.2-6.8-1.8c1.8-7.1,3.7-14.3,5.6-21.5l0,0
			c0.1-0.5,0.3-1.1,0.4-1.6c0.5-1.9,1-3.9,1.5-5.8C-217.3,381.4-215,382-212.8,382.6z M-220.8,413.5c-0.3,0.8-0.8,1.5-1.3,2.1
			c-0.6,0.6-1.2,1.2-1.8,1.8c-0.1,0.1-0.2,0.1-0.4,0.1c-0.8-0.2-1.5-0.4-2.3-0.6c-0.1,0-0.2-0.1-0.2-0.2c-0.2-0.8-0.5-1.6-0.7-2.4
			c-0.2-0.8-0.2-1.7-0.2-2.5L-220.8,413.5z M-207.9,423.1c0,1.6-1.3,3-3,3h-44.7c-1.6,0-3-1.3-3-3v-31.9c0-1.6,1.3-3,3-3h30.8
			c-0.2,0.7-0.4,1.5-0.6,2.2c-1.7,6.6-3.4,13.1-5.1,19.7c-0.4,1.7-0.4,3.4,0.1,5.1c0.4,1.3,0.8,2.7,1.2,4c0.2,0.7,0.4,1.4,0.6,2
			c0.4,1.1,1.4,1.7,2.4,1.7c0.8,0,1.4-0.4,2-0.9c1.4-1.4,2.8-2.7,4.1-4.1c1.2-1.2,2.1-2.7,2.5-4.4c1.2-4.5,2.3-9,3.5-13.5
			c1-3.9,2-7.9,3.1-11.8h0.1c1.6,0,3,1.3,3,3L-207.9,423.1L-207.9,423.1z"/>
	</g>
</g>
<path fill="#FFFFFF" d="M-214.3,399.2c-1.1-1.2-2.8-2.4-4.8-3.4l0.1-28.6c0-1.6-0.6-3.1-1.7-4.3c-1.1-1.1-2.6-1.8-4.2-1.8
	c0,0,0,0,0,0c-3.3,0-6,2.7-6,6l-0.1,22.1l-7.1-21.8c-0.5-1.5-1.6-2.8-3-3.5c-1.4-0.7-3.1-0.9-4.6-0.4c-3.1,1-4.9,4.4-3.8,7.6
	l5.8,17.8c-0.5-0.1-0.9-0.2-1.4-0.2c-0.6,0-1.2,0.1-1.7,0.3c-1.4,0.5-2.6,1.5-3.3,2.9c-0.5,1-0.7,2-0.6,3.1
	c-0.6-0.2-1.2-0.3-1.8-0.3c-0.6,0-1.2,0.1-1.8,0.3c-1.4,0.5-2.6,1.4-3.3,2.7c-0.7,1.3-0.9,2.8-0.4,4.1l4,12.2c0,0,0,0,0,0
	c0,0,0,0,0,0c0.2,0.5,4.4,12,14.5,18.2c0.2,0.1,0.4,0.2,0.7,0.2c0.4,0,0.8-0.2,1.1-0.6c0.4-0.6,0.2-1.4-0.4-1.7
	c-5.6-3.4-9.3-8.7-11.4-12.4c0.2,0,0.5,0.1,0.7,0.1c0.6,0,1.2-0.1,1.8-0.3c1.4-0.5,2.6-1.4,3.3-2.7c0.3-0.6,0.5-1.2,0.6-1.8
	c0.8,0.4,1.6,0.6,2.5,0.6c0.6,0,1.2-0.1,1.7-0.3c1.4-0.5,2.6-1.5,3.3-2.9c0.4-0.7,0.5-1.5,0.6-2.3c1.8,0.4,3.8,0.7,5.9,0.8
	c-2.6,6.2-0.4,10.5-0.3,10.7c0.3,0.6,1.1,0.9,1.8,0.6c0.6-0.3,0.9-1.1,0.6-1.8c-0.1-0.2-2.1-4.3,1.2-10.2l1.1-2l-2.3,0
	c-8.1,0.1-13.9-2.3-14.7-6.2c-0.1-0.7-0.3-1.9,0.4-2.4c0.6-0.5,2-0.3,3,0.3c2.6,1.5,4.8,0.8,8.5-0.3c0.6-0.2,1.2-0.4,1.8-0.5
	c4.3-1.3,9.7,1.5,11.9,4c2,2.2,5,10.1,3.4,19.2c-0.1,0.7,0.3,1.4,1.1,1.5c0.1,0,0.2,0,0.2,0c0.6,0,1.2-0.4,1.3-1.1
	C-208.5,410.9-211.6,402.3-214.3,399.2z M-246.1,413.5c-0.4,0.7-1,1.2-1.8,1.5c-1.6,0.5-3.3-0.3-3.8-1.7c0,0,0,0,0,0l-4-12.2
	c-0.2-0.7-0.2-1.5,0.2-2.1c0.4-0.7,1-1.2,1.8-1.5c0.3-0.1,0.7-0.2,1-0.2c1.3,0,2.4,0.8,2.8,1.9l4,12.2
	C-245.6,412-245.7,412.8-246.1,413.5z M-244.5,400.6c0.6,2.9,3,5.2,6.6,6.6c0.1,0.7,0,1.3-0.3,2c-0.4,0.7-1,1.3-1.8,1.5
	c-1.6,0.5-3.3-0.4-3.9-2l-4.3-13.1c-0.3-0.8-0.2-1.6,0.2-2.4c0.4-0.7,1-1.3,1.8-1.5c0.3-0.1,0.6-0.1,0.9-0.1c1.2,0,2.3,0.7,2.8,1.8
	l0.5,1.6c-0.4,0.1-0.8,0.3-1.2,0.5C-243.8,396-245.1,397.5-244.5,400.6z M-237.2,395.6c-0.5-0.3-1.2-0.6-1.9-0.7l-0.7-2
	c0-0.1-0.1-0.2-0.1-0.3l-7.2-22.1c-0.6-1.8,0.4-3.7,2.2-4.2c0.9-0.3,1.8-0.2,2.6,0.2c0.8,0.4,1.4,1.1,1.7,2l8.8,27.1
	C-234.7,396.2-235.8,396.4-237.2,395.6z M-228.5,394.4l0.1-27.2c0-1.8,1.5-3.3,3.4-3.3c0,0,0,0,0,0c0.9,0,1.7,0.4,2.4,1s1,1.5,1,2.4
	l-0.1,27.6C-223.9,394.1-226.2,393.9-228.5,394.4z"/>
</svg>
