<?xml version="1.0" encoding="utf-8"?>
<!-- Generator: Adobe Illustrator 16.0.0, SVG Export Plug-In . SVG Version: 6.00 Build 0)  -->
<!DOCTYPE svg PUBLIC "-//W3C//DTD SVG 1.1//EN" "http://www.w3.org/Graphics/SVG/1.1/DTD/svg11.dtd">
<svg version="1.1" id="Layer_1" xmlns="http://www.w3.org/2000/svg" xmlns:xlink="http://www.w3.org/1999/xlink" x="0px" y="0px"
	 width="72px" height="72px" viewBox="0 0 72 72" enable-background="new 0 0 72 72" xml:space="preserve">
<g id="Layer_1_1_" display="none">
	<g display="inline">
		<path fill="#80F5F2" d="M22.449,37.229L22.449,37.229c0.197-0.261,0.316-0.58,0.316-0.931c0-0.545-0.281-1.023-0.706-1.301
			l-4.667-4.477c-0.628-0.603-1.626-0.583-2.229,0.046c-0.604,0.628-0.583,1.626,0.046,2.229l3.709,3.558l-3.754,3.906
			c-0.604,0.628-0.583,1.626,0.044,2.229c0.306,0.293,0.699,0.438,1.092,0.438c0.414,0,0.827-0.16,1.137-0.482l4.766-4.959
			c0.088-0.071,0.168-0.153,0.238-0.248L22.449,37.229z"/>
		<path fill="#80F5F2" d="M29.478,39.969h-5.566c-0.87,0-1.576,0.706-1.576,1.576c0,0.871,0.706,1.576,1.576,1.576h5.566
			c0.869,0,1.576-0.705,1.576-1.576C31.053,40.675,30.347,39.969,29.478,39.969z"/>
		<path fill="#80F5F2" d="M58.835,24.08c1.263-4.877,2.522-9.754,3.784-14.631c0.515-1.982-0.576-3.913-2.523-4.437
			c-2.008-0.539-4.021-1.053-6.037-1.563c-0.936-0.236-1.822-0.082-2.672,0.398c-0.863,0.526-1.419,1.288-1.676,2.284
			C48.17,12.1,46.624,18.07,45.079,24.04H13.472c-3.373,0-6.117,2.743-6.117,6.117v31.907c0,3.373,2.743,6.117,6.117,6.117h44.686
			c3.373,0,6.115-2.744,6.115-6.117V30.157C64.273,27.014,61.891,24.419,58.835,24.08z M51.693,10.745
			c0.328-1.266,0.656-2.534,0.982-3.801c0.119-0.461,0.342-0.59,0.805-0.471c1.895,0.49,3.789,0.979,5.684,1.469
			c0.449,0.116,0.582,0.342,0.468,0.787c-0.373,1.44-0.745,2.879-1.118,4.318c-0.02,0.069-0.039,0.135-0.053,0.177
			c-2.318-0.599-4.625-1.195-6.965-1.801C51.559,11.21,51.633,10.978,51.693,10.745z M51.02,13.518
			c2.275,0.59,4.578,1.187,6.881,1.784c-0.09,0.342-0.188,0.718-0.276,1.077c-2.291-0.592-4.597-1.189-6.886-1.781
			C50.83,14.244,50.927,13.869,51.02,13.518z M50.203,16.676c2.271,0.589,4.576,1.184,6.855,1.774
			c-0.088,0.337-0.188,0.718-0.281,1.081c-2.264-0.586-4.57-1.182-6.857-1.774C50.014,17.402,50.111,17.026,50.203,16.676z
			 M56.246,21.589c-0.211,0.816-0.423,1.635-0.635,2.451l0,0c-0.271,1.05-0.543,2.102-0.815,3.153l0,0
			c-2.003,7.741-4.009,15.487-6.011,23.229c-2.264-0.587-4.564-1.184-6.836-1.771c1.849-7.146,3.701-14.3,5.553-21.458l0,0
			c0.137-0.527,0.271-1.054,0.408-1.581c0.5-1.932,1-3.864,1.5-5.794C51.67,20.405,53.973,21,56.246,21.589z M48.25,52.477
			c-0.338,0.771-0.752,1.496-1.342,2.106c-0.584,0.604-1.188,1.187-1.777,1.785c-0.107,0.11-0.201,0.142-0.354,0.103
			c-0.756-0.205-1.514-0.4-2.272-0.589c-0.137-0.034-0.2-0.094-0.237-0.229c-0.226-0.801-0.463-1.6-0.683-2.398
			c-0.231-0.841-0.241-1.695-0.166-2.545L48.25,52.477z M61.121,62.064c0,1.634-1.33,2.965-2.965,2.965H13.472
			c-1.634,0-2.964-1.331-2.964-2.965V30.157c0-1.634,1.33-2.964,2.964-2.964h30.792c-0.188,0.741-0.383,1.48-0.574,2.221
			c-1.696,6.569-3.399,13.137-5.094,19.707c-0.438,1.697-0.402,3.4,0.066,5.088c0.374,1.343,0.762,2.684,1.15,4.021
			c0.193,0.677,0.369,1.361,0.619,2.02c0.401,1.059,1.364,1.695,2.428,1.667c0.789-0.022,1.434-0.372,1.98-0.921
			c1.375-1.371,2.758-2.738,4.12-4.12c1.229-1.24,2.08-2.709,2.521-4.396c1.174-4.485,2.326-8.978,3.488-13.461
			c1.021-3.943,2.038-7.887,3.059-11.83h0.127c1.636,0,2.966,1.329,2.966,2.964L61.121,62.064L61.121,62.064z"/>
	</g>
</g>
<path fill="#112213" d="M112.314,38.475"/>
<path d="M49.921,37.482c-0.813-0.896-2.119-1.866-3.662-2.622l0.109-21.894c0.007-1.227-0.465-2.382-1.328-3.254
	c-0.862-0.872-2.014-1.355-3.241-1.362c-0.008,0-0.015,0-0.022,0c-2.521,0-4.578,2.044-4.592,4.568l-0.086,16.948l-5.435-16.706
	c-0.379-1.167-1.189-2.115-2.283-2.672c-1.092-0.556-2.337-0.653-3.505-0.275c-2.406,0.784-3.729,3.379-2.946,5.787l4.444,13.662
	c-0.348-0.089-0.706-0.149-1.077-0.149c-0.452,0-0.901,0.072-1.334,0.213c-1.105,0.362-2.001,1.138-2.521,2.187
	c-0.366,0.736-0.503,1.546-0.431,2.35c-0.441-0.15-0.912-0.236-1.403-0.236c-0.472,0-0.941,0.075-1.396,0.224
	c-1.082,0.354-1.971,1.087-2.504,2.062c-0.544,0.996-0.653,2.124-0.31,3.177l3.045,9.312c0.002,0.007,0.006,0.013,0.008,0.02
	c0.001,0.001,0.001,0.003,0.001,0.004c0.133,0.374,3.349,9.206,11.138,13.915c0.157,0.095,0.33,0.14,0.501,0.14
	c0.328,0,0.648-0.167,0.831-0.468c0.277-0.459,0.13-1.055-0.328-1.332c-4.293-2.595-7.118-6.656-8.711-9.531
	c0.175,0.021,0.351,0.04,0.53,0.04c0.473,0,0.942-0.075,1.396-0.224c1.082-0.354,1.972-1.086,2.504-2.062
	c0.24-0.439,0.381-0.905,0.45-1.379c0.578,0.281,1.218,0.441,1.89,0.441c0.453,0,0.902-0.072,1.335-0.214
	c1.105-0.361,2.001-1.138,2.521-2.186c0.276-0.556,0.406-1.152,0.428-1.756c1.363,0.331,2.886,0.537,4.548,0.604
	c-1.982,4.729-0.288,8.076-0.208,8.229c0.257,0.491,0.858,0.681,1.353,0.427c0.492-0.253,0.688-0.859,0.438-1.354
	c-0.066-0.132-1.607-3.298,0.901-7.798l0.849-1.522l-1.742,0.023c-6.239,0.054-10.647-1.779-11.267-4.74
	c-0.111-0.529-0.219-1.475,0.31-1.852c0.497-0.355,1.499-0.265,2.28,0.2c1.967,1.173,3.686,0.648,6.535-0.217
	c0.426-0.129,0.885-0.269,1.385-0.415c3.266-0.957,7.39,1.15,9.109,3.043c1.529,1.684,3.858,7.73,2.587,14.726
	c-0.1,0.548,0.264,1.073,0.812,1.173c0.062,0.011,0.122,0.017,0.182,0.017c0.479,0,0.902-0.342,0.991-0.828
	C54.364,46.421,52.021,39.792,49.921,37.482z M25.612,48.373c-0.295,0.541-0.794,0.949-1.405,1.148
	c-1.211,0.399-2.553-0.217-2.917-1.318c-0.001-0.003-0.004-0.012-0.005-0.013l-3.042-9.304c-0.177-0.538-0.116-1.122,0.168-1.644
	c0.296-0.541,0.794-0.949,1.405-1.148c0.259-0.085,0.525-0.128,0.792-0.128c0.988,0,1.843,0.583,2.127,1.451l3.045,9.312
	C25.957,47.269,25.897,47.852,25.612,48.373z M26.835,38.492c0.471,2.247,2.281,3.993,5.069,5.081
	c0.094,0.509,0.032,1.028-0.199,1.495c-0.278,0.561-0.755,0.975-1.343,1.167c-1.206,0.396-2.549-0.317-2.95-1.54l-3.291-10.066
	c-0.198-0.607-0.153-1.253,0.127-1.818c0.278-0.561,0.755-0.975,1.342-1.167c0.229-0.075,0.468-0.113,0.707-0.113
	c0.933,0,1.762,0.562,2.145,1.414l0.396,1.22c-0.312,0.096-0.614,0.225-0.89,0.421C27.32,35.033,26.342,36.136,26.835,38.492z
	 M32.433,34.694c-0.421-0.251-0.928-0.45-1.464-0.571l-0.512-1.566c-0.026-0.08-0.065-0.153-0.097-0.231l-5.513-16.948
	c-0.438-1.35,0.303-2.806,1.652-3.245c0.654-0.213,1.353-0.158,1.966,0.154c0.613,0.312,1.068,0.844,1.28,1.498l6.75,20.75
	C34.327,35.176,33.453,35.304,32.433,34.694z M39.095,33.778L39.2,12.929c0.008-1.415,1.163-2.562,2.576-2.562
	c0.004,0,0.008,0,0.012,0c0.689,0.004,1.335,0.275,1.819,0.764c0.484,0.489,0.748,1.137,0.745,1.825l-0.106,21.103
	C42.587,33.547,40.796,33.365,39.095,33.778z"/>
</svg>
