<?xml version="1.0" encoding="utf-8"?>
<!-- Generator: Adobe Illustrator 18.1.1, SVG Export Plug-In . SVG Version: 6.00 Build 0)  -->
<svg version="1.1" id="Layer_1" xmlns="http://www.w3.org/2000/svg" xmlns:xlink="http://www.w3.org/1999/xlink" x="0px" y="0px"
	 viewBox="-269 361 72 72" enable-background="new -269 361 72 72" xml:space="preserve">
<g id="Layer_1_1_" display="none">
	<g display="inline">
		<path fill="#80F5F2" d="M-246.6,398.2L-246.6,398.2c0.2-0.3,0.3-0.6,0.3-0.9c0-0.5-0.3-1-0.7-1.3l-4.7-4.5c-0.6-0.6-1.6-0.6-2.2,0
			c-0.6,0.6-0.6,1.6,0,2.2l3.7,3.6l-3.8,3.9c-0.6,0.6-0.6,1.6,0,2.2c0.3,0.3,0.7,0.4,1.1,0.4c0.4,0,0.8-0.2,1.1-0.5l4.8-5
			C-246.7,398.4-246.6,398.3-246.6,398.2L-246.6,398.2z"/>
		<path fill="#80F5F2" d="M-239.5,401h-5.6c-0.9,0-1.6,0.7-1.6,1.6c0,0.9,0.7,1.6,1.6,1.6h5.6c0.9,0,1.6-0.7,1.6-1.6
			C-237.9,401.7-238.7,401-239.5,401z"/>
		<path fill="#80F5F2" d="M-210.2,385.1c1.3-4.9,2.5-9.8,3.8-14.6c0.5-2-0.6-3.9-2.5-4.4c-2-0.5-4-1.1-6-1.6
			c-0.9-0.2-1.8-0.1-2.7,0.4c-0.9,0.5-1.4,1.3-1.7,2.3c-1.5,6-3.1,11.9-4.6,17.9h-31.6c-3.4,0-6.1,2.7-6.1,6.1v31.9
			c0,3.4,2.7,6.1,6.1,6.1h44.7c3.4,0,6.1-2.7,6.1-6.1v-31.9C-204.7,388-207.1,385.4-210.2,385.1z M-217.3,371.7
			c0.3-1.3,0.7-2.5,1-3.8c0.1-0.5,0.3-0.6,0.8-0.5c1.9,0.5,3.8,1,5.7,1.5c0.4,0.1,0.6,0.3,0.5,0.8c-0.4,1.4-0.7,2.9-1.1,4.3
			c0,0.1,0,0.1-0.1,0.2c-2.3-0.6-4.6-1.2-7-1.8C-217.4,372.2-217.4,372-217.3,371.7z M-218,374.5c2.3,0.6,4.6,1.2,6.9,1.8
			c-0.1,0.3-0.2,0.7-0.3,1.1c-2.3-0.6-4.6-1.2-6.9-1.8C-218.2,375.2-218.1,374.9-218,374.5z M-218.8,377.7c2.3,0.6,4.6,1.2,6.9,1.8
			c-0.1,0.3-0.2,0.7-0.3,1.1c-2.3-0.6-4.6-1.2-6.9-1.8C-219,378.4-218.9,378-218.8,377.7z M-212.8,382.6c-0.2,0.8-0.4,1.6-0.6,2.5
			l0,0c-0.3,1-0.5,2.1-0.8,3.2l0,0c-2,7.7-4,15.5-6,23.2c-2.3-0.6-4.6-1.2-6.8-1.8c1.8-7.1,3.7-14.3,5.6-21.5l0,0
			c0.1-0.5,0.3-1.1,0.4-1.6c0.5-1.9,1-3.9,1.5-5.8C-217.3,381.4-215,382-212.8,382.6z M-220.8,413.5c-0.3,0.8-0.8,1.5-1.3,2.1
			c-0.6,0.6-1.2,1.2-1.8,1.8c-0.1,0.1-0.2,0.1-0.4,0.1c-0.8-0.2-1.5-0.4-2.3-0.6c-0.1,0-0.2-0.1-0.2-0.2c-0.2-0.8-0.5-1.6-0.7-2.4
			c-0.2-0.8-0.2-1.7-0.2-2.5L-220.8,413.5z M-207.9,423.1c0,1.6-1.3,3-3,3h-44.7c-1.6,0-3-1.3-3-3v-31.9c0-1.6,1.3-3,3-3h30.8
			c-0.2,0.7-0.4,1.5-0.6,2.2c-1.7,6.6-3.4,13.1-5.1,19.7c-0.4,1.7-0.4,3.4,0.1,5.1c0.4,1.3,0.8,2.7,1.2,4c0.2,0.7,0.4,1.4,0.6,2
			c0.4,1.1,1.4,1.7,2.4,1.7c0.8,0,1.4-0.4,2-0.9c1.4-1.4,2.8-2.7,4.1-4.1c1.2-1.2,2.1-2.7,2.5-4.4c1.2-4.5,2.3-9,3.5-13.5
			c1-3.9,2-7.9,3.1-11.8h0.1c1.6,0,3,1.3,3,3L-207.9,423.1L-207.9,423.1z"/>
	</g>
</g>
<path fill="#FFFFFF" d="M-197.1,394c0-0.2-1.2-4.8-5.8-8.1c-8.3-5.9-8.8-8.1-9.1-9.4c-0.4-1.7-1.6-3.6-2-4.3
	c-0.1-0.6-0.3-2.1-0.4-4.4l0-0.4l-0.2-0.3c-1.9-2.6-4.5-3.2-6.9-1.7c-3.9,2.4-5.9,9.6-2.8,15.7c1.9,3.8,2.3,5.8,2.3,6.8
	c-6.5,0-40.8,0.1-41.1,0.1c-3.1,0-5.5,2.5-5.5,5.5c0,3.1,2.5,5.5,5.5,5.5l1.6,0c3.5,0,12.3,0,18.7,0c-0.4,0.8-0.6,1.8-0.5,2.7
	c0.2,1.9,1.5,3.5,3.4,4.4c-1.3,1.3-2,3-1.7,4.8c0.4,2.3,2.4,4.1,4.9,4.5c-1.3,1.4-1.9,3.2-1.4,5c0.6,2.5,3,4.2,5.7,4.2
	c0.5,0,1.1-0.1,1.6-0.2l0.7-0.2c0.9,0.4,5.9,2.5,12.7,2.5c5.4,0,11.9-1.4,18.2-6.1c0.5-0.4,0.7-1.2,0.2-1.7
	c-0.4-0.5-1.2-0.7-1.7-0.2c-9.6,7.2-19.8,5.8-25,4.4l5.4-1.3c3.3-0.8,5.4-3.9,4.7-6.9c-0.5-2-2.1-3.4-4.1-3.9c0.8-1.2,1.2-2.6,0.9-4
	c-0.2-1.2-0.9-2.3-1.8-3.1c0.2-0.2,0.4-0.3,0.6-0.5c1.2-1.2,1.8-2.7,1.6-4.3c-0.3-3.1-3.5-5.3-7.2-5l-11.8,1.2
	c-1.2,0.1-2.4,0.5-3.3,1.2c-6.5,0-16.9,0-20.9,0h-1.6c-1.7,0-3.1-1.4-3.1-3.1c0-1.7,1.4-3.1,3.1-3.1c0.3,0,42.2-0.1,42.2-0.1h0.7
	l0.4-0.6c0.4-0.6,1.2-2.9-2.2-9.8c-2.6-5.2-0.6-10.9,1.9-12.5c1.2-0.7,2.3-0.5,3.4,0.8c0.2,2.9,0.4,4.5,0.4,4.6l0,0.3l0.2,0.2
	c0,0,1.4,2,1.8,3.6c0.5,2.3,1.7,4.8,10.1,10.8c3.8,2.7,4.8,6.6,4.9,6.7c0.2,0.7,0.8,1.1,1.5,0.9C-197.4,395.3-197,394.7-197.1,394z
	 M-218.1,415.4c0.4,1.7-0.9,3.5-2.9,4l-10.5,2.6c-2,0.5-4-0.5-4.4-2.2c-0.4-1.7,0.9-3.5,2.9-4l10.5-2.6c0.3-0.1,0.7-0.1,1-0.1
	C-219.8,413.1-218.4,414-218.1,415.4z M-221.3,407.3c0.1,0.8-0.1,1.6-0.7,2.3c-0.6,0.7-1.5,1.2-2.5,1.4l-10.7,1.8
	c-2,0.3-3.9-0.8-4.2-2.5c-0.3-1.7,1.1-3.4,3.1-3.8l0.9-0.2l10.8-1.1c0.5,0,0.9-0.1,1.4-0.3C-222.2,405.5-221.4,406.3-221.3,407.3z
	 M-225.4,396.4c0.2,0,0.4,0,0.6,0c2.1,0,3.8,1.2,4,2.9c0.1,0.8-0.2,1.7-0.9,2.4c-0.7,0.8-1.8,1.2-3,1.4l-11.8,1.2
	c-2.4,0.2-4.4-1.1-4.6-2.8c-0.2-1.8,1.6-3.5,3.9-3.7L-225.4,396.4z"/>
</svg>
