<?xml version="1.0" encoding="utf-8"?>
<!-- Generator: Adobe Illustrator 16.0.0, SVG Export Plug-In . SVG Version: 6.00 Build 0)  -->
<!DOCTYPE svg PUBLIC "-//W3C//DTD SVG 1.1//EN" "http://www.w3.org/Graphics/SVG/1.1/DTD/svg11.dtd">
<svg version="1.1" id="Layer_1" xmlns="http://www.w3.org/2000/svg" xmlns:xlink="http://www.w3.org/1999/xlink" x="0px" y="0px"
	 width="72px" height="72px" viewBox="0 0 72 72" enable-background="new 0 0 72 72" xml:space="preserve">
<g id="Layer_1_1_" display="none">
	<g display="inline">
		<path fill="#80F5F2" d="M22.449,37.229L22.449,37.229c0.197-0.261,0.316-0.58,0.316-0.931c0-0.545-0.281-1.023-0.706-1.301
			l-4.667-4.477c-0.628-0.603-1.626-0.583-2.229,0.046c-0.604,0.628-0.583,1.626,0.046,2.229l3.709,3.558l-3.754,3.906
			c-0.604,0.628-0.583,1.626,0.044,2.229c0.306,0.293,0.699,0.438,1.092,0.438c0.414,0,0.827-0.16,1.137-0.482l4.766-4.959
			c0.088-0.07,0.168-0.152,0.238-0.248L22.449,37.229z"/>
		<path fill="#80F5F2" d="M29.478,39.969h-5.566c-0.87,0-1.576,0.706-1.576,1.576c0,0.871,0.706,1.576,1.576,1.576h5.566
			c0.869,0,1.576-0.705,1.576-1.576C31.053,40.675,30.347,39.969,29.478,39.969z"/>
		<path fill="#80F5F2" d="M58.835,24.08c1.263-4.877,2.522-9.754,3.784-14.631c0.515-1.982-0.576-3.913-2.523-4.437
			c-2.008-0.539-4.021-1.053-6.037-1.563c-0.936-0.236-1.822-0.082-2.672,0.398c-0.863,0.526-1.419,1.288-1.676,2.284
			C48.17,12.1,46.624,18.07,45.079,24.04H13.472c-3.373,0-6.117,2.743-6.117,6.117v31.907c0,3.373,2.743,6.117,6.117,6.117h44.686
			c3.373,0,6.115-2.744,6.115-6.117V30.157C64.273,27.014,61.891,24.419,58.835,24.08z M51.693,10.745
			c0.328-1.266,0.656-2.534,0.981-3.801c0.119-0.461,0.343-0.59,0.806-0.471c1.895,0.49,3.789,0.979,5.684,1.469
			c0.449,0.116,0.582,0.342,0.468,0.787c-0.373,1.44-0.745,2.879-1.118,4.318c-0.02,0.069-0.039,0.135-0.053,0.177
			c-2.318-0.599-4.625-1.195-6.965-1.801C51.559,11.21,51.633,10.978,51.693,10.745z M51.02,13.518
			c2.275,0.59,4.578,1.187,6.881,1.784c-0.09,0.342-0.188,0.718-0.275,1.077c-2.291-0.592-4.598-1.189-6.887-1.781
			C50.83,14.244,50.927,13.869,51.02,13.518z M50.203,16.676c2.271,0.589,4.576,1.184,6.855,1.774
			c-0.088,0.337-0.188,0.718-0.281,1.081c-2.264-0.586-4.57-1.182-6.857-1.774C50.014,17.402,50.111,17.026,50.203,16.676z
			 M56.246,21.589c-0.211,0.816-0.423,1.635-0.635,2.451l0,0c-0.271,1.05-0.543,2.102-0.815,3.153l0,0
			c-2.003,7.741-4.009,15.487-6.011,23.229c-2.264-0.587-4.564-1.184-6.836-1.771c1.849-7.146,3.701-14.299,5.553-21.458l0,0
			c0.137-0.527,0.271-1.054,0.408-1.581c0.5-1.932,1-3.864,1.5-5.794C51.67,20.405,53.973,21,56.246,21.589z M48.25,52.477
			c-0.338,0.771-0.752,1.496-1.342,2.106c-0.584,0.604-1.188,1.187-1.777,1.785c-0.107,0.11-0.201,0.142-0.354,0.103
			c-0.756-0.205-1.514-0.4-2.272-0.589c-0.137-0.034-0.2-0.094-0.237-0.229c-0.226-0.801-0.463-1.6-0.683-2.397
			c-0.231-0.841-0.241-1.694-0.166-2.545L48.25,52.477z M61.121,62.064c0,1.634-1.33,2.965-2.965,2.965H13.472
			c-1.634,0-2.964-1.331-2.964-2.965V30.157c0-1.634,1.33-2.964,2.964-2.964h30.792c-0.188,0.741-0.383,1.48-0.574,2.221
			c-1.695,6.569-3.398,13.137-5.094,19.707c-0.438,1.697-0.402,3.4,0.066,5.088c0.374,1.343,0.762,2.684,1.15,4.021
			c0.192,0.677,0.369,1.36,0.619,2.02c0.4,1.059,1.363,1.695,2.428,1.667c0.789-0.022,1.434-0.372,1.979-0.921
			c1.375-1.371,2.759-2.738,4.12-4.12c1.229-1.24,2.08-2.709,2.521-4.396c1.174-4.485,2.326-8.979,3.487-13.461
			c1.021-3.943,2.038-7.888,3.06-11.831h0.127c1.636,0,2.966,1.329,2.966,2.964L61.121,62.064L61.121,62.064z"/>
	</g>
</g>
<path d="M62.787,32.821c-0.035-0.149-0.907-3.672-4.453-6.205c-6.362-4.544-6.743-6.192-6.971-7.176
	c-0.308-1.334-1.209-2.747-1.557-3.258c-0.063-0.448-0.213-1.626-0.295-3.379l-0.015-0.29l-0.174-0.231
	c-1.474-1.965-3.448-2.459-5.28-1.325c-2.952,1.829-4.504,7.352-2.164,12.006c1.446,2.875,1.734,4.438,1.763,5.167
	c-4.966,0.006-31.223,0.039-31.441,0.039c-2.339,0-4.242,1.903-4.242,4.242c0,2.339,1.903,4.242,4.242,4.242l1.22-0.003
	c2.71-0.006,9.381-0.021,14.301-0.029c-0.308,0.639-0.449,1.343-0.374,2.067c0.154,1.477,1.177,2.692,2.606,3.332
	c-1,0.966-1.532,2.307-1.293,3.686c0.311,1.795,1.832,3.15,3.744,3.442c-0.962,1.044-1.417,2.451-1.075,3.837
	c0.464,1.879,2.268,3.19,4.387,3.19c0.419,0,0.841-0.052,1.254-0.153l0.525-0.13c0.669,0.304,4.523,1.95,9.69,1.95
	c4.123,0,9.079-1.049,13.915-4.664c0.418-0.312,0.503-0.902,0.191-1.319c-0.312-0.416-0.901-0.504-1.319-0.19
	c-7.325,5.475-15.128,4.463-19.1,3.39l4.133-1.021c2.541-0.629,4.146-3.013,3.575-5.314c-0.369-1.492-1.589-2.615-3.136-3.018
	c0.64-0.913,0.909-1.976,0.725-3.035c-0.161-0.932-0.654-1.741-1.353-2.348c0.147-0.12,0.301-0.232,0.434-0.366
	c0.91-0.925,1.342-2.088,1.216-3.271c-0.246-2.355-2.695-4.083-5.496-3.788l-9.028,0.947c-0.945,0.1-1.804,0.42-2.521,0.889
	c-4.946,0.008-12.965,0.025-16.005,0.032L12.2,34.766c-1.299,0-2.356-1.058-2.356-2.357c0-1.3,1.057-2.356,2.356-2.356
	c0.242,0,32.249-0.039,32.249-0.039l0.517,0l0.277-0.437c0.271-0.427,0.954-2.227-1.679-7.461c-1.992-3.962-0.434-8.375,1.472-9.556
	c0.905-0.561,1.781-0.347,2.607,0.636c0.117,2.202,0.325,3.449,0.334,3.503l0.038,0.218l0.13,0.178
	c0.011,0.016,1.093,1.516,1.381,2.769c0.405,1.754,1.3,3.707,7.712,8.287c2.938,2.098,3.702,5.056,3.716,5.109
	c0.121,0.506,0.63,0.816,1.134,0.696C62.595,33.835,62.907,33.328,62.787,32.821z M46.751,49.174
	c0.319,1.292-0.666,2.652-2.198,3.031l-8.035,1.985c-1.509,0.37-3.048-0.404-3.358-1.659c-0.318-1.294,0.668-2.653,2.199-3.031
	l8.035-1.985c0.266-0.065,0.535-0.099,0.801-0.099C45.445,47.416,46.495,48.139,46.751,49.174z M44.312,42.99
	c0.106,0.612-0.07,1.244-0.498,1.778c-0.456,0.568-1.134,0.955-1.908,1.09l-8.155,1.415c-1.535,0.265-3.01-0.606-3.233-1.892
	c-0.228-1.312,0.853-2.6,2.407-2.869l0.67-0.116l8.277-0.868c0.358-0.038,0.705-0.113,1.042-0.211
	C43.647,41.644,44.184,42.247,44.312,42.99z M41.159,34.692c0.147-0.016,0.295-0.023,0.439-0.023c1.619,0,2.94,0.947,3.071,2.203
	c0.068,0.639-0.183,1.281-0.706,1.813c-0.57,0.579-1.38,0.95-2.279,1.045l-9.026,0.947c-1.81,0.189-3.372-0.812-3.514-2.179
	c-0.145-1.388,1.196-2.672,2.988-2.86L41.159,34.692z"/>
</svg>
