<?xml version="1.0" encoding="utf-8"?>
<!-- Generator: Adobe Illustrator 18.1.1, SVG Export Plug-In . SVG Version: 6.00 Build 0)  -->
<svg version="1.1" id="Layer_1" xmlns="http://www.w3.org/2000/svg" xmlns:xlink="http://www.w3.org/1999/xlink" x="0px" y="0px"
	 viewBox="0 0 342 769.5" enable-background="new 0 0 342 769.5" xml:space="preserve">
<rect x="-9.2" y="-22.5" fill="#4CAF50" enable-background="new    " width="357.9" height="792"/>
<path opacity="0.3" fill="none" stroke="#FFFFFF" stroke-width="15" stroke-linecap="round" stroke-miterlimit="10" enable-background="new    " d="
	M-349.5,389.4c0,0,10.4,0.9,16-9.5c7.4-15.6-10.4-20.1-1.7-35.7c0,0,4.1-7.9,15.1-8.2"/>
<path opacity="0.7" fill="none" stroke="#FFFFFF" stroke-width="7.6018" stroke-linecap="round" stroke-miterlimit="10" enable-background="new    " d="
	M-205.6,442.8c0,0,3.5,4,9.2,2c8.1-3.2,3-11.1,11.6-13.8c0,0,4.3-1.5,8.4,2.1"/>
<path opacity="0.3" fill="none" stroke="#FFFFFF" stroke-width="15" stroke-linecap="round" stroke-miterlimit="10" enable-background="new    " d="
	M-224.9,236.5c0,0,0.9,10.4,12.2,14c16.7,4.4,17.8-13.9,34.7-8.2c0,0,8.5,2.6,10.9,13.3"/>
<path opacity="0.3" fill="none" stroke="#FFFFFF" stroke-width="15" stroke-linecap="round" stroke-miterlimit="10" enable-background="new    " d="
	M-174,616.6c0,0-6.7,8-1.2,18.6c8.7,14.9,22.4,2.7,30.4,18.7c0,0,4.2,7.8-1.7,17"/>
<path opacity="0.3" fill="none" stroke="#FFFFFF" stroke-width="15" stroke-linecap="round" stroke-miterlimit="10" enable-background="new    " d="
	M-418.1,50.4c0,0-6.7,8-1.2,18.6c8.7,14.9,22.4,2.7,30.4,18.7c0,0,4.2,7.8-1.7,17"/>
<path opacity="0.2" fill="none" stroke="#FFFFFF" stroke-width="7.6018" stroke-linecap="round" stroke-miterlimit="10" enable-background="new    " d="
	M-263.2,15.6c0,0,0.1-5.3-5.3-7.8c-8.1-3.2-9.8,6-18,2.1c0,0-4.1-1.8-4.6-7.3"/>
<path opacity="0.3" fill="none" stroke="#FFFFFF" stroke-width="4.4856" stroke-linecap="round" stroke-miterlimit="10" enable-background="new    " d="
	M-290.4,574.3c0,0,2.1,2.4,5.4,1.2c4.8-1.9,1.8-6.5,6.9-8.1c0,0,2.5-0.9,4.9,1.2"/>
<path opacity="0.3" fill="none" stroke="#FFFFFF" stroke-width="4.4856" stroke-linecap="round" stroke-miterlimit="10" enable-background="new    " d="
	M-328.9,196c0,0,2.1,2.4,5.4,1.2c4.8-1.9,1.8-6.5,6.9-8.1c0,0,2.5-0.9,4.9,1.2"/>
<path opacity="0.3" fill="none" stroke="#FFFFFF" stroke-width="15" stroke-linecap="round" stroke-miterlimit="10" enable-background="new    " d="
	M-111.4,50.6c0,0-6.7,8-1.2,18.6c8.7,14.9,22.4,2.7,30.4,18.7c0,0,4.2,7.8-1.7,17"/>
</svg>
