<?xml version="1.0" encoding="utf-8"?>
<!-- Generator: Adobe Illustrator 16.0.0, SVG Export Plug-In . SVG Version: 6.00 Build 0)  -->
<!DOCTYPE svg PUBLIC "-//W3C//DTD SVG 1.1//EN" "http://www.w3.org/Graphics/SVG/1.1/DTD/svg11.dtd">
<svg version="1.1" id="Layer_1" xmlns="http://www.w3.org/2000/svg" xmlns:xlink="http://www.w3.org/1999/xlink" x="0px" y="0px"
	 width="324px" height="836.531px" viewBox="0 0 324 836.531" enable-background="new 0 0 324 836.531" xml:space="preserve">
<linearGradient id="SVGID_1_" gradientUnits="userSpaceOnUse" x1="-380" y1="532" x2="-168" y2="532" gradientTransform="matrix(1 0 0 -1 126 873.5312)">
	<stop  offset="0" style="stop-color:#F2D53C"/>
	<stop  offset="0.5252" style="stop-color:#F26A5C"/>
	<stop  offset="1" style="stop-color:#323031"/>
</linearGradient>
<rect x="-254" y="215.531" fill="url(#SVGID_1_)" width="212" height="252"/>
<linearGradient id="SVGID_2_" gradientUnits="userSpaceOnUse" x1="43.0894" y1="841.3809" x2="43.0892" y2="58.1511" gradientTransform="matrix(1 0 0 -1 126 873.5312)">
	<stop  offset="0" style="stop-color:#F2D53C"/>
	<stop  offset="0.5252" style="stop-color:#F26A5C"/>
	<stop  offset="1" style="stop-color:#323031"/>
</linearGradient>
<rect x="-19.901" y="-0.001" opacity="0.8" fill="url(#SVGID_2_)" enable-background="new    " width="377.981" height="836.531"/>
<g>
	<g>
		<defs>
			<rect id="SVGID_3_" x="747.706" y="-13.758" width="564.003" height="315.176"/>
		</defs>
		<clipPath id="SVGID_4_">
			<use xlink:href="#SVGID_3_"  overflow="visible"/>
		</clipPath>
		<polyline clip-path="url(#SVGID_4_)" fill="none" stroke="#F2D53C" stroke-width="2" stroke-miterlimit="10" points="
			1302.709,-4.759 757.709,-4.759 758.709,300.414 		"/>
	</g>
</g>
<line fill="none" stroke="#F2D53C" stroke-width="2" stroke-miterlimit="10" x1="940.096" y1="204.59" x2="940.096" y2="99.918"/>
<line fill="none" stroke="#F2D53C" stroke-width="2" stroke-miterlimit="10" x1="998.472" y1="161.284" x2="871.033" y2="161.284"/>
<g>
	<g>
		<defs>
			<rect id="SVGID_5_" x="747.706" y="-13.758" width="564.003" height="315.176"/>
		</defs>
		<clipPath id="SVGID_6_">
			<use xlink:href="#SVGID_5_"  overflow="visible"/>
		</clipPath>
		<path clip-path="url(#SVGID_6_)" fill="#4AC2CA" d="M892.075,182.882c14.276,0,25.891-11.614,25.891-25.892
			c0-14.274-11.614-25.889-25.891-25.889c-14.275,0-25.891,11.614-25.891,25.889C866.186,171.268,877.8,182.882,892.075,182.882
			 M892.075,125.102c17.584,0,31.891,14.307,31.891,31.889c0,17.586-14.307,31.892-31.891,31.892s-31.891-14.306-31.891-31.892
			C860.186,139.409,874.491,125.102,892.075,125.102"/>
	</g>
	<g>
		<defs>
			<rect id="SVGID_7_" x="747.706" y="-13.758" width="564.003" height="315.176"/>
		</defs>
		<clipPath id="SVGID_8_">
			<use xlink:href="#SVGID_7_"  overflow="visible"/>
		</clipPath>
		
			<linearGradient id="SVGID_9_" gradientUnits="userSpaceOnUse" x1="766.0742" y1="1363.8301" x2="766.0742" y2="981.3021" gradientTransform="matrix(1 0 0 -1 126 873.5312)">
			<stop  offset="0" style="stop-color:#F2D53C"/>
			<stop  offset="1" style="stop-color:#F26A5C"/>
		</linearGradient>
		<path clip-path="url(#SVGID_8_)" fill="url(#SVGID_9_)" d="M892.075,155.401c14.276,0,25.891-11.613,25.891-25.887
			c0-14.275-11.614-25.891-25.891-25.891c-14.275,0-25.891,11.615-25.891,25.891C866.186,143.788,877.8,155.401,892.075,155.401
			 M892.075,97.624c17.584,0,31.891,14.307,31.891,31.891c0,17.581-14.307,31.887-31.891,31.887s-31.891-14.306-31.891-31.887
			C860.186,111.93,874.491,97.624,892.075,97.624"/>
	</g>
	<g>
		<defs>
			<rect id="SVGID_10_" x="747.706" y="-13.758" width="564.003" height="315.176"/>
		</defs>
		<clipPath id="SVGID_11_">
			<use xlink:href="#SVGID_10_"  overflow="visible"/>
		</clipPath>
		<path clip-path="url(#SVGID_11_)" fill="#4AC2CA" d="M895.414,88.016l-0.001,0.018c20.698,1.387,37.291,17.98,38.675,38.681
			c0.095,1.571,1.412,2.819,3.007,2.819c1.657,0,3-1.344,3-3.002c0-0.117-0.021-0.229-0.034-0.342
			c-1.641-23.619-20.579-42.537-44.206-44.14l-0.001,0.009c-0.088-0.007-0.173-0.025-0.263-0.025c-1.655,0-2.999,1.343-2.999,3
			C892.592,86.628,893.841,87.921,895.414,88.016"/>
	</g>
	<g>
		<defs>
			<rect id="SVGID_12_" x="747.706" y="-13.758" width="564.003" height="315.176"/>
		</defs>
		<clipPath id="SVGID_13_">
			<use xlink:href="#SVGID_12_"  overflow="visible"/>
		</clipPath>
		<path clip-path="url(#SVGID_13_)" fill="#F26A5C" d="M889.773,198.616l0.001-0.018c-20.699-1.387-37.292-17.981-38.677-38.682
			c-0.096-1.57-1.412-2.818-3.007-2.818c-1.656,0-3,1.343-3,3c0,0.119,0.021,0.229,0.034,0.344
			c1.642,23.618,20.58,42.536,44.206,44.139l0.002-0.009c0.087,0.007,0.172,0.026,0.263,0.026c1.655,0,2.999-1.344,2.999-3
			C892.596,200.002,891.346,198.709,889.773,198.616"/>
	</g>
	<g>
		<defs>
			<rect id="SVGID_14_" x="747.706" y="-13.758" width="564.003" height="315.176"/>
		</defs>
		<clipPath id="SVGID_15_">
			<use xlink:href="#SVGID_14_"  overflow="visible"/>
		</clipPath>
		<path clip-path="url(#SVGID_15_)" fill="#323031" d="M863.303,143.252c1.082,2.258,2.426,4.367,3.985,6.293
			c0.676-2.244,1.66-4.351,2.884-6.293c-1.224-1.943-2.208-4.049-2.884-6.293C865.729,138.885,864.385,140.995,863.303,143.252
			 M920.85,143.252c-1.083-2.258-2.427-4.367-3.985-6.293c-0.677,2.244-1.66,4.35-2.884,6.293c1.223,1.942,2.207,4.049,2.883,6.293
			C918.423,147.62,919.768,145.51,920.85,143.252"/>
	</g>
	<g>
		<defs>
			<rect id="SVGID_16_" x="747.706" y="-13.758" width="564.003" height="315.176"/>
		</defs>
		<clipPath id="SVGID_17_">
			<use xlink:href="#SVGID_16_"  overflow="visible"/>
		</clipPath>
		<path clip-path="url(#SVGID_17_)" fill="#323031" d="M1019.521,161.161c7.978,0,14.44-6.477,14.44-14.467
			c0-7.988-6.464-14.464-14.44-14.464c-7.974,0-14.438,6.476-14.438,14.464C1005.084,154.684,1011.549,161.161,1019.521,161.161
			 M1019.521,137.918c4.84,0,8.761,3.931,8.761,8.775c0,4.848-3.921,8.775-8.761,8.775c-4.836,0-8.758-3.928-8.758-8.775
			C1010.765,141.849,1014.688,137.918,1019.521,137.918"/>
	</g>
	<g>
		<defs>
			<rect id="SVGID_18_" x="747.706" y="-13.758" width="564.003" height="315.176"/>
		</defs>
		<clipPath id="SVGID_19_">
			<use xlink:href="#SVGID_18_"  overflow="visible"/>
		</clipPath>
		<path clip-path="url(#SVGID_19_)" fill="#323031" d="M1162.241,132.202c-7.974,0-14.439,6.476-14.439,14.465
			c0,7.99,6.468,14.68,14.439,14.68c3.295,0,6.33-1.322,8.759-3.182v0.16l0.005,0.27c0.021,1.562,1.288,2.555,2.854,2.555
			c1.573,0,2.855-1.281,2.855-2.861c0-0.113-0.034-11.621-0.034-11.621C1176.681,138.677,1170.216,132.202,1162.241,132.202
			 M1162.241,155.657c-4.838,0-8.761-4.144-8.761-8.99s3.923-8.775,8.761-8.775s8.759,3.93,8.759,8.775
			C1171,151.513,1167.079,155.657,1162.241,155.657"/>
	</g>
	<g>
		<defs>
			<rect id="SVGID_20_" x="747.706" y="-13.758" width="564.003" height="315.176"/>
		</defs>
		<clipPath id="SVGID_21_">
			<use xlink:href="#SVGID_20_"  overflow="visible"/>
		</clipPath>
		<path clip-path="url(#SVGID_21_)" fill="#323031" d="M998.602,146.754c0-7.989-6.465-14.465-14.438-14.465
			s-14.439,6.476-14.439,14.465v40.482c0,1.568,1.272,2.844,2.841,2.844s2.84-1.275,2.84-2.844v-28.984
			c2.43,1.859,5.464,2.969,8.76,2.969C992.137,161.221,998.602,154.745,998.602,146.754 M984.162,155.53
			c-4.839,0-8.76-3.928-8.76-8.775c0-4.846,3.921-8.776,8.76-8.776c4.836,0,8.759,3.931,8.759,8.776
			C992.921,151.602,988.998,155.53,984.162,155.53"/>
	</g>
	<g>
		<defs>
			<rect id="SVGID_22_" x="747.706" y="-13.758" width="564.003" height="315.176"/>
		</defs>
		<clipPath id="SVGID_23_">
			<use xlink:href="#SVGID_22_"  overflow="visible"/>
		</clipPath>
		<path clip-path="url(#SVGID_23_)" fill="#323031" d="M1083.36,132.276c1.568,0,2.841,1.273,2.841,2.845h0.004v23.696h-0.006
			c-0.104,11.88-9.743,21.482-21.627,21.482c0,0-1.243-0.016-1.273-0.016c-1.603,0-2.904-1.301-2.904-2.905s1.303-2.905,2.904-2.905
			h1.145c8.72,0,15.81-6.965,16.041-15.646c-2.786,2.66-7.207,3.242-8.719,3.242c-7.974,0-14.438-6.476-14.438-14.466
			c0-0.01,0.008-12.479,0.008-12.482c0-1.566,1.268-2.836,2.829-2.836c1.562,0,2.829,1.27,2.829,2.835
			c0,0.004-0.001,0.009-0.001,0.013c0,0,0.006,12.465,0.006,12.476c0,4.851,3.923,8.78,8.763,8.78c4.491,0,8.188-3.385,8.699-7.748
			c0.007-0.232,0.017-0.469,0.017-0.705c0-0.11,0.021-12.826,0.021-12.83C1080.495,133.533,1081.794,132.276,1083.36,132.276"/>
	</g>
	<g>
		<defs>
			<rect id="SVGID_24_" x="747.706" y="-13.758" width="564.003" height="315.176"/>
		</defs>
		<clipPath id="SVGID_25_">
			<use xlink:href="#SVGID_24_"  overflow="visible"/>
		</clipPath>
		<path clip-path="url(#SVGID_25_)" fill="#323031" d="M1045.243,161.161c1.597,0,2.89-1.295,2.89-2.894v-42.06h-0.023
			c-0.121-1.487-1.351-2.66-2.865-2.66c-1.516,0-2.741,1.173-2.862,2.66h-0.024v42.06
			C1042.355,159.866,1043.649,161.161,1045.243,161.161"/>
	</g>
	<g>
		<defs>
			<rect id="SVGID_26_" x="747.706" y="-13.758" width="564.003" height="315.176"/>
		</defs>
		<clipPath id="SVGID_27_">
			<use xlink:href="#SVGID_26_"  overflow="visible"/>
		</clipPath>
		<path clip-path="url(#SVGID_27_)" fill="#323031" d="M1207.26,156.459l-10.547-12.658l7.668-6.416
			c0.783-0.516,1.3-1.404,1.29-2.416c-0.015-1.58-1.307-2.85-2.884-2.832c-0.657,0.006-1.252,0.242-1.731,0.619l-0.021-0.025
			l-9.379,7.848v-24.184c0-1.58-1.281-2.862-2.857-2.862c-1.577,0-2.855,1.282-2.855,2.862v41.892c0,1.581,1.278,2.862,2.855,2.862
			c1.576,0,2.857-1.281,2.857-2.862v-11.62l11.22,13.461l0.013-0.009c0.532,0.632,1.319,1.036,2.206,1.03
			c1.575-0.018,2.844-1.311,2.828-2.891c-0.008-0.686-0.263-1.304-0.668-1.791L1207.26,156.459z"/>
	</g>
	<g>
		<defs>
			<rect id="SVGID_28_" x="747.706" y="-13.758" width="564.003" height="315.176"/>
		</defs>
		<clipPath id="SVGID_29_">
			<use xlink:href="#SVGID_28_"  overflow="visible"/>
		</clipPath>
		<path clip-path="url(#SVGID_29_)" fill="#323031" d="M1263.849,131.862c-0.587-0.133-1.012-0.087-1.809-0.087
			c-3.252,0-6.278,1.538-8.691,3.354c0,0,0.001-0.084,0.001-0.096c-0.015-1.591-1.313-2.867-2.902-2.852
			c-1.579,0.016-2.85,1.435-2.846,3.015c0,0,0.029,23.112,0.029,23.122c0.015,1.581,1.306,2.85,2.883,2.833
			c1.568-0.013,2.827-1.293,2.827-2.862l0.033-11.57c0-4.847,3.9-9.254,8.713-9.254c0.324,0,0.645,0.02,0.959,0.051
			c1.711,0.16,2.924-1.09,3.12-2.31C1266.37,133.932,1265.791,132.305,1263.849,131.862"/>
	</g>
	<g>
		<defs>
			<rect id="SVGID_30_" x="747.706" y="-13.758" width="564.003" height="315.176"/>
		</defs>
		<clipPath id="SVGID_31_">
			<use xlink:href="#SVGID_30_"  overflow="visible"/>
		</clipPath>
		<path clip-path="url(#SVGID_31_)" fill="#323031" d="M1128.345,131.721c-4.14,0-7.741,2.272-9.669,5.64
			c-1.932-3.366-5.098-5.363-9.252-5.363c-3.299,0-5.878,1.904-7.928,4.179v-1.025c0-1.631-1.319-2.954-2.947-2.954
			c-1.629,0-2.947,1.323-2.947,2.954v23.045c0,1.631,1.318,2.953,2.947,2.953c1.623,0,2.94-1.315,2.946-2.941h0.001v-7.765
			c0.003,0.003,0.005,0.007,0.009,0.01v-5.965v-0.004c0-3.739,3.025-6.771,6.759-6.771c3.73,0,6.756,3.031,6.756,6.771v13.712
			c0,1.631,1.319,2.953,2.948,2.953c1.624,0,2.939-1.315,2.946-2.941h0.001l0.006-13.777v-0.004c0-0.135,0.013-0.265,0.021-0.396
			c0.014-0.142,0.025-0.286,0.032-0.431c0.409-3.348,3.252-5.941,6.703-5.941c3.732,0,6.759,3.031,6.759,6.77v13.77
			c0,1.631,1.319,2.953,2.946,2.953c1.624,0,2.94-1.315,2.947-2.941h0.002v-15.252v-0.016
			C1140.333,136.744,1134.507,131.721,1128.345,131.721"/>
	</g>
	<g>
		<defs>
			<rect id="SVGID_32_" x="747.706" y="-13.758" width="564.003" height="315.176"/>
		</defs>
		<clipPath id="SVGID_33_">
			<use xlink:href="#SVGID_32_"  overflow="visible"/>
		</clipPath>
		<path clip-path="url(#SVGID_33_)" fill="#323031" d="M1225.982,132.2c-7.528,0-13.634,6.48-13.634,14.475
			c0,7.992,6.104,14.472,13.634,14.472c4.295,0,8.206-1.729,10.755-4.804c0.026-0.028,0.05-0.062,0.075-0.09
			c0.025-0.031,0.054-0.06,0.077-0.092c0,0-0.001-0.001-0.001-0.002c0.367-0.447,0.598-1.017,0.598-1.648
			c0-1.422-1.128-2.575-2.519-2.575c-1.264,0-1.933,0.901-1.94,0.894c-1.56,2.018-4.12,2.824-6.856,2.824
			c-3.953,0-7.259-2.914-8.135-6.827h19.041c0.015,0,0.028-0.006,0.041-0.009c1.385-0.025,2.497-1.173,2.497-2.592
			c0-0.062-0.014-0.118-0.018-0.178C1239.289,138.344,1233.314,132.2,1225.982,132.2 M1217.991,143.785
			c0.237-3.448,3.735-6.182,8.021-6.182c4.281,0,7.782,2.733,8.019,6.182H1217.991z"/>
	</g>
	<g>
		<defs>
			<rect id="SVGID_34_" x="747.706" y="-13.758" width="564.003" height="315.176"/>
		</defs>
		<clipPath id="SVGID_35_">
			<use xlink:href="#SVGID_34_"  overflow="visible"/>
		</clipPath>
		<path clip-path="url(#SVGID_35_)" fill="#F2D53C" d="M955.283,160.534c7.977,0,14.438-6.476,14.438-14.466
			c0-7.989-6.463-14.464-14.438-14.464c-7.975,0-14.438,6.475-14.438,14.464C940.845,154.058,947.309,160.534,955.283,160.534
			 M955.283,137.292c4.839,0,8.76,3.932,8.76,8.776c0,4.847-3.921,8.776-8.76,8.776c-4.837,0-8.759-3.93-8.759-8.776
			C946.523,141.223,950.446,137.292,955.283,137.292"/>
	</g>
	<g>
		<defs>
			<rect id="SVGID_36_" x="747.706" y="-13.758" width="564.003" height="315.176"/>
		</defs>
		<clipPath id="SVGID_37_">
			<use xlink:href="#SVGID_36_"  overflow="visible"/>
		</clipPath>
		<path clip-path="url(#SVGID_37_)" fill="#F2D53C" d="M895.608,53.102c7.976,0,14.438-6.476,14.438-14.466
			c0-7.989-6.464-14.464-14.438-14.464c-7.976,0-14.438,6.475-14.438,14.464C881.17,46.626,887.634,53.102,895.608,53.102
			 M895.608,29.86c4.838,0,8.76,3.932,8.76,8.776c0,4.847-3.922,8.776-8.76,8.776c-4.837,0-8.76-3.93-8.76-8.776
			C886.85,33.792,890.771,29.86,895.608,29.86"/>
	</g>
	<g>
		<defs>
			<rect id="SVGID_38_" x="747.706" y="-13.758" width="564.003" height="315.176"/>
		</defs>
		<clipPath id="SVGID_39_">
			<use xlink:href="#SVGID_38_"  overflow="visible"/>
		</clipPath>
		<path clip-path="url(#SVGID_39_)" fill="#F2D53C" d="M801.774,175.75c7.978,0,14.439-6.476,14.439-14.466
			c0-7.989-6.463-14.465-14.439-14.465c-7.975,0-14.438,6.476-14.438,14.465C787.337,169.274,793.801,175.75,801.774,175.75
			 M801.774,152.507c4.839,0,8.76,3.931,8.76,8.776c0,4.847-3.921,8.775-8.76,8.775c-4.837,0-8.759-3.929-8.759-8.775
			C793.017,156.438,796.938,152.507,801.774,152.507"/>
	</g>
	<g>
		<defs>
			<rect id="SVGID_40_" x="747.706" y="-13.758" width="564.003" height="315.176"/>
		</defs>
		<clipPath id="SVGID_41_">
			<use xlink:href="#SVGID_40_"  overflow="visible"/>
		</clipPath>
		<path clip-path="url(#SVGID_41_)" fill="#F2D53C" d="M895.608,24.172c7.976,0,14.438-6.477,14.438-14.467
			c0-7.988-6.464-14.463-14.438-14.463c-7.976,0-14.438,6.475-14.438,14.463C881.17,17.696,887.634,24.172,895.608,24.172
			 M895.608,0.93c4.838,0,8.76,3.931,8.76,8.775c0,4.848-3.922,8.776-8.76,8.776c-4.837,0-8.76-3.929-8.76-8.776
			C886.85,4.861,890.771,0.93,895.608,0.93"/>
	</g>
	<g>
		<defs>
			<rect id="SVGID_42_" x="747.706" y="-13.758" width="564.003" height="315.176"/>
		</defs>
		<clipPath id="SVGID_43_">
			<use xlink:href="#SVGID_42_"  overflow="visible"/>
		</clipPath>
		<path clip-path="url(#SVGID_43_)" fill="#F2D53C" d="M772.146,175.75c7.978,0,14.439-6.476,14.439-14.466
			c0-7.989-6.463-14.465-14.439-14.465c-7.975,0-14.438,6.476-14.438,14.465C757.709,169.274,764.173,175.75,772.146,175.75
			 M772.146,152.507c4.84,0,8.761,3.931,8.761,8.776c0,4.847-3.921,8.775-8.761,8.775c-4.837,0-8.759-3.929-8.759-8.775
			C763.389,156.438,767.311,152.507,772.146,152.507"/>
	</g>
</g>
<line fill="none" stroke="#F2D53C" stroke-width="2" stroke-miterlimit="10" x1="838.168" y1="257.992" x2="763.884" y2="257.992"/>
<polygon fill="#F2D53C" points="845.092,257.992 834.37,254.09 834.37,261.893 "/>
<polygon fill="#F2D53C" points="756.959,257.992 767.682,261.893 767.682,254.09 "/>
<text transform="matrix(1 0 0 1 785.9883 243.9922)" fill="#F2D649" font-family="'GothamRounded-Medium'" font-size="25">2u</text>
<line fill="none" stroke="#F2D53C" stroke-width="2" stroke-miterlimit="10" x1="943.788" y1="76.45" x2="943.788" y2="2.167"/>
<polygon fill="#F2D53C" points="943.788,83.374 947.688,72.653 939.886,72.653 "/>
<polygon fill="#F2D53C" points="943.788,-4.758 939.886,5.963 947.688,5.963 "/>
<line fill="none" stroke="#F2D53C" stroke-width="2" stroke-miterlimit="10" x1="962.798" y1="257.992" x2="947.77" y2="257.992"/>
<polygon fill="#F2D53C" points="969.723,257.992 959.001,254.09 959.001,261.893 "/>
<polygon fill="#F2D53C" points="940.845,257.992 951.567,261.893 951.567,254.09 "/>
<text transform="matrix(1 0 0 1 942.584 243.9922)" fill="#F2D649" font-family="'GothamRounded-Medium'" font-size="25">1u</text>
<text transform="matrix(1 0 0 1 953.9834 45.916)" fill="#F2D649" font-family="'GothamRounded-Medium'" font-size="25">2u</text>
<g>
	<g>
		<defs>
			<rect id="SVGID_44_" x="747.706" y="-13.758" width="564.003" height="315.176"/>
		</defs>
		<clipPath id="SVGID_45_">
			<use xlink:href="#SVGID_44_"  overflow="visible"/>
		</clipPath>
		<path clip-path="url(#SVGID_45_)" fill="#F2D53C" d="M830.652,175.75c7.977,0,14.438-6.476,14.438-14.466
			c0-7.989-6.463-14.465-14.438-14.465s-14.438,6.476-14.438,14.465C816.214,169.274,822.678,175.75,830.652,175.75
			 M830.652,152.507c4.839,0,8.76,3.931,8.76,8.776c0,4.847-3.921,8.775-8.76,8.775c-4.836,0-8.759-3.929-8.759-8.775
			C821.895,156.438,825.816,152.507,830.652,152.507"/>
	</g>
	<g>
		<defs>
			<rect id="SVGID_46_" x="747.706" y="-13.758" width="564.003" height="315.176"/>
		</defs>
		<clipPath id="SVGID_47_">
			<use xlink:href="#SVGID_46_"  overflow="visible"/>
		</clipPath>
		<path clip-path="url(#SVGID_47_)" fill="#F2D53C" d="M895.608,82.033c7.976,0,14.438-6.476,14.438-14.466
			c0-7.989-6.464-14.465-14.438-14.465c-7.976,0-14.438,6.476-14.438,14.465C881.17,75.557,887.634,82.033,895.608,82.033
			 M895.608,58.791c4.838,0,8.76,3.931,8.76,8.776c0,4.847-3.922,8.775-8.76,8.775c-4.837,0-8.76-3.929-8.76-8.775
			C886.85,62.721,890.771,58.791,895.608,58.791"/>
	</g>
</g>
<path fill="none" stroke="#FFFFFF" stroke-width="15" stroke-linecap="round" stroke-miterlimit="10" d="M48.819,435.054
	c0,0,11.023,1.015,16.932-9.951c7.786-16.489-10.992-21.218-1.784-37.669c0,0,4.286-8.308,15.883-8.668"/>
<path fill="none" stroke="#FFFFFF" stroke-width="7.6018" stroke-linecap="round" stroke-miterlimit="10" d="M200.846,491.415
	c0,0,3.748,4.175,9.723,2.134c8.572-3.449,3.223-11.675,12.311-14.618c0,0,4.455-1.611,8.891,2.249"/>
<path fill="none" stroke="#FFFFFF" stroke-width="15" stroke-linecap="round" stroke-miterlimit="10" d="M180.457,273.587
	c0,0,1.039,11.021,12.907,14.803c17.644,4.605,18.821-14.723,36.69-8.713c0,0,8.956,2.678,11.453,14.009"/>
<path fill="none" stroke="#FFFFFF" stroke-width="15" stroke-linecap="round" stroke-miterlimit="10" d="M234.193,675.016
	c0,0-7.06,8.528-1.34,19.596c9.219,15.731,23.72,2.897,32.104,19.782c0,0,4.438,8.228-1.808,18.006"/>
<path fill="none" stroke="#FFFFFF" stroke-width="15" stroke-linecap="round" stroke-miterlimit="10" d="M300.271,76.824
	c0,0-7.06,8.528-1.338,19.594c9.219,15.732,23.719,2.898,32.104,19.783c0,0,4.438,8.227-1.807,18.004"/>
<path fill="none" stroke="#FFFFFF" stroke-width="15" stroke-linecap="round" stroke-miterlimit="10" d="M-22.027,76.824
	c0,0-7.059,8.528-1.338,19.594c9.219,15.732,23.719,2.898,32.105,19.783c0,0,4.439,8.227-1.807,18.004"/>
<path fill="none" stroke="#FFFFFF" stroke-width="7.6018" stroke-linecap="round" stroke-miterlimit="10" d="M140.026,40.271
	c0,0,0.131-5.609-5.619-8.216c-8.607-3.363-10.347,6.294-18.985,2.21c0,0-4.349-1.879-4.933-7.731"/>
<path fill="none" stroke="#FFFFFF" stroke-width="4.4856" stroke-linecap="round" stroke-miterlimit="10" d="M111.198,630.333
	c0,0,2.212,2.464,5.736,1.26c5.059-2.035,1.901-6.89,7.264-8.626c0,0,2.629-0.951,5.245,1.327"/>
<path fill="none" stroke="#FFFFFF" stroke-width="4.4856" stroke-linecap="round" stroke-miterlimit="10" d="M70.626,230.858
	c0,0,2.213,2.464,5.736,1.26c5.059-2.035,1.902-6.89,7.264-8.626c0,0,2.629-0.951,5.246,1.327"/>
</svg>
