<?xml version="1.0" encoding="utf-8"?>
<!-- Generator: Adobe Illustrator 18.1.1, SVG Export Plug-In . SVG Version: 6.00 Build 0)  -->
<svg version="1.1" id="Layer_1" xmlns="http://www.w3.org/2000/svg" xmlns:xlink="http://www.w3.org/1999/xlink" x="0px" y="0px"
	 viewBox="-143 -22.5 324 836.5" enable-background="new -143 -22.5 324 836.5" xml:space="preserve">
<linearGradient id="SVGID_1_" gradientUnits="userSpaceOnUse" x1="-711.9103" y1="-585.4431" x2="-711.9106" y2="197.7867" gradientTransform="matrix(1 0 0 1 738 595.0625)">
	<stop  offset="0" style="stop-color:#388E3C"/>
	<stop  offset="1" style="stop-color:#4CAF50"/>
</linearGradient>
<rect x="-162.9" y="-22.5" opacity="0.8" fill="url(#SVGID_1_)" enable-background="new    " width="378" height="836.5"/>
<path opacity="0.3" fill="none" stroke="#FFFFFF" stroke-width="15" stroke-linecap="round" stroke-miterlimit="10" enable-background="new    " d="
	M-522.3,412.5c0,0,11,1,16.9-10c7.8-16.5-11-21.2-1.8-37.7c0,0,4.3-8.3,15.9-8.7"/>
<path opacity="0.7" fill="none" stroke="#FFFFFF" stroke-width="7.6018" stroke-linecap="round" stroke-miterlimit="10" enable-background="new    " d="
	M-370.3,468.9c0,0,3.7,4.2,9.7,2.1c8.6-3.4,3.2-11.7,12.3-14.6c0,0,4.5-1.6,8.9,2.2"/>
<path opacity="0.3" fill="none" stroke="#FFFFFF" stroke-width="15" stroke-linecap="round" stroke-miterlimit="10" enable-background="new    " d="
	M-390.7,251.1c0,0,1,11,12.9,14.8c17.6,4.6,18.8-14.7,36.7-8.7c0,0,9,2.7,11.5,14"/>
<path opacity="0.3" fill="none" stroke="#FFFFFF" stroke-width="15" stroke-linecap="round" stroke-miterlimit="10" enable-background="new    " d="
	M-336.9,652.5c0,0-7.1,8.5-1.3,19.6c9.2,15.7,23.7,2.9,32.1,19.8c0,0,4.4,8.2-1.8,18"/>
<path opacity="0.3" fill="none" stroke="#FFFFFF" stroke-width="15" stroke-linecap="round" stroke-miterlimit="10" enable-background="new    " d="
	M-594.8,54.5c0,0-7.1,8.5-1.3,19.6c9.2,15.7,23.7,2.9,32.1,19.8c0,0,4.4,8.2-1.8,18"/>
<path opacity="0.2" fill="none" stroke="#FFFFFF" stroke-width="7.6018" stroke-linecap="round" stroke-miterlimit="10" enable-background="new    " d="
	M-431.1,17.7c0,0,0.1-5.6-5.6-8.2c-8.6-3.4-10.3,6.3-19,2.2c0,0-4.3-1.9-4.9-7.7"/>
<path opacity="0.3" fill="none" stroke="#FFFFFF" stroke-width="4.4856" stroke-linecap="round" stroke-miterlimit="10" enable-background="new    " d="
	M-459.9,607.8c0,0,2.2,2.5,5.7,1.3c5.1-2,1.9-6.9,7.3-8.6c0,0,2.6-1,5.2,1.3"/>
<path opacity="0.3" fill="none" stroke="#FFFFFF" stroke-width="4.4856" stroke-linecap="round" stroke-miterlimit="10" enable-background="new    " d="
	M-500.5,208.3c0,0,2.2,2.5,5.7,1.3c5.1-2,1.9-6.9,7.3-8.6c0,0,2.6-1,5.2,1.3"/>
<path opacity="0.3" fill="none" stroke="#FFFFFF" stroke-width="15" stroke-linecap="round" stroke-miterlimit="10" enable-background="new    " d="
	M-270.8,54.7c0,0-7.1,8.5-1.3,19.6c9.2,15.7,23.7,2.9,32.1,19.8c0,0,4.4,8.2-1.8,18"/>
</svg>
