<?xml version="1.0" encoding="utf-8"?>
<!-- Generator: Adobe Illustrator 18.1.1, SVG Export Plug-In . SVG Version: 6.00 Build 0)  -->
<svg version="1.1" id="Layer_1" xmlns="http://www.w3.org/2000/svg" xmlns:xlink="http://www.w3.org/1999/xlink" x="0px" y="0px"
	 viewBox="124.1 93 713.8 353" enable-background="new 124.1 93 713.8 353" xml:space="preserve">
<g id="Layer_2">
	<g>
		<path opacity="0.5" fill="#5AA6DB" enable-background="new    " d="M411.9,213.9c-31-4.1-61.4,2-69.4,4.5
			c-7.8,2.4-60.8,19.6-72.1,23.5c-0.5,0.2-0.9,0.4-0.9,0.6c-0.1,1.2-1.7,6-20.1,12.7h-0.1h-0.1c-18.7,7-33.7,8.2-37.7,8.5
			c-0.6,0-1.4,0.2-1.9,0.4c-11.4,4.4-62.6,25.6-70,28.8c-7.7,3.3-26.1,15.7-7.3,26.1c22.6,12.5,80.1,35.3,130,56.5
			c2.8,1.2,8.8,0.7,13.6-1.1l31.1-11.4c4.6-1.7,6.2-4,3.7-5.1c-6.6-3.3-21.9-9.9-43.3-21c-21-10.8-46.5-20.2-57.9-25.7
			c-1.8-0.9,3.2-2.7,5.7-2c24,6.3,76.1,20.4,93,26.4c28.2,10.1,150.9,37.7,171.6,44.7c6.5,2.2,25.8,9.4,45.8,14.7
			c36.7,9.6,112.7,34.2,139.4,42.3c5.6,1.7,14.7,1,21.1-1.8l29.5-12.6c7.2-3.1,8-7.5,2-9.5c-28.2-9.5-105.4-37.1-151.7-54
			c-36.3-13.3-78-30.8-94.5-39.5c-2-1.1-0.6-2.6,2.1-3.7c2.7-1.2,6.7-1.9,10.3-1.5c28.1,3.5,86.4,13.2,131,22
			c56.4,11.1,147.7,29.6,179.5,36.5c6.8,1.5,16.8-0.1,21.6-3.3l19.5-13.1c4.1-2.8,3-5.8-2.6-7.2c-26.5-6.4-106.1-24.6-139.4-33.9
			c-18.2-5-41-9.5-48-11c-22.7-4.9-122.4-36.7-154.8-43.4c-19.5-4.1-67.9-17.1-89.5-23.2c-2.1-0.6,1.8-2.2,4.5-1.8
			c16.9,2.6,47.2,8.6,79.9,13.2c32.9,4.6,53.1,8,62.9,9.4c3.6,0.5,8.9-0.3,12-1.8l20.6-10.2c3.1-1.5,2.8-3.2-0.6-3.9
			C518,231.8,448.6,218.8,411.9,213.9"/>
		<path fill="#FFFFFF" d="M440.1,308.3c-7.5,3.2-10.2,9.1-37.3,9.7c-11.2,0.3-15.4-9.6-21.8-7.5c-6.5,2.1-20.9,5.2-30.8,2.5
			c-9.8-2.8,0.5-7.3-10.1-5.2c-5.3,1-54.2,17.1-25.7,21.5c29.8,4.5,26.6-5.2,51.9-6.7c21.8-1.3,21.6,7.2,39.7,5.2
			c23.9-2.7,29.6-12.2,41.6-17.3"/>
		<path fill="#FFFFFF" d="M364.4,325c-9.1,0.6-17.7,4.7-12.3,6.8c3.4,1.5,0.9,2.5-1.6,3.4c-2.2,0.9-4.4,1.7-1,2.7
			c6.3,1.9,131.8,26,136.9,27.8c5.1,1.8,9.9,6.7,18,7.4c5.9,0.5,36-13.3,28.3-15.7c-6.1-1.9-37.2,0.1-55.8-2.7
			c-7.1-1.1-94.6-17.1-99.8-21.1c-5.2-4,4.8-6,0.7-7.8C373.6,324.1,370.7,324.6,364.4,325"/>
		<path fill="#FFFFFF" d="M470.2,280.5c-0.2-2.9,8.9-6.1,15.9-4.9c4.6,0.7,6.8-0.2,8.8-1.1c1.8-0.9,3.5-1.6,7-0.7
			c6.4,1.6,99.1,35.5,104.8,36.8c5.9,1.2,19.6,1.7,23.5,4.1c2.9,1.7-24.5,14.4-32.9,12.5c-6.7-1.6-9.4-12-21.1-17.3
			c-4.4-2-67.5-26.1-79.5-27c-11.9-0.9-15.1,2.6-20.9,1.6C470.1,283.5,470.4,282.5,470.2,280.5"/>
		<path fill="#FFFFFF" d="M157.5,300c4.7-1.5,9.8-2.1,13.2-0.7c5.2,2.2-2.7,5.8,3.3,8.8c6.1,3,27.4,15.1,34.3,17.4
			c6,2.1,17.7,1.2,20,3.4c2.9,2.6-10.4,4.4-14,5.8c-0.4,0.2-1,0.3-1.4,0.5c-3.9,1.5-9.9,4-14.8,2.9c-4.6-1,3.7-4.6,0.9-6.4
			c-6.5-4.1-34.2-19-39-21.3c-5.7-2.6-12.1-0.1-12.8-3.2C146.6,305.5,152.7,301.4,157.5,300"/>
		<path fill="#FFFFFF" d="M364.7,222.6c-3.3,1.5-4.2,3,0.3,3.7c7.2,1.2,15.4-1.4,24.6,0s45.5,5.9,53.3,7.6c6.7,1.4,6.6,4.8,12.9,5.1
			c7.4,0.4,9.3-3.4,12.2-4.6c0.3-0.1,0.7-0.3,1.2-0.4c3.2-1.2,8.1-3.2,4.5-4.4c-3.4-1.2-11.1,1.5-16.5,1
			c-11.8-1.3-56.8-7.4-63.6-8.5c-7.9-1.3-2.6-3.3-11-3.2C378.1,219.1,368,221.2,364.7,222.6"/>
		<path fill="#FFFFFF" d="M335.3,276.4l-10.3,4.1c-2.7,1.1-6.4,1.4-8.3,0.9h-0.1c-1.9-0.5-1.4-1.8,1.3-2.9l10.3-4
			c2.7-1.1,6.3-1.4,8.3-0.9h0.1C338.4,274.2,337.8,275.5,335.3,276.4"/>
		<path fill="#FFFFFF" d="M345.9,279.2l-10.8,4.3c-2.7,1.1-6.4,1.5-8.5,0.9h-0.1c-2-0.5-1.4-1.8,1.3-2.9l10.8-4.2
			c2.7-1.1,6.3-1.4,8.3-0.9h0.1C349.1,276.8,348.5,278.1,345.9,279.2"/>
		<path fill="#FFFFFF" d="M356.4,282l-10.8,4.3c-2.7,1.1-6.4,1.5-8.5,1h-0.1c-2-0.5-1.5-1.8,1.2-2.9l10.8-4.3
			c2.7-1.1,6.4-1.4,8.3-0.9h0.1C359.5,279.7,359.1,281,356.4,282"/>
		<path fill="#FFFFFF" d="M367.5,284.8l-11.4,4.6c-2.7,1.1-6.4,1.5-8.5,1h-0.1c-2-0.5-1.5-1.8,1.2-2.9l11.4-4.5
			c2.7-1.1,6.4-1.5,8.5-0.9h0.1C370.6,282.4,370,283.7,367.5,284.8"/>
		<path fill="#FFFFFF" d="M391.4,289.6l-16.4,6.6c-2.7,1.1-6.5,1.5-8.6,1h-0.1c-2-0.5-1.5-1.9,1.1-3l16.4-6.6c2.7-1.1,6.4-1.5,8.5-1
			h0.1C394.5,287.2,394.1,288.5,391.4,289.6"/>
		<path fill="#FFFFFF" d="M379.4,287.1l-14,5.7c-2.7,1.1-6.5,1.5-8.6,1h-0.1c-2-0.5-1.5-1.9,1.2-2.9l14-5.6c2.7-1.1,6.4-1.5,8.5-1
			h0.1C382.5,284.8,382.1,286.2,379.4,287.1"/>
		<path fill="#FFFFFF" d="M427.8,305.3c-2.8,1.2-4.8,1.4-11.9,0.6c-27.4-3-30.6,4.2-48.7,6c-10.1,1-20.3-0.9-16.4-5.1
			c3.9-4.3,12.6-6.8,19.3-6.5c5.9,0.3,13.5-2.9,15.8-3.7l3.7-1.5l0.4-0.2l3.7-1.5c2.4-1,10.1-4,7.9-5.8c-2.4-2,3.4-5.2,14.8-7.3
			c11.3-1.9,18.5,0.9,17.9,4.2c-1.2,6-21.2,8.5-6.8,16.7c3.7,2.1,3.5,2.9,0.7,4.1"/>
		<path fill="#FFFFFF" d="M544.8,363.8c-4.7-1.5-7.9-0.3-19,5.1c-7.5,3.7-16.3,8.1-2.8,8.7c38.6,1.7,133.2,35.8,144.1,42.6
			c17,10.6,15.3,7.2,24,4.7c8.6-2.5,12.5-3.6,10.4-6c-2.1-2.4-10.6-2.8-24.7-6.7c-42.7-12-96.3-30.8-119.7-38.6
			C548.4,370.8,550.3,365.5,544.8,363.8"/>
		<path fill="#FFFFFF" d="M665.5,426.5c0.1,3.2-10.4,5.8-12.2,1.5c-2.1-5-103.4-39.6-119.3-41.6c-13.5-1.7-9.4-5.2-2.2-4.7
			C540.7,382.3,665.3,420.8,665.5,426.5"/>
		<path fill="#FFFFFF" d="M440.1,308.3c7.5-3.1,23.9-5.2,19.8-14.1c-1.7-3.6-30.4-3.1-25.7-5.6c4.7-2.5,10.4-7.5,0.4-10.1
			c-9.8-2.6-20.5,1.5-16.9-2.2c1.7-1.8,36.2-19,53.7-11.2c18.4,8.1-8.6,8.9-7.2,16.8c1.2,7.1,24.3,5.3,22.9,11.3
			c-1.9,8-27.6,11.9-39.5,16.9"/>
		<path fill="#FFFFFF" d="M617.4,330.2c-5-1.2-2.9-2.5,8.2-7.4c7.4-3.2,16.2-6.8,21.2-2.8c14.8,12,125.3,34.3,144.5,36
			c29.7,2.8,21.3,3.1,18.5,6.6c-2.9,3.5-4.4,5.1-10.6,5s-9.8-2.8-23.6-6.4c-41.6-11-103.5-23.9-129.7-29.5
			C636.1,329.7,623.2,331.5,617.4,330.2"/>
		<path fill="#FFFFFF" d="M805.2,354.1c7.5-0.7,9.9-4.8-0.3-4.3c-12.2,0.5-124.2-23.6-133.5-28.1c-7.9-3.9-15.5-1.8-12.3,0.3
			C663.1,324.7,792.1,355.5,805.2,354.1"/>
		<path fill="#FFFFFF" d="M223.7,337.4c-0.9-2.9,4.5-4.5,7.1-3.7c1.3,0.4,8.7,7.2,20.1,12.7c11.6,5.7,27.3,10.1,27.5,11.3
			c0.4,2.5-5.9,2.4-9.9,1C264.5,357.2,224.8,340.8,223.7,337.4"/>
		<path fill="#FFFFFF" d="M220.3,339.3c-1.9-1.8-8.9-0.7-8.9,0.3c-0.1,1.1-3.4-0.1-5.8,1.6c-2.4,1.7,52.8,27,78.7,26.1
			c4.2-0.5,10.1-3.7-0.2-3.4C270.3,364.2,234.4,352.9,220.3,339.3"/>
		<path fill="#FFFFFF" d="M283.3,261.3c15-3.2,36.6-8.9,50.3-17.1c1.9-1.2,3.7-3.4,3.9-4.4c0.2-2.2-9.2-1.2-10.6,1.2
			c-0.5,0.9-1,2.2-2.2,3.2c-9,6.3-32.4,12.7-41.5,14.1C280.7,258.6,279.6,262.1,283.3,261.3"/>
		<path fill="#FFFFFF" d="M283.8,252.3c0,0,14-0.3,19.5-6.5c2.7-3-3.4-4,4.3-5.5c4.7-0.9,10.7-0.9,5.7,4.7c-6.2,7-21.6,9.4-28,10.5
			C278.8,256.7,283.8,252.3,283.8,252.3"/>
		<path fill="#FFFFFF" d="M312.4,272.4c0,0,95.1,1,110-9.7c14.5-10.5,10.5-12.2,3.3-11.3c-7.2,0.7-2.8,6.4-14.9,11.6
			c-13.5,5.7-104,6.1-104,6.1l1.1,2.9L312.4,272.4z"/>
		<path fill="#FFFFFF" d="M283.3,262.3c1.5,1.5,56.6-11.9,64.3-21.6c3.7-4.8,13.3-4.5,9.4,0.2c-3.5,4.2-10.1,7.6-32.3,14.5
			c-22.1,7-29.8,8-37.1,9.1C280.3,265.8,283.3,262.3,283.3,262.3"/>
		<path fill="#FFFFFF" d="M303.9,268.8c0,0,62.4,1.9,86.1-12c8.7-5,7.7-10.8,15.7-11c6.8-0.2,4.2,3.5-0.5,8.7
			c-5.8,6.2-28.1,12.4-41.4,14.4c-12.4,1.8-11,1.2-11,1.2l-46.6,0.7L303.9,268.8z"/>
		<path fill="#FFFFFF" d="M292.6,266.1c0,0,69.5-14.8,71.6-22.5c1.7-6.6,12.9-5.3,12.4-2.5c-0.5,2.9-1.6,7.4-49.8,20.4
			c-22.4,6.1-30.2,7.2-34.4,5.8C287.8,266.1,292.6,266.1,292.6,266.1"/>
		<path fill="#FFFFFF" d="M306.4,268c0,0,25.6-3.5,48.5-9.5c18.5-4.8,26.2-9.9,28.9-15c1.8-3.4,11.9-2.8,9.9,0.5
			c-3.6,6.1-17.5,13.2-35.9,17.5c-13.3,3.2-35.8,8-42.4,8.8c-6.5,0.7-7.1,1.4-11.9,0.1C298.7,269.4,306.4,268,306.4,268"/>
		<path fill="#FFFFFF" d="M270.3,266.1c-7.7,5.3-22.1,13.4-47.2,19.6c-3.6,0.9-10.6,1.9-13.9,2.1c-7.3,0.5-5.1-2.9,2.5-3.9
			c2.7-0.3,7.4-0.7,10.1-1.4c19.1-4.2,36-12.9,38.8-16C261.5,265.7,272.3,264.9,270.3,266.1"/>
		<path fill="#FFFFFF" d="M242.4,267.8c0,0,1.3,4.6-18.1,7.5c-9.4,1.4-13.6-0.4-17.2,2.5c-2.2,1.7-1.3,3.7,16.4,1.1
			c21.4-3.3,27.1-8.8,29.5-11C255.4,265.5,242.4,267.8,242.4,267.8"/>
		<path fill="#FFFFFF" d="M309.4,273.5c0,0,20,31.1-11.2,38.6c-31.7,7.6-38.2,6.6-36.7,3.9c1.4-2.7,20.8-2.6,35-7.9
			c15.7-5.9,1.3-35.7,1.3-35.7l8.9-0.1L309.4,273.5z"/>
		<path fill="#FFFFFF" d="M273.7,265.9c4.9,0.2-28.8,20.6-59.4,25.1c-15.5,2.2-13.1,5.6,2,3.2c13.4-2,23.5-4.9,42.6-13.8
			c18.4-8.5,20.3-11.1,22.7-13.6C283.9,264.4,273.7,265.9,273.7,265.9"/>
		<path fill="#FFFFFF" d="M297,271.5c0,0,16.6,19.9-23.1,30.8c-15,4.2-34.1,5-33.6,7.9c0.5,2.5,12.4,0.6,28.5-2.1
			c19-3.3,35.1-12.3,38.9-17.1c3.5-4.5,1.9-3.9,1.9-3.9l-5.9-15.2L297,271.5z"/>
		<path fill="#FFFFFF" d="M286.9,268.3c0,0-35.4,25.6-60.4,27.9c-21.8,2-15.9,5.7-6.3,4.8c9.6-0.9,24.3-2.1,58.4-21
			c15.1-8.3,17.1-10.9,12.4-12.1C286.3,266.8,286.9,268.3,286.9,268.3"/>
		<path fill="#FFFFFF" d="M294.9,272.4c0,0-6.6,8.9-21.6,17.7c-12.5,7.3-28.1,11-44.4,13.1c-11.1,1.4-7.6,4.8,3.4,3.3
			c19.8-2.7,40.3-9,51.3-16c7.8-5,19-13.3,20.2-15.5c1.1-2.2,3-2.5-1.6-3.9C297.8,269.7,294.9,272.4,294.9,272.4"/>
		<path fill="#FFFFFF" d="M289.7,251.9c-10.1,1.2-7.8-0.9-19.4,1.9c-6.1,1.4-9.8,2.7-14.2,4.2c-4.2,1.6-7.5,3-11,5.1
			c-6.8,4.2-0.9,3.1-3.1,6.5c-2.2,3.4,26.1-1.5,33.4-0.9c5.3,0.4,17.2,5.6,30.9,5.3c2.2,0,9.4,2.7,12.7,1.4c3.3-1.3-4.9-3.5-5.1-4.3
			c-1.7-4.4-19.3-7.3-21.4-8.9C289.5,260.3,299.8,250.7,289.7,251.9"/>
		<path fill="#FFFFFF" d="M481.3,235.7c-5.1-0.3-3.6-2.4-0.9-2.5c2.8-0.1-1-1,2.9-1.8c3.7-0.9,78.3,11.2,82,18.4
			c-0.4,1.2-6.8,3.3-8.6,0.4C554.6,246.5,518.6,238,481.3,235.7"/>
		<path fill="#FFFFFF" d="M214.9,269.8c-15.9,4.3-63.6,19.7-78.3,30.9c-12.6,9.6,9,3.6,10.9,0.1c5.9-10.5,46.1-22.7,69.1-27.6
			C226.6,271.1,219.5,268.6,214.9,269.8"/>
		<path fill="#FFFFFF" d="M284.5,244.1c10.2-5.3,46.6-20.9,75.4-26.1c24-4.4,11.6,2.1,2.1,3c-28.1,2.7-56.3,15.6-67.3,23.1
			C289.9,247.5,281.5,245.7,284.5,244.1"/>
		<path fill="#FFFFFF" d="M249,256.2c-3.3,1.2-6.8,2.4-10.6,3.4h0.1l1.8,0.5c1.6,0.4,4.8,0.1,7.1-0.7l10.8-4
			c2.2-0.9,2.8-1.9,1.2-2.4l-1.8-0.4l0,0C255,253.7,252.1,255,249,256.2"/>
	</g>
</g>
<g id="Layer_1_1_">
	<circle fill="#FFFFFF" stroke="#DBDCDE" stroke-miterlimit="10" cx="183.8" cy="152.6" r="5"/>
	
		<line fill="none" stroke="#E5D405" stroke-width="2" stroke-linejoin="round" stroke-miterlimit="10" x1="303.9" y1="187.6" x2="303.9" y2="141.6"/>
	<polyline fill="none" stroke="#000000" stroke-width="2" stroke-linejoin="round" stroke-miterlimit="10" points="581,302.1 
		581,389.1 309.3,296 309.3,140.6 	"/>
	<polyline fill="none" stroke="#D31818" stroke-width="2" stroke-linejoin="round" stroke-miterlimit="10" points="491.1,334.2 
		491.1,359.9 302.9,296 302.9,185.5 	"/>
	<path fill="#FFFFFF" d="M478.5,229c-7.6,0.1-10.6,1.8-8.1,2.5c1.3,0.3,20.2,1.5,36.8,4.1c16.8,2.5,31.3,6.3,34.4,6.2
		c6.1-0.2,4.4-1.9,0.1-2.9C537.3,237.8,487.6,228.9,478.5,229"/>
	<g opacity="0.5">
		<path fill="#EF4E23" d="M475.6,122.4c-13.9-1.5-20.5,1.7-25.8,1.2c-4.1,0-12.7-3.1-24.5,2.8c-12.4,6,3.6,5.6,6.2,6.3
			c5.1,0.6-1.5,4.1,12.6,5.7s33.6-1.2,39.2-0.4c2.5,0.3,1.7,0.5,5.5,1c5.5,0.4,11.6,0.3,14.9-0.9c1.8-0.6,3.6-1.4,5.3-2.2
			c1.5-0.9,2.7-1.6,3.6-2.5c1.6-1.4-2-2.6-6.7-3.3c-3.5-0.4-3.9-0.1-6.4-0.4C493.2,129.2,489.6,124,475.6,122.4"/>
		<path opacity="0.51" fill="#9E2E1B" enable-background="new    " d="M442.9,128.4c0,0,2.6,0.4,6.6,1c1,0.1,2.1,0.3,3.2,0.4
			c1.2,0.1,2.4,0.3,3.6,0.4c1.3,0.1,2.6,0.3,4,0.4c1.4,0.1,2.8,0.3,4.2,0.4s2.8,0.3,4.2,0.4c1.4,0.1,2.8,0.3,4.1,0.4
			c2.7,0.3,5.1,0.5,7.3,0.7c4.3,0.4,7.3,0.6,7.3,0.6s-2.7-0.4-6.7-1c-2-0.3-4.4-0.5-7-0.9c-1.3-0.1-2.6-0.3-4-0.4
			c-1.4-0.1-2.8-0.3-4.2-0.4c-1.4-0.1-2.8-0.3-4.2-0.4s-2.8-0.3-4.1-0.4c-1.3-0.1-2.6-0.2-3.9-0.4c-1.2-0.1-2.4-0.2-3.4-0.3
			C445.8,128.6,442.9,128.4,442.9,128.4"/>
		<path opacity="0.51" fill="#9E2E1B" enable-background="new    " d="M449,124.9c0,0,0.2,0,0.6,0c0.4,0,1,0,1.7,0s1.6,0,2.6,0
			c1,0,2,0.1,3.2,0.1c1.2,0,2.4,0.1,3.6,0.2c0.6,0,1.3,0.1,1.9,0.1c0.6,0.1,1.3,0.1,2,0.2c0.6,0.1,1.4,0.1,2,0.2
			c0.6,0.1,1.4,0.1,2,0.2l0.5,0.1l0.5,0.1c0.3,0,0.6,0.1,1.1,0.1c0.7,0.1,1.4,0.2,2,0.2c0.6,0.1,1.4,0.2,2,0.3
			c0.6,0.1,1.3,0.2,1.9,0.3c1.3,0.2,2.6,0.4,3.7,0.6c1.2,0.2,2.4,0.4,3.4,0.6c1.1,0.2,2,0.4,3,0.5c3.7,0.7,6.1,1.3,6.1,1.3
			s-0.5-0.2-1.4-0.4c-1-0.3-2.2-0.6-4-1.1c-0.9-0.2-1.8-0.4-2.8-0.6c-0.5-0.1-1.1-0.2-1.6-0.3c-0.5-0.1-1.1-0.2-1.7-0.3
			c-1.2-0.2-2.4-0.4-3.6-0.6c-0.6-0.1-1.3-0.2-1.9-0.3c-0.6-0.1-1.3-0.2-2-0.3c-0.6-0.1-1.4-0.2-2-0.2c-0.3,0-0.6-0.1-1.1-0.1
			l-0.5-0.1l-0.5-0.1c-1.4-0.1-2.8-0.2-4.2-0.4c-0.7,0-1.4-0.1-2-0.1c-0.7,0-1.4-0.1-2-0.1c-0.6,0-1.3-0.1-1.9-0.1
			c-0.6,0-1.3,0-1.9,0c-1.2,0-2.4,0-3.4,0c-1.1,0-1.9,0-2.7,0.1C449.9,124.9,449,124.9,449,124.9"/>
		<path opacity="0.51" fill="#9E2E1B" enable-background="new    " d="M462.1,123.6c0,0,0.4,0,1.1,0c0.7,0,1.7,0,2.9,0.1
			c0.5,0,1.2,0.1,1.8,0.1s1.3,0.1,2,0.1c0.6,0.1,1.4,0.1,2.1,0.2s1.4,0.1,2.1,0.2c0.3,0,0.6,0.1,1.1,0.1c0.3,0,0.6,0.1,1,0.1
			c0.3,0,0.6,0.1,1,0.1c0.3,0,0.6,0.1,1,0.1c0.6,0.1,1.2,0.2,1.7,0.3c0.2,0,0.5,0.1,0.7,0.1c0.2,0.1,0.4,0.1,0.6,0.1
			c0.4,0.1,0.9,0.2,1.2,0.3c0.3,0.1,0.6,0.2,0.9,0.2c0.5,0.1,0.7,0.2,0.7,0.2s-0.2-0.1-0.5-0.2c-0.2-0.1-0.4-0.2-0.6-0.3
			c-0.3-0.1-0.6-0.2-1-0.3c-0.2-0.1-0.4-0.1-0.6-0.2s-0.4-0.1-0.7-0.2c-0.5-0.1-1-0.2-1.6-0.3c-0.5-0.1-1.2-0.2-1.8-0.3
			c-0.3,0-0.6-0.1-1-0.1c-0.3,0-0.7-0.1-1.1-0.1c-0.7-0.1-1.5-0.1-2.1-0.2c-0.3,0-0.7-0.1-1.1-0.1s-0.7,0-1.1-0.1
			c-0.7,0-1.5-0.1-2.1-0.1s-1.4,0-2,0s-1.2,0-1.7,0c-0.5,0-1,0-1.4,0C462.6,123.6,462.1,123.6,462.1,123.6"/>
		<path opacity="0.51" fill="#9E2E1B" enable-background="new    " d="M439.2,135.1c0,0,0.2,0.1,0.5,0.2c0.2,0.1,0.4,0.2,0.7,0.3
			c0.3,0.1,0.6,0.2,1.1,0.3c0.4,0.1,0.9,0.2,1.4,0.3c0.5,0.1,1.1,0.2,1.6,0.3c0.3,0.1,0.6,0.1,1,0.2c0.3,0.1,0.6,0.1,1,0.1
			c0.6,0.1,1.4,0.2,2.1,0.3c0.3,0,0.7,0.1,1.1,0.1c0.4,0,0.7,0.1,1.2,0.1c0.7,0.1,1.5,0.1,2.2,0.1s1.5,0,2.2,0.1c0.3,0,0.7,0,1.1,0
			c0.3,0,0.6,0,1,0c0.6,0,1.3,0,1.8,0c0.5,0,1.1,0,1.4-0.1c0.7,0,1.3-0.1,1.3-0.1s-0.4,0-1.2,0c-0.3,0-0.9,0-1.3,0
			c-0.5,0-1.1,0-1.6,0c-0.3,0-0.6,0-1,0c-0.3,0-0.6,0-1,0c-0.6,0-1.4-0.1-2-0.1c-0.3,0-0.7,0-1.1-0.1c-0.3,0-0.7-0.1-1.1-0.1
			s-0.7-0.1-1.1-0.1c-0.3,0-0.7-0.1-1.1-0.1c-0.7-0.1-1.4-0.2-2-0.2c-0.6-0.1-1.3-0.2-1.9-0.3c-0.6-0.1-1.2-0.2-1.7-0.3
			c-0.5-0.1-1.1-0.2-1.5-0.3c-1-0.2-1.6-0.3-2.1-0.4C439.6,135.1,439.2,135.1,439.2,135.1"/>
		<path opacity="0.51" fill="#9E2E1B" enable-background="new    " d="M435.6,131.7c0,0,0.3,0.2,1.1,0.5c0.4,0.1,0.9,0.3,1.5,0.5
			c0.6,0.2,1.4,0.4,2.1,0.6c0.4,0.1,0.9,0.2,1.4,0.3c0.4,0.1,1,0.2,1.5,0.3c0.5,0.1,1.1,0.2,1.7,0.3c0.5,0.1,1.2,0.2,1.8,0.3
			c1.3,0.2,2.6,0.4,4,0.5l0.5,0.1l0.5,0.1c0.3,0,0.7,0.1,1.1,0.1c0.7,0.1,1.4,0.1,2.1,0.2c0.7,0.1,1.5,0.1,2.2,0.2s1.5,0.1,2.2,0.2
			c1.5,0.1,3,0.2,4.5,0.2c0.7,0,1.5,0.1,2.1,0.1c0.7,0,1.4,0,2.1,0.1c1.4,0,2.7,0.1,4,0.1c2.5,0,4.6,0,6.1,0s2.4,0,2.4,0
			s-3.2-0.1-7.9-0.3c-1.2-0.1-2.5-0.1-3.7-0.2c-1.3-0.1-2.7-0.1-4.2-0.2c-1.4-0.1-2.9-0.2-4.4-0.3c-0.7,0-1.5-0.1-2.2-0.2
			c-0.7-0.1-1.5-0.1-2.1-0.2c-0.7-0.1-1.5-0.1-2.1-0.2c-0.3,0-0.7-0.1-1.1-0.1l-0.5-0.1l-0.5-0.1c-0.6-0.1-1.4-0.1-2-0.2
			s-1.3-0.2-1.9-0.2c-0.6-0.1-1.3-0.2-1.8-0.2c-0.5-0.1-1.2-0.2-1.7-0.2c-1.1-0.2-2.1-0.3-3-0.5c-0.9-0.2-1.7-0.3-2.4-0.5
			s-1.3-0.3-1.7-0.4c-0.4-0.1-0.7-0.2-1-0.3C435.7,131.7,435.6,131.7,435.6,131.7"/>
		<path opacity="0.51" fill="#9E2E1B" enable-background="new    " d="M451,126.9c0,0,0.5,0,1.6,0.1c1,0.1,2.5,0.2,4.1,0.3
			c0.9,0.1,1.7,0.1,2.7,0.2s1.9,0.2,3,0.3c1.1,0.1,2,0.2,3.1,0.3s2.1,0.2,3.2,0.4c1.1,0.1,2.1,0.2,3.1,0.4c1.1,0.1,2,0.3,3,0.4
			c1.9,0.2,3.7,0.5,5.3,0.7c1.6,0.2,2.9,0.4,3.9,0.5c1,0.1,1.5,0.2,1.5,0.2s-0.4-0.1-1.3-0.2c-0.9-0.1-2-0.4-3.5-0.6
			c-1.5-0.2-3.2-0.5-5.1-0.9c-1-0.1-1.9-0.3-3-0.4c-1.1-0.1-2-0.3-3.1-0.4c-1.1-0.1-2.1-0.2-3.2-0.3c-1.1-0.1-2.1-0.2-3.2-0.3
			c-1.1-0.1-2.1-0.2-3.1-0.2c-1-0.1-1.9-0.1-2.9-0.2c-1.8-0.1-3.3-0.1-4.4-0.1C451.7,126.9,451,126.9,451,126.9"/>
		<path opacity="0.51" fill="#9E2E1B" enable-background="new    " d="M443.2,130.8c0,0,0.4,0.1,1.2,0.3c0.7,0.2,1.9,0.4,3.3,0.7
			c0.7,0.1,1.5,0.3,2.4,0.4c0.9,0.1,1.7,0.3,2.8,0.4c1,0.1,2,0.3,3,0.4c1.1,0.1,2.1,0.2,3.2,0.3c1.1,0.1,2.2,0.2,3.3,0.3
			c1.1,0.1,2.2,0.2,3.3,0.3c2.1,0.2,4.2,0.3,6,0.4c1.8,0.1,3.3,0.2,4.4,0.2c1.1,0,1.7,0.1,1.7,0.1s-0.5-0.1-1.5-0.1
			c-1-0.1-2.4-0.2-4.1-0.4c-1.7-0.1-3.6-0.3-5.8-0.5c-1.1-0.1-2.1-0.2-3.2-0.3c-1.1-0.1-2.2-0.2-3.3-0.3c-1.1-0.1-2.2-0.2-3.2-0.3
			c-1.1-0.1-2.1-0.2-3.1-0.3c-1-0.1-1.9-0.2-2.8-0.3c-0.9-0.1-1.7-0.2-2.5-0.3c-1.5-0.2-2.8-0.4-3.6-0.5
			C443.6,130.9,443.2,130.8,443.2,130.8"/>
	</g>
	<g opacity="0.5">
		<path fill="#EF4E23" d="M636.9,172.9c-11.1-4.1-35.1-5.1-39.3-6.6c-3.6-0.6-8.2-5.9-24.6,0c-16.9,5.8-2.4,7.6-0.9,9
			c4,1.6,9.4,9.4,20.4,13.6c11.1,4.3,61.1,12.4,65.6,14.2c1.9,0.9,1.1,1.1,4.1,2.1c4.7,1.4,10.5,2.1,14.8,1.1
			c2.4-0.6,4.8-1.4,7.2-2.1c2.1-0.9,4.1-1.8,5.7-2.7c2.8-1.6,0.5-3.7-3.2-5.5c-2.9-1.1-3.4-0.7-5.7-1.5
			C675.9,193,648.2,177,636.9,172.9"/>
		<path opacity="0.51" fill="#9E2E1B" enable-background="new    " d="M584.1,170c0,0,0.3,0.1,0.9,0.3c0.6,0.2,1.5,0.5,2.6,1
			c2.2,0.7,5.3,1.9,9.3,3.3c1.9,0.6,4.1,1.4,6.3,2.2c2.2,0.7,4.6,1.6,7.1,2.5c2.5,0.9,5,1.7,7.7,2.7c2.7,0.9,5.3,1.8,8,2.7
			c2.7,1,5.5,1.8,8,2.7c2.7,0.9,5.3,1.8,7.9,2.7c5.1,1.7,10.1,3.3,14.2,4.7c4.2,1.4,7.8,2.5,10.3,3.3c1.3,0.4,2.2,0.7,2.9,1
			s1.1,0.3,1.1,0.3s-0.3-0.1-1-0.3c-0.6-0.2-1.6-0.5-2.7-1c-2.4-0.9-5.7-2-9.7-3.5c-4.1-1.4-8.8-3.1-13.8-4.8
			c-2.6-0.9-5.1-1.8-7.8-2.7c-2.7-0.9-5.3-1.8-8-2.8c-2.7-0.9-5.3-1.8-8-2.7c-2.7-0.9-5.2-1.7-7.8-2.6c-2.6-0.9-4.9-1.6-7.3-2.4
			c-2.4-0.7-4.5-1.5-6.5-2.1c-4.1-1.3-7.4-2.4-9.7-3.1c-1.2-0.3-2.1-0.6-2.8-0.9C584.4,170.1,584.1,170,584.1,170"/>
		<path opacity="0.51" fill="#9E2E1B" enable-background="new    " d="M575.4,172.8c0,0,0.2,0.1,0.7,0.4c0.4,0.2,1.2,0.6,2.1,1.1
			s2,1.1,3.3,1.6c1.3,0.6,2.9,1.4,4.6,2.1c1.7,0.7,3.6,1.6,5.7,2.5c1.1,0.4,2.1,0.9,3.2,1.3c0.5,0.2,1.2,0.4,1.7,0.6
			c0.6,0.2,1.2,0.4,1.8,0.6c2.5,0.9,5.1,1.8,7.9,2.6c2.8,0.9,5.7,1.7,8.6,2.6c5.8,1.7,11.6,3.4,17,5c2.8,0.9,5.5,1.6,7.9,2.4
			c2.6,0.7,4.9,1.4,7.2,2c4.5,1.3,8.2,2.4,10.8,3.1c2.7,0.7,4.2,1.2,4.2,1.2s-1.4-0.4-4-1.3c-2.6-0.7-6.1-1.9-10.5-3.3
			c-4.3-1.4-9.3-2.9-14.8-4.6c-5.3-1.6-11-3.4-16.8-5.1c-2.8-0.9-5.7-1.7-8.5-2.6c-0.6-0.2-1.4-0.4-2-0.6c-0.6-0.2-1.3-0.4-1.9-0.6
			c-0.6-0.2-1.3-0.4-1.9-0.6c-0.6-0.2-1.3-0.4-1.8-0.6c-2.5-0.9-4.6-1.7-6.8-2.6c-2.1-0.9-4.1-1.6-5.9-2.4c-3.5-1.5-6.5-2.7-8.6-3.5
			C576.6,173.2,575.4,172.8,575.4,172.8"/>
		<path opacity="0.51" fill="#9E2E1B" enable-background="new    " d="M591.4,166.9c0,0,0.3,0.1,1,0.3s1.6,0.4,2.9,0.9
			c1.3,0.3,2.8,0.7,4.5,1.3s3.6,1.1,5.8,1.6c2.1,0.6,4.5,1.3,7,1.9c2.5,0.7,5,1.4,7.7,2.2c1.3,0.4,2.7,0.7,4.1,1.2
			c0.6,0.2,1.4,0.4,2,0.6s1.3,0.4,2,0.6c2.6,0.9,5.2,1.8,7.8,2.8s5.1,1.9,7.6,2.9c2.6,1,5,1.9,7.4,2.8c4.8,1.8,9.2,3.5,13.1,5
			c7.7,3,12.8,5,12.8,5s-1.2-0.5-3.3-1.5c-2.1-0.9-5.2-2.2-8.9-3.7c-1.8-0.7-3.9-1.6-6-2.5c-2.1-0.9-4.4-1.8-6.7-2.7
			c-2.4-1-4.7-1.9-7.2-2.9c-2.5-1-5-1.9-7.6-2.9c-2.6-1-5.1-1.9-7.8-2.8c-0.6-0.2-1.3-0.4-2-0.6c-0.6-0.2-1.4-0.4-2-0.6
			c-1.4-0.4-2.7-0.9-4.1-1.2c-2.7-0.7-5.3-1.5-7.8-2.1s-4.9-1.3-7.2-1.9c-2.2-0.5-4.3-1.1-6.1-1.5s-3.4-0.9-4.7-1.2
			s-2.4-0.5-3.1-0.7C591.8,167,591.4,166.9,591.4,166.9"/>
		<path opacity="0.51" fill="#9E2E1B" enable-background="new    " d="M583.1,172.9c0,0,1,0.4,2.9,1.2c1,0.4,2,0.9,3.3,1.4
			c1.3,0.5,2.8,1.2,4.4,1.8c1.6,0.6,3.4,1.4,5.3,2c1.9,0.7,4,1.5,6.2,2.2c1.1,0.4,2.2,0.7,3.4,1.2c1.2,0.4,2.5,0.7,3.6,1.2
			c2.5,0.7,4.9,1.6,7.4,2.4c9.8,3.2,19.8,6.4,27.4,8.9c7.6,2.5,12.6,4.1,12.6,4.1s-1.2-0.4-3.4-1.2c-2.1-0.7-5.2-1.8-8.9-3.1
			c-3.6-1.3-7.9-2.7-12.5-4.3c-4.6-1.5-9.4-3.2-14.3-4.8c-2.5-0.9-4.9-1.6-7.3-2.4c-1.2-0.4-2.5-0.7-3.6-1.2
			c-1.2-0.4-2.2-0.7-3.4-1.2c-2.2-0.7-4.3-1.5-6.3-2.2c-1.9-0.7-3.7-1.4-5.6-2c-1.7-0.6-3.3-1.2-4.7-1.7c-1.4-0.5-2.6-1-3.6-1.3
			C584.3,173.3,583.1,172.9,583.1,172.9"/>
		<path opacity="0.51" fill="#9E2E1B" enable-background="new    " d="M592.5,169.4c0,0,1.2,0.4,3.2,1.1c1.1,0.3,2.2,0.7,3.7,1.3
			c1.5,0.4,3.1,1,4.9,1.6c1.8,0.6,3.9,1.2,5.9,1.8c2.1,0.6,4.4,1.4,6.6,2c2.4,0.7,4.8,1.4,7.2,2.2c2.4,0.7,4.7,1.6,7.1,2.5
			c2.4,0.9,4.7,1.7,7.1,2.5c2.4,0.9,4.6,1.6,6.8,2.5c4.4,1.6,8.6,3.1,12.1,4.4c7.2,2.6,12,4.3,12,4.3s-1.2-0.4-3.2-1.2
			c-2-0.7-4.9-1.9-8.3-3.2c-3.4-1.3-7.5-2.9-11.9-4.5s-8.9-3.3-13.6-5c-2.4-0.9-4.7-1.7-7.1-2.5c-2.4-0.7-4.8-1.5-7.1-2.2
			c-2.4-0.7-4.6-1.4-6.7-2c-2.1-0.6-4.2-1.3-6-1.8c-1.9-0.5-3.6-1.1-5.1-1.5c-1.5-0.4-2.9-0.9-4-1.2
			C593.8,169.8,592.5,169.4,592.5,169.4"/>
		<path opacity="0.51" fill="#9E2E1B" enable-background="new    " d="M584.4,179.4c0,0,0.1,0.1,0.3,0.2c0.2,0.1,0.5,0.3,1,0.6
			c0.4,0.3,1,0.6,1.6,1c0.6,0.3,1.4,0.7,2.2,1.2c0.9,0.4,1.8,0.9,3,1.4c0.5,0.2,1.2,0.4,1.7,0.7c0.6,0.2,1.3,0.5,1.9,0.7
			c1.3,0.4,2.8,1,4.3,1.4c1.5,0.4,3.1,1,4.7,1.4c1.6,0.4,3.2,0.9,4.8,1.3c1.6,0.4,3.2,0.9,4.7,1.3c3.1,0.9,6,1.5,8.6,2.1
			s4.7,1.2,6.2,1.5c1.5,0.3,2.4,0.5,2.4,0.5s-0.9-0.2-2.2-0.6c-1.4-0.4-3.4-1-5.9-1.6c-2.5-0.6-5.2-1.5-8.3-2.2
			c-1.5-0.4-3.1-0.9-4.6-1.3c-1.6-0.4-3.2-0.9-4.7-1.3c-1.6-0.4-3.1-0.9-4.7-1.4c-1.5-0.4-3-1-4.3-1.4c-0.6-0.2-1.3-0.4-1.9-0.7
			c-0.6-0.2-1.2-0.4-1.8-0.6c-0.5-0.2-1.1-0.4-1.6-0.6c-0.5-0.2-1.1-0.4-1.5-0.6c-1.8-0.9-3.3-1.5-4.3-2
			C584.9,179.7,584.4,179.4,584.4,179.4"/>
		<path opacity="0.51" fill="#9E2E1B" enable-background="new    " d="M612.8,170c0,0,0.9,0.2,2.4,0.5s3.5,0.9,5.9,1.5
			c0.6,0.1,1.2,0.3,1.8,0.5s1.3,0.3,1.9,0.5c0.6,0.2,1.3,0.4,2,0.6c0.6,0.2,1.4,0.4,2,0.6c1.4,0.4,2.7,1,4,1.5s2.7,1.1,4,1.6
			c1.3,0.5,2.6,1.1,3.9,1.6c1.3,0.5,2.6,1.1,3.7,1.6c2.5,1.1,4.7,2,6.6,2.8c1.9,0.9,3.6,1.5,4.7,2c1.2,0.4,1.8,0.7,1.8,0.7
			s-0.5-0.3-1.6-0.9c-1.1-0.5-2.6-1.3-4.4-2.1c-1.8-0.9-4-1.8-6.3-2.9c-1.2-0.5-2.4-1.1-3.6-1.6c-1.3-0.5-2.6-1.1-3.9-1.6
			c-1.3-0.5-2.7-1.1-4-1.6s-2.8-1-4.1-1.4c-0.7-0.2-1.4-0.4-2.1-0.6c-0.7-0.2-1.4-0.4-2-0.5c-1.4-0.3-2.7-0.7-4-1
			c-1.3-0.3-2.5-0.5-3.5-0.7s-2-0.4-2.8-0.5c-0.7-0.1-1.4-0.2-1.8-0.3C613,170.1,612.8,170,612.8,170"/>
	</g>
	<g>
		<ellipse fill="#A7A9AB" cx="583.9" cy="297" rx="8.5" ry="3.6"/>
		<ellipse fill="#A7A9AB" cx="583.9" cy="297" rx="8.5" ry="3.6"/>
		<ellipse fill="#A7A9AB" cx="583.9" cy="297" rx="8.5" ry="3.6"/>
		<ellipse fill="#A7A9AB" cx="583.9" cy="297" rx="8.5" ry="3.6"/>
		<ellipse fill="#A7A9AB" cx="583.9" cy="297" rx="8.5" ry="3.6"/>
		<ellipse fill="#A7A9AB" cx="583.9" cy="297.7" rx="8.5" ry="3.6"/>
		<ellipse fill="#A7A9AB" cx="583.9" cy="298.6" rx="8.5" ry="3.6"/>
		<ellipse fill="#A7A9AB" cx="583.9" cy="299.3" rx="8.5" ry="3.6"/>
		<ellipse fill="#A7A9AB" cx="583.9" cy="300.2" rx="8.5" ry="3.6"/>
		<ellipse fill="#A7A9AB" cx="583.9" cy="300.9" rx="8.5" ry="3.6"/>
		<ellipse fill="#D3D3D3" cx="583.9" cy="296.1" rx="8.5" ry="3.6"/>
	</g>
	<g opacity="0.5">
		<ellipse fill="#A7A9AB" cx="665.2" cy="233.8" rx="8.5" ry="3.6"/>
		<ellipse fill="#A7A9AB" cx="665.2" cy="233.8" rx="8.5" ry="3.6"/>
		<ellipse fill="#A7A9AB" cx="665.2" cy="233.8" rx="8.5" ry="3.6"/>
		<ellipse fill="#A7A9AB" cx="665.2" cy="233.8" rx="8.5" ry="3.6"/>
		<ellipse fill="#A7A9AB" cx="665.2" cy="233.8" rx="8.5" ry="3.6"/>
		<ellipse fill="#A7A9AB" cx="665.2" cy="234.6" rx="8.5" ry="3.6"/>
		<ellipse fill="#A7A9AB" cx="665.2" cy="235.4" rx="8.5" ry="3.6"/>
		<ellipse fill="#A7A9AB" cx="665.2" cy="236.2" rx="8.5" ry="3.6"/>
		<ellipse fill="#A7A9AB" cx="665.2" cy="237.1" rx="8.5" ry="3.6"/>
		<ellipse fill="#A7A9AB" cx="665.2" cy="237.8" rx="8.5" ry="3.6"/>
		<ellipse fill="#D3D3D3" cx="665.2" cy="233" rx="8.5" ry="3.6"/>
	</g>
	<g opacity="0.5">
		<ellipse fill="#A7A9AB" cx="171" cy="231.7" rx="8.5" ry="3.6"/>
		<ellipse fill="#A7A9AB" cx="171" cy="231.7" rx="8.5" ry="3.6"/>
		<ellipse fill="#A7A9AB" cx="171" cy="231.7" rx="8.5" ry="3.6"/>
		<ellipse fill="#A7A9AB" cx="171" cy="231.7" rx="8.5" ry="3.6"/>
		<ellipse fill="#A7A9AB" cx="171" cy="231.7" rx="8.5" ry="3.6"/>
		<ellipse fill="#A7A9AB" cx="171" cy="232.5" rx="8.5" ry="3.6"/>
		<ellipse fill="#A7A9AB" cx="171" cy="233.3" rx="8.5" ry="3.6"/>
		<ellipse fill="#A7A9AB" cx="171" cy="234.1" rx="8.5" ry="3.6"/>
		<ellipse fill="#A7A9AB" cx="171" cy="234.9" rx="8.5" ry="3.6"/>
		<ellipse fill="#A7A9AB" cx="171" cy="235.7" rx="8.5" ry="3.6"/>
		<ellipse fill="#D3D3D3" cx="171" cy="230.8" rx="8.5" ry="3.6"/>
	</g>
	<g opacity="0.5">
		<ellipse fill="#A7A9AB" cx="204.1" cy="244.5" rx="8.5" ry="3.6"/>
		<ellipse fill="#A7A9AB" cx="204.1" cy="244.5" rx="8.5" ry="3.6"/>
		<ellipse fill="#A7A9AB" cx="204.1" cy="244.5" rx="8.5" ry="3.6"/>
		<ellipse fill="#A7A9AB" cx="204.1" cy="244.5" rx="8.5" ry="3.6"/>
		<ellipse fill="#A7A9AB" cx="204.1" cy="244.5" rx="8.5" ry="3.6"/>
		<ellipse fill="#A7A9AB" cx="204.1" cy="245.3" rx="8.5" ry="3.6"/>
		<ellipse fill="#A7A9AB" cx="204.1" cy="246.1" rx="8.5" ry="3.6"/>
		<ellipse fill="#A7A9AB" cx="204.1" cy="246.9" rx="8.5" ry="3.6"/>
		<ellipse fill="#A7A9AB" cx="204.1" cy="247.7" rx="8.5" ry="3.6"/>
		<ellipse fill="#A7A9AB" cx="204.1" cy="248.5" rx="8.5" ry="3.6"/>
		<ellipse fill="#D3D3D3" cx="204.1" cy="243.7" rx="8.5" ry="3.6"/>
	</g>
	<g opacity="0.5">
		<ellipse fill="#A7A9AB" cx="171" cy="215.7" rx="8.5" ry="3.6"/>
		<ellipse fill="#A7A9AB" cx="171" cy="215.7" rx="8.5" ry="3.6"/>
		<ellipse fill="#A7A9AB" cx="171" cy="215.7" rx="8.5" ry="3.6"/>
		<ellipse fill="#A7A9AB" cx="171" cy="215.7" rx="8.5" ry="3.6"/>
		<ellipse fill="#A7A9AB" cx="171" cy="215.7" rx="8.5" ry="3.6"/>
		<ellipse fill="#A7A9AB" cx="171" cy="216.4" rx="8.5" ry="3.6"/>
		<ellipse fill="#A7A9AB" cx="171" cy="217.3" rx="8.5" ry="3.6"/>
		<ellipse fill="#A7A9AB" cx="171" cy="218" rx="8.5" ry="3.6"/>
		<ellipse fill="#A7A9AB" cx="171" cy="218.9" rx="8.5" ry="3.6"/>
		<ellipse fill="#A7A9AB" cx="171" cy="219.6" rx="8.5" ry="3.6"/>
		<ellipse fill="#D3D3D3" cx="171" cy="214.8" rx="8.5" ry="3.6"/>
	</g>
	<g opacity="0.5">
		<ellipse fill="#A7A9AB" cx="204.1" cy="228.5" rx="8.5" ry="3.6"/>
		<ellipse fill="#A7A9AB" cx="204.1" cy="228.5" rx="8.5" ry="3.6"/>
		<ellipse fill="#A7A9AB" cx="204.1" cy="228.5" rx="8.5" ry="3.6"/>
		<ellipse fill="#A7A9AB" cx="204.1" cy="228.5" rx="8.5" ry="3.6"/>
		<ellipse fill="#A7A9AB" cx="204.1" cy="228.5" rx="8.5" ry="3.6"/>
		<ellipse fill="#A7A9AB" cx="204.1" cy="229.2" rx="8.5" ry="3.6"/>
		<ellipse fill="#A7A9AB" cx="204.1" cy="230.1" rx="8.5" ry="3.6"/>
		<ellipse fill="#A7A9AB" cx="204.1" cy="230.8" rx="8.5" ry="3.6"/>
		<ellipse fill="#A7A9AB" cx="204.1" cy="231.7" rx="8.5" ry="3.6"/>
		<ellipse fill="#A7A9AB" cx="204.1" cy="232.5" rx="8.5" ry="3.6"/>
		<ellipse fill="#D3D3D3" cx="204.1" cy="227.6" rx="8.5" ry="3.6"/>
	</g>
	<g opacity="0.5">
		<ellipse fill="#A7A9AB" cx="500.4" cy="169.7" rx="8.5" ry="3.6"/>
		<ellipse fill="#A7A9AB" cx="500.4" cy="169.7" rx="8.5" ry="3.6"/>
		<ellipse fill="#A7A9AB" cx="500.4" cy="169.7" rx="8.5" ry="3.6"/>
		<ellipse fill="#A7A9AB" cx="500.4" cy="169.7" rx="8.5" ry="3.6"/>
		<ellipse fill="#A7A9AB" cx="500.4" cy="169.7" rx="8.5" ry="3.6"/>
		<ellipse fill="#A7A9AB" cx="500.4" cy="170.4" rx="8.5" ry="3.6"/>
		<ellipse fill="#A7A9AB" cx="500.4" cy="171.3" rx="8.5" ry="3.6"/>
		<ellipse fill="#A7A9AB" cx="500.4" cy="172" rx="8.5" ry="3.6"/>
		<ellipse fill="#A7A9AB" cx="500.4" cy="172.9" rx="8.5" ry="3.6"/>
		<ellipse fill="#A7A9AB" cx="500.4" cy="173.6" rx="8.5" ry="3.6"/>
		<ellipse fill="#D3D3D3" cx="500.4" cy="168.8" rx="8.5" ry="3.6"/>
	</g>
	<g opacity="0.5">
		<ellipse fill="#A7A9AB" cx="429.8" cy="162.2" rx="8.5" ry="3.6"/>
		<ellipse fill="#A7A9AB" cx="429.8" cy="162.2" rx="8.5" ry="3.6"/>
		<ellipse fill="#A7A9AB" cx="429.8" cy="162.2" rx="8.5" ry="3.6"/>
		<ellipse fill="#A7A9AB" cx="429.8" cy="162.2" rx="8.5" ry="3.6"/>
		<ellipse fill="#A7A9AB" cx="429.8" cy="162.2" rx="8.5" ry="3.6"/>
		<ellipse fill="#A7A9AB" cx="429.8" cy="162.9" rx="8.5" ry="3.6"/>
		<ellipse fill="#A7A9AB" cx="429.8" cy="163.8" rx="8.5" ry="3.6"/>
		<ellipse fill="#A7A9AB" cx="429.8" cy="164.5" rx="8.5" ry="3.6"/>
		<ellipse fill="#A7A9AB" cx="429.8" cy="165.4" rx="8.5" ry="3.6"/>
		<ellipse fill="#A7A9AB" cx="429.8" cy="166.1" rx="8.5" ry="3.6"/>
		<ellipse fill="#D3D3D3" cx="429.8" cy="161.3" rx="8.5" ry="3.6"/>
	</g>
	<g opacity="0.5">
		<ellipse fill="#A7A9AB" cx="500.4" cy="153.6" rx="8.5" ry="3.6"/>
		<ellipse fill="#A7A9AB" cx="500.4" cy="153.6" rx="8.5" ry="3.6"/>
		<ellipse fill="#A7A9AB" cx="500.4" cy="153.6" rx="8.5" ry="3.6"/>
		<ellipse fill="#A7A9AB" cx="500.4" cy="153.6" rx="8.5" ry="3.6"/>
		<ellipse fill="#A7A9AB" cx="500.4" cy="153.6" rx="8.5" ry="3.6"/>
		<ellipse fill="#A7A9AB" cx="500.4" cy="154.4" rx="8.5" ry="3.6"/>
		<ellipse fill="#A7A9AB" cx="500.4" cy="155.2" rx="8.5" ry="3.6"/>
		<ellipse fill="#A7A9AB" cx="500.4" cy="156" rx="8.5" ry="3.6"/>
		<ellipse fill="#A7A9AB" cx="500.4" cy="156.8" rx="8.5" ry="3.6"/>
		<ellipse fill="#A7A9AB" cx="500.4" cy="157.6" rx="8.5" ry="3.6"/>
		<ellipse fill="#D3D3D3" cx="500.4" cy="152.8" rx="8.5" ry="3.6"/>
	</g>
	<g opacity="0.5">
		<ellipse fill="#A7A9AB" cx="429.8" cy="146.1" rx="8.5" ry="3.6"/>
		<ellipse fill="#A7A9AB" cx="429.8" cy="146.1" rx="8.5" ry="3.6"/>
		<ellipse fill="#A7A9AB" cx="429.8" cy="146.1" rx="8.5" ry="3.6"/>
		<ellipse fill="#A7A9AB" cx="429.8" cy="146.1" rx="8.5" ry="3.6"/>
		<ellipse fill="#A7A9AB" cx="429.8" cy="146.1" rx="8.5" ry="3.6"/>
		<ellipse fill="#A7A9AB" cx="429.8" cy="146.9" rx="8.5" ry="3.6"/>
		<ellipse fill="#A7A9AB" cx="429.8" cy="147.7" rx="8.5" ry="3.6"/>
		<ellipse fill="#A7A9AB" cx="429.8" cy="148.5" rx="8.5" ry="3.6"/>
		<ellipse fill="#A7A9AB" cx="429.8" cy="149.3" rx="8.5" ry="3.6"/>
		<ellipse fill="#A7A9AB" cx="429.8" cy="150.1" rx="8.5" ry="3.6"/>
		<ellipse fill="#D3D3D3" cx="429.8" cy="145.3" rx="8.5" ry="3.6"/>
	</g>
	<g opacity="0.5">
		<ellipse fill="#A7A9AB" cx="576.4" cy="210.3" rx="8.5" ry="3.6"/>
		<ellipse fill="#A7A9AB" cx="576.4" cy="210.3" rx="8.5" ry="3.6"/>
		<ellipse fill="#A7A9AB" cx="576.4" cy="210.3" rx="8.5" ry="3.6"/>
		<ellipse fill="#A7A9AB" cx="576.4" cy="210.3" rx="8.5" ry="3.6"/>
		<ellipse fill="#A7A9AB" cx="576.4" cy="210.3" rx="8.5" ry="3.6"/>
		<ellipse fill="#A7A9AB" cx="576.4" cy="211.1" rx="8.5" ry="3.6"/>
		<ellipse fill="#A7A9AB" cx="576.4" cy="211.9" rx="8.5" ry="3.6"/>
		<ellipse fill="#A7A9AB" cx="576.4" cy="212.7" rx="8.5" ry="3.6"/>
		<ellipse fill="#A7A9AB" cx="576.4" cy="213.5" rx="8.5" ry="3.6"/>
		<ellipse fill="#A7A9AB" cx="576.4" cy="214.3" rx="8.5" ry="3.6"/>
		<ellipse fill="#D3D3D3" cx="576.4" cy="209.5" rx="8.5" ry="3.6"/>
	</g>
	<g opacity="0.5">
		<ellipse fill="#A7A9AB" cx="665.2" cy="217.8" rx="8.5" ry="3.6"/>
		<ellipse fill="#A7A9AB" cx="665.2" cy="217.8" rx="8.5" ry="3.6"/>
		<ellipse fill="#A7A9AB" cx="665.2" cy="217.8" rx="8.5" ry="3.6"/>
		<ellipse fill="#A7A9AB" cx="665.2" cy="217.8" rx="8.5" ry="3.6"/>
		<ellipse fill="#A7A9AB" cx="665.2" cy="217.8" rx="8.5" ry="3.6"/>
		<ellipse fill="#A7A9AB" cx="665.2" cy="218.5" rx="8.5" ry="3.6"/>
		<ellipse fill="#A7A9AB" cx="665.2" cy="219.4" rx="8.5" ry="3.6"/>
		<ellipse fill="#A7A9AB" cx="665.2" cy="220.1" rx="8.5" ry="3.6"/>
		<ellipse fill="#A7A9AB" cx="665.2" cy="221" rx="8.5" ry="3.6"/>
		<ellipse fill="#A7A9AB" cx="665.2" cy="221.8" rx="8.5" ry="3.6"/>
		<ellipse fill="#D3D3D3" cx="665.2" cy="216.9" rx="8.5" ry="3.6"/>
	</g>
	<g opacity="0.5">
		<ellipse fill="#A7A9AB" cx="576.4" cy="194.3" rx="8.5" ry="3.6"/>
		<ellipse fill="#A7A9AB" cx="576.4" cy="194.3" rx="8.5" ry="3.6"/>
		<ellipse fill="#A7A9AB" cx="576.4" cy="194.3" rx="8.5" ry="3.6"/>
		<ellipse fill="#A7A9AB" cx="576.4" cy="194.3" rx="8.5" ry="3.6"/>
		<ellipse fill="#A7A9AB" cx="576.4" cy="194.3" rx="8.5" ry="3.6"/>
		<ellipse fill="#A7A9AB" cx="576.4" cy="195" rx="8.5" ry="3.6"/>
		<ellipse fill="#A7A9AB" cx="576.4" cy="195.9" rx="8.5" ry="3.6"/>
		<ellipse fill="#A7A9AB" cx="576.4" cy="196.6" rx="8.5" ry="3.6"/>
		<ellipse fill="#A7A9AB" cx="576.4" cy="197.5" rx="8.5" ry="3.6"/>
		<ellipse fill="#A7A9AB" cx="576.4" cy="198.2" rx="8.5" ry="3.6"/>
		<ellipse fill="#D3D3D3" cx="576.4" cy="193.4" rx="8.5" ry="3.6"/>
	</g>
	<g opacity="0.5">
		<path fill="#EF4E23" d="M457.7,210.7c0,0,25.1-7.7,86.8,33.5c2.7-3.3,4.3-5.5,4.3-5.5s-60.7-40.5-87.9-32
			C459.2,208.9,457.7,210.7,457.7,210.7z"/>
		<g>
			<path fill="#E6E7E8" stroke="#EF4E23" stroke-miterlimit="10" d="M504,219.5c-2.1-1-4.2-1.8-6.1-2.6l1.9-2.5
				c2,0.9,4.1,1.7,6.1,2.6L504,219.5z"/>
			<path fill="#E6E7E8" stroke="#EF4E23" stroke-miterlimit="10" d="M489.4,213.8c-2.4-0.7-4.6-1.4-6.6-2l2-2.6
				c2.1,0.6,4.4,1.3,6.5,2L489.4,213.8z"/>
			<path fill="#E6E7E8" stroke="#EF4E23" stroke-miterlimit="10" d="M496.8,216.5c-2.2-0.9-4.3-1.6-6.3-2.4l2-2.6
				c2.1,0.7,4.2,1.5,6.3,2.4L496.8,216.5z"/>
			<path fill="#E6E7E8" stroke="#EF4E23" stroke-miterlimit="10" d="M469.2,206.7c2,0,4.2,0.2,6.4,0.5l-2.1,2.7
				c-2.5-0.4-4.5-0.6-6.3-0.7L469.2,206.7z"/>
			<path fill="#E6E7E8" stroke="#EF4E23" stroke-miterlimit="10" d="M481.7,211.5c-2.6-0.6-4.9-1.2-7-1.5l2.1-2.7
				c2.2,0.4,4.6,1,7,1.6L481.7,211.5z"/>
			<path fill="#E6E7E8" stroke="#EF4E23" stroke-miterlimit="10" d="M510.9,222.8c-2-1-4.1-1.9-6-2.8l1.9-2.5c2,1,4.1,1.8,6,2.8
				L510.9,222.8z"/>
			<path fill="#E6E7E8" stroke="#EF4E23" stroke-miterlimit="10" d="M536.3,237.4c-1.8-1.2-3.6-2.4-5.5-3.4l2.4-3
				c2,1.2,4,2.2,5.6,3.2L536.3,237.4z"/>
			<path fill="#E6E7E8" stroke="#EF4E23" stroke-miterlimit="10" d="M465.9,209c-4.2-0.1-6.2,0.3-6.2,0.3s0.4-0.1,1.8-1.8
				c1.9-0.6,4.1-0.9,6.4-1L465.9,209z"/>
			<path fill="#E6E7E8" stroke="#EF4E23" stroke-miterlimit="10" d="M517.7,226.4c-2-1.1-4-2-5.8-3l2-2.6c2,1,4,1.9,5.9,2.9
				L517.7,226.4z"/>
			<path fill="#E6E7E8" stroke="#EF4E23" stroke-miterlimit="10" d="M537.1,237.9l2.5-3.2c4,2.4,6.3,3.9,6.3,3.9s-0.4,0.7-2.6,3.4
				C541.3,240.7,539.3,239.3,537.1,237.9z"/>
			<path fill="#E6E7E8" stroke="#EF4E23" stroke-miterlimit="10" d="M524.3,230.1c-1.9-1.1-3.9-2.1-5.7-3.2l2-2.7c2,1.1,4,2,5.8,3.1
				L524.3,230.1z"/>
			<path fill="#E6E7E8" stroke="#EF4E23" stroke-miterlimit="10" d="M529.8,233.3c-1.6-1-3.1-1.9-4.6-2.8l2.2-2.8
				c1.7,0.9,3.2,1.8,4.7,2.7L529.8,233.3z"/>
		</g>
	</g>
	<g opacity="0.5">
		<path fill="#EF4E23" d="M616.7,269.5c0,0,22.8-13.2,92,13.1c1.8-3.9,3-6.3,3-6.3s-68.2-25.8-92.9-11.3
			C617.7,267.3,616.7,269.5,616.7,269.5z"/>
		<g>
			<path fill="#E6E7E8" stroke="#EF4E23" stroke-miterlimit="10" d="M663.7,267.6c-2.2-0.4-4.5-0.9-6.5-1.2l1.4-2.9
				c2.1,0.3,4.4,0.7,6.5,1.2L663.7,267.6z"/>
			<path fill="#E6E7E8" stroke="#EF4E23" stroke-miterlimit="10" d="M648.3,265.3c-2.5-0.2-4.7-0.4-6.8-0.4l1.4-3
				c2.2,0.1,4.5,0.3,6.8,0.5L648.3,265.3z"/>
			<path fill="#E6E7E8" stroke="#EF4E23" stroke-miterlimit="10" d="M656.1,266.3c-2.4-0.3-4.6-0.6-6.7-0.9l1.4-2.9
				c2.2,0.2,4.4,0.5,6.6,0.9L656.1,266.3z"/>
			<path fill="#E6E7E8" stroke="#EF4E23" stroke-miterlimit="10" d="M626.9,262.8c1.9-0.4,4.1-0.7,6.3-0.9l-1.4,3
				c-2.5,0.2-4.5,0.4-6.3,0.7L626.9,262.8z"/>
			<path fill="#E6E7E8" stroke="#EF4E23" stroke-miterlimit="10" d="M640.1,264.9c-2.7-0.1-5,0-7.2,0.1l1.4-3
				c2.2-0.1,4.7-0.1,7.2-0.1L640.1,264.9z"/>
			<path fill="#E6E7E8" stroke="#EF4E23" stroke-miterlimit="10" d="M671.3,269.2c-2.2-0.5-4.4-1-6.4-1.4l1.4-2.9
				c2.1,0.4,4.3,0.9,6.4,1.4L671.3,269.2z"/>
			<path fill="#E6E7E8" stroke="#EF4E23" stroke-miterlimit="10" d="M699.2,277.7c-2-0.7-4.1-1.5-6.1-2.1l1.6-3.4
				c2.2,0.6,4.4,1.3,6.2,1.9L699.2,277.7z"/>
			<path fill="#E6E7E8" stroke="#EF4E23" stroke-miterlimit="10" d="M624.2,265.9c-4.1,0.9-6,1.7-6,1.7s0.4-0.2,1.3-2.1
				c1.7-1,3.7-1.8,6-2.4L624.2,265.9z"/>
			<path fill="#E6E7E8" stroke="#EF4E23" stroke-miterlimit="10" d="M678.6,271.1c-2.1-0.6-4.3-1.2-6.3-1.6l1.4-2.9
				c2.1,0.5,4.3,1,6.4,1.5L678.6,271.1z"/>
			<path fill="#E6E7E8" stroke="#EF4E23" stroke-miterlimit="10" d="M700.1,278l1.7-3.6c4.4,1.4,7.1,2.4,7.1,2.4s-0.2,0.9-1.7,4
				C704.9,279.7,702.5,278.9,700.1,278z"/>
			<path fill="#E6E7E8" stroke="#EF4E23" stroke-miterlimit="10" d="M685.9,273.2c-2.1-0.6-4.2-1.3-6.2-1.8l1.4-3
				c2.1,0.5,4.3,1.1,6.3,1.7L685.9,273.2z"/>
			<path fill="#E6E7E8" stroke="#EF4E23" stroke-miterlimit="10" d="M692,275.2c-1.7-0.5-3.4-1.2-5.1-1.6l1.5-3.2
				c1.8,0.5,3.5,1,5.2,1.5L692,275.2z"/>
		</g>
	</g>
	<g opacity="0.5">
		<path fill="#EF4E23" d="M195.9,277.3c0,0,15,21.6,88.8,27.6c0,4.3,0,7,0,7s-72.7-5.9-88.8-29.4
			C195.9,279.6,195.9,277.3,195.9,277.3z"/>
		<g>
			<path fill="#E6E7E8" stroke="#EF4E23" stroke-miterlimit="10" d="M237.1,299.1c-2.1-0.5-4.3-1.2-6.4-1.7v3.1
				c2.1,0.6,4.3,1.2,6.4,1.7V299.1z"/>
			<path fill="#E6E7E8" stroke="#EF4E23" stroke-miterlimit="10" d="M222.1,294.5c-2.1-0.9-4.3-1.7-6.4-2.6v3.3
				c2.1,0.9,4.3,1.7,6.4,2.5V294.5z"/>
			<path fill="#E6E7E8" stroke="#EF4E23" stroke-miterlimit="10" d="M229.6,297c-2.1-0.6-4.3-1.4-6.4-2.1v3.2c2.1,0.7,4.3,1.4,6.4,2
				V297z"/>
			<path fill="#E6E7E8" stroke="#EF4E23" stroke-miterlimit="10" d="M201.8,287.6c2.1,1.3,4.3,2.4,5.3,3.5v-3.4
				c-1.1-1.2-3.2-2.4-5.3-3.3V287.6z"/>
			<path fill="#E6E7E8" stroke="#EF4E23" stroke-miterlimit="10" d="M214.6,291.5c-2.1-1.1-4.3-2.1-6.4-3.1v3.4
				c2.1,1.1,4.3,2.1,6.4,3.1V291.5z"/>
			<path fill="#E6E7E8" stroke="#EF4E23" stroke-miterlimit="10" d="M244.6,300.8c-2.1-0.4-4.3-1-6.4-1.5v3.1
				c3.2,0.5,5.3,1.1,6.4,1.5V300.8z"/>
			<path fill="#E6E7E8" stroke="#EF4E23" stroke-miterlimit="10" d="M273.4,305.1c-2.1-0.2-4.3-0.4-6.4-0.6v3.7
				c3.2,0.3,5.3,0.6,6.4,1V305.1z"/>
			<path fill="#E6E7E8" stroke="#EF4E23" stroke-miterlimit="10" d="M200.7,283.7c-3.2-2.5-4.3-4.2-4.3-4.2s0,0.4,0,2.6
				c1.1,1.6,3.2,3.2,4.3,4.7V283.7z"/>
			<path fill="#E6E7E8" stroke="#EF4E23" stroke-miterlimit="10" d="M252,302.2c-2.1-0.4-4.3-0.7-6.4-1.2v3.2c3.2,0.4,5.3,1,6.4,1.3
				V302.2z"/>
			<path fill="#E6E7E8" stroke="#EF4E23" stroke-miterlimit="10" d="M274.5,305.2v4.1c5.3,0.6,8.6,0.9,8.6,0.9s0-0.9,0-4.3
				C279.9,305.6,277.7,305.4,274.5,305.2z"/>
			<path fill="#E6E7E8" stroke="#EF4E23" stroke-miterlimit="10" d="M259.5,303.5c-2.1-0.3-4.3-0.6-6.4-1v3.3
				c3.2,0.4,5.3,0.9,6.4,1.2V303.5z"/>
			<path fill="#E6E7E8" stroke="#EF4E23" stroke-miterlimit="10" d="M265.9,304.3c-1.1-0.2-3.2-0.4-5.3-0.7v3.5
				c2.1,0.3,4.3,0.6,5.3,0.9V304.3z"/>
		</g>
	</g>
	<g>
		<polygon fill="#776F6E" points="298.3,137.4 299.2,142.7 318.8,138.3 317.8,133 		"/>
		<polygon fill="#776F6E" points="299.1,142.7 308.6,144.6 318.8,138.2 309,137 		"/>
		<polygon fill="#A0A0A0" points="298.1,137.5 307.7,139.4 317.8,133 308,131.8 		"/>
		<g>
			
				<ellipse transform="matrix(-0.1803 -0.9836 0.9836 -0.1803 230.0699 461.2876)" fill="#776F6E" cx="307.2" cy="134.8" rx="1.2" ry="2.7"/>
			
				<ellipse transform="matrix(-0.1803 -0.9836 0.9836 -0.1803 230.0699 461.2876)" fill="#776F6E" cx="307.2" cy="134.8" rx="1.2" ry="2.7"/>
			
				<ellipse transform="matrix(-0.1803 -0.9836 0.9836 -0.1803 230.0699 461.2876)" fill="#776F6E" cx="307.2" cy="134.8" rx="1.2" ry="2.7"/>
			
				<ellipse transform="matrix(-0.1803 -0.9836 0.9836 -0.1803 230.0699 461.2876)" fill="#776F6E" cx="307.2" cy="134.8" rx="1.2" ry="2.7"/>
			
				<ellipse transform="matrix(-0.1803 -0.9836 0.9836 -0.1803 230.0699 461.2876)" fill="#776F6E" cx="307.2" cy="134.8" rx="1.2" ry="2.7"/>
			
				<ellipse transform="matrix(-0.1803 -0.9836 0.9836 -0.1803 229.8448 461.5452)" fill="#776F6E" cx="307.2" cy="135" rx="1.2" ry="2.7"/>
			
				<ellipse transform="matrix(-0.1803 -0.9836 0.9836 -0.1803 229.763 461.8837)" fill="#776F6E" cx="307.3" cy="135.2" rx="1.2" ry="2.7"/>
			
				<ellipse transform="matrix(-0.1803 -0.9836 0.9836 -0.1803 229.4571 462.2845)" fill="#776F6E" cx="307.4" cy="135.5" rx="1.2" ry="2.7"/>
			
				<ellipse transform="matrix(-0.1803 -0.9836 0.9836 -0.1803 229.3752 462.6229)" fill="#776F6E" cx="307.5" cy="135.7" rx="1.2" ry="2.7"/>
			
				<ellipse transform="matrix(-0.1803 -0.9836 0.9836 -0.1803 229.1501 462.8806)" fill="#776F6E" cx="307.4" cy="136" rx="1.2" ry="2.7"/>
			
				<ellipse transform="matrix(-0.1803 -0.9836 0.9836 -0.1803 230.2949 461.0298)" fill="#F2F2F2" cx="307.2" cy="134.6" rx="1.2" ry="2.7"/>
		</g>
	</g>
	<g opacity="0.5">
		<ellipse fill="#776F6E" cx="185.6" cy="273.8" rx="10.6" ry="5.1"/>
		<polygon fill="#776F6E" points="166.5,267.6 175.6,275.3 194.8,275.3 202.3,270 		"/>
		<ellipse fill="#D3D3D3" stroke="#776F6E" stroke-miterlimit="10" cx="185.7" cy="264.6" rx="19.8" ry="9.6"/>
		<ellipse fill="#776F6E" cx="185.5" cy="267" rx="6" ry="2.9"/>
	</g>
	<g opacity="0.5">
		<ellipse fill="#776F6E" cx="447.7" cy="204.3" rx="10.6" ry="5.1"/>
		<polygon fill="#776F6E" points="428.5,198.1 437.6,205.8 456.9,205.8 464.4,200.5 		"/>
		<ellipse fill="#D3D3D3" stroke="#776F6E" stroke-miterlimit="10" cx="447.8" cy="195.1" rx="19.8" ry="9.6"/>
		<ellipse fill="#776F6E" cx="447.6" cy="197.5" rx="6" ry="2.9"/>
	</g>
	<g opacity="0.5">
		<ellipse fill="#776F6E" cx="602.8" cy="259.9" rx="10.6" ry="5.1"/>
		<polygon fill="#776F6E" points="583.7,253.7 592.7,261.4 612,261.4 619.5,256.1 		"/>
		<ellipse fill="#D3D3D3" stroke="#776F6E" stroke-miterlimit="10" cx="602.9" cy="250.7" rx="19.8" ry="9.6"/>
		<ellipse fill="#776F6E" cx="602.7" cy="253.1" rx="6" ry="2.9"/>
	</g>
	<polygon fill="#E6E6E6" points="324.4,194.2 320.9,194.7 289.7,189 308.1,181.5 335.9,184.6 333.9,186.3 334.3,187.4 	"/>
	<g>
		<path fill="#776F6E" d="M320.9,195.2l-32.3-5.8c-0.4-0.1-0.3-0.2,0-0.4l0.3-0.1c0.4-0.2,1.1-0.2,1.5-0.2c0.2,0,0.3,0.1,0.2,0.2
			l30.9,5.3l1.5-0.2l10.2-6.8l-0.5-0.5c0-0.1,0-0.1,0.1-0.2l2.5-1.6l-27.1-3.1l-1.6,0.6c-0.3,0.1-0.9,0.2-1.2,0.1
			c-0.3,0-0.4-0.2-0.1-0.3l2-0.9c0.3-0.1,0.7-0.2,1.2-0.1l28.3,3.1c0.5,0.1,0.7,0.2,0.5,0.3l-2.7,1.8l0.6,0.5c0.1,0.1,0.1,0.2,0,0.2
			l-10.4,7.3c-0.1,0.1-0.4,0.2-0.7,0.2l-2.5,0.3C321.5,195.2,321.1,195.2,320.9,195.2z"/>
	</g>
	<g>
		<path fill="#776F6E" d="M295,186.9c-0.4-0.1-0.4-0.2,0-0.4l4.7-1.9c0.3-0.1,0.9-0.2,1.3-0.1c0.3,0,0.4,0.2,0.1,0.3l-4.7,1.9
			C296,186.9,295.5,186.9,295,186.9z"/>
	</g>
	<path fill="#776F6E" d="M303.9,184.6l-5.5-0.7c-0.2,0-0.3-0.1,0-0.2l3.1-1.2c0.2-0.1,0.6-0.1,0.9-0.1l5.3,0.6
		c0.3,0,0.3,0.1,0.1,0.2l-3,1.3C304.7,184.6,304.1,184.7,303.9,184.6z"/>
	<path fill="#776F6E" d="M294.6,189.2l-5-0.9c-0.3,0-0.2-0.2,0-0.3l2.8-1.1c0.3-0.1,0.7-0.2,1.1-0.1l4.9,0.7c0.3,0,0.3,0.2,0,0.3
		l-2.8,1.2C295.5,189.2,294.9,189.2,294.6,189.2z"/>
	<path fill="#776F6E" d="M310.6,187.5c-0.2,0-0.5,0-0.6,0.1l-0.3,0.1l0.7,0.1l0.3-0.1C310.9,187.6,310.8,187.5,310.6,187.5z"/>
	<path fill="#776F6E" d="M309.4,187.3c-0.2,0-0.5,0-0.6,0.1l-0.3,0.1l0.7,0.1l0.3-0.1C309.7,187.4,309.6,187.3,309.4,187.3z"/>
	<path fill="#776F6E" d="M311.7,187.6c-0.2,0-0.5,0-0.7,0.1l-0.3,0.1l0.9,0.1l0.3-0.1C312.1,187.7,312.1,187.7,311.7,187.6z"/>
	<path fill="#776F6E" d="M313,187.8c-0.2,0-0.5,0-0.7,0.1l-0.3,0.1l0.9,0.1l0.3-0.1C313.3,188,313.2,187.8,313,187.8z"/>
	<path fill="#776F6E" d="M314.2,188.1c-0.2,0-0.5,0-0.7,0.1l-0.3,0.1l0.9,0.1l0.3-0.1C314.5,188.2,314.5,188.1,314.2,188.1z"/>
	<path fill="#776F6E" d="M315.5,188.2c-0.2,0-0.5,0-0.7,0.1l-0.3,0.1l0.9,0.1l0.3-0.1C315.8,188.3,315.7,188.3,315.5,188.2z"/>
	<path fill="#776F6E" d="M316.8,188.4c-0.2,0-0.5,0-0.7,0.1l-0.3,0.1l0.9,0.1l0.3-0.1C317.1,188.5,317,188.4,316.8,188.4z"/>
	<path fill="#776F6E" d="M318,188.6c-0.2,0-0.5,0-0.7,0.1l-0.3,0.1l0.9,0.1l0.3-0.1C318.4,188.7,318.3,188.6,318,188.6z"/>
	<path fill="#776F6E" d="M319.3,188.8c-0.2,0-0.5,0-0.7,0.1l-0.3,0.1l0.9,0.1l0.3-0.1C319.6,188.9,319.6,188.8,319.3,188.8z"/>
	<path fill="#776F6E" d="M320.7,188.9c-0.2,0-0.5,0-0.7,0.1l-0.3,0.1l0.9,0.1l0.3-0.2C321,189.1,320.9,189,320.7,188.9z"/>
	<path fill="#776F6E" d="M322,189.1c-0.3,0-0.5,0-0.7,0.1l-0.3,0.2l0.9,0.1l0.3-0.2C322.3,189.2,322.3,189.2,322,189.1z"/>
	<path fill="#776F6E" d="M323.4,189.3c-0.3,0-0.5,0-0.7,0.1l-0.3,0.2l1,0.1l0.3-0.2C323.7,189.4,323.7,189.3,323.4,189.3z"/>
	<path fill="#776F6E" d="M324.8,189.6c-0.3,0-0.5,0-0.7,0.1l-0.3,0.2l1,0.1l0.2-0.2C325.1,189.7,325.1,189.6,324.8,189.6z"/>
	<path fill="#776F6E" d="M326.2,189.8c-0.3,0-0.5,0-0.7,0.1l-0.2,0.2l1,0.1l0.2-0.2C326.6,189.9,326.5,189.8,326.2,189.8z"/>
	<path fill="#776F6E" d="M320.6,192.1c0.3,0,0.6,0,0.7-0.1l0.3-0.2l-1-0.1l-0.3,0.2C320.2,192,320.3,192.1,320.6,192.1z"/>
	<path fill="#776F6E" d="M322,192.4c0.3,0,0.6,0,0.7-0.1l0.3-0.2l-1-0.1l-0.3,0.2C321.7,192.2,321.8,192.3,322,192.4z"/>
	<path fill="#776F6E" d="M319.1,191.9c0.3,0,0.6,0,0.7-0.1l0.3-0.2l-1-0.1l-0.3,0.2C318.8,191.8,318.9,191.9,319.1,191.9z"/>
	<path fill="#776F6E" d="M317.7,191.7c0.3,0,0.6,0,0.7-0.1l0.3-0.2l-1-0.1l-0.3,0.2C317.4,191.6,317.4,191.7,317.7,191.7z"/>
	<path fill="#776F6E" d="M316.3,191.5c0.3,0,0.5,0,0.7-0.1l0.3-0.2l-1-0.1l-0.3,0.2C316,191.4,316,191.4,316.3,191.5z"/>
	<path fill="#776F6E" d="M314.9,191.3c0.3,0,0.5,0,0.7-0.1l0.3-0.2l-0.9-0.1l-0.3,0.2C314.6,191.1,314.7,191.2,314.9,191.3z"/>
	<path fill="#776F6E" d="M313.7,191.1c0.3,0,0.5,0,0.7-0.1l0.3-0.2l-0.9-0.1l-0.3,0.2C313.3,190.8,313.3,190.9,313.7,191.1z"/>
	<path fill="#776F6E" d="M312.3,190.8c0.2,0,0.5,0,0.7-0.1l0.3-0.2l-0.9-0.1l-0.3,0.2C311.9,190.6,312.1,190.7,312.3,190.8z"/>
	<path fill="#776F6E" d="M311,190.6c0.2,0,0.5,0,0.7-0.1l0.3-0.2l-0.9-0.1l-0.3,0.2C310.7,190.5,310.7,190.5,311,190.6z"/>
	<path fill="#776F6E" d="M309.7,190.4c0.2,0,0.5,0,0.7-0.1l0.3-0.2l-0.9-0.1l-0.3,0.2C309.4,190.3,309.4,190.3,309.7,190.4z"/>
	<path fill="#776F6E" d="M308.4,190.2c0.2,0,0.5,0,0.7-0.1l0.3-0.2l-0.9-0.1l-0.3,0.2C308.1,190.1,308.1,190.2,308.4,190.2z"/>
	<path fill="#776F6E" d="M307.1,190c0.2,0,0.5,0,0.7-0.1l0.3-0.2l-0.9-0.1l-0.3,0.2C306.8,189.9,306.9,190,307.1,190z"/>
	<path fill="#776F6E" d="M305.8,189.8c0.2,0,0.5,0,0.7-0.1l0.3-0.1l-0.9-0.1l-0.3,0.1C305.6,189.7,305.6,189.8,305.8,189.8z"/>
	<path fill="#776F6E" d="M304.7,189.6c0.2,0,0.5,0,0.7-0.1l0.3-0.1l-0.9-0.1l-0.3,0.1C304.4,189.4,304.5,189.6,304.7,189.6z"/>
	<path fill="#776F6E" d="M326.4,190.4l-18.6-2.8c-0.2,0-0.5,0-0.7,0.1l-2.2,1.1c-0.2,0.1-0.2,0.2,0.1,0.2l19,3c0.3,0,0.6,0,0.7-0.1
		l1.9-1.3C326.7,190.5,326.6,190.4,326.4,190.4z M324.6,191.6c-0.5-0.1-0.7-0.3-0.4-0.5s1-0.3,1.5-0.2L324.6,191.6z"/>
	<path fill="#776F6E" d="M310.3,184.4c-2.5,1.1,1.2,2.1,6,1.3c0,1.6,5.9,1.7,8,0.5c2-1.2-1.7-2.1-6.4-1.3
		C318,183.5,312.6,183.4,310.3,184.4L310.3,184.4z M311.5,184.5c1.6-0.7,5.5-0.6,4.9,0.6C312.7,186,309.8,185.4,311.5,184.5
		L311.5,184.5z M317.8,185.4c3.5-0.9,6.7-0.1,5.2,0.6C321.5,186.9,317.2,186.7,317.8,185.4z"/>
	<polygon fill="#776F6E" points="313,184.6 314.9,184.8 314.5,185.1 312.6,184.8 	"/>
	<polygon fill="#776F6E" points="320.1,185.8 319.3,185.7 319.8,185.4 320.5,185.5 320.9,185.3 321.7,185.4 321.3,185.6 
		321.9,185.7 321.5,185.9 320.7,185.8 320.3,186.1 319.6,186 	"/>
	<path fill="none" stroke="#000000" stroke-width="2" stroke-linejoin="round" stroke-miterlimit="10" d="M495,336.4"/>
	<path fill="none" stroke="#D31818" stroke-width="2" stroke-linejoin="round" stroke-miterlimit="10" d="M489,332"/>
	
		<line fill="none" stroke="#E5D405" stroke-width="2" stroke-linejoin="round" stroke-miterlimit="10" x1="468.7" y1="355.6" x2="468.7" y2="322.4"/>
	
		<line fill="none" stroke="#E5D405" stroke-width="2" stroke-linejoin="round" stroke-miterlimit="10" x1="450.5" y1="348.1" x2="450.5" y2="271.1"/>
	<g>
		<ellipse fill="#A7A9AB" cx="583.9" cy="280.9" rx="8.5" ry="3.6"/>
		<ellipse fill="#A7A9AB" cx="583.9" cy="280.9" rx="8.5" ry="3.6"/>
		<ellipse fill="#A7A9AB" cx="583.9" cy="280.9" rx="8.5" ry="3.6"/>
		<ellipse fill="#A7A9AB" cx="583.9" cy="280.9" rx="8.5" ry="3.6"/>
		<ellipse fill="#A7A9AB" cx="583.9" cy="280.9" rx="8.5" ry="3.6"/>
		<ellipse fill="#A7A9AB" cx="583.9" cy="281.7" rx="8.5" ry="3.6"/>
		<ellipse fill="#A7A9AB" cx="583.9" cy="282.5" rx="8.5" ry="3.6"/>
		<ellipse fill="#A7A9AB" cx="583.9" cy="283.3" rx="8.5" ry="3.6"/>
		<ellipse fill="#A7A9AB" cx="583.9" cy="284.1" rx="8.5" ry="3.6"/>
		<ellipse fill="#A7A9AB" cx="583.9" cy="284.9" rx="8.5" ry="3.6"/>
		<ellipse fill="#D3D3D3" cx="583.9" cy="280.1" rx="8.5" ry="3.6"/>
	</g>
	<g>
		<ellipse fill="#A7A9AB" cx="454.4" cy="254.2" rx="8.5" ry="3.6"/>
		<ellipse fill="#A7A9AB" cx="454.4" cy="254.2" rx="8.5" ry="3.6"/>
		<ellipse fill="#A7A9AB" cx="454.4" cy="254.2" rx="8.5" ry="3.6"/>
		<ellipse fill="#A7A9AB" cx="454.4" cy="254.2" rx="8.5" ry="3.6"/>
		<ellipse fill="#A7A9AB" cx="454.4" cy="254.2" rx="8.5" ry="3.6"/>
		<ellipse fill="#A7A9AB" cx="454.4" cy="254.9" rx="8.5" ry="3.6"/>
		<ellipse fill="#A7A9AB" cx="454.4" cy="255.8" rx="8.5" ry="3.6"/>
		<ellipse fill="#A7A9AB" cx="454.4" cy="256.5" rx="8.5" ry="3.6"/>
		<ellipse fill="#A7A9AB" cx="454.4" cy="257.4" rx="8.5" ry="3.6"/>
		<ellipse fill="#A7A9AB" cx="454.4" cy="258.1" rx="8.5" ry="3.6"/>
		<ellipse fill="#D3D3D3" cx="454.4" cy="253.3" rx="8.5" ry="3.6"/>
	</g>
	
		<line fill="none" stroke="#000000" stroke-width="2" stroke-linecap="round" stroke-linejoin="round" stroke-miterlimit="10" x1="454.4" y1="252.9" x2="583.9" y2="280.1"/>
	<path fill="none" stroke="#000000" stroke-width="2" stroke-linejoin="round" stroke-miterlimit="10" d="M456.9,345.9"/>
	<path fill="none" stroke="#000000" stroke-width="2" stroke-linejoin="round" stroke-miterlimit="10" d="M456.9,275.3"/>
	
		<line fill="none" stroke="#000000" stroke-width="2" stroke-linejoin="round" stroke-miterlimit="10" x1="475.1" y1="323.5" x2="475.1" y2="352.4"/>
	
		<line fill="none" stroke="#000000" stroke-width="2" stroke-linejoin="round" stroke-miterlimit="10" x1="496.5" y1="340.6" x2="496.5" y2="360.9"/>
	<g>
		<ellipse fill="#776F6E" cx="473.4" cy="320.9" rx="10.6" ry="5.1"/>
		<polygon fill="#776F6E" points="454.2,314.7 463.3,322.4 482.6,322.4 490.1,317.1 		"/>
		<ellipse fill="#D3D3D3" stroke="#776F6E" stroke-miterlimit="10" cx="473.5" cy="311.7" rx="19.8" ry="9.6"/>
		<ellipse fill="#776F6E" cx="473.3" cy="314.1" rx="6" ry="2.9"/>
	</g>
	<g>
		<ellipse fill="#A7A9AB" cx="454.4" cy="270.2" rx="8.5" ry="3.6"/>
		<ellipse fill="#A7A9AB" cx="454.4" cy="270.2" rx="8.5" ry="3.6"/>
		<ellipse fill="#A7A9AB" cx="454.4" cy="270.2" rx="8.5" ry="3.6"/>
		<ellipse fill="#A7A9AB" cx="454.4" cy="270.2" rx="8.5" ry="3.6"/>
		<ellipse fill="#A7A9AB" cx="454.4" cy="270.2" rx="8.5" ry="3.6"/>
		<ellipse fill="#A7A9AB" cx="454.4" cy="271" rx="8.5" ry="3.6"/>
		<ellipse fill="#A7A9AB" cx="454.4" cy="271.8" rx="8.5" ry="3.6"/>
		<ellipse fill="#A7A9AB" cx="454.4" cy="272.6" rx="8.5" ry="3.6"/>
		<ellipse fill="#A7A9AB" cx="454.4" cy="273.4" rx="8.5" ry="3.6"/>
		<ellipse fill="#A7A9AB" cx="454.4" cy="274.2" rx="8.5" ry="3.6"/>
		<ellipse fill="#D3D3D3" cx="454.4" cy="269.4" rx="8.5" ry="3.6"/>
	</g>
	<polyline fill="none" stroke="#E5D405" stroke-width="2" stroke-linejoin="round" stroke-miterlimit="10" points="484.2,329.4 
		483.9,360.2 296.4,296 296.4,215.4 	"/>
	<g>
		<path fill="#EF4E23" d="M482.6,326.5c0,0,15,21.6,88.8,27.6c0,4.3,0,7,0,7s-72.7-5.9-88.8-29.4
			C482.6,328.8,482.6,326.5,482.6,326.5z"/>
		<g>
			<path fill="#E6E7E8" stroke="#EF4E23" stroke-miterlimit="10" d="M523.8,348.3c-2.1-0.5-4.3-1.2-6.4-1.7v3.1
				c2.1,0.6,4.3,1.2,6.4,1.7V348.3z"/>
			<path fill="#E6E7E8" stroke="#EF4E23" stroke-miterlimit="10" d="M508.8,343.7c-2.1-0.9-4.3-1.7-6.4-2.6v3.3
				c2.1,0.9,4.3,1.7,6.4,2.5V343.7z"/>
			<path fill="#E6E7E8" stroke="#EF4E23" stroke-miterlimit="10" d="M516.3,346.2c-2.1-0.6-4.3-1.4-6.4-2.1v3.2
				c2.1,0.7,4.3,1.4,6.4,2V346.2z"/>
			<path fill="#E6E7E8" stroke="#EF4E23" stroke-miterlimit="10" d="M488.5,336.9c2.1,1.3,4.3,2.4,5.3,3.5V337
				c-1.1-1.2-3.2-2.4-5.3-3.3V336.9z"/>
			<path fill="#E6E7E8" stroke="#EF4E23" stroke-miterlimit="10" d="M501.3,340.7c-2.1-1.1-4.3-2.1-6.4-3.1v3.4
				c2.1,1.1,4.3,2.1,6.4,3.1V340.7z"/>
			<path fill="#E6E7E8" stroke="#EF4E23" stroke-miterlimit="10" d="M531.2,350c-2.1-0.4-4.3-1-6.4-1.5v3.1c3.2,0.5,5.3,1.1,6.4,1.5
				V350z"/>
			<path fill="#E6E7E8" stroke="#EF4E23" stroke-miterlimit="10" d="M560.1,354.3c-2.1-0.2-4.3-0.4-6.4-0.6v3.7
				c3.2,0.3,5.3,0.6,6.4,1V354.3z"/>
			<path fill="#E6E7E8" stroke="#EF4E23" stroke-miterlimit="10" d="M487.4,332.9c-3.2-2.5-4.3-4.2-4.3-4.2s0,0.4,0,2.6
				c1.1,1.6,3.2,3.2,4.3,4.7V332.9z"/>
			<path fill="#E6E7E8" stroke="#EF4E23" stroke-miterlimit="10" d="M538.7,351.4c-2.1-0.4-4.3-0.7-6.4-1.2v3.2
				c3.2,0.4,5.3,1,6.4,1.3V351.4z"/>
			<path fill="#E6E7E8" stroke="#EF4E23" stroke-miterlimit="10" d="M561.2,354.4v4.1c5.3,0.6,8.6,0.9,8.6,0.9s0-0.9,0-4.3
				C566.5,354.8,564.4,354.6,561.2,354.4z"/>
			<path fill="#E6E7E8" stroke="#EF4E23" stroke-miterlimit="10" d="M546.2,352.7c-2.1-0.3-4.3-0.6-6.4-1v3.3
				c3.2,0.4,5.3,0.9,6.4,1.2V352.7z"/>
			<path fill="#E6E7E8" stroke="#EF4E23" stroke-miterlimit="10" d="M552.6,353.5c-1.1-0.2-3.2-0.4-5.3-0.7v3.5
				c2.1,0.3,4.3,0.6,5.3,0.9V353.5z"/>
		</g>
	</g>
	<g>
		<g>
			<polygon fill="#E6E6E6" points="342.4,225.5 338.4,225.9 287.6,214.7 306,207.2 357.9,213.3 355.1,215.7 355.5,217 			"/>
			<g>
				<g>
					<path fill="#776F6E" d="M338.3,226.6l-51.9-11.3c-0.4-0.1-0.3-0.2,0-0.4l0.3-0.1c0.4-0.2,1.1-0.2,1.5-0.2
						c0.2,0,0.3,0.1,0.2,0.2l50.7,10.8l1.7-0.2l13.3-8.3l-0.6-0.6c0-0.1,0-0.2,0.1-0.3l3.5-2.1l-51-6.2l-1.6,0.6
						c-0.3,0.1-0.9,0.2-1.2,0.1c-0.3,0-0.4-0.2-0.1-0.3l2-0.9c0.3-0.1,0.7-0.2,1.2-0.1l53,6.2c0.6,0.1,1,0.3,0.6,0.5l-3.9,2.5
						l0.7,0.6c0.1,0.1,0.1,0.2-0.1,0.3l-13.8,9c-0.2,0.1-0.5,0.2-0.9,0.2l-2.9,0.3C339,226.6,338.6,226.6,338.3,226.6z"/>
				</g>
				<g>
					<path fill="#776F6E" d="M292.9,212.6c-0.4-0.1-0.4-0.2,0-0.4l4.7-1.9c0.3-0.1,0.9-0.2,1.3-0.1c0.3,0,0.4,0.2,0.1,0.3l-4.7,1.9
						C293.9,212.6,293.3,212.6,292.9,212.6z"/>
				</g>
				<path fill="#776F6E" d="M301.8,210.3l-5.5-0.7c-0.2,0-0.3-0.1,0-0.2l3.1-1.2c0.2-0.1,0.6-0.1,0.9-0.1l5.3,0.6
					c0.3,0,0.3,0.1,0.1,0.2l-3,1.3C302.5,210.3,302,210.4,301.8,210.3z"/>
				<path fill="#776F6E" d="M292.5,214.9l-5-0.9c-0.3,0-0.2-0.2,0-0.3l2.8-1.1c0.3-0.1,0.7-0.2,1.1-0.1l4.9,0.7c0.3,0,0.3,0.2,0,0.3
					l-2.8,1.2C293.3,214.9,292.8,214.9,292.5,214.9z"/>
				<path fill="#776F6E" d="M308.4,213.2c-0.2,0-0.5,0-0.6,0.1l-0.3,0.1l0.7,0.1l0.3-0.1C308.7,213.3,308.6,213.2,308.4,213.2z"/>
				<path fill="#776F6E" d="M307.2,213c-0.2,0-0.5,0-0.6,0.1l-0.3,0.1l0.7,0.1l0.3-0.1C307.6,213.1,307.5,213,307.2,213z"/>
				<path fill="#776F6E" d="M309.6,213.3c-0.2,0-0.5,0-0.7,0.1l-0.3,0.1l0.9,0.1l0.3-0.1C309.9,213.4,309.9,213.4,309.6,213.3z"/>
				<path fill="#776F6E" d="M310.9,213.5c-0.2,0-0.5,0-0.7,0.1l-0.3,0.1l0.9,0.1l0.3-0.1C311.2,213.6,311.1,213.5,310.9,213.5z"/>
				<path fill="#776F6E" d="M312.1,213.7c-0.2,0-0.5,0-0.7,0.1l-0.3,0.1l0.9,0.1l0.3-0.1C312.4,213.8,312.4,213.7,312.1,213.7z"/>
				<path fill="#776F6E" d="M313.3,213.8c-0.2,0-0.5,0-0.7,0.1l-0.3,0.1l0.9,0.1l0.3-0.1C313.7,213.9,313.6,213.9,313.3,213.8z"/>
				<path fill="#776F6E" d="M314.6,214.1c-0.2,0-0.5,0-0.7,0.1l-0.3,0.1l0.9,0.1l0.3-0.1C314.9,214.2,314.8,214.1,314.6,214.1z"/>
				<path fill="#776F6E" d="M315.9,214.3c-0.2,0-0.5,0-0.7,0.1l-0.3,0.1l0.9,0.1l0.3-0.1C316.2,214.4,316.1,214.3,315.9,214.3z"/>
				<path fill="#776F6E" d="M317.2,214.5c-0.2,0-0.5,0-0.7,0.1l-0.3,0.1l0.9,0.1l0.3-0.1C317.5,214.6,317.5,214.5,317.2,214.5z"/>
				<path fill="#776F6E" d="M318.6,214.6c-0.2,0-0.5,0-0.7,0.1l-0.3,0.1l0.9,0.1l0.3-0.2C318.9,214.8,318.8,214.7,318.6,214.6z"/>
				<path fill="#776F6E" d="M319.9,214.8c-0.3,0-0.5,0-0.7,0.1l-0.3,0.2l0.9,0.1l0.3-0.2C320.2,214.9,320.2,214.9,319.9,214.8z"/>
				<path fill="#776F6E" d="M321.3,215c-0.3,0-0.5,0-0.7,0.1l-0.3,0.2l1,0.1l0.3-0.2C321.6,215.1,321.6,215,321.3,215z"/>
				<path fill="#776F6E" d="M322.6,215.2c-0.3,0-0.5,0-0.7,0.1l-0.3,0.2l1,0.1l0.2-0.2C323,215.3,323,215.2,322.6,215.2z"/>
				<path fill="#776F6E" d="M324,215.4c-0.3,0-0.5,0-0.7,0.1l-0.2,0.2l1,0.1l0.2-0.2C324.5,215.5,324.4,215.4,324,215.4z"/>
				<path fill="#776F6E" d="M318.5,217.8c0.3,0,0.6,0,0.7-0.1l0.3-0.2l-1-0.1l-0.3,0.2C318,217.7,318.2,217.8,318.5,217.8z"/>
				<path fill="#776F6E" d="M319.9,218.1c0.3,0,0.6,0,0.7-0.1l0.3-0.2l-1-0.1l-0.3,0.2C319.5,217.9,319.6,218,319.9,218.1z"/>
				<path fill="#776F6E" d="M317,217.6c0.3,0,0.6,0,0.7-0.1l0.3-0.2l-1-0.1l-0.3,0.2C316.7,217.5,316.8,217.6,317,217.6z"/>
				<path fill="#776F6E" d="M315.6,217.4c0.3,0,0.6,0,0.7-0.1l0.3-0.2l-1-0.1l-0.3,0.2C315.3,217.3,315.3,217.4,315.6,217.4z"/>
				<path fill="#776F6E" d="M314.2,217.2c0.3,0,0.5,0,0.7-0.1l0.3-0.2l-1-0.1l-0.3,0.2C313.9,217,313.9,217,314.2,217.2z"/>
				<path fill="#776F6E" d="M312.8,216.9c0.3,0,0.5,0,0.7-0.1l0.3-0.2l-0.9-0.1l-0.3,0.2C312.5,216.7,312.6,216.8,312.8,216.9z"/>
				<path fill="#776F6E" d="M311.5,216.7c0.3,0,0.5,0,0.7-0.1l0.3-0.2l-0.9-0.1l-0.3,0.2C311.2,216.5,311.2,216.6,311.5,216.7z"/>
				<path fill="#776F6E" d="M310.1,216.5c0.2,0,0.5,0,0.7-0.1l0.3-0.2l-0.9-0.1l-0.3,0.2C309.8,216.3,309.9,216.4,310.1,216.5z"/>
				<path fill="#776F6E" d="M308.8,216.3c0.2,0,0.5,0,0.7-0.1l0.3-0.2l-0.9-0.1l-0.3,0.2C308.5,216.2,308.5,216.2,308.8,216.3z"/>
				<path fill="#776F6E" d="M307.6,216.1c0.2,0,0.5,0,0.7-0.1l0.3-0.2l-0.9-0.1l-0.3,0.2C307.2,216,307.2,216,307.6,216.1z"/>
				<path fill="#776F6E" d="M306.3,215.9c0.2,0,0.5,0,0.7-0.1l0.3-0.2l-0.9-0.1l-0.3,0.2C306,215.8,306,215.9,306.3,215.9z"/>
				<path fill="#776F6E" d="M305,215.7c0.2,0,0.5,0,0.7-0.1l0.3-0.2l-0.9-0.1l-0.3,0.2C304.7,215.5,304.8,215.7,305,215.7z"/>
				<path fill="#776F6E" d="M303.7,215.4c0.2,0,0.5,0,0.7-0.1l0.3-0.1l-0.9-0.1l-0.3,0.1C303.5,215.3,303.5,215.4,303.7,215.4z"/>
				<path fill="#776F6E" d="M302.5,215.2c0.2,0,0.5,0,0.7-0.1l0.3-0.1l-0.9-0.1l-0.3,0.1C302.2,215.1,302.3,215.2,302.5,215.2z"/>
				<path fill="#776F6E" d="M324.2,216.1l-18.6-2.8c-0.2,0-0.5,0-0.7,0.1l-2.2,1.1c-0.2,0.1-0.2,0.2,0.1,0.2l19,3
					c0.3,0,0.6,0,0.7-0.1l1.9-1.3C324.6,216.2,324.5,216.1,324.2,216.1z M322.4,217.3c-0.5-0.1-0.7-0.3-0.4-0.5s1-0.3,1.5-0.2
					L322.4,217.3z"/>
				<path fill="#776F6E" d="M308.2,210.1c-2.5,1.1,1.2,2.1,6,1.3c0,1.6,5.9,1.7,8,0.5c2-1.2-1.7-2.1-6.4-1.3
					C315.9,209.1,310.4,209,308.2,210.1L308.2,210.1z M309.4,210.2c1.6-0.7,5.5-0.6,4.9,0.6C310.6,211.7,307.7,211.1,309.4,210.2
					L309.4,210.2z M315.7,211.1c3.5-0.9,6.7-0.1,5.2,0.6C319.3,212.6,315,212.3,315.7,211.1z"/>
				<polygon fill="#776F6E" points="310.9,210.3 312.8,210.5 312.4,210.7 310.4,210.5 				"/>
				<polygon fill="#776F6E" points="317.9,211.5 317.2,211.4 317.6,211.1 318.4,211.2 318.8,210.9 319.5,211.1 319.1,211.3 
					319.8,211.4 319.3,211.6 318.6,211.5 318.2,211.8 317.5,211.7 				"/>
			</g>
		</g>
		<path fill="#776F6E" d="M347.2,214.6l-18.6-2.8c-0.2,0-0.5,0-0.7,0.1l-2.2,1.1c-0.2,0.1-0.2,0.2,0.1,0.2l19,3c0.3,0,0.6,0,0.7-0.1
			l1.9-1.3C347.6,214.7,347.5,214.6,347.2,214.6z M345.4,215.8c-0.5-0.1-0.7-0.3-0.4-0.5s1-0.3,1.5-0.2L345.4,215.8z"/>
	</g>
	<g>
		<g>
			<line fill="none" stroke="#0C0808" stroke-linejoin="round" x1="454.2" y1="251.8" x2="454.2" y2="249.7"/>
			
				<line fill="none" stroke="#0C0808" stroke-linejoin="round" stroke-dasharray="4,4" x1="454.2" y1="245.4" x2="454.2" y2="232.6"/>
			<line fill="none" stroke="#0C0808" stroke-linejoin="round" x1="454.2" y1="230.4" x2="454.2" y2="228.3"/>
		</g>
	</g>
	<g>
		<g>
			<line fill="none" stroke="#0C0808" stroke-linejoin="round" x1="583.7" y1="279.6" x2="583.7" y2="277.5"/>
			
				<line fill="none" stroke="#0C0808" stroke-linejoin="round" stroke-dasharray="4,4" x1="583.7" y1="273.2" x2="583.7" y2="260.4"/>
			<line fill="none" stroke="#0C0808" stroke-linejoin="round" x1="583.7" y1="258.2" x2="583.7" y2="256.1"/>
		</g>
	</g>
	<g>
		<path fill="#EF4E23" d="M486.8,247.5c-15.2-2.9-23.9-11.4-29.3-12.5c-2.7-1.2-20.4-1.4-4.8-8.9c14.8-7.5,23.4-2.9,27.8-2.7
			c5.7,1,30.9,0.9,45.9,3.6c15.2,2.8,51,18.4,57.7,19.4c3,0.4,3.3,0.1,7.3,0.9c5.1,1.3,9,3.1,7,5c-1.2,1.1-2.8,2.1-4.6,3.2
			c-2,1.1-4.3,2-6.5,2.9c-4.1,1.5-10.9,1.3-17.1,0.5c-4.1-0.7-3.2-1.1-5.9-1.6C558.1,256,502.1,250.5,486.8,247.5"/>
		<path opacity="0.51" fill="#9E2E1B" enable-background="new    " d="M471.4,229.7c0,0,0.3,0.1,1.1,0.2c0.6,0.2,1.7,0.4,2.9,0.7
			c2.6,0.6,6.2,1.5,10.6,2.5c2.2,0.5,4.6,1.1,7.2,1.6c2.6,0.5,5.2,1.2,8.1,1.8c2.8,0.6,5.8,1.3,8.8,1.9c3,0.6,6.1,1.3,9.1,2
			c3.1,0.6,6.2,1.4,9.2,2c3.1,0.6,6.1,1.3,9,1.9c5.9,1.3,11.4,2.5,16.3,3.4c4.8,1,8.9,1.8,11.8,2.4c1.4,0.3,2.6,0.5,3.3,0.6
			c0.7,0.1,1.2,0.2,1.2,0.2s-0.4-0.1-1.1-0.3c-0.7-0.2-1.8-0.4-3.1-0.7c-2.7-0.6-6.5-1.6-11.2-2.7c-4.6-1.1-10.1-2.4-15.8-3.6
			c-2.9-0.6-5.9-1.3-8.9-2c-3-0.6-6.1-1.4-9.2-2c-3.1-0.6-6.2-1.3-9.2-2c-3-0.6-6-1.3-8.9-1.9c-2.9-0.6-5.7-1.2-8.3-1.7
			c-2.7-0.5-5.1-1.1-7.4-1.5c-4.6-1-8.5-1.7-11.1-2.2c-1.4-0.2-2.5-0.4-3.1-0.6C471.9,229.7,471.4,229.7,471.4,229.7"/>
		<path opacity="0.51" fill="#9E2E1B" enable-background="new    " d="M462.3,233.7c0,0,0.3,0.1,0.9,0.3c0.5,0.2,1.4,0.5,2.5,1
			c1.1,0.4,2.4,0.9,4,1.4c1.5,0.5,3.3,1.2,5.2,1.7c1.9,0.6,4.2,1.3,6.5,2c1.2,0.3,2.5,0.6,3.7,1.1c0.6,0.2,1.3,0.3,1.9,0.5
			c0.6,0.2,1.4,0.3,2,0.5c2.8,0.6,5.9,1.3,9,1.9c3.2,0.6,6.4,1.2,9.7,1.8c6.5,1.2,13.2,2.4,19.4,3.4c3.1,0.5,6.2,1.1,9,1.6
			c2.9,0.5,5.7,1,8.1,1.4c5.1,0.9,9.3,1.6,12.3,2.1c3,0.5,4.7,0.7,4.7,0.7s-1.6-0.3-4.5-0.9c-2.9-0.5-7-1.4-12-2.2
			c-4.9-1-10.7-2-16.8-3.2c-6.1-1.2-12.6-2.4-19.1-3.6c-3.2-0.6-6.4-1.2-9.6-1.8c-0.7-0.1-1.6-0.3-2.4-0.4c-0.7-0.1-1.5-0.3-2.2-0.4
			c-0.7-0.1-1.5-0.3-2.1-0.5c-0.7-0.2-1.4-0.3-2.1-0.5c-2.8-0.6-5.3-1.4-7.8-2c-2.5-0.6-4.7-1.3-6.7-1.8c-4.1-1.2-7.5-2.1-9.9-2.9
			C463.6,234.2,462.3,233.7,462.3,233.7"/>
		<path opacity="0.51" fill="#9E2E1B" enable-background="new    " d="M479.1,225.3c0,0,0.4,0.1,1.2,0.2c0.7,0.1,1.8,0.3,3.2,0.5
			s3.1,0.5,5,0.9s4.2,0.6,6.6,1.1c2.5,0.4,5,0.9,7.9,1.3c2.8,0.4,5.8,1,8.8,1.5c1.5,0.2,3.1,0.5,4.6,0.7c0.7,0.1,1.6,0.3,2.4,0.4
			c0.7,0.1,1.5,0.3,2.2,0.4c3,0.6,6,1.4,8.9,2c3,0.7,5.9,1.5,8.8,2.2c2.9,0.7,5.7,1.5,8.5,2.1c5.5,1.4,10.6,2.8,15.1,4
			c8.9,2.4,14.8,4,14.8,4s-1.4-0.4-3.9-1.2s-6-1.8-10.3-3c-2.1-0.6-4.4-1.3-6.8-2c-2.5-0.7-5-1.4-7.7-2.1c-2.7-0.7-5.5-1.5-8.3-2.2
			c-2.9-0.7-5.8-1.5-8.7-2.2c-2.9-0.7-5.9-1.5-8.9-2.1c-0.7-0.1-1.5-0.3-2.2-0.4c-0.7-0.2-1.6-0.3-2.4-0.4c-1.5-0.3-3.1-0.5-4.6-0.9
			c-3.1-0.5-6-1-8.9-1.4c-2.9-0.4-5.6-0.9-8.1-1.2c-2.5-0.3-4.8-0.6-7-1c-2-0.3-3.9-0.5-5.3-0.6c-1.5-0.2-2.7-0.3-3.5-0.4
			C479.6,225.4,479.1,225.3,479.1,225.3"/>
		<path opacity="0.51" fill="#9E2E1B" enable-background="new    " d="M470.8,233c0,0,1.2,0.3,3.3,1c1.1,0.3,2.4,0.7,3.9,1.1
			c1.5,0.4,3.2,0.9,5.1,1.4c1.8,0.5,4,1.1,6.2,1.6c2.2,0.5,4.6,1.2,7.2,1.7c1.3,0.3,2.6,0.5,4,0.9c1.4,0.3,2.8,0.5,4.2,0.9
			c2.8,0.5,5.6,1.2,8.3,1.7c11.3,2.4,22.7,4.6,31.2,6.4c8.7,1.7,14.4,2.9,14.4,2.9s-1.4-0.3-3.9-0.9c-2.5-0.5-6-1.3-10.2-2.2
			c-4.2-1-9.1-2-14.3-3.1c-5.2-1.2-10.8-2.4-16.4-3.5c-2.8-0.5-5.6-1.2-8.3-1.7c-1.4-0.3-2.8-0.5-4.1-0.9c-1.3-0.3-2.6-0.5-3.9-0.9
			c-2.5-0.5-4.9-1.2-7.2-1.7c-2.2-0.5-4.4-1.1-6.3-1.5c-1.9-0.4-3.7-0.9-5.3-1.3c-1.6-0.4-3-0.7-4.2-1
			C472.1,233.3,470.8,233,470.8,233"/>
		<path opacity="0.51" fill="#9E2E1B" enable-background="new    " d="M480.6,228.1c0,0,1.3,0.3,3.6,0.7c1.2,0.2,2.6,0.5,4.3,0.9
			c1.7,0.3,3.5,0.7,5.6,1.2s4.4,0.9,6.7,1.3c2.5,0.4,4.9,1,7.6,1.5c2.7,0.5,5.5,1,8.1,1.6c2.7,0.5,5.3,1.2,8,1.8
			c2.7,0.6,5.3,1.3,8,1.9c2.7,0.6,5.2,1.3,7.8,1.8c5,1.2,9.8,2.4,13.9,3.3c8.2,1.9,13.7,3.2,13.7,3.2s-1.3-0.3-3.6-1
			s-5.7-1.5-9.6-2.5c-4-1.1-8.7-2.2-13.6-3.4c-5-1.3-10.3-2.6-15.6-3.9c-2.7-0.6-5.3-1.3-8-1.8s-5.5-1.1-8.1-1.6
			c-2.7-0.5-5.2-1-7.7-1.4c-2.5-0.4-4.7-0.9-6.8-1.3c-2.1-0.4-4.1-0.7-5.9-1.1c-1.7-0.3-3.3-0.5-4.5-0.7
			C482.1,228.3,480.6,228.1,480.6,228.1"/>
		<path opacity="0.51" fill="#9E2E1B" enable-background="new    " d="M472.9,240c0,0,0.1,0.1,0.4,0.2c0.2,0.1,0.6,0.3,1.2,0.5
			c0.5,0.2,1.2,0.5,1.9,0.9c0.7,0.3,1.6,0.6,2.7,1.1c1,0.4,2.1,0.7,3.4,1.2c0.6,0.2,1.3,0.4,2,0.5c0.7,0.2,1.4,0.4,2.1,0.5
			c1.5,0.3,3.1,0.7,4.9,1.1c1.7,0.3,3.5,0.6,5.3,1c1.8,0.3,3.6,0.5,5.5,0.9c1.8,0.3,3.6,0.5,5.3,0.7c3.5,0.5,6.8,1,9.7,1.3
			c2.9,0.3,5.3,0.6,7.1,0.9c1.7,0.2,2.7,0.3,2.7,0.3s-1-0.1-2.6-0.4c-1.6-0.2-4-0.6-6.6-1.1c-2.8-0.4-6-1-9.4-1.5
			c-1.7-0.3-3.5-0.5-5.2-0.9c-1.8-0.3-3.6-0.5-5.5-0.9s-3.6-0.6-5.3-1c-1.7-0.3-3.4-0.6-4.9-1c-0.7-0.2-1.5-0.3-2.2-0.5
			c-0.7-0.2-1.4-0.3-2-0.5c-0.6-0.2-1.3-0.3-1.9-0.5c-0.6-0.2-1.2-0.3-1.7-0.5c-2.1-0.6-3.9-1.3-5-1.7
			C473.6,240.3,472.9,240,472.9,240"/>
		<path opacity="0.51" fill="#9E2E1B" enable-background="new    " d="M503.1,226.1c0,0,1,0.1,2.7,0.2c1.7,0.2,4,0.4,6.7,0.9
			c0.6,0.1,1.4,0.2,2,0.3c0.7,0.1,1.4,0.2,2.1,0.3s1.5,0.3,2.2,0.4c0.7,0.1,1.5,0.3,2.2,0.4c1.5,0.3,3.1,0.7,4.6,1.1
			c1.5,0.4,3,0.9,4.5,1.3c1.5,0.4,3,0.9,4.5,1.3c1.5,0.4,2.9,0.9,4.3,1.3c2.8,0.9,5.5,1.6,7.7,2.2c2.2,0.6,4.2,1.2,5.5,1.6
			c1.3,0.4,2.1,0.6,2.1,0.6s-0.6-0.2-1.9-0.7c-1.2-0.4-2.9-1.1-5-1.8c-2.1-0.7-4.6-1.6-7.3-2.5c-1.4-0.4-2.8-0.9-4.2-1.3
			c-1.5-0.4-2.9-0.9-4.5-1.3c-1.5-0.4-3-0.9-4.6-1.3c-1.5-0.4-3.1-0.7-4.7-1.1c-0.7-0.1-1.6-0.3-2.4-0.4c-0.9-0.1-1.6-0.3-2.4-0.4
			c-1.5-0.2-3-0.4-4.5-0.6c-1.4-0.2-2.8-0.3-4-0.4c-1.2-0.1-2.2-0.2-3.1-0.2c-0.9-0.1-1.6-0.1-2-0.1
			C503.3,226.1,503.1,226.1,503.1,226.1"/>
	</g>
	<g>
		<g>
			<line fill="none" stroke="#0C0808" stroke-linejoin="round" x1="308.7" y1="130.9" x2="308.7" y2="128.8"/>
			
				<line fill="none" stroke="#0C0808" stroke-linejoin="round" stroke-dasharray="4,4" x1="308.7" y1="124.5" x2="308.7" y2="111.7"/>
			<line fill="none" stroke="#0C0808" stroke-linejoin="round" x1="308.7" y1="109.5" x2="308.7" y2="107.4"/>
		</g>
	</g>
	<path fill="#EF4E23" d="M318.7,97.9c-15.2-0.7-14.9,6-14.9,6s-21.3,1.2-16.2,5.8c4.2,3.7,32.5-1.5,32.5-1.5S330.9,98.4,318.7,97.9"
		/>
	<path fill="#776F6E" d="M311.8,163.1c-0.2,0-0.5,0-0.6,0.1l-0.3,0.1l0.7,0.1l0.3-0.1C312.2,163.2,312.1,163.1,311.8,163.1z"/>
	<path fill="#776F6E" d="M310.7,162.9c-0.2,0-0.5,0-0.6,0.1l-0.3,0.1l0.7,0.1l0.3-0.1C310.9,163,310.9,162.9,310.7,162.9z"/>
	<path fill="#776F6E" d="M313,163.2c-0.2,0-0.5,0-0.7,0.1l-0.3,0.1l0.9,0.1l0.3-0.1C313.3,163.3,313.2,163.3,313,163.2z"/>
	<path fill="#776F6E" d="M314.3,163.5c-0.2,0-0.5,0-0.7,0.1l-0.3,0.1l0.9,0.1l0.3-0.1C314.5,163.6,314.5,163.5,314.3,163.5z"/>
	<path fill="#776F6E" d="M315.5,163.7c-0.2,0-0.5,0-0.7,0.1l-0.3,0.1l0.9,0.1l0.3-0.1C315.8,163.8,315.8,163.7,315.5,163.7z"/>
	<path fill="#776F6E" d="M316.8,163.8c-0.2,0-0.5,0-0.7,0.1l-0.3,0.1l0.9,0.1l0.3-0.1C317.1,163.9,317,163.9,316.8,163.8z"/>
	<path fill="#776F6E" d="M316.2,166.9c0.3,0,0.5,0,0.7-0.1l0.3-0.2l-0.9-0.1l-0.3,0.2C315.9,166.7,315.9,166.8,316.2,166.9z"/>
	<path fill="#776F6E" d="M314.8,166.7c0.3,0,0.5,0,0.7-0.1l0.3-0.2l-0.9-0.1l-0.3,0.2C314.5,166.4,314.6,166.6,314.8,166.7z"/>
	<path fill="#776F6E" d="M313.6,166.4c0.2,0,0.5,0,0.7-0.1l0.3-0.2l-0.9-0.1l-0.3,0.2C313.2,166.2,313.2,166.3,313.6,166.4z"/>
	<path fill="#776F6E" d="M312.3,166.2c0.2,0,0.5,0,0.7-0.1l0.3-0.2l-0.9-0.1l-0.3,0.2C311.9,166,311.9,166.1,312.3,166.2z"/>
	<path fill="#776F6E" d="M311,166c0.2,0,0.5,0,0.7-0.1l0.3-0.2l-0.9-0.1l-0.3,0.2C310.7,165.8,310.7,165.9,311,166z"/>
	<path fill="#776F6E" d="M309.7,165.8c0.2,0,0.5,0,0.7-0.1l0.3-0.2l-0.9-0.1l-0.3,0.2C309.4,165.7,309.4,165.7,309.7,165.8z"/>
	<path fill="#776F6E" d="M308.4,165.6c0.2,0,0.5,0,0.7-0.1l0.3-0.2l-0.9-0.1l-0.3,0.2C308.1,165.5,308.2,165.6,308.4,165.6z"/>
	<path fill="#776F6E" d="M307.1,165.4c0.2,0,0.5,0,0.7-0.1l0.3-0.1l-0.9-0.1l-0.3,0.1C306.9,165.3,306.9,165.4,307.1,165.4z"/>
	<path fill="#776F6E" d="M306,165.2c0.2,0,0.5,0,0.7-0.1l0.3-0.1l-0.9-0.1l-0.3,0.1C305.6,165.1,305.7,165.2,306,165.2z"/>
	
		<line fill="none" stroke="#000000" stroke-width="2" stroke-linejoin="round" stroke-miterlimit="10" x1="310.7" y1="163.2" x2="224.4" y2="146.7"/>
	
		<line fill="none" stroke="#E5D405" stroke-width="2" stroke-linejoin="round" stroke-miterlimit="10" x1="298.6" y1="164.8" x2="214.4" y2="148"/>
	<g>
		<ellipse fill="#776F6E" cx="212.1" cy="148.2" rx="15.2" ry="7.4"/>
		<polygon fill="#776F6E" points="184.6,139.2 197.7,150.2 225.4,150.2 236.2,142.6 		"/>
		<ellipse fill="#D3D3D3" stroke="#776F6E" stroke-miterlimit="10" cx="212.4" cy="135" rx="28.5" ry="13.8"/>
		<ellipse fill="#776F6E" cx="212" cy="138.4" rx="8.6" ry="4.2"/>
	</g>
	<polygon fill="#E6E6E6" points="326.5,171.7 323.1,172.2 291.8,166.6 310.2,159.1 338,162.2 336,163.9 336.4,165 	"/>
	<g>
		<path fill="#776F6E" d="M323.1,172.8l-32.3-5.8c-0.4-0.1-0.3-0.2,0-0.4l0.3-0.1c0.4-0.2,1.1-0.2,1.5-0.2c0.2,0,0.3,0.1,0.2,0.2
			l30.9,5.3l1.5-0.2l10.2-6.8l-0.5-0.5c0-0.1,0-0.1,0.1-0.2l2.5-1.6l-27.1-3.1l-18.1,7.3c-0.3,0.1-0.9,0.2-1.2,0.1
			c-0.3,0-0.4-0.2-0.1-0.3l18.5-7.5c0.3-0.1,0.7-0.2,1.2-0.1l28.3,3.1c0.5,0.1,0.7,0.2,0.5,0.3l-2.7,1.8l0.6,0.5
			c0.1,0.1,0.1,0.2,0,0.2l-10.4,7.3c-0.1,0.1-0.4,0.2-0.7,0.2l-2.5,0.3C323.6,172.8,323.3,172.8,323.1,172.8z"/>
	</g>
	<path fill="#776F6E" d="M318,164c-0.2,0-0.5,0-0.7,0.1l-0.3,0.1l0.9,0.1l0.3-0.1C318.4,164.1,318.3,164,318,164z"/>
	<path fill="#776F6E" d="M319.3,164.2c-0.2,0-0.5,0-0.7,0.1l-0.3,0.1l0.9,0.1l0.3-0.1C319.6,164.3,319.5,164.2,319.3,164.2z"/>
	<path fill="#776F6E" d="M320.6,164.3c-0.2,0-0.5,0-0.7,0.1l-0.3,0.1l0.9,0.1l0.3-0.1C320.9,164.5,320.9,164.4,320.6,164.3z"/>
	<path fill="#776F6E" d="M322,164.5c-0.2,0-0.5,0-0.7,0.1l-0.3,0.1l0.9,0.1l0.3-0.2C322.3,164.6,322.2,164.6,322,164.5z"/>
	<path fill="#776F6E" d="M323.3,164.7c-0.3,0-0.5,0-0.7,0.1l-0.3,0.2l0.9,0.1l0.3-0.2C323.6,164.8,323.6,164.7,323.3,164.7z"/>
	<path fill="#776F6E" d="M324.7,165c-0.3,0-0.5,0-0.7,0.1l-0.3,0.2l1,0.1l0.3-0.2C325,165.1,324.9,165,324.7,165z"/>
	<path fill="#776F6E" d="M326.1,165.2c-0.3,0-0.5,0-0.7,0.1l-0.3,0.2l1,0.1l0.2-0.2C326.4,165.3,326.3,165.2,326.1,165.2z"/>
	<path fill="#776F6E" d="M327.5,165.4c-0.3,0-0.5,0-0.7,0.1l-0.2,0.2l1,0.1l0.2-0.2C327.8,165.5,327.8,165.4,327.5,165.4z"/>
	<path fill="#776F6E" d="M321.9,167.7c0.3,0,0.6,0,0.7-0.1l0.3-0.2l-1-0.1l-0.3,0.2C321.5,167.6,321.6,167.7,321.9,167.7z"/>
	<path fill="#776F6E" d="M323.3,167.9c0.3,0,0.6,0,0.7-0.1l0.3-0.2l-1-0.1l-0.3,0.2C323,167.8,323,167.9,323.3,167.9z"/>
	<path fill="#776F6E" d="M320.4,167.5c0.3,0,0.6,0,0.7-0.1l0.3-0.2l-1-0.1l-0.3,0.2C320.1,167.4,320.1,167.5,320.4,167.5z"/>
	<path fill="#776F6E" d="M319,167.3c0.3,0,0.6,0,0.7-0.1l0.3-0.2l-1-0.1l-0.3,0.2C318.7,167.1,318.7,167.2,319,167.3z"/>
	<path fill="#776F6E" d="M317.6,167.1c0.3,0,0.5,0,0.7-0.1l0.3-0.2l-1-0.1l-0.3,0.2C317.3,166.9,317.3,167,317.6,167.1z"/>
	<path fill="#776F6E" d="M327.7,166l-18.6-2.8c-0.2,0-0.5,0-0.7,0.1l-2.2,1.1c-0.2,0.1-0.2,0.2,0.1,0.2l19,3c0.3,0,0.6,0,0.7-0.1
		l1.9-1.3C328,166.1,327.9,166,327.7,166z M325.9,167.1c-0.5-0.1-0.7-0.3-0.4-0.5c0.3-0.2,1-0.3,1.5-0.2L325.9,167.1z"/>
	<g opacity="0.5">
		<path fill="#EF4E23" d="M168.1,214.4c-7.4-4.8,3.4-8,0.7-9.8c-0.5-1.5-12.9-3.9,6.6-9.5c19-5.8,19.9,0,22.9,0.7
			c3,1.7,13.6-1.4,21.2,3.2c7.7,4.7,1.1,12.3,4.6,14.2c1.6,0.9,2.2,0.5,4.2,1.7c2.1,1.9,2.8,4.2-0.7,5.7c-2,0.9-4.5,1.7-7.1,2.6
			c-2.7,0.7-5.3,1.5-8,2c-4.6,1-9.3-0.1-12.6-1.6c-2-1.2-1.1-1.4-2.4-2.4C194.8,219.1,175.6,219.2,168.1,214.4"/>
		<path opacity="0.51" fill="#9E2E1B" enable-background="new    " d="M184.8,200.9c0,0,1.2,1,3.2,2.5c0.5,0.3,1.1,0.7,1.6,1.2
			c0.6,0.4,1.2,0.9,1.9,1.3c0.6,0.4,1.4,0.9,2,1.4c0.7,0.4,1.5,1,2.2,1.4c0.7,0.4,1.5,1,2.2,1.4c0.7,0.4,1.5,0.9,2.2,1.4
			c1.5,0.9,2.9,1.7,4.2,2.4c2.5,1.4,4.3,2.2,4.3,2.2s-1.3-1.1-3.3-2.6c-1.1-0.7-2.2-1.6-3.6-2.5c-0.6-0.4-1.4-1-2.1-1.4
			c-0.7-0.4-1.5-1-2.2-1.4c-0.7-0.4-1.5-1-2.2-1.4c-0.7-0.4-1.5-0.9-2.2-1.3c-0.7-0.4-1.5-0.9-2.1-1.2c-0.6-0.4-1.3-0.7-1.9-1.1
			C186.6,201.7,184.8,200.9,184.8,200.9"/>
		<path opacity="0.51" fill="#9E2E1B" enable-background="new    " d="M173.5,203.9c0,0-0.2,0.3-0.2,1c0,0.3,0,0.6,0.1,1
			c0.1,0.4,0.2,0.7,0.5,1.3c0.1,0.2,0.3,0.4,0.4,0.6c0.1,0.2,0.3,0.4,0.5,0.7c0.2,0.2,0.4,0.4,0.6,0.7c0.2,0.2,0.5,0.5,0.7,0.7
			c0.6,0.5,1.2,1,1.9,1.5l0.2,0.2l0.3,0.2c0.2,0.1,0.4,0.2,0.5,0.3c0.3,0.2,0.7,0.4,1.2,0.7c0.4,0.2,0.9,0.4,1.3,0.6
			c0.4,0.2,0.9,0.4,1.4,0.6c0.9,0.4,1.9,0.9,2.9,1.2c0.5,0.2,1,0.3,1.4,0.5c0.5,0.2,1,0.3,1.4,0.5c1,0.3,1.8,0.6,2.8,0.9
			c1.7,0.5,3.3,1,4.4,1.2c1.1,0.3,1.8,0.4,1.8,0.4s-2.1-0.7-5.2-1.9c-0.7-0.3-1.6-0.6-2.5-1c-0.9-0.3-1.7-0.7-2.7-1.1
			c-0.9-0.4-1.8-0.9-2.7-1.2c-0.4-0.2-0.9-0.4-1.3-0.6c-0.4-0.2-0.9-0.4-1.3-0.6c-0.4-0.2-0.9-0.4-1.2-0.6c-0.2-0.1-0.4-0.2-0.6-0.3
			l-0.3-0.2l-0.3-0.2c-0.3-0.2-0.7-0.4-1.1-0.7c-0.3-0.2-0.6-0.4-1-0.7c-0.3-0.2-0.6-0.4-0.9-0.6c-0.3-0.2-0.5-0.4-0.7-0.6
			c-0.4-0.4-0.9-0.9-1.3-1.3c-0.3-0.4-0.6-0.7-0.9-1.2c-0.2-0.3-0.3-0.6-0.4-1c-0.1-0.2-0.1-0.4-0.2-0.6
			C173.5,204,173.5,203.9,173.5,203.9"/>
		<path opacity="0.51" fill="#9E2E1B" enable-background="new    " d="M170.2,209.1c0,0,0,0.2,0,0.4c0,0.1,0,0.3,0,0.5
			s0.1,0.4,0.2,0.6c0.1,0.2,0.2,0.4,0.3,0.7c0.1,0.2,0.3,0.5,0.5,0.7c0.1,0.1,0.2,0.2,0.4,0.4c0.1,0.1,0.2,0.2,0.4,0.4
			c0.3,0.2,0.6,0.5,1.1,0.7c0.2,0.1,0.4,0.2,0.6,0.3s0.4,0.2,0.6,0.3c0.4,0.2,1,0.4,1.4,0.6c0.4,0.2,1,0.3,1.5,0.5
			c0.2,0.1,0.5,0.1,0.7,0.2c0.2,0.1,0.5,0.1,0.7,0.2c0.5,0.1,1,0.2,1.4,0.3s0.9,0.1,1.2,0.2c0.6,0.1,1.1,0.1,1.1,0.1
			s-0.3-0.1-0.9-0.2c-0.2-0.1-0.5-0.1-1-0.2c-0.3-0.1-0.7-0.2-1.2-0.3c-0.2-0.1-0.4-0.1-0.6-0.2c-0.2-0.1-0.4-0.2-0.6-0.2
			c-0.4-0.2-0.9-0.3-1.3-0.5c-0.2-0.1-0.4-0.2-0.6-0.3s-0.4-0.2-0.6-0.3s-0.4-0.2-0.6-0.3s-0.3-0.2-0.5-0.3
			c-0.4-0.2-0.7-0.4-1.1-0.7c-0.3-0.2-0.6-0.5-1-0.7c-0.2-0.2-0.5-0.5-0.7-0.7s-0.4-0.4-0.6-0.6c-0.3-0.4-0.5-0.7-0.7-1.1
			C170.3,209.2,170.2,209.1,170.2,209.1"/>
		<path opacity="0.51" fill="#9E2E1B" enable-background="new    " d="M207.4,198c0,0,0.3,0.1,0.7,0.2c0.5,0.1,1.2,0.4,1.9,0.6
			c0.4,0.1,0.7,0.3,1.2,0.4c0.4,0.2,0.9,0.3,1.3,0.5s0.9,0.4,1.3,0.6s0.9,0.4,1.2,0.6c0.2,0.1,0.4,0.2,0.5,0.3
			c0.2,0.1,0.3,0.2,0.5,0.3c0.1,0.1,0.3,0.2,0.5,0.3c0.1,0.1,0.3,0.2,0.4,0.3c0.3,0.2,0.5,0.5,0.7,0.7c0.1,0.1,0.2,0.2,0.3,0.3
			c0.1,0.1,0.1,0.2,0.2,0.3c0.1,0.2,0.3,0.4,0.4,0.5c0.1,0.2,0.2,0.3,0.2,0.4c0.1,0.2,0.2,0.4,0.2,0.4s0-0.2,0.1-0.4
			c0-0.1,0-0.3,0-0.5s-0.1-0.4-0.1-0.6c0-0.1-0.1-0.2-0.1-0.3c-0.1-0.1-0.1-0.2-0.2-0.3c-0.1-0.2-0.3-0.5-0.5-0.7
			c-0.2-0.2-0.4-0.5-0.9-0.7c-0.2-0.1-0.3-0.2-0.5-0.4c-0.2-0.1-0.4-0.2-0.5-0.3c-0.4-0.2-0.9-0.4-1.3-0.6c-0.2-0.1-0.4-0.2-0.6-0.3
			s-0.4-0.2-0.7-0.3c-0.5-0.2-1-0.3-1.5-0.5c-0.5-0.1-1-0.3-1.4-0.4c-0.4-0.1-1-0.2-1.3-0.3c-0.4-0.1-0.7-0.1-1.1-0.2
			C207.8,198.1,207.4,198,207.4,198"/>
		<path opacity="0.51" fill="#9E2E1B" enable-background="new    " d="M195.1,197.5c0,0,0.2,0,0.5,0.1c0.3,0.1,0.7,0.1,1.3,0.3
			c0.5,0.1,1.2,0.3,1.8,0.5c0.6,0.2,1.4,0.4,2.1,0.7c0.7,0.3,1.5,0.6,2.4,1c0.4,0.2,0.7,0.3,1.2,0.5c0.4,0.2,0.7,0.4,1.2,0.6
			c0.4,0.2,0.7,0.4,1.2,0.6c0.3,0.2,0.7,0.4,1.2,0.6l0.3,0.2l0.2,0.2c0.2,0.1,0.3,0.2,0.5,0.3c0.3,0.2,0.7,0.5,1.1,0.7
			s0.6,0.5,1,0.7s0.6,0.5,1,0.7c0.6,0.5,1.2,1,1.7,1.5c0.5,0.5,1.1,1,1.5,1.5c0.4,0.4,0.9,1,1.3,1.3c1.5,1.7,2.4,2.8,2.4,2.8
			s-0.1-0.3-0.2-0.9c-0.2-0.5-0.5-1.3-1.1-2.2c-0.2-0.4-0.5-1-1-1.4c-0.2-0.2-0.4-0.5-0.5-0.7c-0.2-0.2-0.4-0.5-0.6-0.7
			c-0.5-0.5-1-1.1-1.6-1.6c-0.3-0.2-0.6-0.5-1-0.7c-0.3-0.2-0.6-0.5-1-0.7c-0.3-0.2-0.7-0.5-1.1-0.7c-0.2-0.1-0.3-0.2-0.5-0.3
			l-0.3-0.2l-0.3-0.2c-0.7-0.4-1.6-0.9-2.5-1.3c-0.4-0.2-0.9-0.4-1.3-0.5c-0.4-0.2-0.9-0.3-1.3-0.5c-0.4-0.1-0.9-0.3-1.3-0.4
			c-0.4-0.1-0.9-0.3-1.3-0.4c-0.9-0.2-1.7-0.4-2.5-0.6c-0.7-0.2-1.5-0.3-2.1-0.4C196,197.6,195.1,197.5,195.1,197.5"/>
		<path opacity="0.51" fill="#9E2E1B" enable-background="new    " d="M180.5,204.2c0,0,0.1,0.2,0.3,0.6c0.2,0.4,0.6,1,1.2,1.6
			c0.3,0.3,0.6,0.6,1,1c0.3,0.3,0.7,0.7,1.3,1.1c0.4,0.3,1,0.7,1.5,1.1s1.2,0.7,1.7,1.1c0.6,0.3,1.3,0.7,1.9,1.1s1.3,0.6,1.9,1
			c1.3,0.6,2.6,1.2,3.7,1.7c1.2,0.4,2.1,0.9,2.8,1.1c0.7,0.2,1.1,0.4,1.1,0.4s-0.3-0.2-0.9-0.5c-0.5-0.3-1.4-0.7-2.4-1.3
			c-1-0.5-2.1-1.2-3.3-1.8c-0.6-0.3-1.2-0.6-1.8-1c-0.6-0.3-1.3-0.7-1.8-1.1c-0.6-0.3-1.3-0.7-1.8-1.1s-1.2-0.7-1.6-1.1
			c-0.5-0.3-1-0.6-1.4-1c-0.4-0.3-0.9-0.6-1.2-1c-0.7-0.5-1.3-1.1-1.7-1.4C180.7,204.4,180.5,204.2,180.5,204.2"/>
		<path opacity="0.51" fill="#9E2E1B" enable-background="new    " d="M193.2,200.4c0,0,0.3,0.1,1,0.4c0.6,0.3,1.5,0.6,2.5,1.2
			c0.5,0.2,1.1,0.5,1.6,0.9s1.1,0.6,1.7,1c0.5,0.3,1.2,0.6,1.7,1.1c0.5,0.3,1.2,0.7,1.7,1.1c0.5,0.3,1.1,0.7,1.6,1.1
			c0.5,0.3,1.1,0.7,1.5,1.1c1,0.7,1.9,1.4,2.7,1.9c0.9,0.5,1.5,1.1,1.9,1.4c0.4,0.3,0.7,0.5,0.7,0.5s-0.2-0.2-0.5-0.6
			c-0.3-0.3-0.7-1-1.4-1.5c-0.6-0.6-1.4-1.3-2.4-2c-0.4-0.3-1-0.7-1.4-1.2c-0.5-0.4-1.1-0.7-1.6-1.2c-0.5-0.3-1.2-0.7-1.7-1.1
			c-0.6-0.3-1.2-0.6-1.8-1c-0.6-0.3-1.3-0.6-1.9-0.9c-0.6-0.3-1.2-0.5-1.8-0.7c-1.2-0.4-2.2-0.7-3-1.1
			C193.6,200.6,193.2,200.4,193.2,200.4"/>
	</g>
	<g>
		<circle fill="#FFFFFF" stroke="#DBDCDE" stroke-miterlimit="10" cx="278" cy="106.9" r="5"/>
		<path fill="#EF4E23" d="M278.3,104.5h0.2v3.9h1.1v0.4h-2.7v-0.4h1.1v-3l-1.1,0.6v-0.5L278.3,104.5z"/>
	</g>
	<path fill="#EF4E23" d="M182.6,154.7v-0.2l1.7-2.1c0.3-0.3,0.3-0.5,0.3-0.9c0-0.2-0.1-0.3-0.1-0.5c-0.1-0.1-0.3-0.2-0.5-0.2
		c-0.4,0-0.6,0.3-0.7,0.7l-0.5-0.1c0-0.3,0.2-0.6,0.4-0.9s0.5-0.3,0.9-0.3c0.4,0,0.7,0.1,1,0.3s0.3,0.4,0.3,0.9c0,0.3-0.1,0.6-0.3,1
		l-1.4,1.7h1.8v0.5h-2.8V154.7z"/>
	<g>
		<circle fill="#FFFFFF" stroke="#DBDCDE" stroke-miterlimit="10" cx="278" cy="139.6" r="5"/>
		<path fill="#EF4E23" d="M277.2,140.5c0.1,0.5,0.3,0.7,0.9,0.7s0.9-0.3,0.9-0.9s-0.3-0.9-0.9-0.9c-0.1,0-0.3,0-0.4,0.1l-0.2-0.3
			l1-1.3h-1.5v-0.5h2.4v0.2l-1.1,1.5c0,0,0.1,0,0.2,0c0.3,0,0.6,0.1,0.9,0.3c0.2,0.2,0.3,0.5,0.3,1s-0.1,0.7-0.4,1
			c-0.2,0.2-0.5,0.4-1,0.4c-0.3,0-0.6-0.1-1-0.3c-0.2-0.2-0.4-0.5-0.4-0.9L277.2,140.5z"/>
	</g>
	<g>
		<circle fill="#FFFFFF" stroke="#DBDCDE" stroke-miterlimit="10" cx="278" cy="161.8" r="5"/>
		<path fill="#EF4E23" d="M278,164v-1h-1.8v-0.2l1.8-3.1h0.5v2.9h0.6v0.5h-0.6v1H278V164z M276.9,162.5h1.2v-2L276.9,162.5z"/>
	</g>
	<g>
		<circle fill="#FFFFFF" stroke="#DBDCDE" stroke-miterlimit="10" cx="278" cy="186.8" r="5"/>
		<path fill="#EF4E23" d="M277.3,187.6c0.1,0.5,0.4,0.7,0.9,0.7c0.5,0,0.9-0.4,0.9-1s-0.3-1-0.9-1c-0.4,0-0.7,0.2-1,0.4l-0.3-0.1
			l0.2-2.4h2.1v0.5h-1.6l-0.1,1.3c0.2-0.2,0.5-0.3,0.7-0.3c0.9,0,1.3,0.5,1.3,1.4c0,0.4-0.1,0.7-0.4,1.1c-0.2,0.3-0.6,0.4-1,0.4
			c-0.7,0-1.3-0.4-1.4-1.2L277.3,187.6z"/>
	</g>
	<g>
		<circle fill="#FFFFFF" stroke="#DBDCDE" stroke-miterlimit="10" cx="278" cy="211.7" r="5"/>
		<path fill="#EF4E23" d="M279.1,211.5c0.2,0.2,0.3,0.6,0.3,1c0,0.4-0.1,0.7-0.4,1c-0.2,0.2-0.5,0.4-1,0.4c-0.4,0-0.7-0.1-1-0.4
			c-0.2-0.3-0.4-0.6-0.4-1c0-0.3,0.1-0.5,0.2-0.7l1.3-2.1h0.5l-1,1.6c0.1,0,0.1,0,0.2,0C278.5,211.1,278.8,211.2,279.1,211.5z
			 M278,213.4c0.4,0,0.9-0.4,0.9-0.9c0-0.5-0.3-0.9-0.9-0.9s-0.9,0.3-0.9,0.9C277.3,213,277.6,213.4,278,213.4z"/>
	</g>
	<g>
		<circle fill="#FFFFFF" stroke="#DBDCDE" stroke-miterlimit="10" cx="435.3" cy="231.8" r="5"/>
		<path fill="#EF4E23" d="M434.9,233.9h-0.5l1.8-3.7H434v-0.5h2.8v0.2L434.9,233.9z"/>
	</g>
	<g>
		<circle fill="#FFFFFF" stroke="#DBDCDE" stroke-miterlimit="10" cx="435.3" cy="256.2" r="5"/>
		<path fill="#EF4E23" d="M436,256.1c0.4,0.2,0.6,0.5,0.6,1.1c0,0.4-0.1,0.7-0.4,1c-0.2,0.2-0.5,0.3-1,0.3c-0.3,0-0.6-0.1-1-0.3
			c-0.2-0.2-0.4-0.5-0.4-1c0-0.5,0.2-0.9,0.6-1.1c-0.3-0.1-0.5-0.5-0.5-0.9s0.1-0.6,0.3-0.9c0.2-0.2,0.5-0.3,0.9-0.3
			c0.3,0,0.6,0.1,0.9,0.3c0.2,0.2,0.3,0.5,0.3,0.9C436.6,255.6,436.4,256,436,256.1z M435.4,256.4c-0.2,0-0.4,0.1-0.5,0.2
			c-0.1,0.1-0.2,0.3-0.2,0.5c0,0.2,0.1,0.4,0.2,0.5c0.1,0.1,0.3,0.2,0.5,0.2s0.4-0.1,0.5-0.2c0.1-0.1,0.2-0.3,0.2-0.5
			c0-0.2-0.1-0.4-0.2-0.5S435.6,256.4,435.4,256.4z M435.4,254.6c-0.2,0-0.3,0.1-0.4,0.2c-0.1,0.1-0.2,0.3-0.2,0.5s0.1,0.3,0.2,0.5
			c0.1,0.1,0.3,0.2,0.4,0.2c0.2,0,0.3-0.1,0.4-0.2c0.1-0.1,0.2-0.3,0.2-0.5s-0.1-0.3-0.2-0.5C435.7,254.6,435.6,254.6,435.4,254.6z"
			/>
	</g>
	<g>
		<rect x="287.9" y="469.3" fill="none" width="331.6" height="136.9"/>
		<text transform="matrix(1 0 0 1 287.8701 478.3593)" font-family="'Apercu-Mono'" font-size="12.8367">heart muscle</text>
		<text transform="matrix(1 0 0 1 287.8701 493.3359)" font-family="'Apercu-Mono'" font-size="12.8367">music track speaker</text>
		<text transform="matrix(1 0 0 1 287.8701 508.3115)" font-family="'Apercu-Mono'" font-size="12.8367">pushbutton</text>
		<text transform="matrix(1 0 0 1 287.8701 523.288)" font-family="'Apercu-Mono'" font-size="12.8367">arduino .wav shield</text>
		<text transform="matrix(1 0 0 1 287.8701 538.2636)" font-family="'Apercu-Mono'" font-size="12.8367">arduino uno</text>
		<text transform="matrix(1 0 0 1 287.8701 553.2402)" font-family="'Apercu-Mono'" font-size="12.8367">arduino mega </text>
		<text transform="matrix(1 0 0 1 495.04 478.3994)" font-family="'Apercu-Mono'" font-size="12.8367">muscle</text>
		<text transform="matrix(1 0 0 1 495.04 493.3759)" font-family="'Apercu-Mono'" font-size="12.8367">conductive magnet</text>
		<text transform="matrix(1 0 0 1 495.04 508.3515)" font-family="'Apercu-Mono'" font-size="12.8367">muscle note speaker</text>
		<text transform="matrix(1 0 0 1 495.04 523.3281)" font-family="'Apercu-Mono'" font-size="12.8367">bend sensor</text>
		<g>
			<circle fill="#FFFFFF" stroke="#DBDCDE" stroke-miterlimit="10" cx="275.8" cy="473.8" r="5"/>
			<path fill="#EF4E23" d="M276.1,471.4h0.2v3.9h1.1v0.4h-2.7v-0.4h1.1v-3l-1.1,0.6v-0.5L276.1,471.4z"/>
		</g>
		<g>
			<circle fill="#FFFFFF" stroke="#DBDCDE" stroke-miterlimit="10" cx="275.9" cy="488.8" r="5"/>
			<path fill="#EF4E23" d="M274.6,490.8v-0.2l1.7-2.1c0.3-0.3,0.3-0.5,0.3-0.9c0-0.2-0.1-0.3-0.1-0.5c-0.1-0.1-0.3-0.2-0.5-0.2
				c-0.4,0-0.6,0.3-0.7,0.7l-0.5-0.1c0-0.3,0.2-0.6,0.4-0.9c0.2-0.2,0.5-0.3,0.9-0.3c0.4,0,0.7,0.1,1,0.3c0.2,0.2,0.3,0.4,0.3,0.9
				c0,0.3-0.1,0.6-0.3,1l-1.4,1.7h1.8v0.5h-2.8V490.8z"/>
		</g>
		<g>
			<g>
				<circle fill="#FFFFFF" stroke="#DBDCDE" stroke-miterlimit="10" cx="275.9" cy="503.7" r="5"/>
			</g>
			<path fill="#EF4E23" d="M275,504.6c0.1,0.5,0.3,0.7,0.9,0.7c0.5,0,0.9-0.3,0.9-0.9s-0.3-0.9-0.9-0.9c-0.1,0-0.3,0-0.4,0.1
				l-0.2-0.3l1-1.3h-1.5v-0.5h2.4v0.2l-1.1,1.5c0,0,0.1,0,0.2,0c0.3,0,0.6,0.1,0.9,0.3c0.2,0.2,0.3,0.5,0.3,1s-0.1,0.7-0.4,1
				c-0.2,0.2-0.5,0.4-1,0.4c-0.3,0-0.6-0.1-1-0.3c-0.2-0.2-0.4-0.5-0.4-0.9L275,504.6z"/>
		</g>
		<g>
			<circle fill="#FFFFFF" stroke="#DBDCDE" stroke-miterlimit="10" cx="275.9" cy="518.7" r="5"/>
			<path fill="#EF4E23" d="M275.9,520.8v-1h-1.8v-0.2l1.8-3.1h0.5v2.9h0.6v0.5h-0.6v1h-0.5V520.8z M274.7,519.4h1.2v-2L274.7,519.4z
				"/>
		</g>
		<g>
			<circle fill="#FFFFFF" stroke="#DBDCDE" stroke-miterlimit="10" cx="275.9" cy="533.7" r="5"/>
			<path fill="#EF4E23" d="M275.1,534.5c0.1,0.5,0.4,0.7,0.9,0.7c0.5,0,0.9-0.4,0.9-1s-0.3-1-0.9-1c-0.4,0-0.7,0.2-1,0.4l-0.3-0.1
				l0.2-2.4h2.1v0.5h-1.6l-0.1,1.3c0.2-0.2,0.5-0.3,0.7-0.3c0.9,0,1.3,0.5,1.3,1.4c0,0.4-0.1,0.7-0.4,1.1c-0.2,0.3-0.6,0.4-1,0.4
				c-0.7,0-1.3-0.4-1.4-1.2H275.1z"/>
		</g>
		<g>
			<circle fill="#FFFFFF" stroke="#DBDCDE" stroke-miterlimit="10" cx="275.9" cy="548.7" r="5"/>
			<path fill="#EF4E23" d="M277,548.4c0.2,0.2,0.3,0.6,0.3,1c0,0.4-0.1,0.7-0.4,1c-0.2,0.2-0.5,0.4-1,0.4s-0.7-0.1-1-0.4
				c-0.2-0.3-0.4-0.6-0.4-1c0-0.3,0.1-0.5,0.2-0.7l1.3-2.1h0.5l-1,1.6c0.1,0,0.1,0,0.2,0C276.3,548,276.6,548.1,277,548.4z
				 M275.9,550.4c0.4,0,0.9-0.4,0.9-0.9c0-0.5-0.3-0.9-0.9-0.9c-0.5,0-0.9,0.3-0.9,0.9C275.1,549.9,275.5,550.4,275.9,550.4z"/>
		</g>
		<g>
			<circle fill="#FFFFFF" stroke="#DBDCDE" stroke-miterlimit="10" cx="483.5" cy="473.6" r="5"/>
			<path fill="#EF4E23" d="M483,475.7h-0.5l1.8-3.7h-2v-0.5h2.8v0.2L483,475.7z"/>
		</g>
		<g>
			<circle fill="#FFFFFF" stroke="#DBDCDE" stroke-miterlimit="10" cx="483.5" cy="488.5" r="5"/>
			<path fill="#EF4E23" d="M484.3,488.4c0.4,0.2,0.6,0.5,0.6,1.1c0,0.4-0.1,0.7-0.4,1c-0.2,0.2-0.5,0.3-1,0.3c-0.3,0-0.6-0.1-1-0.3
				c-0.2-0.2-0.4-0.5-0.4-1c0-0.5,0.2-0.9,0.6-1.1c-0.3-0.1-0.5-0.5-0.5-0.9c0-0.3,0.1-0.6,0.3-0.9c0.2-0.2,0.5-0.3,0.9-0.3
				c0.3,0,0.6,0.1,0.9,0.3c0.2,0.2,0.3,0.5,0.3,0.9C484.7,487.9,484.5,488.3,484.3,488.4z M483.5,488.8c-0.2,0-0.4,0.1-0.5,0.2
				c-0.1,0.1-0.2,0.3-0.2,0.5s0.1,0.4,0.2,0.5c0.1,0.1,0.3,0.2,0.5,0.2s0.4-0.1,0.5-0.2c0.1-0.1,0.2-0.3,0.2-0.5s-0.1-0.4-0.2-0.5
				C484,488.9,483.7,488.8,483.5,488.8z M483.5,486.9c-0.2,0-0.3,0.1-0.4,0.2c-0.1,0.1-0.2,0.3-0.2,0.5s0.1,0.3,0.2,0.5
				c0.1,0.1,0.3,0.2,0.4,0.2c0.2,0,0.3-0.1,0.4-0.2c0.1-0.1,0.2-0.3,0.2-0.5s-0.1-0.3-0.2-0.5C484,486.9,483.7,486.9,483.5,486.9z"
				/>
		</g>
		<g>
			<circle fill="#FFFFFF" stroke="#DBDCDE" stroke-miterlimit="10" cx="483.5" cy="503.5" r="5"/>
			<path fill="#EF4E23" d="M482.6,503.8c-0.2-0.2-0.3-0.6-0.3-1c0-0.4,0.1-0.7,0.4-1c0.2-0.3,0.5-0.4,1-0.4c0.4,0,0.7,0.1,1,0.4
				c0.2,0.2,0.4,0.6,0.4,1c0,0.3-0.1,0.5-0.2,0.7l-1.3,2.1H483l1-1.6c-0.1,0-0.1,0-0.2,0C483.1,504.3,482.8,504.2,482.6,503.8z
				 M483.5,502c-0.4,0-0.9,0.4-0.9,0.9c0,0.5,0.3,0.9,0.9,0.9s0.9-0.3,0.9-0.9C484.4,502.3,484,502,483.5,502z"/>
		</g>
		<g>
			<circle fill="#FFFFFF" stroke="#DBDCDE" stroke-miterlimit="10" cx="483.5" cy="518.5" r="5"/>
			<g>
				<path fill="#EF4E23" d="M481.7,515.9h0.2v3.9h1.1v0.4h-2.7v-0.4h1.1v-3.1l-1.1,0.6v-0.5L481.7,515.9z"/>
				<path fill="#EF4E23" d="M485.2,520.2c-0.5,0-0.9-0.2-1.2-0.5c-0.3-0.4-0.4-1-0.4-1.6s0.1-1.2,0.4-1.6c0.3-0.4,0.6-0.6,1.2-0.6
					c0.5,0,0.9,0.2,1.2,0.6c0.3,0.4,0.4,1,0.4,1.6s-0.1,1.2-0.4,1.6C486.1,520,485.7,520.2,485.2,520.2z M484.4,519.1l1.3-2.7
					c-0.1-0.1-0.3-0.1-0.4-0.1c-0.6,0-1.1,0.6-1.1,1.7C484.2,518.5,484.3,518.9,484.4,519.1z M486.2,518.1c0-0.5-0.1-0.9-0.2-1.2
					l-1.3,2.7c0.1,0.1,0.3,0.1,0.4,0.1C485.9,519.8,486.2,519,486.2,518.1z"/>
			</g>
		</g>
	</g>
	<g>
		<circle fill="#FFFFFF" stroke="#DBDCDE" stroke-miterlimit="10" cx="562.7" cy="368.7" r="5"/>
		<g>
			<path fill="#EF4E23" d="M560.9,366.2h0.2v3.9h1.1v0.4h-2.7V370h1.1v-3.1l-1.1,0.6V367L560.9,366.2z"/>
			<path fill="#EF4E23" d="M564.4,370.4c-0.5,0-0.9-0.2-1.2-0.5c-0.3-0.4-0.4-1-0.4-1.6c0-0.6,0.1-1.2,0.4-1.6
				c0.3-0.4,0.6-0.6,1.2-0.6s0.9,0.2,1.2,0.6c0.3,0.4,0.4,1,0.4,1.6c0,0.6-0.1,1.2-0.4,1.6C565.3,370.2,564.8,370.4,564.4,370.4z
				 M563.5,369.4l1.3-2.7c-0.1-0.1-0.3-0.1-0.4-0.1c-0.6,0-1.1,0.6-1.1,1.7C563.3,368.7,563.4,369.2,563.5,369.4z M565.4,368.3
				c0-0.5-0.1-0.9-0.2-1.2l-1.3,2.7c0.1,0.1,0.3,0.1,0.4,0.1C565,370,565.4,369.3,565.4,368.3z"/>
		</g>
	</g>
	<g>
		<circle fill="#FFFFFF" stroke="#DBDCDE" stroke-miterlimit="10" cx="458.9" cy="334.1" r="5"/>
		<path fill="#EF4E23" d="M458,334.4c-0.2-0.2-0.3-0.6-0.3-1c0-0.4,0.1-0.7,0.4-1c0.2-0.3,0.5-0.4,1-0.4s0.7,0.1,1,0.4
			c0.2,0.2,0.4,0.6,0.4,1s-0.1,0.5-0.2,0.7l-1.3,2.1h-0.5l1-1.6c-0.1,0-0.1,0-0.2,0C458.5,334.8,458.2,334.7,458,334.4z
			 M458.9,332.5c-0.4,0-0.9,0.4-0.9,0.9c0,0.5,0.3,0.9,0.9,0.9c0.5,0,0.9-0.3,0.9-0.9C459.7,332.9,459.4,332.5,458.9,332.5z"/>
	</g>
	<text transform="matrix(1 0 0 1 286.7964 20.9902)" font-family="'Apercu-Mono'" font-size="25.6734">exploded view</text>
</g>
</svg>
