<?xml version="1.0" encoding="utf-8"?>
<!-- Generator: Adobe Illustrator 18.1.1, SVG Export Plug-In . SVG Version: 6.00 Build 0)  -->
<svg version="1.1" id="Layer_1" xmlns="http://www.w3.org/2000/svg" xmlns:xlink="http://www.w3.org/1999/xlink" x="0px" y="0px"
	 viewBox="0 0 690 801" enable-background="new 0 0 690 801" xml:space="preserve">
<line fill="none" stroke="#F47B4B" stroke-width="5" stroke-miterlimit="10" x1="85.6" y1="40.5" x2="252.4" y2="40.5"/>
<text transform="matrix(1 0 0 1 85.5923 28.4744)"><tspan x="0" y="0" fill="#F47B4B" font-family="'Apercu-Medium'" font-size="30">F</tspan><tspan x="16.5" y="0" fill="#F47B4B" font-family="'Apercu-Medium'" font-size="30">lo</tspan><tspan x="41.6" y="0" fill="#F47B4B" font-family="'Apercu-Medium'" font-size="30">w o</tspan><tspan x="89.8" y="0" fill="#F47B4B" font-family="'Apercu-Medium'" font-size="30">f</tspan><tspan x="101.5" y="0" fill="#F47B4B" font-family="'Apercu-Medium'" font-size="30"> Play</tspan></text>
<text transform="matrix(1 0 0 1 410.3921 403.3318)"><tspan x="0" y="0" fill="#58595B" font-family="'Apercu-Medium'" font-size="20">F</tspan><tspan x="11" y="0" fill="#58595B" font-family="'Apercu-Medium'" font-size="20">r</tspan><tspan x="18.5" y="0" fill="#58595B" font-family="'Apercu-Medium'" font-size="20">ee Play</tspan></text>
<text transform="matrix(1 0 0 1 410.3921 646.494)"><tspan x="0" y="0" fill="#58595B" font-family="'Apercu-Medium'" font-size="20">Le</tspan><tspan x="21.6" y="0" fill="#58595B" font-family="'Apercu-Medium'" font-size="20">a</tspan><tspan x="32.2" y="0" fill="#58595B" font-family="'Apercu-Medium'" font-size="20">rning Songs</tspan></text>
<text transform="matrix(1 0 0 1 410.3921 174.639)"><tspan x="0" y="0" fill="#808285" font-family="'Apercu-Medium'" font-size="14">“</tspan><tspan x="7.2" y="0" fill="#808285" font-family="'Apercu-Medium'" font-size="14">W</tspan><tspan x="19.5" y="0" fill="#808285" font-family="'Apercu-Medium'" font-size="14">elcome to </tspan><tspan x="87.8" y="0" fill="#808285" font-family="'Apercu-Medium'" font-size="14">m</tspan><tspan x="99.8" y="0" fill="#808285" font-family="'Apercu-Medium'" font-size="14">y bo</tspan><tspan x="126.7" y="0" fill="#808285" font-family="'Apercu-Medium'" font-size="14">d</tspan><tspan x="135" y="0" fill="#808285" font-family="'Apercu-Medium'" font-size="14">y ban</tspan><tspan x="168.9" y="0" fill="#808285" font-family="'Apercu-Medium'" font-size="14">d</tspan><tspan x="176.8" y="0" fill="#808285" font-family="'Apercu-Medium'" font-size="14">. </tspan><tspan x="184.9" y="0" fill="#808285" font-family="'Apercu-Medium'" font-size="14">Y</tspan><tspan x="191.1" y="0" fill="#808285" font-family="'Apercu-Medium'" font-size="14">ou</tspan><tspan x="207.5" y="0" fill="#808285" font-family="'Apercu-Medium'" font-size="14">’</tspan><tspan x="211.2" y="0" fill="#808285" font-family="'Apercu-Medium'" font-size="14">r</tspan><tspan x="216.9" y="0" fill="#808285" font-family="'Apercu-Medium'" font-size="14">e in f</tspan><tspan x="248.9" y="0" fill="#808285" font-family="'Apercu-Medium'" font-size="14">r</tspan><tspan x="254.6" y="0" fill="#808285" font-family="'Apercu-Medium'" font-size="14">ee </tspan></text>
<text transform="matrix(1 0 0 1 410.3921 190.639)"><tspan x="0" y="0" fill="#808285" font-family="'Apercu-Medium'" font-size="14">p</tspan><tspan x="8.3" y="0" fill="#808285" font-family="'Apercu-Medium'" font-size="14">lay mod</tspan><tspan x="58.2" y="0" fill="#808285" font-family="'Apercu-Medium'" font-size="14">e</tspan><tspan x="65.8" y="0" fill="#808285" font-family="'Apercu-Medium'" font-size="14">. P</tspan><tspan x="82.1" y="0" fill="#808285" font-family="'Apercu-Medium'" font-size="14">r</tspan><tspan x="87.8" y="0" fill="#808285" font-family="'Apercu-Medium'" font-size="14">ess the hea</tspan><tspan x="160.2" y="0" fill="#808285" font-family="'Apercu-Medium'" font-size="14">r</tspan><tspan x="166.3" y="0" fill="#808285" font-family="'Apercu-Medium'" font-size="14">t to sta</tspan><tspan x="211.5" y="0" fill="#808285" font-family="'Apercu-Medium'" font-size="14">r</tspan><tspan x="217.6" y="0" fill="#808285" font-family="'Apercu-Medium'" font-size="14">t the </tspan></text>
<text transform="matrix(1 0 0 1 410.3921 206.639)"><tspan x="0" y="0" fill="#808285" font-family="'Apercu-Medium'" font-size="14">m</tspan><tspan x="12" y="0" fill="#808285" font-family="'Apercu-Medium'" font-size="14">us</tspan><tspan x="26.4" y="0" fill="#808285" font-family="'Apercu-Medium'" font-size="14">c</tspan><tspan x="33.9" y="0" fill="#808285" font-family="'Apercu-Medium'" font-size="14">le song!”</tspan></text>
<path fill="#5BA7DC" d="M181.3,372.8c0.6,0,1.3,0,1.9,0c2.2,0.1,2.9-0.9,2.5-3c-0.4-2.1-2.1-3.6-4.2-3.7c-2.2-0.1-4.1,1.3-4.6,3.5
	c-0.6,2.3,0.3,3.4,2.6,3.3C180.2,372.8,180.8,372.8,181.3,372.8 M210.8,408.9c-0.5-11.4-5.3-20-14.9-25.4
	c-10.3-5.8-20.8-5.4-30.8,1.1c-8.5,5.6-12.8,13.8-13.1,24.4c5.5-1.3,10.7-2.5,16-3.6v7.5c-5.3-1.2-10.5-2.4-15.7-3.6
	c-0.9,16.3,14.8,30.2,29,28.9c-1.2-5.3-2.4-10.5-3.6-15.7h7.5c-1.2,5.3-2.4,10.5-3.6,15.8c16.8,0.7,30.2-15.4,28.8-29.1
	c-5.2,1.2-10.4,2.4-15.6,3.6v-7.5C200,406.4,205.2,407.6,210.8,408.9 M172.7,373.7c-1-4.5-0.2-8.3,3.8-10.8c3.1-2,6.4-2,9.6-0.1
	c4.1,2.5,4.8,6.4,3.9,10.9c10.4,2.9,18.4,8.9,23.5,18.5c4.1,7.8,5.2,16,3.3,24.6c-3.7,17.1-19.1,29-36.8,28.4
	c-16.8-0.5-31.5-13.5-34.3-30.2C142.8,398.2,152.2,379.4,172.7,373.7"/>
<path fill="#5BA7DC" d="M164,425.4c3.9-5.6,7.8-11.2,11.8-16.8c1.4,4.3,1.9,4.8,6,6c-5.8,4-11.4,7.9-16.9,11.8
	C164.5,426.1,164.2,425.7,164,425.4"/>
<path fill="#5BA7DC" d="M180.7,403.5c6.1-4.3,11.6-8.1,17.2-12c0.2,0.2,0.5,0.5,0.7,0.7c-3.3,5.9-7.7,11.2-11.6,17.2
	C186.3,405.8,184.6,403.7,180.7,403.5"/>
<path fill="#5BA7DC" d="M185.1,395.6h-7.5c1.2-5.1,2.3-10.1,3.5-15.2c0.1,0,0.3,0,0.4,0C182.7,385.4,183.9,390.5,185.1,395.6"/>
<path fill="#5BA7DC" d="M170.5,400.2c-0.9-1.4-1.9-3-2.9-4.6c0.1-0.1,0.2-0.2,0.3-0.4c1.6,1,3.1,1.9,4.8,2.9
	C171.9,398.9,171.3,399.5,170.5,400.2"/>
<path fill="#5BA7DC" d="M190,419.7c0.7-0.8,1.2-1.4,2-2.3c1.1,1.8,2.1,3.4,3.1,4.9c-0.1,0.1-0.2,0.3-0.3,0.4
	C193.2,421.8,191.6,420.8,190,419.7"/>
<path fill="#F37443" d="M167.4,660.7c-0.5-3.4-0.9-7.2-1.6-11c-1.2-6.6-2.6-13.2-4-19.7c-0.5-2.4,0.2-3.9,2.1-5.1
	c7.2-4.7,15-7.6,23.4-8.4c6.6-0.6,13.2-0.4,19.8-0.6c2.1,0,3.4,1,4.1,3.2c5.3,15.1,8.8,30.5,9,46.6c0.1,5.7-1.4,11-4.9,15.5
	c-5.2,6.7-16.1,7.9-22.6,2.5c-3.3-2.7-3.6-6.4-2.7-10.3c1.5-6.5,6.1-9.6,12-10.9c3.1-0.7,6.3-1.2,9.5-1.6c1.6-0.2,2.2-1,1.9-2.6
	c-1.1-6.9-2.2-13.8-3.3-20.7c-0.3-2-1.3-2.8-3.4-2.8c-10.9,0.4-21.5,2.2-31.9,5.5c-3,0.9-3.1,1.3-2.5,4.5c1.2,7,2.5,13.9,3.4,20.9
	c1.6,11.4-9.5,20.9-17.3,21.9c-4.5,0.6-8.8-0.6-12.3-3.7c-4.1-3.6-4.4-9.6-0.7-14.2c2.3-2.9,5.4-4.8,8.8-5.8
	C158.3,662.6,162.7,661.7,167.4,660.7"/>
<path fill="#58595B" d="M209.1,126.8c6.1,6.1,10.6,12.9,13.9,20.7c1,2.5,0.4,4.6-1.7,5.6c-2.1,1-4.3,0-5.3-2.5
	c-6.1-14.3-16.3-24.5-30.5-30.5c-2.5-1.1-3.5-3.2-2.5-5.3c0.9-2.1,3-2.7,5.5-1.7C196.3,116.3,203.3,120.9,209.1,126.8"/>
<path fill="#58595B" d="M199.3,136.8c4.1,4.2,7.5,8.9,9.9,14.3c1.2,2.5,0.5,4.7-1.6,5.7c-2.1,0.9-4.1,0.1-5.3-2.3
	c-4.4-9.5-11.4-16.4-20.8-20.8c-2.4-1.1-3.3-3.2-2.3-5.3c1-2.1,3.2-2.7,5.7-1.6C190.3,129.3,195,132.7,199.3,136.8"/>
<path fill="#58595B" d="M166.8,188.5l7.6-7.6c0.6-0.6,1.3-0.9,2.2-1l17.5-2.1l-35.2-35.2l-2.2,17.5c-0.1,0.8-0.5,1.6-1,2.1l-7.6,7.6
	L166.8,188.5z M204.4,183.1c-0.6,0.6-1.3,0.9-2.2,1l-23.7,2.8l-9.3,9.3c-1.4,1.4-3.7,1.4-5.1,0l-23.8-23.8c-1.4-1.4-1.4-3.7,0-5.1
	l9.3-9.3l2.9-23.6c0.2-1.4,1.1-2.5,2.4-3s2.8-0.1,3.7,0.9l45.7,45.8c1,1,1.3,2.4,0.8,3.8C205.1,182.3,204.8,182.8,204.4,183.1"/>
<text transform="matrix(1 0 0 1 410.3921 149.9007)"><tspan x="0" y="0" fill="#58595B" font-family="'Apercu-Medium'" font-size="20">Int</tspan><tspan x="25.3" y="0" fill="#58595B" font-family="'Apercu-Medium'" font-size="20">r</tspan><tspan x="32.8" y="0" fill="#58595B" font-family="'Apercu-Medium'" font-size="20">o</tspan></text>
<line fill="none" stroke="#58595B" stroke-width="4" x1="181.6" y1="250.6" x2="181.6" y2="301.8"/>
<polyline fill="none" stroke="#58595B" stroke-width="4" points="187.4,286.1 181.6,301.8 175.9,286.1 "/>
<line fill="none" stroke="#58595B" stroke-width="4" x1="181.6" y1="499" x2="181.6" y2="550.2"/>
<polyline fill="none" stroke="#58595B" stroke-width="4" points="187.4,534.5 181.6,550.2 175.9,534.5 "/>
<text transform="matrix(1 0 0 1 207.7256 519.0565)"><tspan x="0" y="0" fill="#808285" font-family="'Apercu-Medium'" font-size="14">when the hea</tspan><tspan x="86.7" y="0" fill="#808285" font-family="'Apercu-Medium'" font-size="14">r</tspan><tspan x="92.8" y="0" fill="#808285" font-family="'Apercu-Medium'" font-size="14">t </tspan></text>
<text transform="matrix(1 0 0 1 207.7256 535.0565)"><tspan x="0" y="0" fill="#808285" font-family="'Apercu-Medium'" font-size="14">b</tspan><tspan x="8.3" y="0" fill="#808285" font-family="'Apercu-Medium'" font-size="14">utton is p</tspan><tspan x="69.3" y="0" fill="#808285" font-family="'Apercu-Medium'" font-size="14">r</tspan><tspan x="75" y="0" fill="#808285" font-family="'Apercu-Medium'" font-size="14">essed</tspan></text>
<polyline fill="none" stroke="#58595B" stroke-width="4" points="181.3,748.8 181.3,795.9 5.2,795.9 5.2,407.9 57,407.9 "/>
<polyline fill="none" stroke="#58595B" stroke-width="4" points="41.3,413.6 57,407.9 41.3,402.2 "/>
<text transform="matrix(1 0 0 1 207.7256 769.8934)" fill="#808285" font-family="'Apercu-Medium'" font-size="14">when the song </text>
<text transform="matrix(1 0 0 1 207.7256 785.8934)"><tspan x="0" y="0" fill="#808285" font-family="'Apercu-Medium'" font-size="14">p</tspan><tspan x="8.3" y="0" fill="#808285" font-family="'Apercu-Medium'" font-size="14">lays to the end</tspan></text>
<text transform="matrix(1 0 0 1 410.3921 484.8094)"><tspan x="0" y="0" fill="#808285" font-family="'Apercu-Medium'" font-size="14">Be</tspan><tspan x="16.5" y="0" fill="#808285" font-family="'Apercu-Medium'" font-size="14">f</tspan><tspan x="21.6" y="0" fill="#808285" font-family="'Apercu-Medium'" font-size="14">o</tspan><tspan x="29.9" y="0" fill="#808285" font-family="'Apercu-Medium'" font-size="14">r</tspan><tspan x="35.6" y="0" fill="#808285" font-family="'Apercu-Medium'" font-size="14">e the learning song sta</tspan><tspan x="179.9" y="0" fill="#808285" font-family="'Apercu-Medium'" font-size="14">r</tspan><tspan x="186" y="0" fill="#808285" font-family="'Apercu-Medium'" font-size="14">t</tspan><tspan x="191.3" y="0" fill="#808285" font-family="'Apercu-Medium'" font-size="14">s</tspan><tspan x="197.5" y="0" fill="#808285" font-family="'Apercu-Medium'" font-size="14">,</tspan><tspan x="201.8" y="0" fill="#808285" font-family="'Apercu-Medium'" font-size="14"> the suit </tspan></text>
<text transform="matrix(1 0 0 1 410.3921 500.8094)"><tspan x="0" y="0" fill="#808285" font-family="'Apercu-Medium'" font-size="14">tells the </tspan><tspan x="55.8" y="0" fill="#808285" font-family="'Apercu-Medium'" font-size="14">c</tspan><tspan x="63.2" y="0" fill="#808285" font-family="'Apercu-Medium'" font-size="14">hild to </tspan><tspan x="108.3" y="0" fill="#808285" font-family="'Apercu-Medium'" font-size="14">p</tspan><tspan x="116.7" y="0" fill="#808285" font-family="'Apercu-Medium'" font-size="14">ut on co</tspan><tspan x="169.7" y="0" fill="#808285" font-family="'Apercu-Medium'" font-size="14">r</tspan><tspan x="175.5" y="0" fill="#808285" font-family="'Apercu-Medium'" font-size="14">r</tspan><tspan x="181.2" y="0" fill="#808285" font-family="'Apercu-Medium'" font-size="14">esponding </tspan></text>
<text transform="matrix(1 0 0 1 410.3921 516.8094)"><tspan x="0" y="0" fill="#808285" font-family="'Apercu-Medium'" font-size="14">m</tspan><tspan x="12" y="0" fill="#808285" font-family="'Apercu-Medium'" font-size="14">us</tspan><tspan x="26.4" y="0" fill="#808285" font-family="'Apercu-Medium'" font-size="14">c</tspan><tspan x="33.9" y="0" fill="#808285" font-family="'Apercu-Medium'" font-size="14">le</tspan><tspan x="45.5" y="0" fill="#808285" font-family="'Apercu-Medium'" font-size="14">s</tspan><tspan x="51.6" y="0" fill="#808285" font-family="'Apercu-Medium'" font-size="14">,</tspan><tspan x="55.9" y="0" fill="#808285" font-family="'Apercu-Medium'" font-size="14"> letting them kn</tspan><tspan x="157.1" y="0" fill="#808285" font-family="'Apercu-Medium'" font-size="14">o</tspan><tspan x="165.2" y="0" fill="#808285" font-family="'Apercu-Medium'" font-size="14">w “that</tspan><tspan x="212.8" y="0" fill="#808285" font-family="'Apercu-Medium'" font-size="14">’</tspan><tspan x="216.4" y="0" fill="#808285" font-family="'Apercu-Medium'" font-size="14">s </tspan><tspan x="226.3" y="0" fill="#808285" font-family="'Apercu-Medium'" font-size="14">y</tspan><tspan x="232.7" y="0" fill="#808285" font-family="'Apercu-Medium'" font-size="14">our </tspan></text>
<text transform="matrix(1 0 0 1 410.3921 532.8094)"><tspan x="0" y="0" fill="#808285" font-family="'Apercu-Medium'" font-size="14">bice</tspan><tspan x="27.6" y="0" fill="#808285" font-family="'Apercu-Medium'" font-size="14">p</tspan><tspan x="35.2" y="0" fill="#808285" font-family="'Apercu-Medium'" font-size="14">” when they </tspan><tspan x="116" y="0" fill="#808285" font-family="'Apercu-Medium'" font-size="14">p</tspan><tspan x="124.4" y="0" fill="#808285" font-family="'Apercu-Medium'" font-size="14">ut on their bice</tspan><tspan x="223.7" y="0" fill="#808285" font-family="'Apercu-Medium'" font-size="14">p</tspan><tspan x="231.6" y="0" fill="#808285" font-family="'Apercu-Medium'" font-size="14">,</tspan><tspan x="235.8" y="0" fill="#808285" font-family="'Apercu-Medium'" font-size="14"> et</tspan><tspan x="252.6" y="0" fill="#808285" font-family="'Apercu-Medium'" font-size="14">c</tspan><tspan x="259.9" y="0" fill="#808285" font-family="'Apercu-Medium'" font-size="14">.</tspan></text>
<text transform="matrix(1 0 0 1 410.3921 428.0701)"><tspan x="0" y="0" fill="#808285" font-family="'Apercu-Medium'" font-size="14">In f</tspan><tspan x="21" y="0" fill="#808285" font-family="'Apercu-Medium'" font-size="14">r</tspan><tspan x="26.7" y="0" fill="#808285" font-family="'Apercu-Medium'" font-size="14">ee </tspan><tspan x="45.9" y="0" fill="#808285" font-family="'Apercu-Medium'" font-size="14">p</tspan><tspan x="54.2" y="0" fill="#808285" font-family="'Apercu-Medium'" font-size="14">lay mod</tspan><tspan x="104.2" y="0" fill="#808285" font-family="'Apercu-Medium'" font-size="14">e</tspan><tspan x="111.7" y="0" fill="#808285" font-family="'Apercu-Medium'" font-size="14">,</tspan><tspan x="116" y="0" fill="#808285" font-family="'Apercu-Medium'" font-size="14"> the </tspan><tspan x="144.7" y="0" fill="#808285" font-family="'Apercu-Medium'" font-size="14">c</tspan><tspan x="152.1" y="0" fill="#808285" font-family="'Apercu-Medium'" font-size="14">hild is f</tspan><tspan x="198.6" y="0" fill="#808285" font-family="'Apercu-Medium'" font-size="14">r</tspan><tspan x="204.3" y="0" fill="#808285" font-family="'Apercu-Medium'" font-size="14">ee to do </tspan></text>
<text transform="matrix(1 0 0 1 410.3921 444.0701)"><tspan x="0" y="0" fill="#808285" font-family="'Apercu-Medium'" font-size="14">a</tspan><tspan x="7.2" y="0" fill="#808285" font-family="'Apercu-Medium'" font-size="14">n</tspan><tspan x="15.1" y="0" fill="#808285" font-family="'Apercu-Medium'" font-size="14">ythin</tspan><tspan x="47.2" y="0" fill="#808285" font-family="'Apercu-Medium'" font-size="14">g</tspan><tspan x="54.4" y="0" fill="#808285" font-family="'Apercu-Medium'" font-size="14">,</tspan><tspan x="58.7" y="0" fill="#808285" font-family="'Apercu-Medium'" font-size="14"> they disc</tspan><tspan x="120" y="0" fill="#808285" font-family="'Apercu-Medium'" font-size="14">o</tspan><tspan x="128.1" y="0" fill="#808285" font-family="'Apercu-Medium'" font-size="14">ver on their </tspan><tspan x="206.4" y="0" fill="#808285" font-family="'Apercu-Medium'" font-size="14">o</tspan><tspan x="214.5" y="0" fill="#808285" font-family="'Apercu-Medium'" font-size="14">wn h</tspan><tspan x="245" y="0" fill="#808285" font-family="'Apercu-Medium'" font-size="14">o</tspan><tspan x="253.1" y="0" fill="#808285" font-family="'Apercu-Medium'" font-size="14">w </tspan></text>
<text transform="matrix(1 0 0 1 410.3921 460.0701)"><tspan x="0" y="0" fill="#808285" font-family="'Apercu-Medium'" font-size="14">their </tspan><tspan x="34.6" y="0" fill="#808285" font-family="'Apercu-Medium'" font-size="14">m</tspan><tspan x="46.6" y="0" fill="#808285" font-family="'Apercu-Medium'" font-size="14">us</tspan><tspan x="61" y="0" fill="#808285" font-family="'Apercu-Medium'" font-size="14">c</tspan><tspan x="68.5" y="0" fill="#808285" font-family="'Apercu-Medium'" font-size="14">les a</tspan><tspan x="97.2" y="0" fill="#808285" font-family="'Apercu-Medium'" font-size="14">r</tspan><tspan x="102.9" y="0" fill="#808285" font-family="'Apercu-Medium'" font-size="14">e used in dai</tspan><tspan x="183.4" y="0" fill="#808285" font-family="'Apercu-Medium'" font-size="14">l</tspan><tspan x="187.1" y="0" fill="#808285" font-family="'Apercu-Medium'" font-size="14">y activitie</tspan><tspan x="248.3" y="0" fill="#808285" font-family="'Apercu-Medium'" font-size="14">s</tspan><tspan x="254.3" y="0" fill="#808285" font-family="'Apercu-Medium'" font-size="14">.</tspan></text>
<text transform="matrix(1 0 0 1 410.3921 671.2322)"><tspan x="0" y="0" fill="#808285" font-family="'Apercu-Medium'" font-size="14">T</tspan><tspan x="7.2" y="0" fill="#808285" font-family="'Apercu-Medium'" font-size="14">he songs get ha</tspan><tspan x="106.1" y="0" fill="#808285" font-family="'Apercu-Medium'" font-size="14">r</tspan><tspan x="111.8" y="0" fill="#808285" font-family="'Apercu-Medium'" font-size="14">der </tspan><tspan x="137.5" y="0" fill="#808285" font-family="'Apercu-Medium'" font-size="14">o</tspan><tspan x="145.6" y="0" fill="#808285" font-family="'Apercu-Medium'" font-size="14">ver tim</tspan><tspan x="190.5" y="0" fill="#808285" font-family="'Apercu-Medium'" font-size="14">e</tspan><tspan x="198" y="0" fill="#808285" font-family="'Apercu-Medium'" font-size="14">,</tspan><tspan x="202.3" y="0" fill="#808285" font-family="'Apercu-Medium'" font-size="14"> as the </tspan></text>
<text transform="matrix(1 0 0 1 410.3921 687.2322)"><tspan x="0" y="0" fill="#808285" font-family="'Apercu-Medium'" font-size="14">c</tspan><tspan x="7.4" y="0" fill="#808285" font-family="'Apercu-Medium'" font-size="14">hild maste</tspan><tspan x="74" y="0" fill="#808285" font-family="'Apercu-Medium'" font-size="14">r</tspan><tspan x="79.8" y="0" fill="#808285" font-family="'Apercu-Medium'" font-size="14">s their kn</tspan><tspan x="139.8" y="0" fill="#808285" font-family="'Apercu-Medium'" font-size="14">o</tspan><tspan x="147.9" y="0" fill="#808285" font-family="'Apercu-Medium'" font-size="14">wledge of anato</tspan><tspan x="250.3" y="0" fill="#808285" font-family="'Apercu-Medium'" font-size="14">m</tspan><tspan x="262.2" y="0" fill="#808285" font-family="'Apercu-Medium'" font-size="14">y!</tspan></text>
<text transform="matrix(1 0 0 1 410.3921 729.8934)"><tspan x="0" y="0" fill="#808285" font-family="'Apercu-Medium'" font-size="14">When the </tspan><tspan x="65.6" y="0" fill="#808285" font-family="'Apercu-Medium'" font-size="14">c</tspan><tspan x="73.1" y="0" fill="#808285" font-family="'Apercu-Medium'" font-size="14">hild m</tspan><tspan x="112.9" y="0" fill="#808285" font-family="'Apercu-Medium'" font-size="14">o</tspan><tspan x="121" y="0" fill="#808285" font-family="'Apercu-Medium'" font-size="14">ves the </tspan><tspan x="170.2" y="0" fill="#808285" font-family="'Apercu-Medium'" font-size="14">m</tspan><tspan x="182.2" y="0" fill="#808285" font-family="'Apercu-Medium'" font-size="14">us</tspan><tspan x="196.6" y="0" fill="#808285" font-family="'Apercu-Medium'" font-size="14">c</tspan><tspan x="204.1" y="0" fill="#808285" font-family="'Apercu-Medium'" font-size="14">le that is </tspan></text>
<text transform="matrix(1 0 0 1 410.3921 745.8934)"><tspan x="0" y="0" fill="#808285" font-family="'Apercu-Medium'" font-size="14">p</tspan><tspan x="8.4" y="0" fill="#808285" font-family="'Apercu-Medium'" font-size="14">r</tspan><tspan x="14.2" y="0" fill="#808285" font-family="'Apercu-Medium'" font-size="14">ompted in the audi</tspan><tspan x="136.2" y="0" fill="#808285" font-family="'Apercu-Medium'" font-size="14">o</tspan><tspan x="143.9" y="0" fill="#808285" font-family="'Apercu-Medium'" font-size="14">,</tspan><tspan x="148.2" y="0" fill="#808285" font-family="'Apercu-Medium'" font-size="14"> a special song is </tspan></text>
<text transform="matrix(1 0 0 1 410.3921 761.8934)"><tspan x="0" y="0" fill="#808285" font-family="'Apercu-Medium'" font-size="14">p</tspan><tspan x="8.3" y="0" fill="#808285" font-family="'Apercu-Medium'" font-size="14">la</tspan><tspan x="19.3" y="0" fill="#808285" font-family="'Apercu-Medium'" font-size="14">y</tspan><tspan x="25.6" y="0" fill="#808285" font-family="'Apercu-Medium'" font-size="14">e</tspan><tspan x="33.5" y="0" fill="#808285" font-family="'Apercu-Medium'" font-size="14">d,</tspan><tspan x="45.6" y="0" fill="#808285" font-family="'Apercu-Medium'" font-size="14"> </tspan><tspan x="49.2" y="0" fill="#808285" font-family="'Apercu-Medium'" font-size="14">r</tspan><tspan x="54.9" y="0" fill="#808285" font-family="'Apercu-Medium'" font-size="14">e</tspan><tspan x="62.7" y="0" fill="#808285" font-family="'Apercu-Medium'" font-size="14">w</tspan><tspan x="73.1" y="0" fill="#808285" font-family="'Apercu-Medium'" font-size="14">a</tspan><tspan x="80.3" y="0" fill="#808285" font-family="'Apercu-Medium'" font-size="14">r</tspan><tspan x="86.1" y="0" fill="#808285" font-family="'Apercu-Medium'" font-size="14">ding them.</tspan></text>
</svg>
