<?xml version="1.0" encoding="utf-8"?>
<!-- Generator: Adobe Illustrator 18.1.1, SVG Export Plug-In . SVG Version: 6.00 Build 0)  -->
<svg version="1.1" xmlns="http://www.w3.org/2000/svg" xmlns:xlink="http://www.w3.org/1999/xlink" x="0px" y="0px"
	 viewBox="0 0 672 523.5" enable-background="new 0 0 672 523.5" xml:space="preserve">
<g id="Layer_2">
	<g>
		<path opacity="0.5" fill="#5AA6DB" d="M272.3,200c-29-3.8-57.4,1.9-64.9,4.2c-7.3,2.2-56.8,18.3-67.4,22c-0.5,0.2-0.8,0.4-0.8,0.6
			c-0.1,1.1-1.6,5.6-18.8,11.9l-0.1,0l-0.1,0c-17.5,6.5-31.5,7.7-35.2,7.9c-0.6,0-1.3,0.2-1.8,0.4c-10.7,4.1-58.5,23.9-65.4,26.9
			c-7.2,3.1-24.4,14.7-6.8,24.4c21.1,11.7,74.9,33,121.5,52.8c2.6,1.1,8.2,0.7,12.7-1l29.1-10.7c4.3-1.6,5.8-3.7,3.5-4.8
			c-6.2-3.1-20.5-9.3-40.5-19.6c-19.6-10.1-43.5-18.9-54.1-24c-1.7-0.8,3-2.5,5.3-1.9c22.4,5.9,71.1,19.1,86.9,24.7
			c26.4,9.4,141.1,35.2,160.4,41.8c6.1,2.1,24.1,8.8,42.8,13.7c34.3,9,105.4,32,130.3,39.5c5.2,1.6,13.7,0.9,19.7-1.7l27.6-11.8
			c6.7-2.9,7.5-7,1.9-8.9c-26.4-8.9-98.5-34.7-141.8-50.5c-33.9-12.4-72.9-28.8-88.3-36.9c-1.9-1-0.6-2.4,2-3.5
			c2.5-1.1,6.3-1.8,9.6-1.4c26.3,3.3,80.8,12.3,122.5,20.6c52.7,10.4,138.1,27.7,167.8,34.1c6.4,1.4,15.7-0.1,20.2-3.1l18.2-12.2
			c3.8-2.6,2.8-5.4-2.4-6.7c-24.8-6-99.2-23-130.3-31.7c-17-4.7-38.3-8.9-44.9-10.3c-21.2-4.6-114.4-34.3-144.7-40.6
			c-18.2-3.8-63.5-16-83.7-21.7c-2-0.6,1.7-2.1,4.2-1.7c15.8,2.4,44.1,8,74.7,12.3c30.8,4.3,49.6,7.5,58.8,8.8
			c3.4,0.5,8.3-0.3,11.2-1.7l19.3-9.5c2.9-1.4,2.6-3-0.6-3.6C371.5,216.7,306.6,204.5,272.3,200"/>
		<path fill="#FFFFFF" d="M298.7,288.2c-7,3-9.5,8.5-34.9,9.1c-10.5,0.3-14.4-9-20.4-7c-6.1,2-19.5,4.9-28.8,2.3
			c-9.2-2.6,0.5-6.8-9.4-4.9c-5,0.9-50.7,16-24,20.1c27.9,4.2,24.9-4.9,48.5-6.3c20.4-1.2,20.2,6.7,37.1,4.9
			c22.3-2.5,27.7-11.4,38.9-16.2"/>
		<path fill="#FFFFFF" d="M227.9,303.8c-8.5,0.6-16.5,4.4-11.5,6.4c3.2,1.4,0.8,2.3-1.5,3.2c-2.1,0.8-4.1,1.6-0.9,2.5
			c5.9,1.8,123.2,24.3,128,26c4.8,1.7,9.3,6.3,16.8,6.9c5.5,0.5,33.7-12.4,26.5-14.7c-5.7-1.8-34.8,0.1-52.2-2.5
			c-6.6-1-88.4-16-93.3-19.7c-4.9-3.7,4.5-5.6,0.7-7.3C236.5,303,233.8,303.4,227.9,303.8"/>
		<path fill="#FFFFFF" d="M326.8,262.2c-0.2-2.7,8.3-5.7,14.9-4.6c4.3,0.7,6.4-0.2,8.2-1c1.7-0.8,3.3-1.5,6.5-0.7
			c6,1.5,92.6,33.2,98,34.4c5.5,1.1,18.3,1.6,22,3.8c2.7,1.6-22.9,13.5-30.8,11.7c-6.3-1.5-8.8-11.2-19.7-16.2
			c-4.1-1.9-63.1-24.4-74.3-25.2c-11.1-0.8-14.1,2.4-19.5,1.5C326.7,265,327,264.1,326.8,262.2"/>
		<path fill="#FFFFFF" d="M34.5,280.4c4.4-1.4,9.2-2,12.3-0.7c4.9,2.1-2.5,5.4,3.1,8.2c5.7,2.8,25.6,14.1,32.1,16.3
			c5.6,2,16.5,1.1,18.7,3.2c2.7,2.4-9.7,4.1-13.1,5.4c-0.4,0.2-0.9,0.3-1.3,0.5c-3.6,1.4-9.3,3.7-13.8,2.7c-4.3-0.9,3.5-4.3,0.8-6
			c-6.1-3.8-32-17.8-36.5-19.9c-5.3-2.4-11.3-0.1-12-3C24.3,285.6,30,281.8,34.5,280.4"/>
		<path fill="#FFFFFF" d="M228.2,208.1c-3.1,1.4-3.9,2.8,0.3,3.5c6.7,1.1,14.4-1.3,23,0c8.6,1.3,42.5,5.5,49.8,7.1
			c6.3,1.3,6.2,4.5,12.1,4.8c6.9,0.4,8.7-3.2,11.4-4.3c0.3-0.1,0.7-0.3,1.1-0.4c3-1.1,7.6-3,4.2-4.1c-3.2-1.1-10.4,1.4-15.4,0.9
			c-11-1.2-53.1-6.9-59.5-7.9c-7.4-1.2-2.4-3.1-10.3-3C240.7,204.8,231.3,206.8,228.2,208.1"/>
		<path fill="#FFFFFF" d="M200.7,258.4l-9.6,3.8c-2.5,1-6,1.3-7.8,0.8l-0.1,0c-1.8-0.5-1.3-1.7,1.2-2.7l9.6-3.7
			c2.5-1,5.9-1.3,7.8-0.8l0.1,0C203.6,256.3,203.1,257.5,200.7,258.4"/>
		<path fill="#FFFFFF" d="M210.6,261l-10.1,4c-2.5,1-6,1.4-7.9,0.8l-0.1,0c-1.9-0.5-1.3-1.7,1.2-2.7l10.1-3.9c2.5-1,5.9-1.3,7.8-0.8
			l0.1,0C213.6,258.8,213.1,260,210.6,261"/>
		<path fill="#FFFFFF" d="M220.5,263.6l-10.1,4c-2.5,1-6,1.4-7.9,0.9l-0.1,0c-1.9-0.5-1.4-1.7,1.1-2.7l10.1-4c2.5-1,6-1.3,7.8-0.8
			l0.1,0C223.4,261.5,223,262.7,220.5,263.6"/>
		<path fill="#FFFFFF" d="M230.8,266.2l-10.7,4.3c-2.5,1-6,1.4-7.9,0.9l-0.1,0c-1.9-0.5-1.4-1.7,1.1-2.7l10.7-4.2
			c2.5-1,6-1.4,7.9-0.8l0.1,0C233.7,264,233.2,265.2,230.8,266.2"/>
		<path fill="#FFFFFF" d="M253.2,270.7l-15.3,6.2c-2.5,1-6.1,1.4-8,0.9l-0.1,0c-1.9-0.5-1.4-1.8,1-2.8l15.3-6.2c2.5-1,6-1.4,7.9-0.9
			l0.1,0C256.1,268.5,255.7,269.7,253.2,270.7"/>
		<path fill="#FFFFFF" d="M242,268.4l-13.1,5.3c-2.5,1-6.1,1.4-8,0.9l-0.1,0c-1.9-0.5-1.4-1.8,1.1-2.7l13.1-5.2c2.5-1,6-1.4,7.9-0.9
			l0.1,0C244.9,266.2,244.5,267.5,242,268.4"/>
		<path fill="#FFFFFF" d="M287.2,285.4c-2.6,1.1-4.5,1.3-11.1,0.6c-25.6-2.8-28.6,3.9-45.5,5.6c-9.4,0.9-19-0.8-15.3-4.8
			c3.6-4,11.8-6.4,18-6.1c5.5,0.3,12.6-2.7,14.8-3.5l3.5-1.4l0.4-0.2l3.5-1.4c2.2-0.9,9.4-3.7,7.4-5.4c-2.2-1.9,3.2-4.9,13.8-6.8
			c10.6-1.8,17.3,0.8,16.7,3.9c-1.1,5.6-19.8,7.9-6.4,15.6c3.5,2,3.3,2.7,0.7,3.8"/>
		<path fill="#FFFFFF" d="M396.6,340.1c-4.4-1.4-7.4-0.3-17.8,4.8c-7,3.5-15.2,7.6-2.6,8.1c36.1,1.6,124.5,33.5,134.7,39.8
			c15.9,9.9,14.3,6.7,22.4,4.4c8-2.3,11.7-3.4,9.7-5.6c-2-2.2-9.9-2.6-23.1-6.3c-39.9-11.2-90-28.8-111.9-36.1
			C399.9,346.6,401.7,341.7,396.6,340.1"/>
		<path fill="#FFFFFF" d="M509.4,398.7c0.1,3-9.7,5.4-11.4,1.4c-2-4.7-96.7-37-111.5-38.9c-12.6-1.6-8.8-4.9-2.1-4.4
			C392.7,357.4,509.2,393.4,509.4,398.7"/>
		<path fill="#FFFFFF" d="M298.7,288.2c7-2.9,22.3-4.9,18.5-13.2c-1.6-3.4-28.4-2.9-24-5.2c4.4-2.3,9.7-7,0.4-9.4
			c-9.2-2.4-19.2,1.4-15.8-2.1c1.6-1.7,33.8-17.8,50.2-10.5c17.2,7.6-8,8.3-6.7,15.7c1.1,6.6,22.7,5,21.4,10.6
			c-1.8,7.5-25.8,11.1-36.9,15.8"/>
		<path fill="#FFFFFF" d="M464.4,308.7c-4.7-1.1-2.7-2.3,7.7-6.9c6.9-3,15.1-6.4,19.8-2.6c13.8,11.2,117.1,32.1,135.1,33.7
			c27.8,2.6,19.9,2.9,17.3,6.2c-2.7,3.3-4.1,4.8-9.9,4.7c-5.8-0.1-9.2-2.6-22.1-6c-38.9-10.3-96.8-22.3-121.2-27.6
			C481.9,308.2,469.9,309.9,464.4,308.7"/>
		<path fill="#FFFFFF" d="M640,331c7-0.7,9.3-4.5-0.3-4c-11.4,0.5-116.1-22.1-124.8-26.3c-7.4-3.6-14.5-1.7-11.5,0.3
			C507.2,303.5,627.8,332.3,640,331"/>
		<path fill="#FFFFFF" d="M96.4,315.4c-0.8-2.7,4.2-4.2,6.6-3.5c1.2,0.4,8.1,6.7,18.8,11.9c10.8,5.3,25.5,9.4,25.7,10.6
			c0.4,2.3-5.5,2.2-9.3,0.9C134.5,333.9,97.4,318.6,96.4,315.4"/>
		<path fill="#FFFFFF" d="M93.2,317.2c-1.8-1.7-8.3-0.7-8.3,0.3c-0.1,1-3.2-0.1-5.4,1.5c-2.2,1.6,49.4,25.2,73.6,24.4
			c3.9-0.5,9.4-3.5-0.2-3.2C140,340.5,106.4,329.9,93.2,317.2"/>
		<path fill="#FFFFFF" d="M152.1,244.3c14-3,34.2-8.3,47-16c1.8-1.1,3.5-3.2,3.6-4.1c0.2-2.1-8.6-1.1-9.9,1.1
			c-0.5,0.8-0.9,2.1-2.1,3c-8.4,5.9-30.3,11.9-38.8,13.2C149.7,241.7,148.7,245,152.1,244.3"/>
		<path fill="#FFFFFF" d="M152.6,235.9c0,0,13.1-0.3,18.2-6.1c2.5-2.8-3.2-3.7,4-5.1c4.4-0.8,10-0.8,5.3,4.4
			c-5.8,6.5-20.2,8.8-26.2,9.8C147.9,240,152.6,235.9,152.6,235.9"/>
		<path fill="#FFFFFF" d="M179.3,254.6c0,0,88.9,0.9,102.8-9.1c13.6-9.8,9.8-11.4,3.1-10.6c-6.7,0.7-2.6,6-13.9,10.8
			c-12.6,5.3-97.2,5.7-97.2,5.7l1,2.7L179.3,254.6z"/>
		<path fill="#FFFFFF" d="M152.1,245.2c1.4,1.4,52.9-11.1,60.1-20.2c3.5-4.5,12.4-4.2,8.8,0.2c-3.3,3.9-9.4,7.1-30.2,13.6
			c-20.7,6.5-27.9,7.5-34.7,8.5C149.3,248.5,152.1,245.2,152.1,245.2"/>
		<path fill="#FFFFFF" d="M171.4,251.3c0,0,58.3,1.8,80.5-11.2c8.1-4.7,7.2-10.1,14.7-10.3c6.4-0.2,3.9,3.3-0.5,8.1
			c-5.4,5.8-26.3,11.6-38.7,13.5c-11.6,1.7-10.3,1.1-10.3,1.1l-43.6,0.7L171.4,251.3z"/>
		<path fill="#FFFFFF" d="M160.8,248.8c0,0,65-13.8,66.9-21c1.6-6.2,12.1-5,11.6-2.3c-0.5,2.7-1.5,6.9-46.6,19.1
			c-20.9,5.7-28.2,6.7-32.2,5.4C156.3,248.8,160.8,248.8,160.8,248.8"/>
		<path fill="#FFFFFF" d="M173.7,250.5c0,0,23.9-3.3,45.3-8.9c17.3-4.5,24.5-9.3,27-14c1.7-3.2,11.1-2.6,9.3,0.5
			c-3.4,5.7-16.4,12.3-33.6,16.4c-12.4,3-33.5,7.5-39.6,8.2c-6.1,0.7-6.6,1.3-11.1,0.1C166.5,251.8,173.7,250.5,173.7,250.5"/>
		<path fill="#FFFFFF" d="M140,248.8c-7.2,5-20.7,12.5-44.1,18.3c-3.4,0.8-9.9,1.8-13,2c-6.8,0.5-4.8-2.7,2.3-3.6
			c2.5-0.3,6.9-0.7,9.4-1.3c17.9-3.9,33.7-12.1,36.3-15C131.7,248.4,141.8,247.6,140,248.8"/>
		<path fill="#FFFFFF" d="M113.9,250.3c0,0,1.2,4.3-16.9,7c-8.8,1.3-12.7-0.4-16.1,2.3c-2.1,1.6-1.2,3.5,15.3,1
			c20-3.1,25.3-8.2,27.6-10.3C126,248.2,113.9,250.3,113.9,250.3"/>
		<path fill="#FFFFFF" d="M176.5,255.7c0,0,18.7,29.1-10.5,36.1c-29.6,7.1-35.7,6.2-34.3,3.6c1.3-2.5,19.4-2.4,32.7-7.4
			c14.7-5.5,1.2-33.4,1.2-33.4l8.3-0.1L176.5,255.7z"/>
		<path fill="#FFFFFF" d="M143.1,248.6c4.6,0.2-26.9,19.3-55.5,23.5c-14.5,2.1-12.2,5.2,1.9,3c12.5-1.9,22-4.6,39.8-12.9
			c17.2-7.9,19-10.4,21.2-12.7C152.7,247.2,143.1,248.6,143.1,248.6"/>
		<path fill="#FFFFFF" d="M164.9,253.8c0,0,15.5,18.6-21.6,28.8c-14,3.9-31.9,4.7-31.4,7.4c0.5,2.3,11.6,0.6,26.6-2
			c17.8-3.1,32.8-11.5,36.4-16c3.3-4.2,1.8-3.6,1.8-3.6l-5.5-14.2L164.9,253.8z"/>
		<path fill="#FFFFFF" d="M155.5,250.8c0,0-33.1,23.9-56.5,26.1c-20.4,1.9-14.9,5.3-5.9,4.5c9-0.8,22.7-2,54.6-19.6
			c14.1-7.8,16-10.2,11.6-11.3C154.9,249.4,155.5,250.8,155.5,250.8"/>
		<path fill="#FFFFFF" d="M163,254.6c0,0-6.2,8.3-20.2,16.5c-11.7,6.8-26.3,10.3-41.5,12.2c-10.4,1.3-7.1,4.5,3.2,3.1
			c18.5-2.5,37.7-8.4,48-15c7.3-4.7,17.8-12.4,18.9-14.5c1-2.1,2.8-2.3-1.5-3.6C165.7,252.1,163,254.6,163,254.6"/>
		<path fill="#FFFFFF" d="M158.1,235.5c-9.4,1.1-7.3-0.8-18.1,1.8c-5.7,1.3-9.2,2.5-13.3,3.9c-3.9,1.5-7,2.8-10.3,4.8
			c-6.4,3.9-0.8,2.9-2.9,6.1c-2.1,3.2,24.4-1.4,31.2-0.8c5,0.4,16.1,5.2,28.9,5c2.1,0,8.8,2.5,11.9,1.3c3.1-1.2-4.6-3.3-4.8-4
			c-1.6-4.1-18-6.8-20-8.3C157.9,243.3,167.5,234.4,158.1,235.5"/>
		<path fill="#FFFFFF" d="M337.2,220.3c-4.8-0.3-3.4-2.2-0.8-2.3c2.6-0.1-0.9-0.9,2.7-1.7c3.5-0.8,73.2,10.5,76.7,17.2
			c-0.4,1.1-6.4,3.1-8,0.4C405.7,230.4,372.1,222.5,337.2,220.3"/>
		<path fill="#FFFFFF" d="M88.2,252.2c-14.9,4-59.5,18.4-73.2,28.9c-11.8,9,8.4,3.4,10.2,0.1c5.5-9.8,43.1-21.2,64.6-25.8
			C99.1,253.4,92.5,251.1,88.2,252.2"/>
		<path fill="#FFFFFF" d="M153.2,228.2c9.5-5,43.6-19.5,70.5-24.4c22.4-4.1,10.8,2,2,2.8c-26.3,2.5-52.6,14.6-62.9,21.6
			C158.3,231.4,150.4,229.7,153.2,228.2"/>
		<path fill="#FFFFFF" d="M120.1,239.5c-3.1,1.1-6.4,2.2-9.9,3.2l0.1,0l1.7,0.5c1.5,0.4,4.5,0.1,6.6-0.7l10.1-3.7
			c2.1-0.8,2.6-1.8,1.1-2.2l-1.7-0.4l0,0C125.7,237.2,123,238.4,120.1,239.5"/>
	</g>
</g>
<g id="Layer_1">
	<circle fill="#FFFFFF" stroke="#DBDCDE" stroke-miterlimit="10" cx="59.1" cy="142.7" r="4.7"/>
	
		<line fill="none" stroke="#E5D405" stroke-width="2" stroke-linejoin="round" stroke-miterlimit="10" x1="171.4" y1="175.4" x2="171.4" y2="132.4"/>
	<polyline fill="none" stroke="#000000" stroke-width="2" stroke-linejoin="round" stroke-miterlimit="10" points="430.4,282.4 
		430.4,363.7 176.4,276.7 176.4,131.4 	"/>
	<polyline fill="none" stroke="#D31818" stroke-width="2" stroke-linejoin="round" stroke-miterlimit="10" points="346.4,312.4 
		346.4,336.4 170.4,276.7 170.4,173.4 	"/>
	<path fill="#FFFFFF" d="M334.6,214.1c-7.1,0.1-9.9,1.7-7.6,2.3c1.2,0.3,18.9,1.4,34.4,3.8c15.7,2.3,29.3,5.9,32.2,5.8
		c5.7-0.2,4.1-1.8,0.1-2.7C389.6,222.3,343.1,214,334.6,214.1"/>
	<g opacity="0.5">
		<path fill="#EF4E23" d="M331.9,114.4c-13-1.4-19.2,1.6-24.1,1.1c-3.8,0-11.9-2.9-22.9,2.6c-11.6,5.6,3.4,5.2,5.8,5.9
			c4.8,0.6-1.4,3.8,11.8,5.3c13.2,1.5,31.4-1.1,36.6-0.4c2.3,0.3,1.6,0.5,5.1,0.9c5.1,0.4,10.8,0.3,13.9-0.8c1.7-0.6,3.4-1.3,5-2.1
			c1.4-0.8,2.5-1.5,3.4-2.3c1.5-1.3-1.9-2.4-6.3-3.1c-3.3-0.4-3.6-0.1-6-0.4C348.3,120.8,345,115.9,331.9,114.4"/>
		<path opacity="0.51" fill="#9E2E1B" d="M301.3,120c0,0,2.4,0.4,6.2,0.9c0.9,0.1,2,0.3,3,0.4c1.1,0.1,2.2,0.3,3.4,0.4
			c1.2,0.1,2.4,0.3,3.7,0.4c1.3,0.1,2.6,0.3,3.9,0.4c1.3,0.1,2.6,0.3,3.9,0.4c1.3,0.1,2.6,0.3,3.8,0.4c2.5,0.3,4.8,0.5,6.8,0.7
			c4,0.4,6.8,0.6,6.8,0.6s-2.5-0.4-6.3-0.9c-1.9-0.3-4.1-0.5-6.5-0.8c-1.2-0.1-2.4-0.3-3.7-0.4c-1.3-0.1-2.6-0.3-3.9-0.4
			c-1.3-0.1-2.6-0.3-3.9-0.4c-1.3-0.1-2.6-0.3-3.8-0.4c-1.2-0.1-2.4-0.2-3.6-0.4c-1.1-0.1-2.2-0.2-3.2-0.3
			C304,120.2,301.3,120,301.3,120"/>
		<path opacity="0.51" fill="#9E2E1B" d="M307,116.8c0,0,0.2,0,0.6,0c0.4,0,0.9,0,1.6,0c0.7,0,1.5,0,2.4,0c0.9,0,1.9,0.1,3,0.1
			c1.1,0,2.2,0.1,3.4,0.2c0.6,0,1.2,0.1,1.8,0.1c0.6,0.1,1.2,0.1,1.9,0.2c0.6,0.1,1.3,0.1,1.9,0.2c0.6,0.1,1.3,0.1,1.9,0.2l0.5,0.1
			l0.5,0.1c0.3,0,0.6,0.1,1,0.1c0.7,0.1,1.3,0.2,1.9,0.2c0.6,0.1,1.3,0.2,1.9,0.3c0.6,0.1,1.2,0.2,1.8,0.3c1.2,0.2,2.4,0.4,3.5,0.6
			c1.1,0.2,2.2,0.4,3.2,0.6c1,0.2,1.9,0.4,2.8,0.5c3.5,0.7,5.7,1.2,5.7,1.2s-0.5-0.2-1.3-0.4c-0.9-0.3-2.1-0.6-3.7-1
			c-0.8-0.2-1.7-0.4-2.6-0.6c-0.5-0.1-1-0.2-1.5-0.3c-0.5-0.1-1-0.2-1.6-0.3c-1.1-0.2-2.2-0.4-3.4-0.6c-0.6-0.1-1.2-0.2-1.8-0.3
			c-0.6-0.1-1.2-0.2-1.9-0.3c-0.6-0.1-1.3-0.2-1.9-0.2c-0.3,0-0.6-0.1-1-0.1l-0.5-0.1l-0.5-0.1c-1.3-0.1-2.6-0.2-3.9-0.4
			c-0.7,0-1.3-0.1-1.9-0.1c-0.7,0-1.3-0.1-1.9-0.1c-0.6,0-1.2-0.1-1.8-0.1c-0.6,0-1.2,0-1.8,0c-1.1,0-2.2,0-3.2,0
			c-1,0-1.8,0-2.5,0.1C307.9,116.8,307,116.8,307,116.8"/>
		<path opacity="0.51" fill="#9E2E1B" d="M319.3,115.5c0,0,0.4,0,1,0c0.7,0,1.6,0,2.7,0.1c0.5,0,1.1,0.1,1.7,0.1
			c0.6,0,1.2,0.1,1.9,0.1c0.6,0.1,1.3,0.1,2,0.2c0.7,0.1,1.3,0.1,2,0.2c0.3,0,0.6,0.1,1,0.1c0.3,0,0.6,0.1,0.9,0.1
			c0.3,0,0.6,0.1,0.9,0.1c0.3,0,0.6,0.1,0.9,0.1c0.6,0.1,1.1,0.2,1.6,0.3c0.2,0,0.5,0.1,0.7,0.1c0.2,0.1,0.4,0.1,0.6,0.1
			c0.4,0.1,0.8,0.2,1.1,0.3c0.3,0.1,0.6,0.2,0.8,0.2c0.5,0.1,0.7,0.2,0.7,0.2s-0.2-0.1-0.5-0.2c-0.2-0.1-0.4-0.2-0.6-0.3
			c-0.3-0.1-0.6-0.2-0.9-0.3c-0.2-0.1-0.4-0.1-0.6-0.2c-0.2-0.1-0.4-0.1-0.7-0.2c-0.5-0.1-0.9-0.2-1.5-0.3c-0.5-0.1-1.1-0.2-1.7-0.3
			c-0.3,0-0.6-0.1-0.9-0.1c-0.3,0-0.7-0.1-1-0.1c-0.7-0.1-1.4-0.1-2-0.2c-0.3,0-0.7-0.1-1-0.1c-0.3,0-0.7,0-1-0.1
			c-0.7,0-1.4-0.1-2-0.1c-0.6,0-1.3,0-1.9,0c-0.6,0-1.1,0-1.6,0c-0.5,0-0.9,0-1.3,0C319.7,115.5,319.3,115.5,319.3,115.5"/>
		<path opacity="0.51" fill="#9E2E1B" d="M297.9,126.3c0,0,0.2,0.1,0.5,0.2c0.2,0.1,0.4,0.2,0.7,0.3c0.3,0.1,0.6,0.2,1,0.3
			c0.4,0.1,0.8,0.2,1.3,0.3c0.5,0.1,1,0.2,1.5,0.3c0.3,0.1,0.6,0.1,0.9,0.2c0.3,0.1,0.6,0.1,0.9,0.1c0.6,0.1,1.3,0.2,2,0.3
			c0.3,0,0.7,0.1,1,0.1c0.4,0,0.7,0.1,1.1,0.1c0.7,0.1,1.4,0.1,2.1,0.1c0.7,0,1.4,0,2.1,0.1c0.3,0,0.7,0,1,0c0.3,0,0.6,0,0.9,0
			c0.6,0,1.2,0,1.7,0c0.5,0,1,0,1.3-0.1c0.7,0,1.2-0.1,1.2-0.1s-0.4,0-1.1,0c-0.3,0-0.8,0-1.2,0c-0.5,0-1,0-1.5,0
			c-0.3,0-0.6,0-0.9,0c-0.3,0-0.6,0-0.9,0c-0.6,0-1.3-0.1-1.9-0.1c-0.3,0-0.7,0-1-0.1c-0.3,0-0.7-0.1-1-0.1c-0.3,0-0.7-0.1-1-0.1
			c-0.3,0-0.7-0.1-1-0.1c-0.7-0.1-1.3-0.2-1.9-0.2c-0.6-0.1-1.2-0.2-1.8-0.3c-0.6-0.1-1.1-0.2-1.6-0.3c-0.5-0.1-1-0.2-1.4-0.3
			c-0.9-0.2-1.5-0.3-2-0.4C298.2,126.3,297.9,126.3,297.9,126.3"/>
		<path opacity="0.51" fill="#9E2E1B" d="M294.5,123.1c0,0,0.3,0.2,1,0.5c0.4,0.1,0.8,0.3,1.4,0.5c0.6,0.2,1.3,0.4,2,0.6
			c0.4,0.1,0.8,0.2,1.3,0.3c0.4,0.1,0.9,0.2,1.4,0.3c0.5,0.1,1,0.2,1.6,0.3c0.5,0.1,1.1,0.2,1.7,0.3c1.2,0.2,2.4,0.4,3.7,0.5
			l0.5,0.1l0.5,0.1c0.3,0,0.7,0.1,1,0.1c0.7,0.1,1.3,0.1,2,0.2c0.7,0.1,1.4,0.1,2.1,0.2c0.7,0.1,1.4,0.1,2.1,0.2
			c1.4,0.1,2.8,0.2,4.2,0.2c0.7,0,1.4,0.1,2,0.1c0.7,0,1.3,0,2,0.1c1.3,0,2.5,0.1,3.7,0.1c2.3,0,4.3,0,5.7,0c1.4,0,2.2,0,2.2,0
			s-3-0.1-7.4-0.3c-1.1-0.1-2.3-0.1-3.5-0.2c-1.2-0.1-2.5-0.1-3.9-0.2c-1.3-0.1-2.7-0.2-4.1-0.3c-0.7,0-1.4-0.1-2.1-0.2
			c-0.7-0.1-1.4-0.1-2-0.2c-0.7-0.1-1.4-0.1-2-0.2c-0.3,0-0.7-0.1-1-0.1l-0.5-0.1l-0.5-0.1c-0.6-0.1-1.3-0.1-1.9-0.2
			c-0.6-0.1-1.2-0.2-1.8-0.2c-0.6-0.1-1.2-0.2-1.7-0.2c-0.5-0.1-1.1-0.2-1.6-0.2c-1-0.2-2-0.3-2.8-0.5c-0.8-0.2-1.6-0.3-2.2-0.5
			c-0.6-0.2-1.2-0.3-1.6-0.4c-0.4-0.1-0.7-0.2-0.9-0.3C294.6,123.1,294.5,123.1,294.5,123.1"/>
		<path opacity="0.51" fill="#9E2E1B" d="M308.9,118.6c0,0,0.5,0,1.5,0.1c0.9,0.1,2.3,0.2,3.8,0.3c0.8,0.1,1.6,0.1,2.5,0.2
			c0.9,0.1,1.8,0.2,2.8,0.3c1,0.1,1.9,0.2,2.9,0.3c1,0.1,2,0.2,3,0.4c1,0.1,2,0.2,2.9,0.4c1,0.1,1.9,0.3,2.8,0.4
			c1.8,0.2,3.5,0.5,5,0.7c1.5,0.2,2.7,0.4,3.6,0.5c0.9,0.1,1.4,0.2,1.4,0.2s-0.4-0.1-1.2-0.2c-0.8-0.1-1.9-0.4-3.3-0.6
			c-1.4-0.2-3-0.5-4.8-0.8c-0.9-0.1-1.8-0.3-2.8-0.4c-1-0.1-1.9-0.3-2.9-0.4c-1-0.1-2-0.2-3-0.3c-1-0.1-2-0.2-3-0.3
			c-1-0.1-2-0.2-2.9-0.2c-0.9-0.1-1.8-0.1-2.7-0.2c-1.7-0.1-3.1-0.1-4.1-0.1C309.5,118.6,308.9,118.6,308.9,118.6"/>
		<path opacity="0.51" fill="#9E2E1B" d="M301.6,122.3c0,0,0.4,0.1,1.1,0.3c0.7,0.2,1.8,0.4,3.1,0.7c0.7,0.1,1.4,0.3,2.2,0.4
			c0.8,0.1,1.6,0.3,2.6,0.4c0.9,0.1,1.9,0.3,2.8,0.4c1,0.1,2,0.2,3,0.3c1,0.1,2.1,0.2,3.1,0.3c1,0.1,2.1,0.2,3.1,0.3
			c2,0.2,3.9,0.3,5.6,0.4c1.7,0.1,3.1,0.2,4.1,0.2c1,0,1.6,0.1,1.6,0.1s-0.5-0.1-1.4-0.1c-0.9-0.1-2.2-0.2-3.8-0.4
			c-1.6-0.1-3.4-0.3-5.4-0.5c-1-0.1-2-0.2-3-0.3c-1-0.1-2.1-0.2-3.1-0.3c-1-0.1-2.1-0.2-3-0.3c-1-0.1-2-0.2-2.9-0.3
			c-0.9-0.1-1.8-0.2-2.6-0.3c-0.8-0.1-1.6-0.2-2.3-0.3c-1.4-0.2-2.6-0.4-3.4-0.5C302,122.4,301.6,122.3,301.6,122.3"/>
	</g>
	<g opacity="0.5">
		<path fill="#EF4E23" d="M482.7,161.6c-10.4-3.8-32.8-4.8-36.7-6.2c-3.4-0.6-7.7-5.5-23,0c-15.8,5.4-2.2,7.1-0.8,8.4
			c3.7,1.5,8.8,8.8,19.1,12.7c10.4,4,57.1,11.6,61.3,13.3c1.8,0.8,1,1,3.8,2c4.4,1.3,9.8,2,13.8,1c2.2-0.6,4.5-1.3,6.7-2
			c2-0.8,3.8-1.7,5.3-2.5c2.6-1.5,0.5-3.5-3-5.1c-2.7-1-3.2-0.7-5.3-1.4C519.1,180.4,493.2,165.5,482.7,161.6"/>
		<path opacity="0.51" fill="#9E2E1B" d="M433.3,158.9c0,0,0.3,0.1,0.8,0.3c0.6,0.2,1.4,0.5,2.4,0.9c2.1,0.7,5,1.8,8.7,3.1
			c1.8,0.6,3.8,1.3,5.9,2.1c2.1,0.7,4.3,1.5,6.6,2.3c2.3,0.8,4.7,1.6,7.2,2.5c2.5,0.8,5,1.7,7.5,2.5c2.5,0.9,5.1,1.7,7.5,2.5
			c2.5,0.8,5,1.7,7.4,2.5c4.8,1.6,9.4,3.1,13.3,4.4c3.9,1.3,7.3,2.3,9.6,3.1c1.2,0.4,2.1,0.7,2.7,0.9c0.6,0.2,1,0.3,1,0.3
			s-0.3-0.1-0.9-0.3c-0.6-0.2-1.5-0.5-2.5-0.9c-2.2-0.8-5.3-1.9-9.1-3.3c-3.8-1.3-8.2-2.9-12.9-4.5c-2.4-0.8-4.8-1.7-7.3-2.5
			c-2.5-0.8-5-1.7-7.5-2.6c-2.5-0.8-5-1.7-7.5-2.5c-2.5-0.8-4.9-1.6-7.3-2.4c-2.4-0.8-4.6-1.5-6.8-2.2c-2.2-0.7-4.2-1.4-6.1-2
			c-3.8-1.2-6.9-2.2-9.1-2.9c-1.1-0.3-2-0.6-2.6-0.8C433.6,159,433.3,158.9,433.3,158.9"/>
		<path opacity="0.51" fill="#9E2E1B" d="M425.2,161.5c0,0,0.2,0.1,0.7,0.4c0.4,0.2,1.1,0.6,2,1c0.9,0.4,1.9,1,3.1,1.5
			c1.2,0.6,2.7,1.3,4.3,2c1.6,0.7,3.4,1.5,5.3,2.3c1,0.4,2,0.8,3,1.2c0.5,0.2,1.1,0.4,1.6,0.6c0.6,0.2,1.1,0.4,1.7,0.6
			c2.3,0.8,4.8,1.7,7.4,2.4c2.6,0.8,5.3,1.6,8,2.4c5.4,1.6,10.8,3.2,15.9,4.7c2.6,0.8,5.1,1.5,7.4,2.2c2.4,0.7,4.6,1.3,6.7,1.9
			c4.2,1.2,7.7,2.2,10.1,2.9c2.5,0.7,3.9,1.1,3.9,1.1s-1.3-0.4-3.7-1.2c-2.4-0.7-5.7-1.8-9.8-3.1c-4-1.3-8.7-2.7-13.8-4.3
			c-5-1.5-10.3-3.2-15.7-4.8c-2.6-0.8-5.3-1.6-7.9-2.4c-0.6-0.2-1.3-0.4-1.9-0.6c-0.6-0.2-1.2-0.4-1.8-0.6c-0.6-0.2-1.2-0.4-1.8-0.6
			c-0.6-0.2-1.2-0.4-1.7-0.6c-2.3-0.8-4.3-1.6-6.4-2.4c-2-0.8-3.8-1.5-5.5-2.2c-3.3-1.4-6.1-2.5-8-3.3
			C426.3,161.9,425.2,161.5,425.2,161.5"/>
		<path opacity="0.51" fill="#9E2E1B" d="M440.1,156c0,0,0.3,0.1,0.9,0.3c0.6,0.2,1.5,0.4,2.7,0.8c1.2,0.3,2.6,0.7,4.2,1.2
			c1.6,0.5,3.4,1,5.4,1.5c2,0.6,4.2,1.2,6.5,1.8c2.3,0.7,4.7,1.3,7.2,2.1c1.2,0.4,2.5,0.7,3.8,1.1c0.6,0.2,1.3,0.4,1.9,0.6
			c0.6,0.2,1.2,0.4,1.9,0.6c2.4,0.8,4.9,1.7,7.3,2.6c2.4,0.9,4.8,1.8,7.1,2.7c2.4,0.9,4.7,1.8,6.9,2.6c4.5,1.7,8.6,3.3,12.2,4.7
			c7.2,2.8,12,4.7,12,4.7s-1.1-0.5-3.1-1.4c-2-0.8-4.9-2.1-8.3-3.5c-1.7-0.7-3.6-1.5-5.6-2.3c-2-0.8-4.1-1.7-6.3-2.5
			c-2.2-0.9-4.4-1.8-6.7-2.7c-2.3-0.9-4.7-1.8-7.1-2.7c-2.4-0.9-4.8-1.8-7.3-2.6c-0.6-0.2-1.2-0.4-1.9-0.6c-0.6-0.2-1.3-0.4-1.9-0.6
			c-1.3-0.4-2.5-0.8-3.8-1.1c-2.5-0.7-5-1.4-7.3-2c-2.3-0.6-4.6-1.2-6.7-1.8c-2.1-0.5-4-1-5.7-1.4c-1.7-0.4-3.2-0.8-4.4-1.1
			c-1.2-0.3-2.2-0.5-2.9-0.7C440.5,156.1,440.1,156,440.1,156"/>
		<path opacity="0.51" fill="#9E2E1B" d="M432.4,161.6c0,0,0.9,0.4,2.7,1.1c0.9,0.4,1.9,0.8,3.1,1.3c1.2,0.5,2.6,1.1,4.1,1.7
			c1.5,0.6,3.2,1.3,5,1.9c1.8,0.7,3.7,1.4,5.8,2.1c1,0.4,2.1,0.7,3.2,1.1c1.1,0.4,2.3,0.7,3.4,1.1c2.3,0.7,4.6,1.5,6.9,2.2
			c9.2,3,18.5,6,25.6,8.3c7.1,2.3,11.8,3.8,11.8,3.8s-1.1-0.4-3.2-1.1c-2-0.7-4.9-1.7-8.3-2.9c-3.4-1.2-7.4-2.5-11.7-4
			c-4.3-1.4-8.8-3-13.4-4.5c-2.3-0.8-4.6-1.5-6.8-2.2c-1.1-0.4-2.3-0.7-3.4-1.1c-1.1-0.4-2.1-0.7-3.2-1.1c-2.1-0.7-4-1.4-5.9-2.1
			c-1.8-0.7-3.5-1.3-5.2-1.9c-1.6-0.6-3.1-1.1-4.4-1.6c-1.3-0.5-2.4-0.9-3.4-1.2C433.5,162,432.4,161.6,432.4,161.6"/>
		<path opacity="0.51" fill="#9E2E1B" d="M441.2,158.4c0,0,1.1,0.4,3,1c1,0.3,2.1,0.7,3.5,1.2c1.4,0.4,2.9,0.9,4.6,1.5
			c1.7,0.6,3.6,1.1,5.5,1.7c2,0.6,4.1,1.3,6.2,1.9c2.2,0.7,4.5,1.3,6.7,2.1c2.2,0.7,4.4,1.5,6.6,2.3c2.2,0.8,4.4,1.6,6.6,2.3
			c2.2,0.8,4.3,1.5,6.4,2.3c4.1,1.5,8,2.9,11.3,4.1c6.7,2.4,11.2,4,11.2,4s-1.1-0.4-3-1.1c-1.9-0.7-4.6-1.8-7.8-3
			c-3.2-1.2-7-2.7-11.1-4.2c-4.1-1.5-8.3-3.1-12.7-4.7c-2.2-0.8-4.4-1.6-6.6-2.3c-2.2-0.7-4.5-1.4-6.6-2.1c-2.2-0.7-4.3-1.3-6.3-1.9
			c-2-0.6-3.9-1.2-5.6-1.7c-1.8-0.5-3.4-1-4.8-1.4c-1.4-0.4-2.7-0.8-3.7-1.1C442.4,158.7,441.2,158.4,441.2,158.4"/>
		<path opacity="0.51" fill="#9E2E1B" d="M433.6,167.7c0,0,0.1,0.1,0.3,0.2c0.2,0.1,0.5,0.3,0.9,0.6c0.4,0.3,0.9,0.6,1.5,0.9
			c0.6,0.3,1.3,0.7,2.1,1.1c0.8,0.4,1.7,0.8,2.8,1.3c0.5,0.2,1.1,0.4,1.6,0.7c0.6,0.2,1.2,0.5,1.8,0.7c1.2,0.4,2.6,0.9,4,1.3
			c1.4,0.4,2.9,0.9,4.4,1.3c1.5,0.4,3,0.8,4.5,1.2c1.5,0.4,3,0.8,4.4,1.2c2.9,0.8,5.6,1.4,8,2c2.4,0.6,4.4,1.1,5.8,1.4
			c1.4,0.3,2.2,0.5,2.2,0.5s-0.8-0.2-2.1-0.6c-1.3-0.4-3.2-0.9-5.5-1.5c-2.3-0.6-4.9-1.4-7.8-2.1c-1.4-0.4-2.9-0.8-4.3-1.2
			c-1.5-0.4-3-0.8-4.4-1.2c-1.5-0.4-2.9-0.8-4.4-1.3c-1.4-0.4-2.8-0.9-4-1.3c-0.6-0.2-1.2-0.4-1.8-0.7c-0.6-0.2-1.1-0.4-1.7-0.6
			c-0.5-0.2-1-0.4-1.5-0.6c-0.5-0.2-1-0.4-1.4-0.6c-1.7-0.8-3.1-1.4-4-1.9C434.1,168,433.6,167.7,433.6,167.7"/>
		<path opacity="0.51" fill="#9E2E1B" d="M460.1,158.9c0,0,0.8,0.2,2.2,0.5c1.4,0.3,3.3,0.8,5.5,1.4c0.6,0.1,1.1,0.3,1.7,0.5
			c0.6,0.2,1.2,0.3,1.8,0.5c0.6,0.2,1.2,0.4,1.9,0.6c0.6,0.2,1.3,0.4,1.9,0.6c1.3,0.4,2.5,0.9,3.7,1.4c1.2,0.5,2.5,1,3.7,1.5
			c1.2,0.5,2.4,1,3.6,1.5c1.2,0.5,2.4,1,3.5,1.5c2.3,1,4.4,1.9,6.2,2.6c1.8,0.8,3.4,1.4,4.4,1.9c1.1,0.4,1.7,0.7,1.7,0.7
			s-0.5-0.3-1.5-0.8c-1-0.5-2.4-1.2-4.1-2c-1.7-0.8-3.7-1.7-5.9-2.7c-1.1-0.5-2.2-1-3.4-1.5c-1.2-0.5-2.4-1-3.6-1.5
			c-1.2-0.5-2.5-1-3.7-1.5c-1.2-0.5-2.6-0.9-3.8-1.3c-0.7-0.2-1.3-0.4-2-0.6c-0.7-0.2-1.3-0.4-1.9-0.5c-1.3-0.3-2.5-0.7-3.7-0.9
			c-1.2-0.3-2.3-0.5-3.3-0.7c-1-0.2-1.9-0.4-2.6-0.5c-0.7-0.1-1.3-0.2-1.7-0.3C460.3,159,460.1,158.9,460.1,158.9"/>
	</g>
	<g>
		<ellipse fill="#A7A9AB" cx="433.1" cy="277.6" rx="7.9" ry="3.4"/>
		<ellipse fill="#A7A9AB" cx="433.1" cy="277.6" rx="7.9" ry="3.4"/>
		<ellipse fill="#A7A9AB" cx="433.1" cy="277.6" rx="7.9" ry="3.4"/>
		<ellipse fill="#A7A9AB" cx="433.1" cy="277.6" rx="7.9" ry="3.4"/>
		<ellipse fill="#A7A9AB" cx="433.1" cy="277.6" rx="7.9" ry="3.4"/>
		<ellipse fill="#A7A9AB" cx="433.1" cy="278.3" rx="7.9" ry="3.4"/>
		<ellipse fill="#A7A9AB" cx="433.1" cy="279.1" rx="7.9" ry="3.4"/>
		<ellipse fill="#A7A9AB" cx="433.1" cy="279.8" rx="7.9" ry="3.4"/>
		<ellipse fill="#A7A9AB" cx="433.1" cy="280.6" rx="7.9" ry="3.4"/>
		<ellipse fill="#A7A9AB" cx="433.1" cy="281.3" rx="7.9" ry="3.4"/>
		<ellipse fill="#D3D3D3" cx="433.1" cy="276.8" rx="7.9" ry="3.4"/>
	</g>
	<g opacity="0.5">
		<ellipse fill="#A7A9AB" cx="509.1" cy="218.6" rx="7.9" ry="3.4"/>
		<ellipse fill="#A7A9AB" cx="509.1" cy="218.6" rx="7.9" ry="3.4"/>
		<ellipse fill="#A7A9AB" cx="509.1" cy="218.6" rx="7.9" ry="3.4"/>
		<ellipse fill="#A7A9AB" cx="509.1" cy="218.6" rx="7.9" ry="3.4"/>
		<ellipse fill="#A7A9AB" cx="509.1" cy="218.6" rx="7.9" ry="3.4"/>
		<ellipse fill="#A7A9AB" cx="509.1" cy="219.3" rx="7.9" ry="3.4"/>
		<ellipse fill="#A7A9AB" cx="509.1" cy="220.1" rx="7.9" ry="3.4"/>
		<ellipse fill="#A7A9AB" cx="509.1" cy="220.8" rx="7.9" ry="3.4"/>
		<ellipse fill="#A7A9AB" cx="509.1" cy="221.6" rx="7.9" ry="3.4"/>
		<ellipse fill="#A7A9AB" cx="509.1" cy="222.3" rx="7.9" ry="3.4"/>
		<ellipse fill="#D3D3D3" cx="509.1" cy="217.8" rx="7.9" ry="3.4"/>
	</g>
	<g opacity="0.5">
		<ellipse fill="#A7A9AB" cx="47.1" cy="216.6" rx="7.9" ry="3.4"/>
		<ellipse fill="#A7A9AB" cx="47.1" cy="216.6" rx="7.9" ry="3.4"/>
		<ellipse fill="#A7A9AB" cx="47.1" cy="216.6" rx="7.9" ry="3.4"/>
		<ellipse fill="#A7A9AB" cx="47.1" cy="216.6" rx="7.9" ry="3.4"/>
		<ellipse fill="#A7A9AB" cx="47.1" cy="216.6" rx="7.9" ry="3.4"/>
		<ellipse fill="#A7A9AB" cx="47.1" cy="217.3" rx="7.9" ry="3.4"/>
		<ellipse fill="#A7A9AB" cx="47.1" cy="218.1" rx="7.9" ry="3.4"/>
		<ellipse fill="#A7A9AB" cx="47.1" cy="218.8" rx="7.9" ry="3.4"/>
		<ellipse fill="#A7A9AB" cx="47.1" cy="219.6" rx="7.9" ry="3.4"/>
		<ellipse fill="#A7A9AB" cx="47.1" cy="220.3" rx="7.9" ry="3.4"/>
		<ellipse fill="#D3D3D3" cx="47.1" cy="215.8" rx="7.9" ry="3.4"/>
	</g>
	<g opacity="0.5">
		<ellipse fill="#A7A9AB" cx="78.1" cy="228.6" rx="7.9" ry="3.4"/>
		<ellipse fill="#A7A9AB" cx="78.1" cy="228.6" rx="7.9" ry="3.4"/>
		<ellipse fill="#A7A9AB" cx="78.1" cy="228.6" rx="7.9" ry="3.4"/>
		<ellipse fill="#A7A9AB" cx="78.1" cy="228.6" rx="7.9" ry="3.4"/>
		<ellipse fill="#A7A9AB" cx="78.1" cy="228.6" rx="7.9" ry="3.4"/>
		<ellipse fill="#A7A9AB" cx="78.1" cy="229.3" rx="7.9" ry="3.4"/>
		<ellipse fill="#A7A9AB" cx="78.1" cy="230.1" rx="7.9" ry="3.4"/>
		<ellipse fill="#A7A9AB" cx="78.1" cy="230.8" rx="7.9" ry="3.4"/>
		<ellipse fill="#A7A9AB" cx="78.1" cy="231.6" rx="7.9" ry="3.4"/>
		<ellipse fill="#A7A9AB" cx="78.1" cy="232.3" rx="7.9" ry="3.4"/>
		<ellipse fill="#D3D3D3" cx="78.1" cy="227.8" rx="7.9" ry="3.4"/>
	</g>
	<g opacity="0.5">
		<ellipse fill="#A7A9AB" cx="47.1" cy="201.6" rx="7.9" ry="3.4"/>
		<ellipse fill="#A7A9AB" cx="47.1" cy="201.6" rx="7.9" ry="3.4"/>
		<ellipse fill="#A7A9AB" cx="47.1" cy="201.6" rx="7.9" ry="3.4"/>
		<ellipse fill="#A7A9AB" cx="47.1" cy="201.6" rx="7.9" ry="3.4"/>
		<ellipse fill="#A7A9AB" cx="47.1" cy="201.6" rx="7.9" ry="3.4"/>
		<ellipse fill="#A7A9AB" cx="47.1" cy="202.3" rx="7.9" ry="3.4"/>
		<ellipse fill="#A7A9AB" cx="47.1" cy="203.1" rx="7.9" ry="3.4"/>
		<ellipse fill="#A7A9AB" cx="47.1" cy="203.8" rx="7.9" ry="3.4"/>
		<ellipse fill="#A7A9AB" cx="47.1" cy="204.6" rx="7.9" ry="3.4"/>
		<ellipse fill="#A7A9AB" cx="47.1" cy="205.3" rx="7.9" ry="3.4"/>
		<ellipse fill="#D3D3D3" cx="47.1" cy="200.8" rx="7.9" ry="3.4"/>
	</g>
	<g opacity="0.5">
		<ellipse fill="#A7A9AB" cx="78.1" cy="213.6" rx="7.9" ry="3.4"/>
		<ellipse fill="#A7A9AB" cx="78.1" cy="213.6" rx="7.9" ry="3.4"/>
		<ellipse fill="#A7A9AB" cx="78.1" cy="213.6" rx="7.9" ry="3.4"/>
		<ellipse fill="#A7A9AB" cx="78.1" cy="213.6" rx="7.9" ry="3.4"/>
		<ellipse fill="#A7A9AB" cx="78.1" cy="213.6" rx="7.9" ry="3.4"/>
		<ellipse fill="#A7A9AB" cx="78.1" cy="214.3" rx="7.9" ry="3.4"/>
		<ellipse fill="#A7A9AB" cx="78.1" cy="215.1" rx="7.9" ry="3.4"/>
		<ellipse fill="#A7A9AB" cx="78.1" cy="215.8" rx="7.9" ry="3.4"/>
		<ellipse fill="#A7A9AB" cx="78.1" cy="216.6" rx="7.9" ry="3.4"/>
		<ellipse fill="#A7A9AB" cx="78.1" cy="217.3" rx="7.9" ry="3.4"/>
		<ellipse fill="#D3D3D3" cx="78.1" cy="212.8" rx="7.9" ry="3.4"/>
	</g>
	<g opacity="0.5">
		<ellipse fill="#A7A9AB" cx="355.1" cy="158.6" rx="7.9" ry="3.4"/>
		<ellipse fill="#A7A9AB" cx="355.1" cy="158.6" rx="7.9" ry="3.4"/>
		<ellipse fill="#A7A9AB" cx="355.1" cy="158.6" rx="7.9" ry="3.4"/>
		<ellipse fill="#A7A9AB" cx="355.1" cy="158.6" rx="7.9" ry="3.4"/>
		<ellipse fill="#A7A9AB" cx="355.1" cy="158.6" rx="7.9" ry="3.4"/>
		<ellipse fill="#A7A9AB" cx="355.1" cy="159.3" rx="7.9" ry="3.4"/>
		<ellipse fill="#A7A9AB" cx="355.1" cy="160.1" rx="7.9" ry="3.4"/>
		<ellipse fill="#A7A9AB" cx="355.1" cy="160.8" rx="7.9" ry="3.4"/>
		<ellipse fill="#A7A9AB" cx="355.1" cy="161.6" rx="7.9" ry="3.4"/>
		<ellipse fill="#A7A9AB" cx="355.1" cy="162.3" rx="7.9" ry="3.4"/>
		<ellipse fill="#D3D3D3" cx="355.1" cy="157.8" rx="7.9" ry="3.4"/>
	</g>
	<g opacity="0.5">
		<ellipse fill="#A7A9AB" cx="289.1" cy="151.6" rx="7.9" ry="3.4"/>
		<ellipse fill="#A7A9AB" cx="289.1" cy="151.6" rx="7.9" ry="3.4"/>
		<ellipse fill="#A7A9AB" cx="289.1" cy="151.6" rx="7.9" ry="3.4"/>
		<ellipse fill="#A7A9AB" cx="289.1" cy="151.6" rx="7.9" ry="3.4"/>
		<ellipse fill="#A7A9AB" cx="289.1" cy="151.6" rx="7.9" ry="3.4"/>
		<ellipse fill="#A7A9AB" cx="289.1" cy="152.3" rx="7.9" ry="3.4"/>
		<ellipse fill="#A7A9AB" cx="289.1" cy="153.1" rx="7.9" ry="3.4"/>
		<ellipse fill="#A7A9AB" cx="289.1" cy="153.8" rx="7.9" ry="3.4"/>
		<ellipse fill="#A7A9AB" cx="289.1" cy="154.6" rx="7.9" ry="3.4"/>
		<ellipse fill="#A7A9AB" cx="289.1" cy="155.3" rx="7.9" ry="3.4"/>
		<ellipse fill="#D3D3D3" cx="289.1" cy="150.8" rx="7.9" ry="3.4"/>
	</g>
	<g opacity="0.5">
		<ellipse fill="#A7A9AB" cx="355.1" cy="143.6" rx="7.9" ry="3.4"/>
		<ellipse fill="#A7A9AB" cx="355.1" cy="143.6" rx="7.9" ry="3.4"/>
		<ellipse fill="#A7A9AB" cx="355.1" cy="143.6" rx="7.9" ry="3.4"/>
		<ellipse fill="#A7A9AB" cx="355.1" cy="143.6" rx="7.9" ry="3.4"/>
		<ellipse fill="#A7A9AB" cx="355.1" cy="143.6" rx="7.9" ry="3.4"/>
		<ellipse fill="#A7A9AB" cx="355.1" cy="144.3" rx="7.9" ry="3.4"/>
		<ellipse fill="#A7A9AB" cx="355.1" cy="145.1" rx="7.9" ry="3.4"/>
		<ellipse fill="#A7A9AB" cx="355.1" cy="145.8" rx="7.9" ry="3.4"/>
		<ellipse fill="#A7A9AB" cx="355.1" cy="146.6" rx="7.9" ry="3.4"/>
		<ellipse fill="#A7A9AB" cx="355.1" cy="147.3" rx="7.9" ry="3.4"/>
		<ellipse fill="#D3D3D3" cx="355.1" cy="142.8" rx="7.9" ry="3.4"/>
	</g>
	<g opacity="0.5">
		<ellipse fill="#A7A9AB" cx="289.1" cy="136.6" rx="7.9" ry="3.4"/>
		<ellipse fill="#A7A9AB" cx="289.1" cy="136.6" rx="7.9" ry="3.4"/>
		<ellipse fill="#A7A9AB" cx="289.1" cy="136.6" rx="7.9" ry="3.4"/>
		<ellipse fill="#A7A9AB" cx="289.1" cy="136.6" rx="7.9" ry="3.4"/>
		<ellipse fill="#A7A9AB" cx="289.1" cy="136.6" rx="7.9" ry="3.4"/>
		<ellipse fill="#A7A9AB" cx="289.1" cy="137.3" rx="7.9" ry="3.4"/>
		<ellipse fill="#A7A9AB" cx="289.1" cy="138.1" rx="7.9" ry="3.4"/>
		<ellipse fill="#A7A9AB" cx="289.1" cy="138.8" rx="7.9" ry="3.4"/>
		<ellipse fill="#A7A9AB" cx="289.1" cy="139.6" rx="7.9" ry="3.4"/>
		<ellipse fill="#A7A9AB" cx="289.1" cy="140.3" rx="7.9" ry="3.4"/>
		<ellipse fill="#D3D3D3" cx="289.1" cy="135.8" rx="7.9" ry="3.4"/>
	</g>
	<g opacity="0.5">
		<ellipse fill="#A7A9AB" cx="426.1" cy="196.6" rx="7.9" ry="3.4"/>
		<ellipse fill="#A7A9AB" cx="426.1" cy="196.6" rx="7.9" ry="3.4"/>
		<ellipse fill="#A7A9AB" cx="426.1" cy="196.6" rx="7.9" ry="3.4"/>
		<ellipse fill="#A7A9AB" cx="426.1" cy="196.6" rx="7.9" ry="3.4"/>
		<ellipse fill="#A7A9AB" cx="426.1" cy="196.6" rx="7.9" ry="3.4"/>
		<ellipse fill="#A7A9AB" cx="426.1" cy="197.3" rx="7.9" ry="3.4"/>
		<ellipse fill="#A7A9AB" cx="426.1" cy="198.1" rx="7.9" ry="3.4"/>
		<ellipse fill="#A7A9AB" cx="426.1" cy="198.8" rx="7.9" ry="3.4"/>
		<ellipse fill="#A7A9AB" cx="426.1" cy="199.6" rx="7.9" ry="3.4"/>
		<ellipse fill="#A7A9AB" cx="426.1" cy="200.3" rx="7.9" ry="3.4"/>
		<ellipse fill="#D3D3D3" cx="426.1" cy="195.8" rx="7.9" ry="3.4"/>
	</g>
	<g opacity="0.5">
		<ellipse fill="#A7A9AB" cx="509.1" cy="203.6" rx="7.9" ry="3.4"/>
		<ellipse fill="#A7A9AB" cx="509.1" cy="203.6" rx="7.9" ry="3.4"/>
		<ellipse fill="#A7A9AB" cx="509.1" cy="203.6" rx="7.9" ry="3.4"/>
		<ellipse fill="#A7A9AB" cx="509.1" cy="203.6" rx="7.9" ry="3.4"/>
		<ellipse fill="#A7A9AB" cx="509.1" cy="203.6" rx="7.9" ry="3.4"/>
		<ellipse fill="#A7A9AB" cx="509.1" cy="204.3" rx="7.9" ry="3.4"/>
		<ellipse fill="#A7A9AB" cx="509.1" cy="205.1" rx="7.9" ry="3.4"/>
		<ellipse fill="#A7A9AB" cx="509.1" cy="205.8" rx="7.9" ry="3.4"/>
		<ellipse fill="#A7A9AB" cx="509.1" cy="206.6" rx="7.9" ry="3.4"/>
		<ellipse fill="#A7A9AB" cx="509.1" cy="207.3" rx="7.9" ry="3.4"/>
		<ellipse fill="#D3D3D3" cx="509.1" cy="202.8" rx="7.9" ry="3.4"/>
	</g>
	<g opacity="0.5">
		<ellipse fill="#A7A9AB" cx="426.1" cy="181.6" rx="7.9" ry="3.4"/>
		<ellipse fill="#A7A9AB" cx="426.1" cy="181.6" rx="7.9" ry="3.4"/>
		<ellipse fill="#A7A9AB" cx="426.1" cy="181.6" rx="7.9" ry="3.4"/>
		<ellipse fill="#A7A9AB" cx="426.1" cy="181.6" rx="7.9" ry="3.4"/>
		<ellipse fill="#A7A9AB" cx="426.1" cy="181.6" rx="7.9" ry="3.4"/>
		<ellipse fill="#A7A9AB" cx="426.1" cy="182.3" rx="7.9" ry="3.4"/>
		<ellipse fill="#A7A9AB" cx="426.1" cy="183.1" rx="7.9" ry="3.4"/>
		<ellipse fill="#A7A9AB" cx="426.1" cy="183.8" rx="7.9" ry="3.4"/>
		<ellipse fill="#A7A9AB" cx="426.1" cy="184.6" rx="7.9" ry="3.4"/>
		<ellipse fill="#A7A9AB" cx="426.1" cy="185.3" rx="7.9" ry="3.4"/>
		<ellipse fill="#D3D3D3" cx="426.1" cy="180.8" rx="7.9" ry="3.4"/>
	</g>
	<g opacity="0.5">
		<path fill="#EF4E23" d="M315.2,197c0,0,23.5-7.2,81.1,31.3c2.5-3.1,4-5.1,4-5.1s-56.7-37.9-82.2-29.9
			C316.6,195.3,315.2,197,315.2,197z"/>
		<g>
			<path fill="#E6E7E8" stroke="#EF4E23" stroke-miterlimit="10" d="M358.4,205.2c-2-0.9-3.9-1.7-5.7-2.4l1.8-2.3
				c1.9,0.8,3.8,1.6,5.7,2.4L358.4,205.2z"/>
			<path fill="#E6E7E8" stroke="#EF4E23" stroke-miterlimit="10" d="M344.8,199.9c-2.2-0.7-4.3-1.3-6.2-1.9l1.9-2.4
				c2,0.6,4.1,1.2,6.1,1.9L344.8,199.9z"/>
			<path fill="#E6E7E8" stroke="#EF4E23" stroke-miterlimit="10" d="M351.7,202.4c-2.1-0.8-4-1.5-5.9-2.2l1.9-2.4
				c2,0.7,3.9,1.4,5.9,2.2L351.7,202.4z"/>
			<path fill="#E6E7E8" stroke="#EF4E23" stroke-miterlimit="10" d="M325.9,193.2c1.9,0,3.9,0.2,6,0.5l-2,2.5
				c-2.3-0.4-4.2-0.6-5.9-0.7L325.9,193.2z"/>
			<path fill="#E6E7E8" stroke="#EF4E23" stroke-miterlimit="10" d="M337.6,197.7c-2.4-0.6-4.6-1.1-6.5-1.4l2-2.5
				c2.1,0.4,4.3,0.9,6.5,1.5L337.6,197.7z"/>
			<path fill="#E6E7E8" stroke="#EF4E23" stroke-miterlimit="10" d="M364.9,208.3c-1.9-0.9-3.8-1.8-5.6-2.6l1.8-2.3
				c1.9,0.9,3.8,1.7,5.6,2.6L364.9,208.3z"/>
			<path fill="#E6E7E8" stroke="#EF4E23" stroke-miterlimit="10" d="M388.6,221.9c-1.7-1.1-3.4-2.2-5.1-3.2l2.2-2.8
				c1.9,1.1,3.7,2.1,5.2,3L388.6,221.9z"/>
			<path fill="#E6E7E8" stroke="#EF4E23" stroke-miterlimit="10" d="M322.8,195.4c-3.9-0.1-5.8,0.3-5.8,0.3s0.4-0.1,1.7-1.7
				c1.8-0.6,3.8-0.8,6-0.9L322.8,195.4z"/>
			<path fill="#E6E7E8" stroke="#EF4E23" stroke-miterlimit="10" d="M371.2,211.6c-1.9-1-3.7-1.9-5.4-2.8l1.9-2.4
				c1.9,0.9,3.7,1.8,5.5,2.7L371.2,211.6z"/>
			<path fill="#E6E7E8" stroke="#EF4E23" stroke-miterlimit="10" d="M389.4,222.4l2.3-3c3.7,2.2,5.9,3.6,5.9,3.6s-0.4,0.7-2.4,3.2
				C393.3,225,391.4,223.7,389.4,222.4z"/>
			<path fill="#E6E7E8" stroke="#EF4E23" stroke-miterlimit="10" d="M377.4,215.1c-1.8-1-3.6-2-5.3-3l1.9-2.5c1.9,1,3.7,1.9,5.4,2.9
				L377.4,215.1z"/>
			<path fill="#E6E7E8" stroke="#EF4E23" stroke-miterlimit="10" d="M382.6,218.1c-1.5-0.9-2.9-1.8-4.3-2.6l2.1-2.6
				c1.6,0.8,3,1.7,4.4,2.5L382.6,218.1z"/>
		</g>
	</g>
	<g opacity="0.5">
		<path fill="#EF4E23" d="M463.8,251.9c0,0,21.3-12.3,86,12.2c1.7-3.6,2.8-5.9,2.8-5.9s-63.8-24.1-86.8-10.6
			C464.7,249.9,463.8,251.9,463.8,251.9z"/>
		<g>
			<path fill="#E6E7E8" stroke="#EF4E23" stroke-miterlimit="10" d="M507.7,250.2c-2.1-0.4-4.2-0.8-6.1-1.1l1.3-2.7
				c2,0.3,4.1,0.7,6.1,1.1L507.7,250.2z"/>
			<path fill="#E6E7E8" stroke="#EF4E23" stroke-miterlimit="10" d="M493.3,248c-2.3-0.2-4.4-0.4-6.4-0.4l1.3-2.8
				c2.1,0.1,4.2,0.3,6.4,0.5L493.3,248z"/>
			<path fill="#E6E7E8" stroke="#EF4E23" stroke-miterlimit="10" d="M500.6,248.9c-2.2-0.3-4.3-0.6-6.3-0.8l1.3-2.7
				c2.1,0.2,4.1,0.5,6.2,0.8L500.6,248.9z"/>
			<path fill="#E6E7E8" stroke="#EF4E23" stroke-miterlimit="10" d="M473.3,245.7c1.8-0.4,3.8-0.7,5.9-0.8l-1.3,2.8
				c-2.3,0.2-4.2,0.4-5.9,0.7L473.3,245.7z"/>
			<path fill="#E6E7E8" stroke="#EF4E23" stroke-miterlimit="10" d="M485.7,247.6c-2.5-0.1-4.7,0-6.7,0.1l1.3-2.8
				c2.1-0.1,4.4-0.1,6.7-0.1L485.7,247.6z"/>
			<path fill="#E6E7E8" stroke="#EF4E23" stroke-miterlimit="10" d="M514.8,251.7c-2.1-0.5-4.1-0.9-6-1.3l1.3-2.7c2,0.4,4,0.8,6,1.3
				L514.8,251.7z"/>
			<path fill="#E6E7E8" stroke="#EF4E23" stroke-miterlimit="10" d="M540.9,259.6c-1.9-0.7-3.8-1.4-5.7-2l1.5-3.2
				c2.1,0.6,4.1,1.2,5.8,1.8L540.9,259.6z"/>
			<path fill="#E6E7E8" stroke="#EF4E23" stroke-miterlimit="10" d="M470.8,248.6c-3.8,0.8-5.6,1.6-5.6,1.6s0.4-0.2,1.2-2
				c1.6-0.9,3.5-1.7,5.6-2.2L470.8,248.6z"/>
			<path fill="#E6E7E8" stroke="#EF4E23" stroke-miterlimit="10" d="M521.7,253.4c-2-0.6-4-1.1-5.9-1.5l1.3-2.7c2,0.5,4,0.9,6,1.4
				L521.7,253.4z"/>
			<path fill="#E6E7E8" stroke="#EF4E23" stroke-miterlimit="10" d="M541.8,259.9l1.6-3.4c4.1,1.3,6.6,2.2,6.6,2.2s-0.2,0.8-1.6,3.7
				C546.2,261.5,544,260.7,541.8,259.9z"/>
			<path fill="#E6E7E8" stroke="#EF4E23" stroke-miterlimit="10" d="M528.5,255.4c-2-0.6-3.9-1.2-5.8-1.7l1.3-2.8c2,0.5,4,1,5.9,1.6
				L528.5,255.4z"/>
			<path fill="#E6E7E8" stroke="#EF4E23" stroke-miterlimit="10" d="M534.2,257.3c-1.6-0.5-3.2-1.1-4.8-1.5l1.4-3
				c1.7,0.5,3.3,0.9,4.9,1.4L534.2,257.3z"/>
		</g>
	</g>
	<g opacity="0.5">
		<path fill="#EF4E23" d="M70.4,259.2c0,0,14,20.2,83,25.8c0,4,0,6.5,0,6.5s-68-5.5-83-27.5C70.4,261.4,70.4,259.2,70.4,259.2z"/>
		<g>
			<path fill="#E6E7E8" stroke="#EF4E23" stroke-miterlimit="10" d="M108.9,279.6c-2-0.5-4-1.1-6-1.6v2.9c2,0.6,4,1.1,6,1.6V279.6z"
				/>
			<path fill="#E6E7E8" stroke="#EF4E23" stroke-miterlimit="10" d="M94.9,275.3c-2-0.8-4-1.6-6-2.4v3.1c2,0.8,4,1.6,6,2.3V275.3z"
				/>
			<path fill="#E6E7E8" stroke="#EF4E23" stroke-miterlimit="10" d="M101.9,277.6c-2-0.6-4-1.3-6-2v3c2,0.7,4,1.3,6,1.9V277.6z"/>
			<path fill="#E6E7E8" stroke="#EF4E23" stroke-miterlimit="10" d="M75.9,268.9c2,1.2,4,2.2,5,3.3V269c-1-1.1-3-2.2-5-3.1V268.9z"
				/>
			<path fill="#E6E7E8" stroke="#EF4E23" stroke-miterlimit="10" d="M87.9,272.5c-2-1-4-2-6-2.9v3.2c2,1,4,2,6,2.9V272.5z"/>
			<path fill="#E6E7E8" stroke="#EF4E23" stroke-miterlimit="10" d="M115.9,281.2c-2-0.4-4-0.9-6-1.4v2.9c3,0.5,5,1,6,1.4V281.2z"/>
			<path fill="#E6E7E8" stroke="#EF4E23" stroke-miterlimit="10" d="M142.9,285.2c-2-0.2-4-0.4-6-0.6v3.5c3,0.3,5,0.6,6,0.9V285.2z"
				/>
			<path fill="#E6E7E8" stroke="#EF4E23" stroke-miterlimit="10" d="M74.9,265.2c-3-2.3-4-3.9-4-3.9s0,0.4,0,2.4c1,1.5,3,3,4,4.4
				V265.2z"/>
			<path fill="#E6E7E8" stroke="#EF4E23" stroke-miterlimit="10" d="M122.9,282.5c-2-0.4-4-0.7-6-1.1v3c3,0.4,5,0.9,6,1.2V282.5z"/>
			<path fill="#E6E7E8" stroke="#EF4E23" stroke-miterlimit="10" d="M143.9,285.3v3.8c5,0.6,8,0.8,8,0.8s0-0.8,0-4
				C148.9,285.7,146.9,285.5,143.9,285.3z"/>
			<path fill="#E6E7E8" stroke="#EF4E23" stroke-miterlimit="10" d="M129.9,283.7c-2-0.3-4-0.6-6-0.9v3.1c3,0.4,5,0.8,6,1.1V283.7z"
				/>
			<path fill="#E6E7E8" stroke="#EF4E23" stroke-miterlimit="10" d="M135.9,284.5c-1-0.2-3-0.4-5-0.7v3.3c2,0.3,4,0.6,5,0.8V284.5z"
				/>
		</g>
	</g>
	<g>
		<polygon fill="#776F6E" points="166.1,128.4 167,133.4 185.3,129.3 184.4,124.3 		"/>
		<polygon fill="#776F6E" points="166.9,133.4 175.8,135.2 185.3,129.2 176.1,128.1 		"/>
		<polygon fill="#A0A0A0" points="166,128.5 174.9,130.3 184.4,124.3 175.2,123.2 		"/>
		<g>
			
				<ellipse transform="matrix(0.9836 -0.1803 0.1803 0.9836 -19.8527 33.5228)" fill="#776F6E" cx="174.5" cy="126" rx="2.5" ry="1.1"/>
			
				<ellipse transform="matrix(0.9836 -0.1803 0.1803 0.9836 -19.8527 33.5228)" fill="#776F6E" cx="174.5" cy="126" rx="2.5" ry="1.1"/>
			
				<ellipse transform="matrix(0.9836 -0.1803 0.1803 0.9836 -19.8527 33.5228)" fill="#776F6E" cx="174.5" cy="126" rx="2.5" ry="1.1"/>
			
				<ellipse transform="matrix(0.9836 -0.1803 0.1803 0.9836 -19.8527 33.5228)" fill="#776F6E" cx="174.5" cy="126" rx="2.5" ry="1.1"/>
			
				<ellipse transform="matrix(0.9836 -0.1803 0.1803 0.9836 -19.8527 33.5228)" fill="#776F6E" cx="174.5" cy="126" rx="2.5" ry="1.1"/>
			
				<ellipse transform="matrix(0.9836 -0.1803 0.1803 0.9836 -19.8936 33.5342)" fill="#776F6E" cx="174.5" cy="126.2" rx="2.5" ry="1.1"/>
			
				<ellipse transform="matrix(0.9836 -0.1803 0.1803 0.9836 -19.9345 33.5456)" fill="#776F6E" cx="174.6" cy="126.4" rx="2.5" ry="1.1"/>
			
				<ellipse transform="matrix(0.9836 -0.1803 0.1803 0.9836 -19.9754 33.557)" fill="#776F6E" cx="174.6" cy="126.7" rx="2.5" ry="1.1"/>
			
				<ellipse transform="matrix(0.9836 -0.1803 0.1803 0.9836 -20.0163 33.5684)" fill="#776F6E" cx="174.7" cy="126.9" rx="2.5" ry="1.1"/>
			
				<ellipse transform="matrix(0.9836 -0.1803 0.1803 0.9836 -20.0572 33.5798)" fill="#776F6E" cx="174.7" cy="127.1" rx="2.5" ry="1.1"/>
			
				<ellipse transform="matrix(0.9836 -0.1803 0.1803 0.9836 -19.8119 33.5114)" fill="#F2F2F2" cx="174.5" cy="125.8" rx="2.5" ry="1.1"/>
		</g>
	</g>
	<g opacity="0.5">
		<ellipse fill="#776F6E" cx="60.8" cy="256" rx="9.9" ry="4.8"/>
		<polygon fill="#776F6E" points="42.9,250.2 51.4,257.4 69.4,257.4 76.4,252.4 		"/>
		<ellipse fill="#D3D3D3" stroke="#776F6E" stroke-miterlimit="10" cx="60.9" cy="247.4" rx="18.5" ry="9"/>
		<ellipse fill="#776F6E" cx="60.7" cy="249.6" rx="5.6" ry="2.7"/>
	</g>
	<g opacity="0.5">
		<ellipse fill="#776F6E" cx="305.8" cy="191" rx="9.9" ry="4.8"/>
		<polygon fill="#776F6E" points="287.9,185.2 296.4,192.4 314.4,192.4 321.4,187.4 		"/>
		<ellipse fill="#D3D3D3" stroke="#776F6E" stroke-miterlimit="10" cx="305.9" cy="182.4" rx="18.5" ry="9"/>
		<ellipse fill="#776F6E" cx="305.7" cy="184.6" rx="5.6" ry="2.7"/>
	</g>
	<g opacity="0.5">
		<ellipse fill="#776F6E" cx="450.8" cy="243" rx="9.9" ry="4.8"/>
		<polygon fill="#776F6E" points="432.9,237.2 441.4,244.4 459.4,244.4 466.4,239.4 		"/>
		<ellipse fill="#D3D3D3" stroke="#776F6E" stroke-miterlimit="10" cx="450.9" cy="234.4" rx="18.5" ry="9"/>
		<ellipse fill="#776F6E" cx="450.7" cy="236.6" rx="5.6" ry="2.7"/>
	</g>
	<polygon fill="#E6E6E6" points="190.5,181.5 187.3,182 158.1,176.7 175.3,169.7 201.3,172.6 199.4,174.2 199.8,175.2 	"/>
	<g>
		<path fill="#776F6E" d="M187.3,182.5l-30.2-5.4c-0.4-0.1-0.3-0.2,0-0.4l0.3-0.1c0.4-0.2,1-0.2,1.4-0.2c0.2,0,0.3,0.1,0.2,0.2
			l28.9,5l1.4-0.2l9.5-6.4l-0.5-0.5c0-0.1,0-0.1,0.1-0.2l2.3-1.5l-25.3-2.9l-1.5,0.6c-0.3,0.1-0.8,0.2-1.1,0.1
			c-0.3,0-0.4-0.2-0.1-0.3l1.9-0.8c0.3-0.1,0.7-0.2,1.1-0.1l26.5,2.9c0.5,0.1,0.7,0.2,0.5,0.3l-2.5,1.7l0.6,0.5
			c0.1,0.1,0.1,0.2,0,0.2l-9.7,6.8c-0.1,0.1-0.4,0.2-0.7,0.2l-2.3,0.3C187.8,182.5,187.5,182.5,187.3,182.5z"/>
	</g>
	<g>
		<path fill="#776F6E" d="M163.1,174.7c-0.4-0.1-0.4-0.2,0-0.4l4.4-1.8c0.3-0.1,0.8-0.2,1.2-0.1c0.3,0,0.4,0.2,0.1,0.3l-4.4,1.8
			C164,174.7,163.5,174.7,163.1,174.7z"/>
	</g>
	<path fill="#776F6E" d="M171.4,172.6l-5.1-0.7c-0.2,0-0.3-0.1,0-0.2l2.9-1.1c0.2-0.1,0.6-0.1,0.8-0.1l5,0.6c0.3,0,0.3,0.1,0.1,0.2
		l-2.8,1.2C172.1,172.6,171.6,172.7,171.4,172.6z"/>
	<path fill="#776F6E" d="M162.7,176.9l-4.7-0.8c-0.3,0-0.2-0.2,0-0.3l2.6-1c0.3-0.1,0.7-0.2,1-0.1l4.6,0.7c0.3,0,0.3,0.2,0,0.3
		l-2.6,1.1C163.5,176.9,163,176.9,162.7,176.9z"/>
	<path fill="#776F6E" d="M177.6,175.3c-0.2,0-0.5,0-0.6,0.1l-0.3,0.1l0.7,0.1l0.3-0.1C177.9,175.4,177.8,175.3,177.6,175.3z"/>
	<path fill="#776F6E" d="M176.5,175.1c-0.2,0-0.5,0-0.6,0.1l-0.3,0.1l0.7,0.1l0.3-0.1C176.8,175.2,176.7,175.1,176.5,175.1z"/>
	<path fill="#776F6E" d="M178.7,175.4c-0.2,0-0.5,0-0.7,0.1l-0.3,0.1l0.8,0.1l0.3-0.1C179,175.5,179,175.5,178.7,175.4z"/>
	<path fill="#776F6E" d="M179.9,175.6c-0.2,0-0.5,0-0.7,0.1l-0.3,0.1l0.8,0.1l0.3-0.1C180.2,175.7,180.1,175.6,179.9,175.6z"/>
	<path fill="#776F6E" d="M181,175.8c-0.2,0-0.5,0-0.7,0.1l-0.3,0.1l0.8,0.1l0.3-0.1C181.3,175.9,181.3,175.8,181,175.8z"/>
	<path fill="#776F6E" d="M182.2,175.9c-0.2,0-0.5,0-0.7,0.1l-0.3,0.1l0.8,0.1l0.3-0.1C182.5,176,182.4,176,182.2,175.9z"/>
	<path fill="#776F6E" d="M183.4,176.1c-0.2,0-0.5,0-0.7,0.1l-0.3,0.1l0.8,0.1l0.3-0.1C183.7,176.2,183.6,176.1,183.4,176.1z"/>
	<path fill="#776F6E" d="M184.6,176.3c-0.2,0-0.5,0-0.7,0.1l-0.3,0.1l0.8,0.1l0.3-0.1C184.9,176.4,184.8,176.3,184.6,176.3z"/>
	<path fill="#776F6E" d="M185.8,176.5c-0.2,0-0.5,0-0.7,0.1l-0.3,0.1l0.8,0.1l0.3-0.1C186.1,176.6,186.1,176.5,185.8,176.5z"/>
	<path fill="#776F6E" d="M187.1,176.6c-0.2,0-0.5,0-0.7,0.1l-0.3,0.1l0.8,0.1l0.3-0.2C187.4,176.8,187.3,176.7,187.1,176.6z"/>
	<path fill="#776F6E" d="M188.3,176.8c-0.3,0-0.5,0-0.7,0.1l-0.3,0.2l0.8,0.1l0.3-0.2C188.6,176.9,188.6,176.9,188.3,176.8z"/>
	<path fill="#776F6E" d="M189.6,177c-0.3,0-0.5,0-0.7,0.1l-0.3,0.2l0.9,0.1l0.3-0.2C189.9,177.1,189.9,177,189.6,177z"/>
	<path fill="#776F6E" d="M190.9,177.2c-0.3,0-0.5,0-0.7,0.1l-0.3,0.2l0.9,0.1l0.2-0.2C191.2,177.3,191.2,177.2,190.9,177.2z"/>
	<path fill="#776F6E" d="M192.2,177.4c-0.3,0-0.5,0-0.7,0.1l-0.2,0.2l0.9,0.1l0.2-0.2C192.6,177.5,192.5,177.4,192.2,177.4z"/>
	<path fill="#776F6E" d="M187,179.6c0.3,0,0.6,0,0.7-0.1l0.3-0.2l-0.9-0.1l-0.3,0.2C186.6,179.5,186.7,179.6,187,179.6z"/>
	<path fill="#776F6E" d="M188.3,179.9c0.3,0,0.6,0,0.7-0.1l0.3-0.2l-0.9-0.1l-0.3,0.2C188,179.7,188.1,179.8,188.3,179.9z"/>
	<path fill="#776F6E" d="M185.6,179.4c0.3,0,0.6,0,0.7-0.1l0.3-0.2l-0.9-0.1l-0.3,0.2C185.3,179.3,185.4,179.4,185.6,179.4z"/>
	<path fill="#776F6E" d="M184.3,179.2c0.3,0,0.6,0,0.7-0.1l0.3-0.2l-0.9-0.1l-0.3,0.2C184,179.1,184,179.2,184.3,179.2z"/>
	<path fill="#776F6E" d="M183,179c0.3,0,0.5,0,0.7-0.1l0.3-0.2l-0.9-0.1l-0.3,0.2C182.7,178.9,182.7,178.9,183,179z"/>
	<path fill="#776F6E" d="M181.7,178.8c0.3,0,0.5,0,0.7-0.1l0.3-0.2l-0.8-0.1l-0.3,0.2C181.4,178.6,181.5,178.7,181.7,178.8z"/>
	<path fill="#776F6E" d="M180.5,178.6c0.3,0,0.5,0,0.7-0.1l0.3-0.2l-0.8-0.1l-0.3,0.2C180.2,178.4,180.2,178.5,180.5,178.6z"/>
	<path fill="#776F6E" d="M179.2,178.4c0.2,0,0.5,0,0.7-0.1l0.3-0.2l-0.8-0.1l-0.3,0.2C178.9,178.2,179,178.3,179.2,178.4z"/>
	<path fill="#776F6E" d="M178,178.2c0.2,0,0.5,0,0.7-0.1l0.3-0.2l-0.8-0.1l-0.3,0.2C177.7,178.1,177.7,178.1,178,178.2z"/>
	<path fill="#776F6E" d="M176.8,178c0.2,0,0.5,0,0.7-0.1l0.3-0.2l-0.8-0.1l-0.3,0.2C176.5,177.9,176.5,177.9,176.8,178z"/>
	<path fill="#776F6E" d="M175.6,177.8c0.2,0,0.5,0,0.7-0.1l0.3-0.2l-0.8-0.1l-0.3,0.2C175.3,177.7,175.3,177.8,175.6,177.8z"/>
	<path fill="#776F6E" d="M174.4,177.6c0.2,0,0.5,0,0.7-0.1l0.3-0.2l-0.8-0.1l-0.3,0.2C174.1,177.5,174.2,177.6,174.4,177.6z"/>
	<path fill="#776F6E" d="M173.2,177.4c0.2,0,0.5,0,0.7-0.1l0.3-0.1l-0.8-0.1l-0.3,0.1C173,177.3,173,177.4,173.2,177.4z"/>
	<path fill="#776F6E" d="M172.1,177.2c0.2,0,0.5,0,0.7-0.1l0.3-0.1l-0.8-0.1L172,177C171.8,177.1,171.9,177.2,172.1,177.2z"/>
	<path fill="#776F6E" d="M192.4,178l-17.4-2.6c-0.2,0-0.5,0-0.7,0.1l-2.1,1c-0.2,0.1-0.2,0.2,0.1,0.2l17.8,2.8c0.3,0,0.6,0,0.7-0.1
		l1.8-1.2C192.7,178.1,192.6,178,192.4,178z M190.7,179.1c-0.5-0.1-0.7-0.3-0.4-0.5c0.3-0.2,0.9-0.3,1.4-0.2L190.7,179.1z"/>
	<path fill="#776F6E" d="M177.4,172.4c-2.3,1,1.1,2,5.6,1.2c0,1.5,5.5,1.6,7.5,0.5c1.9-1.1-1.6-2-6-1.2
		C184.6,171.5,179.5,171.4,177.4,172.4L177.4,172.4z M178.5,172.5c1.5-0.7,5.1-0.6,4.6,0.6C179.6,173.9,176.9,173.3,178.5,172.5
		L178.5,172.5z M184.4,173.3c3.3-0.8,6.3-0.1,4.9,0.6C187.8,174.7,183.8,174.5,184.4,173.3z"/>
	<polygon fill="#776F6E" points="179.9,172.6 181.7,172.8 181.3,173 179.5,172.8 	"/>
	<polygon fill="#776F6E" points="186.5,173.7 185.8,173.6 186.2,173.3 186.9,173.4 187.3,173.2 188,173.3 187.6,173.5 188.2,173.6 
		187.8,173.8 187.1,173.7 186.7,174 186.1,173.9 	"/>
	<path fill="none" stroke="#000000" stroke-width="2" stroke-linejoin="round" stroke-miterlimit="10" d="M350,314.5"/>
	<path fill="none" stroke="#D31818" stroke-width="2" stroke-linejoin="round" stroke-miterlimit="10" d="M344.4,310.4"/>
	
		<line fill="none" stroke="#E5D405" stroke-width="2" stroke-linejoin="round" stroke-miterlimit="10" x1="325.4" y1="332.4" x2="325.4" y2="301.4"/>
	
		<line fill="none" stroke="#E5D405" stroke-width="2" stroke-linejoin="round" stroke-miterlimit="10" x1="308.4" y1="325.4" x2="308.4" y2="253.4"/>
	<g>
		<ellipse fill="#A7A9AB" cx="433.1" cy="262.6" rx="7.9" ry="3.4"/>
		<ellipse fill="#A7A9AB" cx="433.1" cy="262.6" rx="7.9" ry="3.4"/>
		<ellipse fill="#A7A9AB" cx="433.1" cy="262.6" rx="7.9" ry="3.4"/>
		<ellipse fill="#A7A9AB" cx="433.1" cy="262.6" rx="7.9" ry="3.4"/>
		<ellipse fill="#A7A9AB" cx="433.1" cy="262.6" rx="7.9" ry="3.4"/>
		<ellipse fill="#A7A9AB" cx="433.1" cy="263.3" rx="7.9" ry="3.4"/>
		<ellipse fill="#A7A9AB" cx="433.1" cy="264.1" rx="7.9" ry="3.4"/>
		<ellipse fill="#A7A9AB" cx="433.1" cy="264.8" rx="7.9" ry="3.4"/>
		<ellipse fill="#A7A9AB" cx="433.1" cy="265.6" rx="7.9" ry="3.4"/>
		<ellipse fill="#A7A9AB" cx="433.1" cy="266.3" rx="7.9" ry="3.4"/>
		<ellipse fill="#D3D3D3" cx="433.1" cy="261.8" rx="7.9" ry="3.4"/>
	</g>
	<g>
		<ellipse fill="#A7A9AB" cx="312.1" cy="237.6" rx="7.9" ry="3.4"/>
		<ellipse fill="#A7A9AB" cx="312.1" cy="237.6" rx="7.9" ry="3.4"/>
		<ellipse fill="#A7A9AB" cx="312.1" cy="237.6" rx="7.9" ry="3.4"/>
		<ellipse fill="#A7A9AB" cx="312.1" cy="237.6" rx="7.9" ry="3.4"/>
		<ellipse fill="#A7A9AB" cx="312.1" cy="237.6" rx="7.9" ry="3.4"/>
		<ellipse fill="#A7A9AB" cx="312.1" cy="238.3" rx="7.9" ry="3.4"/>
		<ellipse fill="#A7A9AB" cx="312.1" cy="239.1" rx="7.9" ry="3.4"/>
		<ellipse fill="#A7A9AB" cx="312.1" cy="239.8" rx="7.9" ry="3.4"/>
		<ellipse fill="#A7A9AB" cx="312.1" cy="240.6" rx="7.9" ry="3.4"/>
		<ellipse fill="#A7A9AB" cx="312.1" cy="241.3" rx="7.9" ry="3.4"/>
		<ellipse fill="#D3D3D3" cx="312.1" cy="236.8" rx="7.9" ry="3.4"/>
	</g>
	
		<line fill="none" stroke="#000000" stroke-width="2" stroke-linecap="round" stroke-linejoin="round" stroke-miterlimit="10" x1="312.1" y1="236.4" x2="433.1" y2="261.8"/>
	<path fill="none" stroke="#000000" stroke-width="2" stroke-linejoin="round" stroke-miterlimit="10" d="M314.4,323.4"/>
	<path fill="none" stroke="#000000" stroke-width="2" stroke-linejoin="round" stroke-miterlimit="10" d="M314.4,257.4"/>
	
		<line fill="none" stroke="#000000" stroke-width="2" stroke-linejoin="round" stroke-miterlimit="10" x1="331.4" y1="302.4" x2="331.4" y2="329.4"/>
	
		<line fill="none" stroke="#000000" stroke-width="2" stroke-linejoin="round" stroke-miterlimit="10" x1="351.4" y1="318.4" x2="351.4" y2="337.4"/>
	<g>
		<ellipse fill="#776F6E" cx="329.8" cy="300" rx="9.9" ry="4.8"/>
		<polygon fill="#776F6E" points="311.9,294.2 320.4,301.4 338.4,301.4 345.4,296.4 		"/>
		<ellipse fill="#D3D3D3" stroke="#776F6E" stroke-miterlimit="10" cx="329.9" cy="291.4" rx="18.5" ry="9"/>
		<ellipse fill="#776F6E" cx="329.7" cy="293.6" rx="5.6" ry="2.7"/>
	</g>
	<g>
		<ellipse fill="#A7A9AB" cx="312.1" cy="252.6" rx="7.9" ry="3.4"/>
		<ellipse fill="#A7A9AB" cx="312.1" cy="252.6" rx="7.9" ry="3.4"/>
		<ellipse fill="#A7A9AB" cx="312.1" cy="252.6" rx="7.9" ry="3.4"/>
		<ellipse fill="#A7A9AB" cx="312.1" cy="252.6" rx="7.9" ry="3.4"/>
		<ellipse fill="#A7A9AB" cx="312.1" cy="252.6" rx="7.9" ry="3.4"/>
		<ellipse fill="#A7A9AB" cx="312.1" cy="253.3" rx="7.9" ry="3.4"/>
		<ellipse fill="#A7A9AB" cx="312.1" cy="254.1" rx="7.9" ry="3.4"/>
		<ellipse fill="#A7A9AB" cx="312.1" cy="254.8" rx="7.9" ry="3.4"/>
		<ellipse fill="#A7A9AB" cx="312.1" cy="255.6" rx="7.9" ry="3.4"/>
		<ellipse fill="#A7A9AB" cx="312.1" cy="256.3" rx="7.9" ry="3.4"/>
		<ellipse fill="#D3D3D3" cx="312.1" cy="251.8" rx="7.9" ry="3.4"/>
	</g>
	<polyline fill="none" stroke="#E5D405" stroke-width="2" stroke-linejoin="round" stroke-miterlimit="10" points="339.9,307.9 
		339.6,336.7 164.4,276.7 164.4,201.4 	"/>
	<g>
		<path fill="#EF4E23" d="M338.4,305.2c0,0,14,20.2,83,25.8c0,4,0,6.5,0,6.5s-68-5.5-83-27.5C338.4,307.4,338.4,305.2,338.4,305.2z"
			/>
		<g>
			<path fill="#E6E7E8" stroke="#EF4E23" stroke-miterlimit="10" d="M376.9,325.6c-2-0.5-4-1.1-6-1.6v2.9c2,0.6,4,1.1,6,1.6V325.6z"
				/>
			<path fill="#E6E7E8" stroke="#EF4E23" stroke-miterlimit="10" d="M362.9,321.3c-2-0.8-4-1.6-6-2.4v3.1c2,0.8,4,1.6,6,2.3V321.3z"
				/>
			<path fill="#E6E7E8" stroke="#EF4E23" stroke-miterlimit="10" d="M369.9,323.6c-2-0.6-4-1.3-6-2v3c2,0.7,4,1.3,6,1.9V323.6z"/>
			<path fill="#E6E7E8" stroke="#EF4E23" stroke-miterlimit="10" d="M343.9,314.9c2,1.2,4,2.2,5,3.3V315c-1-1.1-3-2.2-5-3.1V314.9z"
				/>
			<path fill="#E6E7E8" stroke="#EF4E23" stroke-miterlimit="10" d="M355.9,318.5c-2-1-4-2-6-2.9v3.2c2,1,4,2,6,2.9V318.5z"/>
			<path fill="#E6E7E8" stroke="#EF4E23" stroke-miterlimit="10" d="M383.9,327.2c-2-0.4-4-0.9-6-1.4v2.9c3,0.5,5,1,6,1.4V327.2z"/>
			<path fill="#E6E7E8" stroke="#EF4E23" stroke-miterlimit="10" d="M410.9,331.2c-2-0.2-4-0.4-6-0.6v3.5c3,0.3,5,0.6,6,0.9V331.2z"
				/>
			<path fill="#E6E7E8" stroke="#EF4E23" stroke-miterlimit="10" d="M342.9,311.2c-3-2.3-4-3.9-4-3.9s0,0.4,0,2.4c1,1.5,3,3,4,4.4
				V311.2z"/>
			<path fill="#E6E7E8" stroke="#EF4E23" stroke-miterlimit="10" d="M390.9,328.5c-2-0.4-4-0.7-6-1.1v3c3,0.4,5,0.9,6,1.2V328.5z"/>
			<path fill="#E6E7E8" stroke="#EF4E23" stroke-miterlimit="10" d="M411.9,331.3v3.8c5,0.6,8,0.8,8,0.8s0-0.8,0-4
				C416.9,331.7,414.9,331.5,411.9,331.3z"/>
			<path fill="#E6E7E8" stroke="#EF4E23" stroke-miterlimit="10" d="M397.9,329.7c-2-0.3-4-0.6-6-0.9v3.1c3,0.4,5,0.8,6,1.1V329.7z"
				/>
			<path fill="#E6E7E8" stroke="#EF4E23" stroke-miterlimit="10" d="M403.9,330.5c-1-0.2-3-0.4-5-0.7v3.3c2,0.3,4,0.6,5,0.8V330.5z"
				/>
		</g>
	</g>
	<g>
		<g>
			<polygon fill="#E6E6E6" points="207.4,210.8 203.6,211.2 156.1,200.7 173.3,193.7 221.9,199.4 219.2,201.6 219.6,202.9 			"/>
			<g>
				<g>
					<path fill="#776F6E" d="M203.5,211.8l-48.5-10.6c-0.4-0.1-0.3-0.2,0-0.4l0.3-0.1c0.4-0.2,1-0.2,1.4-0.2c0.2,0,0.3,0.1,0.2,0.2
						l47.4,10.1l1.6-0.2l12.4-7.8l-0.6-0.6c0-0.1,0-0.2,0.1-0.3l3.3-2l-47.7-5.8l-1.5,0.6c-0.3,0.1-0.8,0.2-1.1,0.1
						c-0.3,0-0.4-0.2-0.1-0.3l1.9-0.8c0.3-0.1,0.7-0.2,1.1-0.1l49.5,5.8c0.6,0.1,0.9,0.3,0.6,0.5l-3.6,2.3l0.7,0.6
						c0.1,0.1,0.1,0.2-0.1,0.3l-12.9,8.4c-0.2,0.1-0.5,0.2-0.8,0.2l-2.7,0.3C204.2,211.8,203.8,211.8,203.5,211.8z"/>
				</g>
				<g>
					<path fill="#776F6E" d="M161.1,198.7c-0.4-0.1-0.4-0.2,0-0.4l4.4-1.8c0.3-0.1,0.8-0.2,1.2-0.1c0.3,0,0.4,0.2,0.1,0.3l-4.4,1.8
						C162,198.7,161.5,198.7,161.1,198.7z"/>
				</g>
				<path fill="#776F6E" d="M169.4,196.6l-5.1-0.7c-0.2,0-0.3-0.1,0-0.2l2.9-1.1c0.2-0.1,0.6-0.1,0.8-0.1l5,0.6
					c0.3,0,0.3,0.1,0.1,0.2l-2.8,1.2C170.1,196.6,169.6,196.7,169.4,196.6z"/>
				<path fill="#776F6E" d="M160.7,200.9l-4.7-0.8c-0.3,0-0.2-0.2,0-0.3l2.6-1c0.3-0.1,0.7-0.2,1-0.1l4.6,0.7c0.3,0,0.3,0.2,0,0.3
					l-2.6,1.1C161.5,200.9,161,200.9,160.7,200.9z"/>
				<path fill="#776F6E" d="M175.6,199.3c-0.2,0-0.5,0-0.6,0.1l-0.3,0.1l0.7,0.1l0.3-0.1C175.9,199.4,175.8,199.3,175.6,199.3z"/>
				<path fill="#776F6E" d="M174.5,199.1c-0.2,0-0.5,0-0.6,0.1l-0.3,0.1l0.7,0.1l0.3-0.1C174.8,199.2,174.7,199.1,174.5,199.1z"/>
				<path fill="#776F6E" d="M176.7,199.4c-0.2,0-0.5,0-0.7,0.1l-0.3,0.1l0.8,0.1l0.3-0.1C177,199.5,177,199.5,176.7,199.4z"/>
				<path fill="#776F6E" d="M177.9,199.6c-0.2,0-0.5,0-0.7,0.1l-0.3,0.1l0.8,0.1l0.3-0.1C178.2,199.7,178.1,199.6,177.9,199.6z"/>
				<path fill="#776F6E" d="M179,199.8c-0.2,0-0.5,0-0.7,0.1l-0.3,0.1l0.8,0.1l0.3-0.1C179.3,199.9,179.3,199.8,179,199.8z"/>
				<path fill="#776F6E" d="M180.2,199.9c-0.2,0-0.5,0-0.7,0.1l-0.3,0.1l0.8,0.1l0.3-0.1C180.5,200,180.4,200,180.2,199.9z"/>
				<path fill="#776F6E" d="M181.4,200.1c-0.2,0-0.5,0-0.7,0.1l-0.3,0.1l0.8,0.1l0.3-0.1C181.7,200.2,181.6,200.1,181.4,200.1z"/>
				<path fill="#776F6E" d="M182.6,200.3c-0.2,0-0.5,0-0.7,0.1l-0.3,0.1l0.8,0.1l0.3-0.1C182.9,200.4,182.8,200.3,182.6,200.3z"/>
				<path fill="#776F6E" d="M183.8,200.5c-0.2,0-0.5,0-0.7,0.1l-0.3,0.1l0.8,0.1l0.3-0.1C184.1,200.6,184.1,200.5,183.8,200.5z"/>
				<path fill="#776F6E" d="M185.1,200.6c-0.2,0-0.5,0-0.7,0.1l-0.3,0.1l0.8,0.1l0.3-0.2C185.4,200.8,185.3,200.7,185.1,200.6z"/>
				<path fill="#776F6E" d="M186.3,200.8c-0.3,0-0.5,0-0.7,0.1l-0.3,0.2l0.8,0.1l0.3-0.2C186.6,200.9,186.6,200.9,186.3,200.8z"/>
				<path fill="#776F6E" d="M187.6,201c-0.3,0-0.5,0-0.7,0.1l-0.3,0.2l0.9,0.1l0.3-0.2C187.9,201.1,187.9,201,187.6,201z"/>
				<path fill="#776F6E" d="M188.9,201.2c-0.3,0-0.5,0-0.7,0.1l-0.3,0.2l0.9,0.1l0.2-0.2C189.2,201.3,189.2,201.2,188.9,201.2z"/>
				<path fill="#776F6E" d="M190.2,201.4c-0.3,0-0.5,0-0.7,0.1l-0.2,0.2l0.9,0.1l0.2-0.2C190.6,201.5,190.5,201.4,190.2,201.4z"/>
				<path fill="#776F6E" d="M185,203.6c0.3,0,0.6,0,0.7-0.1l0.3-0.2l-0.9-0.1l-0.3,0.2C184.6,203.5,184.7,203.6,185,203.6z"/>
				<path fill="#776F6E" d="M186.3,203.9c0.3,0,0.6,0,0.7-0.1l0.3-0.2l-0.9-0.1l-0.3,0.2C186,203.7,186.1,203.8,186.3,203.9z"/>
				<path fill="#776F6E" d="M183.6,203.4c0.3,0,0.6,0,0.7-0.1l0.3-0.2l-0.9-0.1l-0.3,0.2C183.3,203.3,183.4,203.4,183.6,203.4z"/>
				<path fill="#776F6E" d="M182.3,203.2c0.3,0,0.6,0,0.7-0.1l0.3-0.2l-0.9-0.1l-0.3,0.2C182,203.1,182,203.2,182.3,203.2z"/>
				<path fill="#776F6E" d="M181,203c0.3,0,0.5,0,0.7-0.1l0.3-0.2l-0.9-0.1l-0.3,0.2C180.7,202.9,180.7,202.9,181,203z"/>
				<path fill="#776F6E" d="M179.7,202.8c0.3,0,0.5,0,0.7-0.1l0.3-0.2l-0.8-0.1l-0.3,0.2C179.4,202.6,179.5,202.7,179.7,202.8z"/>
				<path fill="#776F6E" d="M178.5,202.6c0.3,0,0.5,0,0.7-0.1l0.3-0.2l-0.8-0.1l-0.3,0.2C178.2,202.4,178.2,202.5,178.5,202.6z"/>
				<path fill="#776F6E" d="M177.2,202.4c0.2,0,0.5,0,0.7-0.1l0.3-0.2l-0.8-0.1l-0.3,0.2C176.9,202.2,177,202.3,177.2,202.4z"/>
				<path fill="#776F6E" d="M176,202.2c0.2,0,0.5,0,0.7-0.1l0.3-0.2l-0.8-0.1l-0.3,0.2C175.7,202.1,175.7,202.1,176,202.2z"/>
				<path fill="#776F6E" d="M174.8,202c0.2,0,0.5,0,0.7-0.1l0.3-0.2l-0.8-0.1l-0.3,0.2C174.5,201.9,174.5,201.9,174.8,202z"/>
				<path fill="#776F6E" d="M173.6,201.8c0.2,0,0.5,0,0.7-0.1l0.3-0.2l-0.8-0.1l-0.3,0.2C173.3,201.7,173.3,201.8,173.6,201.8z"/>
				<path fill="#776F6E" d="M172.4,201.6c0.2,0,0.5,0,0.7-0.1l0.3-0.2l-0.8-0.1l-0.3,0.2C172.1,201.5,172.2,201.6,172.4,201.6z"/>
				<path fill="#776F6E" d="M171.2,201.4c0.2,0,0.5,0,0.7-0.1l0.3-0.1l-0.8-0.1l-0.3,0.1C171,201.3,171,201.4,171.2,201.4z"/>
				<path fill="#776F6E" d="M170.1,201.2c0.2,0,0.5,0,0.7-0.1l0.3-0.1l-0.8-0.1L170,201C169.8,201.1,169.9,201.2,170.1,201.2z"/>
				<path fill="#776F6E" d="M190.4,202l-17.4-2.6c-0.2,0-0.5,0-0.7,0.1l-2.1,1c-0.2,0.1-0.2,0.2,0.1,0.2l17.8,2.8
					c0.3,0,0.6,0,0.7-0.1l1.8-1.2C190.7,202.1,190.6,202,190.4,202z M188.7,203.1c-0.5-0.1-0.7-0.3-0.4-0.5c0.3-0.2,0.9-0.3,1.4-0.2
					L188.7,203.1z"/>
				<path fill="#776F6E" d="M175.4,196.4c-2.3,1,1.1,2,5.6,1.2c0,1.5,5.5,1.6,7.5,0.5c1.9-1.1-1.6-2-6-1.2
					C182.6,195.5,177.5,195.4,175.4,196.4L175.4,196.4z M176.5,196.5c1.5-0.7,5.1-0.6,4.6,0.6C177.6,197.9,174.9,197.3,176.5,196.5
					L176.5,196.5z M182.4,197.3c3.3-0.8,6.3-0.1,4.9,0.6C185.8,198.7,181.8,198.5,182.4,197.3z"/>
				<polygon fill="#776F6E" points="177.9,196.6 179.7,196.8 179.3,197 177.5,196.8 				"/>
				<polygon fill="#776F6E" points="184.5,197.7 183.8,197.6 184.2,197.3 184.9,197.4 185.3,197.2 186,197.3 185.6,197.5 
					186.2,197.6 185.8,197.8 185.1,197.7 184.7,198 184.1,197.9 				"/>
			</g>
		</g>
		<path fill="#776F6E" d="M211.9,200.6l-17.4-2.6c-0.2,0-0.5,0-0.7,0.1l-2.1,1c-0.2,0.1-0.2,0.2,0.1,0.2l17.8,2.8
			c0.3,0,0.6,0,0.7-0.1l1.8-1.2C212.2,200.7,212.1,200.6,211.9,200.6z M210.2,201.7c-0.5-0.1-0.7-0.3-0.4-0.5
			c0.3-0.2,0.9-0.3,1.4-0.2L210.2,201.7z"/>
	</g>
	<g>
		<g>
			<line fill="none" stroke="#0C0808" stroke-linejoin="round" x1="311.9" y1="235.4" x2="311.9" y2="233.4"/>
			
				<line fill="none" stroke="#0C0808" stroke-linejoin="round" stroke-dasharray="4,4" x1="311.9" y1="229.4" x2="311.9" y2="217.4"/>
			<line fill="none" stroke="#0C0808" stroke-linejoin="round" x1="311.9" y1="215.4" x2="311.9" y2="213.4"/>
		</g>
	</g>
	<g>
		<g>
			<line fill="none" stroke="#0C0808" stroke-linejoin="round" x1="432.9" y1="261.4" x2="432.9" y2="259.4"/>
			
				<line fill="none" stroke="#0C0808" stroke-linejoin="round" stroke-dasharray="4,4" x1="432.9" y1="255.4" x2="432.9" y2="243.4"/>
			<line fill="none" stroke="#0C0808" stroke-linejoin="round" x1="432.9" y1="241.4" x2="432.9" y2="239.4"/>
		</g>
	</g>
	<g>
		<path fill="#EF4E23" d="M342.4,231.4c-14.2-2.7-22.3-10.7-27.4-11.7c-2.5-1.1-19.1-1.3-4.5-8.3c13.8-7,21.9-2.7,26-2.5
			c5.3,0.9,28.9,0.8,42.9,3.4c14.2,2.6,47.7,17.2,53.9,18.1c2.8,0.4,3.1,0.1,6.8,0.8c4.8,1.2,8.4,2.9,6.5,4.7c-1.1,1-2.6,2-4.3,3
			c-1.9,1-4,1.9-6.1,2.7c-3.8,1.4-10.2,1.2-16,0.5c-3.8-0.7-3-1-5.5-1.5C409,239.3,356.7,234.2,342.4,231.4"/>
		<path opacity="0.51" fill="#9E2E1B" d="M328,214.7c0,0,0.3,0.1,1,0.2c0.6,0.2,1.6,0.4,2.7,0.7c2.4,0.6,5.8,1.4,9.9,2.3
			c2.1,0.5,4.3,1,6.7,1.5c2.4,0.5,4.9,1.1,7.6,1.7c2.6,0.6,5.4,1.2,8.2,1.8c2.8,0.6,5.7,1.2,8.5,1.9c2.9,0.6,5.8,1.3,8.6,1.9
			c2.9,0.6,5.7,1.2,8.4,1.8c5.5,1.2,10.7,2.3,15.2,3.2c4.5,0.9,8.3,1.7,11,2.2c1.3,0.3,2.4,0.5,3.1,0.6c0.7,0.1,1.1,0.2,1.1,0.2
			s-0.4-0.1-1-0.3c-0.7-0.2-1.7-0.4-2.9-0.7c-2.5-0.6-6.1-1.5-10.5-2.5c-4.3-1-9.4-2.2-14.8-3.4c-2.7-0.6-5.5-1.2-8.3-1.9
			c-2.8-0.6-5.7-1.3-8.6-1.9c-2.9-0.6-5.8-1.2-8.6-1.9c-2.8-0.6-5.6-1.2-8.3-1.8c-2.7-0.6-5.3-1.1-7.8-1.6c-2.5-0.5-4.8-1-6.9-1.4
			c-4.3-0.9-7.9-1.6-10.4-2.1c-1.3-0.2-2.3-0.4-2.9-0.6C328.4,214.7,328,214.7,328,214.7"/>
		<path opacity="0.51" fill="#9E2E1B" d="M319.5,218.5c0,0,0.3,0.1,0.8,0.3c0.5,0.2,1.3,0.5,2.3,0.9c1,0.4,2.2,0.8,3.7,1.3
			c1.4,0.5,3.1,1.1,4.9,1.6c1.8,0.6,3.9,1.2,6.1,1.9c1.1,0.3,2.3,0.6,3.5,1c0.6,0.2,1.2,0.3,1.8,0.5c0.6,0.2,1.3,0.3,1.9,0.5
			c2.6,0.6,5.5,1.2,8.4,1.8c3,0.6,6,1.1,9.1,1.7c6.1,1.1,12.3,2.2,18.1,3.2c2.9,0.5,5.8,1,8.4,1.5c2.7,0.5,5.3,0.9,7.6,1.3
			c4.8,0.8,8.7,1.5,11.5,2c2.8,0.5,4.4,0.7,4.4,0.7s-1.5-0.3-4.2-0.8c-2.7-0.5-6.5-1.3-11.2-2.1c-4.6-0.9-10-1.9-15.7-3
			c-5.7-1.1-11.8-2.2-17.9-3.4c-3-0.6-6-1.1-9-1.7c-0.7-0.1-1.5-0.3-2.2-0.4c-0.7-0.1-1.4-0.3-2.1-0.4c-0.7-0.1-1.4-0.3-2-0.5
			c-0.7-0.2-1.3-0.3-2-0.5c-2.6-0.6-5-1.3-7.3-1.9c-2.3-0.6-4.4-1.2-6.3-1.7c-3.8-1.1-7-2-9.3-2.7
			C320.7,218.9,319.5,218.5,319.5,218.5"/>
		<path opacity="0.51" fill="#9E2E1B" d="M335.2,210.6c0,0,0.4,0.1,1.1,0.2c0.7,0.1,1.7,0.3,3,0.5c1.3,0.2,2.9,0.5,4.7,0.8
			c1.8,0.3,3.9,0.6,6.2,1c2.3,0.4,4.7,0.8,7.4,1.2c2.6,0.4,5.4,0.9,8.2,1.4c1.4,0.2,2.9,0.5,4.3,0.7c0.7,0.1,1.5,0.3,2.2,0.4
			c0.7,0.1,1.4,0.3,2.1,0.4c2.8,0.6,5.6,1.3,8.3,1.9c2.8,0.7,5.5,1.4,8.2,2.1c2.7,0.7,5.3,1.4,7.9,2c5.1,1.3,9.9,2.6,14.1,3.7
			c8.3,2.2,13.8,3.7,13.8,3.7s-1.3-0.4-3.6-1.1c-2.3-0.7-5.6-1.7-9.6-2.8c-2-0.6-4.1-1.2-6.4-1.9c-2.3-0.7-4.7-1.3-7.2-2
			c-2.5-0.7-5.1-1.4-7.8-2.1c-2.7-0.7-5.4-1.4-8.1-2.1c-2.7-0.7-5.5-1.4-8.3-2c-0.7-0.1-1.4-0.3-2.1-0.4c-0.7-0.2-1.5-0.3-2.2-0.4
			c-1.4-0.3-2.9-0.5-4.3-0.8c-2.9-0.5-5.6-0.9-8.3-1.3c-2.7-0.4-5.2-0.8-7.6-1.1c-2.3-0.3-4.5-0.6-6.5-0.9c-1.9-0.3-3.6-0.5-5-0.6
			c-1.4-0.2-2.5-0.3-3.3-0.4C335.6,210.7,335.2,210.6,335.2,210.6"/>
		<path opacity="0.51" fill="#9E2E1B" d="M327.4,217.8c0,0,1.1,0.3,3.1,0.9c1,0.3,2.2,0.7,3.6,1c1.4,0.4,3,0.8,4.8,1.3
			c1.7,0.5,3.7,1,5.8,1.5c2.1,0.5,4.3,1.1,6.7,1.6c1.2,0.3,2.4,0.5,3.7,0.8c1.3,0.3,2.6,0.5,3.9,0.8c2.6,0.5,5.2,1.1,7.8,1.6
			c10.6,2.2,21.2,4.3,29.2,6c8.1,1.6,13.5,2.7,13.5,2.7s-1.3-0.3-3.6-0.8c-2.3-0.5-5.6-1.2-9.5-2.1c-3.9-0.9-8.5-1.9-13.4-2.9
			c-4.9-1.1-10.1-2.2-15.3-3.3c-2.6-0.5-5.2-1.1-7.8-1.6c-1.3-0.3-2.6-0.5-3.8-0.8c-1.2-0.3-2.4-0.5-3.6-0.8
			c-2.3-0.5-4.6-1.1-6.7-1.6c-2.1-0.5-4.1-1-5.9-1.4c-1.8-0.4-3.5-0.8-5-1.2c-1.5-0.4-2.8-0.7-3.9-0.9
			C328.6,218.1,327.4,217.8,327.4,217.8"/>
		<path opacity="0.51" fill="#9E2E1B" d="M336.6,213.2c0,0,1.2,0.3,3.4,0.7c1.1,0.2,2.4,0.5,4,0.8c1.6,0.3,3.3,0.7,5.2,1.1
			c1.9,0.4,4.1,0.8,6.3,1.2c2.3,0.4,4.6,0.9,7.1,1.4c2.5,0.5,5.1,0.9,7.6,1.5c2.5,0.5,5,1.1,7.5,1.7c2.5,0.6,5,1.2,7.5,1.8
			c2.5,0.6,4.9,1.2,7.3,1.7c4.7,1.1,9.2,2.2,13,3.1c7.7,1.8,12.8,3,12.8,3s-1.2-0.3-3.4-0.9c-2.2-0.6-5.3-1.4-9-2.3
			c-3.7-1-8.1-2.1-12.7-3.2c-4.7-1.2-9.6-2.4-14.6-3.6c-2.5-0.6-5-1.2-7.5-1.7c-2.5-0.5-5.1-1-7.6-1.5c-2.5-0.5-4.9-0.9-7.2-1.3
			c-2.3-0.4-4.4-0.8-6.4-1.2c-2-0.4-3.8-0.7-5.5-1c-1.6-0.3-3.1-0.5-4.2-0.7C338,213.4,336.6,213.2,336.6,213.2"/>
		<path opacity="0.51" fill="#9E2E1B" d="M329.4,224.4c0,0,0.1,0.1,0.4,0.2c0.2,0.1,0.6,0.3,1.1,0.5c0.5,0.2,1.1,0.5,1.8,0.8
			c0.7,0.3,1.5,0.6,2.5,1c0.9,0.4,2,0.7,3.2,1.1c0.6,0.2,1.2,0.4,1.9,0.5c0.7,0.2,1.3,0.4,2,0.5c1.4,0.3,2.9,0.7,4.6,1
			c1.6,0.3,3.3,0.6,5,0.9c1.7,0.3,3.4,0.5,5.1,0.8c1.7,0.3,3.4,0.5,5,0.7c3.3,0.5,6.4,0.9,9.1,1.2c2.7,0.3,5,0.6,6.6,0.8
			c1.6,0.2,2.5,0.3,2.5,0.3s-0.9-0.1-2.4-0.4c-1.5-0.2-3.7-0.6-6.2-1c-2.6-0.4-5.6-0.9-8.8-1.4c-1.6-0.3-3.3-0.5-4.9-0.8
			c-1.7-0.3-3.4-0.5-5.1-0.8c-1.7-0.3-3.4-0.6-5-0.9c-1.6-0.3-3.2-0.6-4.6-0.9c-0.7-0.2-1.4-0.3-2.1-0.5c-0.7-0.2-1.3-0.3-1.9-0.5
			c-0.6-0.2-1.2-0.3-1.8-0.5c-0.6-0.2-1.1-0.3-1.6-0.5c-2-0.6-3.6-1.2-4.7-1.6C330,224.6,329.4,224.4,329.4,224.4"/>
		<path opacity="0.51" fill="#9E2E1B" d="M357.6,211.4c0,0,0.9,0.1,2.5,0.2c1.6,0.2,3.7,0.4,6.3,0.8c0.6,0.1,1.3,0.2,1.9,0.3
			c0.7,0.1,1.3,0.2,2,0.3c0.7,0.1,1.4,0.3,2.1,0.4c0.7,0.1,1.4,0.3,2.1,0.4c1.4,0.3,2.9,0.7,4.3,1c1.4,0.4,2.8,0.8,4.2,1.2
			c1.4,0.4,2.8,0.8,4.2,1.2c1.4,0.4,2.7,0.8,4,1.2c2.6,0.8,5.1,1.5,7.2,2.1c2.1,0.6,3.9,1.1,5.1,1.5c1.2,0.4,2,0.6,2,0.6
			s-0.6-0.2-1.8-0.7c-1.1-0.4-2.7-1-4.7-1.7c-2-0.7-4.3-1.5-6.8-2.3c-1.3-0.4-2.6-0.8-3.9-1.2c-1.4-0.4-2.7-0.8-4.2-1.2
			c-1.4-0.4-2.8-0.8-4.3-1.2c-1.4-0.4-2.9-0.7-4.4-1c-0.7-0.1-1.5-0.3-2.2-0.4c-0.8-0.1-1.5-0.3-2.2-0.4c-1.4-0.2-2.8-0.4-4.2-0.6
			c-1.3-0.2-2.6-0.3-3.7-0.4c-1.1-0.1-2.1-0.2-2.9-0.2c-0.8-0.1-1.5-0.1-1.9-0.1C357.8,211.4,357.6,211.4,357.6,211.4"/>
	</g>
	<g>
		<g>
			<line fill="none" stroke="#0C0808" stroke-linejoin="round" x1="175.9" y1="122.4" x2="175.9" y2="120.4"/>
			
				<line fill="none" stroke="#0C0808" stroke-linejoin="round" stroke-dasharray="4,4" x1="175.9" y1="116.4" x2="175.9" y2="104.4"/>
			<line fill="none" stroke="#0C0808" stroke-linejoin="round" x1="175.9" y1="102.4" x2="175.9" y2="100.4"/>
		</g>
	</g>
	<path fill="#EF4E23" d="M185.2,91.5c-14.2-0.7-13.9,5.6-13.9,5.6s-19.9,1.1-15.1,5.4c3.9,3.5,30.4-1.4,30.4-1.4
		S196.6,92,185.2,91.5"/>
	<path fill="#776F6E" d="M178.8,152.5c-0.2,0-0.5,0-0.6,0.1l-0.3,0.1l0.7,0.1l0.3-0.1C179.1,152.6,179,152.5,178.8,152.5z"/>
	<path fill="#776F6E" d="M177.7,152.3c-0.2,0-0.5,0-0.6,0.1l-0.3,0.1l0.7,0.1l0.3-0.1C177.9,152.4,177.9,152.3,177.7,152.3z"/>
	<path fill="#776F6E" d="M179.9,152.6c-0.2,0-0.5,0-0.7,0.1l-0.3,0.1l0.8,0.1l0.3-0.1C180.2,152.7,180.1,152.7,179.9,152.6z"/>
	<path fill="#776F6E" d="M181.1,152.8c-0.2,0-0.5,0-0.7,0.1l-0.3,0.1l0.8,0.1l0.3-0.1C181.3,152.9,181.3,152.8,181.1,152.8z"/>
	<path fill="#776F6E" d="M182.2,153c-0.2,0-0.5,0-0.7,0.1l-0.3,0.1l0.8,0.1l0.3-0.1C182.5,153.1,182.5,153,182.2,153z"/>
	<path fill="#776F6E" d="M183.4,153.1c-0.2,0-0.5,0-0.7,0.1l-0.3,0.1l0.8,0.1l0.3-0.1C183.7,153.2,183.6,153.2,183.4,153.1z"/>
	<path fill="#776F6E" d="M182.9,156c0.3,0,0.5,0,0.7-0.1l0.3-0.2l-0.8-0.1l-0.3,0.2C182.6,155.8,182.6,155.9,182.9,156z"/>
	<path fill="#776F6E" d="M181.6,155.8c0.3,0,0.5,0,0.7-0.1l0.3-0.2l-0.8-0.1l-0.3,0.2C181.3,155.6,181.4,155.7,181.6,155.8z"/>
	<path fill="#776F6E" d="M180.4,155.6c0.2,0,0.5,0,0.7-0.1l0.3-0.2l-0.8-0.1l-0.3,0.2C180.1,155.4,180.1,155.5,180.4,155.6z"/>
	<path fill="#776F6E" d="M179.2,155.4c0.2,0,0.5,0,0.7-0.1l0.3-0.2l-0.8-0.1l-0.3,0.2C178.9,155.2,178.9,155.3,179.2,155.4z"/>
	<path fill="#776F6E" d="M178,155.2c0.2,0,0.5,0,0.7-0.1l0.3-0.2l-0.8-0.1l-0.3,0.2C177.7,155,177.7,155.1,178,155.2z"/>
	<path fill="#776F6E" d="M176.8,155c0.2,0,0.5,0,0.7-0.1l0.3-0.2l-0.8-0.1l-0.3,0.2C176.5,154.9,176.5,154.9,176.8,155z"/>
	<path fill="#776F6E" d="M175.6,154.8c0.2,0,0.5,0,0.7-0.1l0.3-0.2l-0.8-0.1l-0.3,0.2C175.3,154.7,175.4,154.8,175.6,154.8z"/>
	<path fill="#776F6E" d="M174.4,154.6c0.2,0,0.5,0,0.7-0.1l0.3-0.1l-0.8-0.1l-0.3,0.1C174.2,154.5,174.2,154.6,174.4,154.6z"/>
	<path fill="#776F6E" d="M173.3,154.4c0.2,0,0.5,0,0.7-0.1l0.3-0.1l-0.8-0.1l-0.3,0.1C173,154.3,173.1,154.4,173.3,154.4z"/>
	
		<line fill="none" stroke="#000000" stroke-width="2" stroke-linejoin="round" stroke-miterlimit="10" x1="177.7" y1="152.6" x2="97.1" y2="137.1"/>
	
		<line fill="none" stroke="#E5D405" stroke-width="2" stroke-linejoin="round" stroke-miterlimit="10" x1="166.4" y1="154.1" x2="87.7" y2="138.4"/>
	<g>
		<ellipse fill="#776F6E" cx="85.6" cy="138.5" rx="14.2" ry="6.9"/>
		<polygon fill="#776F6E" points="59.9,130.1 72.1,140.4 98,140.4 108.1,133.3 		"/>
		<ellipse fill="#D3D3D3" stroke="#776F6E" stroke-miterlimit="10" cx="85.8" cy="126.2" rx="26.6" ry="12.9"/>
		<ellipse fill="#776F6E" cx="85.5" cy="129.4" rx="8" ry="3.9"/>
	</g>
	<polygon fill="#E6E6E6" points="192.5,160.5 189.3,161 160.1,155.7 177.3,148.7 203.3,151.6 201.4,153.2 201.8,154.2 	"/>
	<g>
		<path fill="#776F6E" d="M189.3,161.5l-30.2-5.4c-0.4-0.1-0.3-0.2,0-0.4l0.3-0.1c0.4-0.2,1-0.2,1.4-0.2c0.2,0,0.3,0.1,0.2,0.2
			l28.9,5l1.4-0.2l9.5-6.4l-0.5-0.5c0-0.1,0-0.1,0.1-0.2l2.3-1.5l-25.3-2.9l-16.9,6.8c-0.3,0.1-0.8,0.2-1.1,0.1
			c-0.3,0-0.4-0.2-0.1-0.3l17.3-7c0.3-0.1,0.7-0.2,1.1-0.1l26.5,2.9c0.5,0.1,0.7,0.2,0.5,0.3l-2.5,1.7l0.6,0.5
			c0.1,0.1,0.1,0.2,0,0.2l-9.7,6.8c-0.1,0.1-0.4,0.2-0.7,0.2l-2.3,0.3C189.8,161.5,189.5,161.5,189.3,161.5z"/>
	</g>
	<path fill="#776F6E" d="M184.6,153.3c-0.2,0-0.5,0-0.7,0.1l-0.3,0.1l0.8,0.1l0.3-0.1C184.9,153.4,184.8,153.3,184.6,153.3z"/>
	<path fill="#776F6E" d="M185.8,153.5c-0.2,0-0.5,0-0.7,0.1l-0.3,0.1l0.8,0.1l0.3-0.1C186.1,153.6,186,153.5,185.8,153.5z"/>
	<path fill="#776F6E" d="M187,153.6c-0.2,0-0.5,0-0.7,0.1l-0.3,0.1l0.8,0.1l0.3-0.1C187.3,153.8,187.3,153.7,187,153.6z"/>
	<path fill="#776F6E" d="M188.3,153.8c-0.2,0-0.5,0-0.7,0.1l-0.3,0.1l0.8,0.1l0.3-0.2C188.6,153.9,188.5,153.9,188.3,153.8z"/>
	<path fill="#776F6E" d="M189.5,154c-0.3,0-0.5,0-0.7,0.1l-0.3,0.2l0.8,0.1l0.3-0.2C189.8,154.1,189.8,154,189.5,154z"/>
	<path fill="#776F6E" d="M190.8,154.2c-0.3,0-0.5,0-0.7,0.1l-0.3,0.2l0.9,0.1l0.3-0.2C191.1,154.3,191,154.2,190.8,154.2z"/>
	<path fill="#776F6E" d="M192.1,154.4c-0.3,0-0.5,0-0.7,0.1l-0.3,0.2l0.9,0.1l0.2-0.2C192.4,154.5,192.3,154.4,192.1,154.4z"/>
	<path fill="#776F6E" d="M193.4,154.6c-0.3,0-0.5,0-0.7,0.1l-0.2,0.2l0.9,0.1l0.2-0.2C193.7,154.7,193.7,154.6,193.4,154.6z"/>
	<path fill="#776F6E" d="M188.2,156.8c0.3,0,0.6,0,0.7-0.1l0.3-0.2l-0.9-0.1l-0.3,0.2C187.8,156.7,187.9,156.8,188.2,156.8z"/>
	<path fill="#776F6E" d="M189.5,157c0.3,0,0.6,0,0.7-0.1l0.3-0.2l-0.9-0.1l-0.3,0.2C189.2,156.9,189.2,157,189.5,157z"/>
	<path fill="#776F6E" d="M186.8,156.6c0.3,0,0.6,0,0.7-0.1l0.3-0.2l-0.9-0.1l-0.3,0.2C186.5,156.5,186.5,156.6,186.8,156.6z"/>
	<path fill="#776F6E" d="M185.5,156.4c0.3,0,0.6,0,0.7-0.1l0.3-0.2l-0.9-0.1l-0.3,0.2C185.2,156.2,185.2,156.3,185.5,156.4z"/>
	<path fill="#776F6E" d="M184.2,156.2c0.3,0,0.5,0,0.7-0.1l0.3-0.2l-0.9-0.1l-0.3,0.2C183.9,156,183.9,156.1,184.2,156.2z"/>
	<path fill="#776F6E" d="M193.6,155.2l-17.4-2.6c-0.2,0-0.5,0-0.7,0.1l-2.1,1c-0.2,0.1-0.2,0.2,0.1,0.2l17.8,2.8
		c0.3,0,0.6,0,0.7-0.1l1.8-1.2C193.9,155.3,193.8,155.2,193.6,155.2z M191.9,156.2c-0.5-0.1-0.7-0.3-0.4-0.5
		c0.3-0.2,0.9-0.3,1.4-0.2L191.9,156.2z"/>
	<g opacity="0.5">
		<path fill="#EF4E23" d="M44.4,200.4c-6.9-4.5,3.2-7.5,0.7-9.2c-0.5-1.4-12.1-3.6,6.2-8.9c17.8-5.4,18.6,0,21.4,0.7
			c2.8,1.6,12.7-1.3,19.8,3c7.2,4.4,1,11.5,4.3,13.3c1.5,0.8,2.1,0.5,3.9,1.6c2,1.8,2.6,3.9-0.7,5.3c-1.9,0.8-4.2,1.6-6.6,2.4
			c-2.5,0.7-5,1.4-7.5,1.9c-4.3,0.9-8.7-0.1-11.8-1.5c-1.9-1.1-1-1.3-2.2-2.2C69.4,204.8,51.4,204.9,44.4,200.4"/>
		<path opacity="0.51" fill="#9E2E1B" d="M60,187.8c0,0,1.1,0.9,3,2.3c0.5,0.3,1,0.7,1.5,1.1c0.6,0.4,1.1,0.8,1.8,1.2
			c0.6,0.4,1.3,0.8,1.9,1.3c0.7,0.4,1.4,0.9,2.1,1.3c0.7,0.4,1.4,0.9,2.1,1.3c0.7,0.4,1.4,0.8,2.1,1.3c1.4,0.8,2.7,1.6,3.9,2.2
			c2.3,1.3,4,2.1,4,2.1s-1.2-1-3.1-2.4c-1-0.7-2.1-1.5-3.4-2.3c-0.6-0.4-1.3-0.9-2-1.3c-0.7-0.4-1.4-0.9-2.1-1.3
			c-0.7-0.4-1.4-0.9-2.1-1.3c-0.7-0.4-1.4-0.8-2.1-1.2c-0.7-0.4-1.4-0.8-2-1.1c-0.6-0.4-1.2-0.7-1.8-1C61.7,188.6,60,187.8,60,187.8
			"/>
		<path opacity="0.51" fill="#9E2E1B" d="M49.5,190.6c0,0-0.2,0.3-0.2,0.9c0,0.3,0,0.6,0.1,0.9c0.1,0.4,0.2,0.7,0.5,1.2
			c0.1,0.2,0.3,0.4,0.4,0.6c0.1,0.2,0.3,0.4,0.5,0.7c0.2,0.2,0.4,0.4,0.6,0.7c0.2,0.2,0.5,0.5,0.7,0.7c0.6,0.5,1.1,0.9,1.8,1.4
			l0.2,0.2l0.3,0.2c0.2,0.1,0.4,0.2,0.5,0.3c0.3,0.2,0.7,0.4,1.1,0.7c0.4,0.2,0.8,0.4,1.2,0.6c0.4,0.2,0.8,0.4,1.3,0.6
			c0.8,0.4,1.8,0.8,2.7,1.1c0.5,0.2,0.9,0.3,1.3,0.5c0.5,0.2,0.9,0.3,1.3,0.5c0.9,0.3,1.7,0.6,2.6,0.8c1.6,0.5,3.1,0.9,4.1,1.1
			c1,0.3,1.7,0.4,1.7,0.4s-2-0.7-4.9-1.8c-0.7-0.3-1.5-0.6-2.3-0.9c-0.8-0.3-1.6-0.7-2.5-1c-0.8-0.4-1.7-0.8-2.5-1.1
			c-0.4-0.2-0.8-0.4-1.2-0.6c-0.4-0.2-0.8-0.4-1.2-0.6c-0.4-0.2-0.8-0.4-1.1-0.6c-0.2-0.1-0.4-0.2-0.6-0.3l-0.3-0.2l-0.3-0.2
			c-0.3-0.2-0.7-0.4-1-0.7c-0.3-0.2-0.6-0.4-0.9-0.7c-0.3-0.2-0.6-0.4-0.8-0.6c-0.3-0.2-0.5-0.4-0.7-0.6c-0.4-0.4-0.8-0.8-1.2-1.2
			c-0.3-0.4-0.6-0.7-0.8-1.1c-0.2-0.3-0.3-0.6-0.4-0.9c-0.1-0.2-0.1-0.4-0.2-0.6C49.5,190.7,49.5,190.6,49.5,190.6"/>
		<path opacity="0.51" fill="#9E2E1B" d="M46.4,195.5c0,0,0,0.2,0,0.4c0,0.1,0,0.3,0,0.5c0,0.2,0.1,0.4,0.2,0.6
			c0.1,0.2,0.2,0.4,0.3,0.7c0.1,0.2,0.3,0.5,0.5,0.7c0.1,0.1,0.2,0.2,0.4,0.4c0.1,0.1,0.2,0.2,0.4,0.4c0.3,0.2,0.6,0.5,1,0.7
			c0.2,0.1,0.4,0.2,0.6,0.3c0.2,0.1,0.4,0.2,0.6,0.3c0.4,0.2,0.9,0.4,1.3,0.6c0.4,0.2,0.9,0.3,1.4,0.5c0.2,0.1,0.5,0.1,0.7,0.2
			c0.2,0.1,0.5,0.1,0.7,0.2c0.5,0.1,0.9,0.2,1.3,0.3c0.4,0.1,0.8,0.1,1.1,0.2c0.6,0.1,1,0.1,1,0.1s-0.3-0.1-0.8-0.2
			c-0.2-0.1-0.5-0.1-0.9-0.2c-0.3-0.1-0.7-0.2-1.1-0.3c-0.2-0.1-0.4-0.1-0.6-0.2c-0.2-0.1-0.4-0.2-0.6-0.2c-0.4-0.2-0.8-0.3-1.2-0.5
			c-0.2-0.1-0.4-0.2-0.6-0.3c-0.2-0.1-0.4-0.2-0.6-0.3c-0.2-0.1-0.4-0.2-0.6-0.3c-0.2-0.1-0.3-0.2-0.5-0.3c-0.4-0.2-0.7-0.4-1-0.7
			c-0.3-0.2-0.6-0.5-0.9-0.7c-0.2-0.2-0.5-0.5-0.7-0.7c-0.2-0.2-0.4-0.4-0.6-0.6c-0.3-0.4-0.5-0.7-0.7-1
			C46.5,195.6,46.4,195.5,46.4,195.5"/>
		<path opacity="0.51" fill="#9E2E1B" d="M81.2,185.1c0,0,0.3,0.1,0.7,0.2c0.5,0.1,1.1,0.4,1.8,0.6c0.4,0.1,0.7,0.3,1.1,0.4
			c0.4,0.2,0.8,0.3,1.2,0.5c0.4,0.2,0.8,0.4,1.2,0.6c0.4,0.2,0.8,0.4,1.1,0.6c0.2,0.1,0.4,0.2,0.5,0.3c0.2,0.1,0.3,0.2,0.5,0.3
			c0.1,0.1,0.3,0.2,0.5,0.3c0.1,0.1,0.3,0.2,0.4,0.3c0.3,0.2,0.5,0.5,0.7,0.7c0.1,0.1,0.2,0.2,0.3,0.3c0.1,0.1,0.1,0.2,0.2,0.3
			c0.1,0.2,0.3,0.4,0.4,0.5c0.1,0.2,0.2,0.3,0.2,0.4c0.1,0.2,0.2,0.4,0.2,0.4s0-0.2,0.1-0.4c0-0.1,0-0.3,0-0.5
			c0-0.2-0.1-0.4-0.1-0.6c0-0.1-0.1-0.2-0.1-0.3c-0.1-0.1-0.1-0.2-0.2-0.3c-0.1-0.2-0.3-0.5-0.5-0.7c-0.2-0.2-0.4-0.5-0.8-0.7
			c-0.2-0.1-0.3-0.2-0.5-0.4c-0.2-0.1-0.4-0.2-0.5-0.3c-0.4-0.2-0.8-0.4-1.2-0.6c-0.2-0.1-0.4-0.2-0.6-0.3c-0.2-0.1-0.4-0.2-0.7-0.3
			c-0.5-0.2-0.9-0.3-1.4-0.5c-0.5-0.1-0.9-0.3-1.3-0.4c-0.4-0.1-0.9-0.2-1.2-0.3c-0.4-0.1-0.7-0.1-1-0.2
			C81.5,185.2,81.2,185.1,81.2,185.1"/>
		<path opacity="0.51" fill="#9E2E1B" d="M69.7,184.6c0,0,0.2,0,0.5,0.1c0.3,0.1,0.7,0.1,1.2,0.3c0.5,0.1,1.1,0.3,1.7,0.5
			c0.6,0.2,1.3,0.4,2,0.7c0.7,0.3,1.4,0.6,2.2,0.9c0.4,0.2,0.7,0.3,1.1,0.5c0.4,0.2,0.7,0.4,1.1,0.6c0.4,0.2,0.7,0.4,1.1,0.6
			c0.3,0.2,0.7,0.4,1.1,0.6l0.3,0.2l0.2,0.2c0.2,0.1,0.3,0.2,0.5,0.3c0.3,0.2,0.7,0.5,1,0.7c0.3,0.2,0.6,0.5,0.9,0.7
			c0.3,0.2,0.6,0.5,0.9,0.7c0.6,0.5,1.1,0.9,1.6,1.4c0.5,0.5,1,0.9,1.4,1.4c0.4,0.4,0.8,0.9,1.2,1.2c1.4,1.6,2.2,2.6,2.2,2.6
			s-0.1-0.3-0.2-0.8c-0.2-0.5-0.5-1.2-1-2.1c-0.2-0.4-0.5-0.9-0.9-1.3c-0.2-0.2-0.4-0.5-0.5-0.7c-0.2-0.2-0.4-0.5-0.6-0.7
			c-0.5-0.5-0.9-1-1.5-1.5c-0.3-0.2-0.6-0.5-0.9-0.7c-0.3-0.2-0.6-0.5-0.9-0.7c-0.3-0.2-0.7-0.5-1-0.7c-0.2-0.1-0.3-0.2-0.5-0.3
			l-0.3-0.2l-0.3-0.2c-0.7-0.4-1.5-0.8-2.3-1.2c-0.4-0.2-0.8-0.4-1.2-0.5c-0.4-0.2-0.8-0.3-1.2-0.5c-0.4-0.1-0.8-0.3-1.2-0.4
			c-0.4-0.1-0.8-0.3-1.2-0.4c-0.8-0.2-1.6-0.4-2.3-0.6c-0.7-0.2-1.4-0.3-2-0.4C70.5,184.7,69.7,184.6,69.7,184.6"/>
		<path opacity="0.51" fill="#9E2E1B" d="M56,190.9c0,0,0.1,0.2,0.3,0.6c0.2,0.4,0.6,0.9,1.1,1.5c0.3,0.3,0.6,0.6,0.9,0.9
			c0.3,0.3,0.7,0.7,1.2,1c0.4,0.3,0.9,0.7,1.4,1c0.5,0.3,1.1,0.7,1.6,1c0.6,0.3,1.2,0.7,1.8,1c0.6,0.3,1.2,0.6,1.8,0.9
			c1.2,0.6,2.4,1.1,3.5,1.6c1.1,0.4,2,0.8,2.6,1c0.7,0.2,1,0.4,1,0.4s-0.3-0.2-0.8-0.5c-0.5-0.3-1.3-0.7-2.2-1.2
			c-0.9-0.5-2-1.1-3.1-1.7c-0.6-0.3-1.1-0.6-1.7-0.9c-0.6-0.3-1.2-0.7-1.7-1c-0.6-0.3-1.2-0.7-1.7-1c-0.5-0.3-1.1-0.7-1.5-1
			c-0.5-0.3-0.9-0.6-1.3-0.9c-0.4-0.3-0.8-0.6-1.1-0.9c-0.7-0.5-1.2-1-1.6-1.3C56.2,191.1,56,190.9,56,190.9"/>
		<path opacity="0.51" fill="#9E2E1B" d="M67.9,187.3c0,0,0.3,0.1,0.9,0.4c0.6,0.3,1.4,0.6,2.3,1.1c0.5,0.2,1,0.5,1.5,0.8
			c0.5,0.3,1,0.6,1.6,0.9c0.5,0.3,1.1,0.6,1.6,1c0.5,0.3,1.1,0.7,1.6,1c0.5,0.3,1,0.7,1.5,1c0.5,0.3,1,0.7,1.4,1
			c0.9,0.7,1.8,1.3,2.5,1.8c0.8,0.5,1.4,1,1.8,1.3c0.4,0.3,0.7,0.5,0.7,0.5s-0.2-0.2-0.5-0.6c-0.3-0.3-0.7-0.9-1.3-1.4
			c-0.6-0.6-1.3-1.2-2.2-1.9c-0.4-0.3-0.9-0.7-1.3-1.1c-0.5-0.4-1-0.7-1.5-1.1c-0.5-0.3-1.1-0.7-1.6-1c-0.6-0.3-1.1-0.6-1.7-0.9
			c-0.6-0.3-1.2-0.6-1.8-0.8c-0.6-0.3-1.1-0.5-1.7-0.7c-1.1-0.4-2.1-0.7-2.8-1C68.3,187.5,67.9,187.3,67.9,187.3"/>
	</g>
	<g>
		<circle fill="#FFFFFF" stroke="#DBDCDE" stroke-miterlimit="10" cx="147.2" cy="99.9" r="4.7"/>
		<path fill="#EF4E23" d="M147.4,97.7h0.2v3.6h1v0.4h-2.5v-0.4h1v-2.8l-1,0.6v-0.5L147.4,97.7z"/>
	</g>
	<path fill="#EF4E23" d="M58,144.6v-0.2l1.6-2c0.3-0.3,0.3-0.5,0.3-0.8c0-0.2-0.1-0.3-0.1-0.5c-0.1-0.1-0.3-0.2-0.5-0.2
		c-0.4,0-0.6,0.3-0.7,0.7l-0.5-0.1c0-0.3,0.2-0.6,0.4-0.8c0.2-0.2,0.5-0.3,0.8-0.3c0.4,0,0.7,0.1,0.9,0.3c0.2,0.2,0.3,0.4,0.3,0.8
		c0,0.3-0.1,0.6-0.3,0.9l-1.3,1.6h1.7v0.5H58z"/>
	<g>
		<circle fill="#FFFFFF" stroke="#DBDCDE" stroke-miterlimit="10" cx="147.2" cy="130.5" r="4.7"/>
		<path fill="#EF4E23" d="M146.4,131.3c0.1,0.5,0.3,0.7,0.8,0.7c0.5,0,0.8-0.3,0.8-0.8c0-0.5-0.3-0.8-0.8-0.8c-0.1,0-0.3,0-0.4,0.1
			l-0.2-0.3l0.9-1.2h-1.4v-0.5h2.2v0.2l-1,1.4c0,0,0.1,0,0.2,0c0.3,0,0.6,0.1,0.8,0.3c0.2,0.2,0.3,0.5,0.3,0.9
			c0,0.4-0.1,0.7-0.4,0.9c-0.2,0.2-0.5,0.4-0.9,0.4c-0.3,0-0.6-0.1-0.9-0.3c-0.2-0.2-0.4-0.5-0.4-0.8L146.4,131.3z"/>
	</g>
	<g>
		<circle fill="#FFFFFF" stroke="#DBDCDE" stroke-miterlimit="10" cx="147.2" cy="151.3" r="4.7"/>
		<path fill="#EF4E23" d="M147.2,153.3v-0.9h-1.7v-0.2l1.7-2.9h0.5v2.7h0.6v0.5h-0.6v0.9H147.2z M146.1,151.9h1.1V150L146.1,151.9z"
			/>
	</g>
	<g>
		<circle fill="#FFFFFF" stroke="#DBDCDE" stroke-miterlimit="10" cx="147.2" cy="174.6" r="4.7"/>
		<path fill="#EF4E23" d="M146.5,175.4c0.1,0.5,0.4,0.7,0.8,0.7c0.5,0,0.8-0.4,0.8-0.9c0-0.5-0.3-0.9-0.8-0.9
			c-0.4,0-0.7,0.2-0.9,0.4l-0.3-0.1l0.2-2.2h2v0.5h-1.5l-0.1,1.2c0.2-0.2,0.5-0.3,0.7-0.3c0.8,0,1.2,0.5,1.2,1.3
			c0,0.4-0.1,0.7-0.4,1c-0.2,0.3-0.6,0.4-0.9,0.4c-0.7,0-1.2-0.4-1.3-1.1L146.5,175.4z"/>
	</g>
	<g>
		<circle fill="#FFFFFF" stroke="#DBDCDE" stroke-miterlimit="10" cx="147.2" cy="197.9" r="4.7"/>
		<path fill="#EF4E23" d="M148.2,197.7c0.2,0.2,0.3,0.6,0.3,0.9c0,0.4-0.1,0.7-0.4,0.9c-0.2,0.2-0.5,0.4-0.9,0.4
			c-0.4,0-0.7-0.1-0.9-0.4c-0.2-0.3-0.4-0.6-0.4-0.9c0-0.3,0.1-0.5,0.2-0.7l1.2-2h0.5l-0.9,1.5c0.1,0,0.1,0,0.2,0
			C147.6,197.3,147.9,197.4,148.2,197.7z M147.2,199.5c0.4,0,0.8-0.4,0.8-0.8c0-0.5-0.3-0.8-0.8-0.8c-0.5,0-0.8,0.3-0.8,0.8
			C146.5,199.1,146.8,199.5,147.2,199.5z"/>
	</g>
	<g>
		<circle fill="#FFFFFF" stroke="#DBDCDE" stroke-miterlimit="10" cx="294.2" cy="216.7" r="4.7"/>
		<path fill="#EF4E23" d="M293.8,218.7h-0.5l1.7-3.5H293v-0.5h2.6v0.2L293.8,218.7z"/>
	</g>
	<g>
		<circle fill="#FFFFFF" stroke="#DBDCDE" stroke-miterlimit="10" cx="294.2" cy="239.5" r="4.7"/>
		<path fill="#EF4E23" d="M294.9,239.4c0.4,0.2,0.6,0.5,0.6,1c0,0.4-0.1,0.7-0.4,0.9c-0.2,0.2-0.5,0.3-0.9,0.3
			c-0.3,0-0.6-0.1-0.9-0.3c-0.2-0.2-0.4-0.5-0.4-0.9c0-0.5,0.2-0.8,0.6-1c-0.3-0.1-0.5-0.5-0.5-0.8c0-0.3,0.1-0.6,0.3-0.8
			c0.2-0.2,0.5-0.3,0.8-0.3c0.3,0,0.6,0.1,0.8,0.3c0.2,0.2,0.3,0.5,0.3,0.8C295.4,238.9,295.2,239.3,294.9,239.4z M294.3,239.7
			c-0.2,0-0.4,0.1-0.5,0.2c-0.1,0.1-0.2,0.3-0.2,0.5s0.1,0.4,0.2,0.5c0.1,0.1,0.3,0.2,0.5,0.2c0.2,0,0.4-0.1,0.5-0.2
			c0.1-0.1,0.2-0.3,0.2-0.5s-0.1-0.4-0.2-0.5C294.7,239.8,294.5,239.7,294.3,239.7z M294.3,238c-0.2,0-0.3,0.1-0.4,0.2
			c-0.1,0.1-0.2,0.3-0.2,0.5c0,0.2,0.1,0.3,0.2,0.5c0.1,0.1,0.3,0.2,0.4,0.2c0.2,0,0.3-0.1,0.4-0.2c0.1-0.1,0.2-0.3,0.2-0.5
			c0-0.2-0.1-0.3-0.2-0.5C294.6,238,294.5,238,294.3,238z"/>
	</g>
	<g>
		<rect x="156.4" y="438.7" fill="none" width="310" height="128"/>
		<text transform="matrix(1 0 0 1 156.3927 447.1807)"><tspan x="0" y="0" font-family="'Apercu-Mono'" font-size="12">heart muscle</tspan><tspan x="0" y="14" font-family="'Apercu-Mono'" font-size="12">music track speaker</tspan><tspan x="0" y="28" font-family="'Apercu-Mono'" font-size="12">pushbutton</tspan><tspan x="0" y="42" font-family="'Apercu-Mono'" font-size="12">arduino .wav shield</tspan><tspan x="0" y="56" font-family="'Apercu-Mono'" font-size="12">arduino uno</tspan><tspan x="0" y="70" font-family="'Apercu-Mono'" font-size="12">arduino mega </tspan></text>
		<text transform="matrix(1 0 0 1 350.0594 447.2181)"><tspan x="0" y="0" font-family="'Apercu-Mono'" font-size="12">muscle</tspan><tspan x="0" y="14" font-family="'Apercu-Mono'" font-size="12">conductive magnet</tspan><tspan x="0" y="28" font-family="'Apercu-Mono'" font-size="12">muscle note speaker</tspan><tspan x="0" y="42" font-family="'Apercu-Mono'" font-size="12">bend sensor</tspan></text>
		<g>
			<circle fill="#FFFFFF" stroke="#DBDCDE" stroke-miterlimit="10" cx="145.1" cy="442.9" r="4.7"/>
			<path fill="#EF4E23" d="M145.4,440.7h0.2v3.6h1v0.4h-2.5v-0.4h1v-2.8l-1,0.6v-0.5L145.4,440.7z"/>
		</g>
		<g>
			<circle fill="#FFFFFF" stroke="#DBDCDE" stroke-miterlimit="10" cx="145.2" cy="456.9" r="4.7"/>
			<path fill="#EF4E23" d="M144,458.8v-0.2l1.6-2c0.3-0.3,0.3-0.5,0.3-0.8c0-0.2-0.1-0.3-0.1-0.5c-0.1-0.1-0.3-0.2-0.5-0.2
				c-0.4,0-0.6,0.3-0.7,0.7l-0.5-0.1c0-0.3,0.2-0.6,0.4-0.8c0.2-0.2,0.5-0.3,0.8-0.3c0.4,0,0.7,0.1,0.9,0.3c0.2,0.2,0.3,0.4,0.3,0.8
				c0,0.3-0.1,0.6-0.3,0.9l-1.3,1.6h1.7v0.5H144z"/>
		</g>
		<g>
			<g>
				<circle fill="#FFFFFF" stroke="#DBDCDE" stroke-miterlimit="10" cx="145.2" cy="470.9" r="4.7"/>
			</g>
			<path fill="#EF4E23" d="M144.4,471.7c0.1,0.5,0.3,0.7,0.8,0.7c0.5,0,0.8-0.3,0.8-0.8c0-0.5-0.3-0.8-0.8-0.8c-0.1,0-0.3,0-0.4,0.1
				l-0.2-0.3l0.9-1.2h-1.4v-0.5h2.2v0.2l-1,1.4c0,0,0.1,0,0.2,0c0.3,0,0.6,0.1,0.8,0.3c0.2,0.2,0.3,0.5,0.3,0.9
				c0,0.4-0.1,0.7-0.4,0.9c-0.2,0.2-0.5,0.4-0.9,0.4c-0.3,0-0.6-0.1-0.9-0.3c-0.2-0.2-0.4-0.5-0.4-0.8L144.4,471.7z"/>
		</g>
		<g>
			<circle fill="#FFFFFF" stroke="#DBDCDE" stroke-miterlimit="10" cx="145.2" cy="484.9" r="4.7"/>
			<path fill="#EF4E23" d="M145.2,486.9V486h-1.7v-0.2l1.7-2.9h0.5v2.7h0.6v0.5h-0.6v0.9H145.2z M144.1,485.5h1.1v-1.9L144.1,485.5z
				"/>
		</g>
		<g>
			<circle fill="#FFFFFF" stroke="#DBDCDE" stroke-miterlimit="10" cx="145.2" cy="498.9" r="4.7"/>
			<path fill="#EF4E23" d="M144.5,499.7c0.1,0.5,0.4,0.7,0.8,0.7c0.5,0,0.8-0.4,0.8-0.9c0-0.5-0.3-0.9-0.8-0.9
				c-0.4,0-0.7,0.2-0.9,0.4l-0.3-0.1l0.2-2.2h2v0.5h-1.5l-0.1,1.2c0.2-0.2,0.5-0.3,0.7-0.3c0.8,0,1.2,0.5,1.2,1.3
				c0,0.4-0.1,0.7-0.4,1c-0.2,0.3-0.6,0.4-0.9,0.4c-0.7,0-1.2-0.4-1.3-1.1L144.5,499.7z"/>
		</g>
		<g>
			<circle fill="#FFFFFF" stroke="#DBDCDE" stroke-miterlimit="10" cx="145.2" cy="512.9" r="4.7"/>
			<path fill="#EF4E23" d="M146.2,512.7c0.2,0.2,0.3,0.6,0.3,0.9c0,0.4-0.1,0.7-0.4,0.9c-0.2,0.2-0.5,0.4-0.9,0.4s-0.7-0.1-0.9-0.4
				c-0.2-0.3-0.4-0.6-0.4-0.9c0-0.3,0.1-0.5,0.2-0.7l1.2-2h0.5l-0.9,1.5c0.1,0,0.1,0,0.2,0C145.6,512.3,145.9,512.4,146.2,512.7z
				 M145.2,514.5c0.4,0,0.8-0.4,0.8-0.8c0-0.5-0.3-0.8-0.8-0.8c-0.5,0-0.8,0.3-0.8,0.8C144.5,514.1,144.8,514.5,145.2,514.5z"/>
		</g>
		<g>
			<circle fill="#FFFFFF" stroke="#DBDCDE" stroke-miterlimit="10" cx="339.3" cy="442.7" r="4.7"/>
			<path fill="#EF4E23" d="M338.8,444.7h-0.5l1.7-3.5h-1.9v-0.5h2.6v0.2L338.8,444.7z"/>
		</g>
		<g>
			<circle fill="#FFFFFF" stroke="#DBDCDE" stroke-miterlimit="10" cx="339.3" cy="456.7" r="4.7"/>
			<path fill="#EF4E23" d="M340,456.6c0.4,0.2,0.6,0.5,0.6,1c0,0.4-0.1,0.7-0.4,0.9c-0.2,0.2-0.5,0.3-0.9,0.3
				c-0.3,0-0.6-0.1-0.9-0.3c-0.2-0.2-0.4-0.5-0.4-0.9c0-0.5,0.2-0.8,0.6-1c-0.3-0.1-0.5-0.5-0.5-0.8c0-0.3,0.1-0.6,0.3-0.8
				c0.2-0.2,0.5-0.3,0.8-0.3c0.3,0,0.6,0.1,0.8,0.3c0.2,0.2,0.3,0.5,0.3,0.8C340.4,456.1,340.2,456.5,340,456.6z M339.3,456.9
				c-0.2,0-0.4,0.1-0.5,0.2c-0.1,0.1-0.2,0.3-0.2,0.5c0,0.2,0.1,0.4,0.2,0.5c0.1,0.1,0.3,0.2,0.5,0.2c0.2,0,0.4-0.1,0.5-0.2
				c0.1-0.1,0.2-0.3,0.2-0.5c0-0.2-0.1-0.4-0.2-0.5C339.7,457,339.5,456.9,339.3,456.9z M339.3,455.2c-0.2,0-0.3,0.1-0.4,0.2
				c-0.1,0.1-0.2,0.3-0.2,0.5c0,0.2,0.1,0.3,0.2,0.5c0.1,0.1,0.3,0.2,0.4,0.2c0.2,0,0.3-0.1,0.4-0.2c0.1-0.1,0.2-0.3,0.2-0.5
				c0-0.2-0.1-0.3-0.2-0.5C339.7,455.2,339.5,455.2,339.3,455.2z"/>
		</g>
		<g>
			<circle fill="#FFFFFF" stroke="#DBDCDE" stroke-miterlimit="10" cx="339.3" cy="470.7" r="4.7"/>
			<path fill="#EF4E23" d="M338.4,471c-0.2-0.2-0.3-0.6-0.3-0.9c0-0.4,0.1-0.7,0.4-0.9c0.2-0.3,0.5-0.4,0.9-0.4
				c0.4,0,0.7,0.1,0.9,0.4c0.2,0.2,0.4,0.6,0.4,0.9c0,0.3-0.1,0.5-0.2,0.7l-1.2,2h-0.5l0.9-1.5c-0.1,0-0.1,0-0.2,0
				C338.9,471.4,338.6,471.3,338.4,471z M339.3,469.3c-0.4,0-0.8,0.4-0.8,0.8c0,0.5,0.3,0.8,0.8,0.8c0.5,0,0.8-0.3,0.8-0.8
				C340.1,469.6,339.7,469.3,339.3,469.3z"/>
		</g>
		<g>
			<circle fill="#FFFFFF" stroke="#DBDCDE" stroke-miterlimit="10" cx="339.3" cy="484.7" r="4.7"/>
			<g>
				<path fill="#EF4E23" d="M337.6,482.3h0.2v3.6h1v0.4h-2.5v-0.4h1V483l-1,0.6v-0.5L337.6,482.3z"/>
				<path fill="#EF4E23" d="M340.9,486.3c-0.5,0-0.8-0.2-1.1-0.5c-0.3-0.4-0.4-0.9-0.4-1.5c0-0.6,0.1-1.1,0.4-1.5
					c0.3-0.4,0.6-0.6,1.1-0.6c0.5,0,0.8,0.2,1.1,0.6c0.3,0.4,0.4,0.9,0.4,1.5c0,0.6-0.1,1.1-0.4,1.5
					C341.7,486.1,341.3,486.3,340.9,486.3z M340.1,485.3l1.2-2.5c-0.1-0.1-0.3-0.1-0.4-0.1c-0.6,0-1,0.6-1,1.6
					C339.9,484.7,340,485.1,340.1,485.3z M341.8,484.3c0-0.5-0.1-0.8-0.2-1.1l-1.2,2.5c0.1,0.1,0.3,0.1,0.4,0.1
					C341.5,485.9,341.8,485.2,341.8,484.3z"/>
			</g>
		</g>
	</g>
	<g>
		<circle fill="#FFFFFF" stroke="#DBDCDE" stroke-miterlimit="10" cx="413.3" cy="344.7" r="4.7"/>
		<g>
			<path fill="#EF4E23" d="M411.6,342.3h0.2v3.6h1v0.4h-2.5v-0.4h1V343l-1,0.6v-0.5L411.6,342.3z"/>
			<path fill="#EF4E23" d="M414.9,346.3c-0.5,0-0.8-0.2-1.1-0.5c-0.3-0.4-0.4-0.9-0.4-1.5c0-0.6,0.1-1.1,0.4-1.5
				c0.3-0.4,0.6-0.6,1.1-0.6c0.5,0,0.8,0.2,1.1,0.6c0.3,0.4,0.4,0.9,0.4,1.5c0,0.6-0.1,1.1-0.4,1.5
				C415.7,346.1,415.3,346.3,414.9,346.3z M414.1,345.3l1.2-2.5c-0.1-0.1-0.3-0.1-0.4-0.1c-0.6,0-1,0.6-1,1.6
				C413.9,344.7,414,345.1,414.1,345.3z M415.8,344.3c0-0.5-0.1-0.8-0.2-1.1l-1.2,2.5c0.1,0.1,0.3,0.1,0.4,0.1
				C415.5,345.9,415.8,345.2,415.8,344.3z"/>
		</g>
	</g>
	<g>
		<circle fill="#FFFFFF" stroke="#DBDCDE" stroke-miterlimit="10" cx="316.3" cy="312.3" r="4.7"/>
		<path fill="#EF4E23" d="M315.4,312.6c-0.2-0.2-0.3-0.6-0.3-0.9c0-0.4,0.1-0.7,0.4-0.9c0.2-0.3,0.5-0.4,0.9-0.4s0.7,0.1,0.9,0.4
			c0.2,0.2,0.4,0.6,0.4,0.9c0,0.3-0.1,0.5-0.2,0.7l-1.2,2h-0.5l0.9-1.5c-0.1,0-0.1,0-0.2,0C315.9,313,315.6,312.9,315.4,312.6z
			 M316.3,310.8c-0.4,0-0.8,0.4-0.8,0.8c0,0.5,0.3,0.8,0.8,0.8c0.5,0,0.8-0.3,0.8-0.8C317,311.2,316.7,310.8,316.3,310.8z"/>
	</g>
	<text transform="matrix(1 0 0 1 155.3891 19.622)" font-family="'Apercu-Mono'" font-size="24">exploded view</text>
</g>
</svg>
