<?xml version="1.0" encoding="utf-8"?>
<!-- Generator: Adobe Illustrator 16.0.0, SVG Export Plug-In . SVG Version: 6.00 Build 0)  -->
<!DOCTYPE svg PUBLIC "-//W3C//DTD SVG 1.1//EN" "http://www.w3.org/Graphics/SVG/1.1/DTD/svg11.dtd">
<svg version="1.1" xmlns="http://www.w3.org/2000/svg" xmlns:xlink="http://www.w3.org/1999/xlink" x="0px" y="0px" width="72px"
	 height="72px" viewBox="0 0 72 72" enable-background="new 0 0 72 72" xml:space="preserve">
<g id="Layer_1">
	<path fill="#80F5F2" d="M48.405,8.426c-5.325-8.535-16.432-5.14-16.432,2.846c0,7.985,11.017,11.015,16.432,2.846
		c5.599,8.444,16.155,4.865,16.155-2.848C64.561,3.562,54.097-0.201,48.405,8.426z M34.912,11.272c0-5.783,8.168-7.619,11.932-0.002
		C42.99,18.523,34.912,17.056,34.912,11.272z M50.059,11.271c3.395-7.708,11.839-5.596,11.747,0
		C61.806,16.871,53.362,18.614,50.059,11.271z"/>
	<rect x="37.941" y="10.447" fill="#80F5F2" width="4.865" height="1.558"/>
	<polygon fill="#80F5F2" points="57.218,8.702 55.564,8.702 55.564,10.355 53.912,10.355 53.912,12.005 55.564,12.005 
		55.564,13.566 57.218,13.566 57.218,12.005 58.777,12.005 58.777,10.355 57.218,10.355 	"/>
	<g>
		<g>
			<path fill="#80F5F2" d="M62.312,59.245h-8.567v-1.797h3.314c0.729,0,1.326-0.464,1.592-1.127V43.804
				c-0.266-0.662-0.862-1.127-1.592-1.127h-3.314C53.743,30.154,43.533,19.75,31.007,19.484C17.953,19.219,7.35,29.955,7.35,43.075
				v12.857c0,5.5,4.44,9.938,9.94,9.938h34.798c0.927,0,1.656-0.728,1.656-1.656v-1.657h0.994h5.915v3.292v1.06
				c0,0.929,0.729,1.657,1.658,1.657c0.928,0,1.657-0.729,1.657-1.657v-6.007C63.969,59.974,63.239,59.245,62.312,59.245z
				 M53.744,45.991h2.122v8.144h-2.122V45.991z M50.428,62.558H17.29c-3.646,0-6.627-2.981-6.627-6.626V43.075
				c0-11.199,8.946-20.278,19.88-20.278c0.133,0,0.266,0,0.398,0c10.736,0.198,19.486,9.146,19.486,19.879V62.558z"/>
		</g>
		<path fill="#80F5F2" d="M30.543,27.671c-8.464,0-15.352,6.887-15.352,15.353c0,8.464,6.887,15.352,15.352,15.352
			c8.467,0,15.355-6.888,15.355-15.352C45.898,34.559,39.01,27.671,30.543,27.671z M30.543,55.117
			c-6.668,0-12.093-5.426-12.093-12.093c0-6.668,5.425-12.095,12.093-12.095c6.669,0,12.096,5.427,12.096,12.095
			C42.639,49.691,37.212,55.117,30.543,55.117z"/>
	</g>
	<path d="M63.634,18.367c-0.008-0.002-0.012-0.002-0.021-0.006c-0.016-0.004-0.03-0.008-0.047-0.012L63.634,18.367z"/>
</g>
<g id="Layer_3" display="none">
	<path display="inline" fill="#80F5F2" d="M43.107,64.115C43.106,64.116,43.106,64.116,43.107,64.115
		c-5.672,2.094-11.358,0.844-17.011-2.076l0,0.004c0,0-0.019-0.012-0.049-0.028c-0.077-0.04-0.155-0.076-0.233-0.116l-0.047-0.047
		c-0.851-0.51-3.226-2.021-5.567-4.363c-2.921-2.921-4.409-5.751-4.409-5.751l0.067,0.051c-0.265-0.512-0.521-1.027-0.744-1.55
		c-0.426-1.165,0.234-0.92-0.714-1.868c-0.56-0.559-1.171-1.026-1.819-1.404c-0.483,0.46-1.27,0.43-1.772-0.072l-3.426-3.426
		c-0.506-0.506-0.53-1.311-0.052-1.789l4.589-4.588c0.48-0.48,1.281-0.456,1.787,0.052l3.426,3.427
		c0.51,0.51,0.533,1.309,0.053,1.789l-0.051,0.053c0.378,0.648,0.846,1.262,1.404,1.819c0.901,0.899,3.554,3.387,7.603,0.127
		c0.339-0.338,0.901-0.321,1.263,0.039l15.989-15.992L46.39,31.4l-14.6,14.601c-0.562,0.562-0.641,1.392-0.179,1.854
		c0.463,0.463,1.294,0.384,1.855-0.177l14.6-14.601l1.497,1.494L33.573,50.564c0.355,0.359,0.372,0.923,0.036,1.26
		c-2.023,2.294-2.848,4.97-0.106,7.712c2.481,2.48,5.487,3.462,8.557,2.811c0.297-0.087,1.019-0.245,1.446,0.447
		C43.956,63.521,43.405,64.027,43.107,64.115z"/>
	<path display="inline" fill="#FFFFFF" d="M24.771,23.104l0.958-0.896l4.708-0.021c0,0,0.479,0.708,0.625,0.854
		s3.083,0.083,3.083,0.083l2-16.835l0.708-0.771l4.751,0.104l1.229,1.104l1.188,9.354l11.688,0.729l0.917,1.062l4.562,1.708
		l0.937,0.813L61.73,33.668l-0.5,0.75l-2.146,4.667l-0.562,0.667l-1.604,5.396l-3.501,0.104l-0.896-0.854l-1.666,0.062l-1.459,1.834
		l-4.585-0.273l-6.562-0.521l-1.042-2.646l-1.229-0.958l-2.333-2.376l-0.375-0.479l-1.751-1.624l-1.458-1.604l0.438-4.25
		c-1.833-0.167-3.458-0.771-3.458-0.771l-1.5-2.188l-0.792-0.667L24.771,23.104z"/>
	<path display="inline" fill="#80F5F2" d="M33.596,5.987c0.933,0,1.865,0,2.798,0c0,7.442,0.001,14.884,0,22.326
		c-0.933-0.002-1.864-0.002-2.796-0.001c-0.001-0.932-0.002-1.864-0.002-2.797c-0.933-0.001-1.865-0.001-2.797-0.001
		c0-0.933,0-1.865,0-2.798c0.932,0,1.865,0,2.798,0C33.596,17.14,33.595,11.563,33.596,5.987z"/>
	<path display="inline" fill="#80F5F2" d="M41.99,5.987c0.932,0,1.865,0,2.798,0c0.001,2.778-0.001,5.555,0,8.334
		c3.731,0,7.462,0,11.192,0c0,0.933,0,1.865,0,2.798c-0.934,0-1.865,0-2.797,0c-0.002,1.865,0,3.731-0.002,5.596
		c-0.933,0-1.865,0-2.797,0c-0.001-1.865,0-3.731-0.001-5.597c-1.866,0-3.731,0-5.596,0c-0.001,1.865,0.001,3.731-0.001,5.597
		c-0.932-0.002-1.864-0.002-2.797,0C41.99,17.14,41.99,11.563,41.99,5.987z"/>
	<path display="inline" fill="#80F5F2" d="M25.202,19.918c1.865,0,3.729,0,5.596,0c0,0.933,0,1.865,0,2.798
		c-1.866,0-3.731,0-5.596,0C25.201,21.784,25.201,20.851,25.202,19.918z"/>
	<path display="inline" fill="#80F5F2" d="M61.576,19.918c0.934,0,1.865,0,2.799,0c0,4.664,0,9.327,0,13.99
		c-0.934,0.001-1.865,0.001-2.799,0.001C61.576,29.245,61.576,24.582,61.576,19.918z"/>
	<path display="inline" fill="#80F5F2" d="M22.403,22.716c0.933,0,1.865,0,2.798,0c0,1.865,0,3.73,0,5.595
		c-0.933,0.002-1.865,0.002-2.798,0C22.402,26.447,22.402,24.582,22.403,22.716z"/>
	<path display="inline" fill="#80F5F2" d="M25.201,28.312c0.932,0.001,1.865,0,2.798,0.002c0,0.932,0,1.865,0,2.798
		c-0.932,0-1.865,0-2.798-0.001C25.201,30.177,25.201,29.245,25.201,28.312z"/>
	<path display="inline" fill="#80F5F2" d="M58.779,33.909c0.932-0.001,1.864,0,2.797,0c0,1.845,0,3.692,0,5.538
		c-0.933,0-1.865,0-2.798,0C58.777,37.601,58.777,35.753,58.779,33.909z"/>
	<path display="inline" fill="#80F5F2" d="M33.596,39.444c0.932,0.002,1.865,0,2.796,0.002c0.001,0.932,0.001,1.865,0.001,2.797
		c-0.933,0-1.865,0-2.797,0C33.595,41.31,33.595,40.378,33.596,39.444z"/>
	<path display="inline" fill="#80F5F2" d="M55.98,39.446c0.933,0,1.865-0.002,2.799,0c0,2.797,0,5.596,0,8.393
		c-1.866,0-3.732,0-5.598,0c0-0.932,0-1.865,0.002-2.797c0.931,0,1.863,0,2.797,0C55.98,43.177,55.98,41.312,55.98,39.446z"/>
	<path display="inline" fill="#80F5F2" d="M50.385,42.243c0.932,0,1.864,0,2.797,0c0,0.934,0,1.865,0.002,2.799
		c-0.935,0-1.867,0-2.8,0C50.384,44.108,50.384,43.177,50.385,42.243z"/>
	<path display="inline" fill="#80F5F2" d="M55.98,17.12c1.865,0,3.73,0,5.596,0c0,0.933,0,1.865,0,2.798c-0.933,0-1.865,0-2.797,0
		c-0.001,0.933-0.002,1.865-0.002,2.798c-0.932,0-1.864,0-2.797,0C55.98,20.851,55.98,18.985,55.98,17.12z"/>
	<path display="inline" fill="#80F5F2" d="M41.99,28.312c0.933-0.001,1.865-0.001,2.798,0c0,3.712,0,7.423,0,11.134
		c-0.933,0-1.865,0-2.798,0C41.99,35.734,41.99,32.023,41.99,28.312z"/>
	<path display="inline" fill="#80F5F2" d="M47.586,28.312c0.932-0.001,1.865-0.001,2.799,0c0,3.712,0,7.423,0,11.134
		c-0.934,0-1.867,0-2.799,0C47.586,35.734,47.586,32.023,47.586,28.312z"/>
	<path display="inline" fill="#80F5F2" d="M53.184,28.312c0.932,0.002,1.863,0.001,2.797,0c0,3.712,0,7.424,0,11.135
		c-0.934,0-1.865,0-2.797,0C53.182,35.734,53.182,32.023,53.184,28.312z"/>
	<path display="inline" fill="#80F5F2" d="M28,31.111c0.933,0,1.865-0.001,2.798,0c0.001,1.845,0,3.69,0.001,5.535
		c0.932,0.002,1.864,0.002,2.797,0.002c0,0.934,0,1.865,0.001,2.797c-0.933,0.002-1.865,0.002-2.798,0c0-0.912,0-1.824-0.001-2.736
		c-0.932-0.002-1.865-0.002-2.798-0.002C27.999,34.841,27.999,32.976,28,31.111z"/>
	<path display="inline" fill="#80F5F2" d="M36.394,42.243c0.933,0,1.864,0,2.798,0c0,0.934,0,1.865,0.002,2.799
		c3.729,0,7.461,0,11.19,0c0.001,0.932,0.001,1.865,0,2.799c-4.663,0-9.327,0-13.99,0C36.394,45.974,36.393,44.108,36.394,42.243z"
		/>
	<path display="inline" fill="#80F5F2" d="M36.395,3.189c1.864,0,3.729,0,5.596,0c0,0.933,0,1.865,0,2.798c-1.866,0-3.731,0-5.597,0
		C36.393,5.055,36.393,4.122,36.395,3.189z"/>
</g>
<g id="Layer_2" display="none">
	<g display="inline">
		<path fill="#80F5F2" d="M22.449,37.229h0.001c0.196-0.261,0.315-0.58,0.315-0.931c0-0.545-0.281-1.023-0.706-1.301l-4.667-4.477
			c-0.628-0.603-1.626-0.583-2.229,0.046c-0.604,0.628-0.583,1.626,0.046,2.229l3.709,3.558l-3.754,3.906
			c-0.604,0.628-0.583,1.626,0.044,2.229c0.306,0.293,0.699,0.438,1.092,0.438c0.414,0,0.827-0.161,1.137-0.483l4.766-4.959
			c0.088-0.073,0.168-0.155,0.238-0.248L22.449,37.229z"/>
		<path fill="#80F5F2" d="M29.478,39.969h-5.566c-0.87,0-1.576,0.706-1.576,1.576c0,0.871,0.706,1.576,1.576,1.576h5.566
			c0.869,0,1.576-0.705,1.576-1.576C31.053,40.675,30.347,39.969,29.478,39.969z"/>
		<path fill="#80F5F2" d="M58.835,24.08c1.262-4.877,2.523-9.754,3.784-14.631c0.515-1.982-0.576-3.913-2.523-4.437
			c-2.008-0.539-4.021-1.053-6.038-1.563c-0.935-0.236-1.822-0.082-2.672,0.398c-0.862,0.526-1.418,1.288-1.675,2.284
			C48.17,12.1,46.624,18.07,45.079,24.04H13.472c-3.373,0-6.117,2.743-6.117,6.117v31.907c0,3.373,2.743,6.117,6.117,6.117h44.686
			c3.373,0,6.116-2.744,6.115-6.117V30.157C64.273,27.014,61.89,24.419,58.835,24.08z M51.693,10.745
			c0.329-1.266,0.657-2.534,0.985-3.801c0.119-0.461,0.34-0.59,0.802-0.471c1.895,0.49,3.789,0.979,5.684,1.469
			c0.449,0.116,0.582,0.342,0.468,0.787c-0.373,1.44-0.746,2.879-1.118,4.318c-0.02,0.069-0.04,0.135-0.053,0.177
			c-2.319-0.599-4.625-1.195-6.965-1.801C51.558,11.21,51.633,10.978,51.693,10.745z M51.019,13.518
			c2.276,0.59,4.579,1.187,6.881,1.784c-0.089,0.342-0.187,0.718-0.278,1.077c-2.291-0.592-4.595-1.189-6.883-1.781
			C50.83,14.244,50.927,13.869,51.019,13.518z M50.203,16.676c2.272,0.589,4.576,1.184,6.856,1.774
			c-0.088,0.337-0.187,0.718-0.282,1.081c-2.264-0.586-4.57-1.182-6.857-1.774C50.014,17.402,50.111,17.026,50.203,16.676z
			 M56.246,21.589c-0.211,0.816-0.423,1.635-0.635,2.451l0,0c-0.271,1.05-0.543,2.102-0.815,3.153l0,0
			c-2.003,7.741-4.009,15.487-6.011,23.229c-2.264-0.587-4.564-1.184-6.836-1.771c1.849-7.146,3.701-14.303,5.553-21.458l0,0
			c0.136-0.527,0.272-1.054,0.408-1.581c0.5-1.932,1-3.864,1.5-5.794C51.67,20.405,53.972,21,56.246,21.589z M48.25,52.477
			c-0.338,0.769-0.752,1.496-1.342,2.106c-0.584,0.604-1.188,1.187-1.777,1.785c-0.107,0.11-0.202,0.142-0.354,0.102
			c-0.755-0.204-1.513-0.399-2.272-0.588c-0.137-0.034-0.2-0.094-0.238-0.229c-0.225-0.801-0.463-1.6-0.682-2.401
			c-0.232-0.841-0.241-1.698-0.166-2.545L48.25,52.477z M61.121,62.064c0,1.634-1.33,2.965-2.965,2.965H13.472
			c-1.634,0-2.964-1.331-2.964-2.965V30.157c0-1.634,1.33-2.964,2.964-2.964h30.792c-0.191,0.741-0.383,1.48-0.574,2.221
			c-1.699,6.569-3.402,13.137-5.094,19.707c-0.438,1.697-0.403,3.4,0.066,5.088c0.374,1.343,0.762,2.684,1.15,4.021
			c0.196,0.677,0.37,1.364,0.62,2.02c0.403,1.059,1.366,1.695,2.427,1.667c0.79-0.022,1.434-0.372,1.983-0.921
			c1.375-1.371,2.755-2.738,4.12-4.12c1.228-1.24,2.08-2.709,2.521-4.396c1.173-4.485,2.325-8.975,3.488-13.461
			c1.02-3.943,2.039-7.884,3.059-11.827h0.126c1.635,0,2.965,1.329,2.965,2.964V62.064z"/>
	</g>
</g>
</svg>
